G04*
G04 #@! TF.GenerationSoftware,Altium Limited,Altium Designer,22.6.1 (34)*
G04*
G04 Layer_Physical_Order=1*
G04 Layer_Color=255*
%FSLAX25Y25*%
%MOIN*%
G70*
G04*
G04 #@! TF.SameCoordinates,F07FD183-076F-48D4-B815-8826F00F65DA*
G04*
G04*
G04 #@! TF.FilePolarity,Positive*
G04*
G01*
G75*
%ADD13C,0.01000*%
%ADD14R,0.05544X0.03237*%
G04:AMPARAMS|DCode=15|XSize=55.44mil|YSize=32.37mil|CornerRadius=16.18mil|HoleSize=0mil|Usage=FLASHONLY|Rotation=180.000|XOffset=0mil|YOffset=0mil|HoleType=Round|Shape=RoundedRectangle|*
%AMROUNDEDRECTD15*
21,1,0.05544,0.00000,0,0,180.0*
21,1,0.02307,0.03237,0,0,180.0*
1,1,0.03237,-0.01154,0.00000*
1,1,0.03237,0.01154,0.00000*
1,1,0.03237,0.01154,0.00000*
1,1,0.03237,-0.01154,0.00000*
%
%ADD15ROUNDEDRECTD15*%
%ADD16R,0.10236X0.16535*%
%ADD17R,0.04724X0.05512*%
G04:AMPARAMS|DCode=18|XSize=43.31mil|YSize=23.62mil|CornerRadius=2.01mil|HoleSize=0mil|Usage=FLASHONLY|Rotation=90.000|XOffset=0mil|YOffset=0mil|HoleType=Round|Shape=RoundedRectangle|*
%AMROUNDEDRECTD18*
21,1,0.04331,0.01961,0,0,90.0*
21,1,0.03929,0.02362,0,0,90.0*
1,1,0.00402,0.00980,0.01965*
1,1,0.00402,0.00980,-0.01965*
1,1,0.00402,-0.00980,-0.01965*
1,1,0.00402,-0.00980,0.01965*
%
%ADD18ROUNDEDRECTD18*%
%ADD19R,0.05512X0.05906*%
%ADD20R,0.05512X0.04724*%
%ADD21R,0.14600X0.04700*%
%ADD22R,0.04724X0.09843*%
%ADD23R,0.02362X0.05709*%
%ADD32C,0.17500*%
%ADD33C,0.11500*%
%ADD34R,0.07953X0.07953*%
%ADD35C,0.07953*%
%ADD37R,0.05906X0.05906*%
%ADD38C,0.05906*%
%ADD39C,0.11811*%
%ADD40R,0.05906X0.05906*%
%ADD41C,0.05000*%
G36*
X218599Y391337D02*
X220872Y390885D01*
X223068Y390140D01*
X225147Y389114D01*
X227075Y387826D01*
X228818Y386298D01*
X230346Y384555D01*
X231634Y382627D01*
X232659Y380548D01*
X233405Y378353D01*
X233857Y376079D01*
X233991Y374038D01*
X233986Y374013D01*
Y19772D01*
X233976Y19763D01*
X233976Y19763D01*
X233976Y19763D01*
X233873Y18185D01*
X233433Y15974D01*
X232708Y13839D01*
X231711Y11818D01*
X230459Y9943D01*
X228972Y8248D01*
X227277Y6762D01*
X225403Y5509D01*
X223381Y4512D01*
X221246Y3787D01*
X219035Y3348D01*
X216786Y3200D01*
X216125Y3243D01*
X216035Y3245D01*
Y3235D01*
X20155D01*
X19685Y3235D01*
X19685Y3245D01*
X19655Y3239D01*
X19156Y3232D01*
X17253Y3357D01*
X15107Y3784D01*
X13036Y4487D01*
X11074Y5454D01*
X9256Y6669D01*
X7611Y8111D01*
X6169Y9756D01*
X4954Y11575D01*
X3987Y13536D01*
X3284Y15607D01*
X2857Y17753D01*
X2731Y19671D01*
X2735Y19689D01*
Y373562D01*
X2735Y374016D01*
X2745D01*
X2736Y374059D01*
X2732Y374556D01*
X2860Y376514D01*
X3300Y378723D01*
X4024Y380856D01*
X5020Y382877D01*
X6272Y384750D01*
X7757Y386443D01*
X9451Y387929D01*
X11324Y389180D01*
X13344Y390177D01*
X15478Y390901D01*
X17687Y391340D01*
X19220Y391441D01*
X19714Y391462D01*
X20000Y391456D01*
Y391466D01*
X215581D01*
X216035Y391466D01*
Y391456D01*
X216077Y391464D01*
X216576Y391470D01*
X218599Y391337D01*
D02*
G37*
G36*
X13787Y394500D02*
X11829Y393835D01*
X9344Y392610D01*
X7040Y391071D01*
X4957Y389244D01*
X3130Y387160D01*
X1591Y384857D01*
X500Y382645D01*
X0Y382761D01*
Y395000D01*
X13704D01*
X13787Y394500D01*
D02*
G37*
G36*
X240000Y0D02*
X222377D01*
X222295Y500D01*
X224704Y1318D01*
X227132Y2515D01*
X229382Y4019D01*
X231417Y5803D01*
X233202Y7838D01*
X234705Y10089D01*
X235903Y12517D01*
X236773Y15079D01*
X237301Y17734D01*
X237418Y19522D01*
X237439Y19627D01*
X237439D01*
X237452Y19695D01*
X237452Y20125D01*
Y374013D01*
X237448Y374034D01*
X237448Y374035D01*
X237448D01*
X237285Y376530D01*
X236744Y379248D01*
X235854Y381871D01*
X234628Y384356D01*
X233089Y386660D01*
X231262Y388743D01*
X229179Y390569D01*
X226876Y392109D01*
X224391Y393334D01*
X221767Y394225D01*
X220382Y394500D01*
X220431Y395000D01*
X240000D01*
Y0D01*
D02*
G37*
G36*
X1525Y9595D02*
X3028Y7345D01*
X4811Y5311D01*
X6845Y3528D01*
X9094Y2025D01*
X11521Y828D01*
X12508Y493D01*
X12426Y0D01*
X0D01*
Y11556D01*
X500Y11673D01*
X1525Y9595D01*
D02*
G37*
%LPC*%
G36*
X65354Y375249D02*
X65354Y375249D01*
X65354Y375249D01*
X65057Y375190D01*
X64885Y375156D01*
X64885Y375156D01*
X64885Y375156D01*
X64668Y375010D01*
X64489Y374890D01*
X64489Y374890D01*
X64489Y374890D01*
X64135Y374537D01*
X64135Y374537D01*
X64135Y374537D01*
X63970Y374290D01*
X63870Y374140D01*
Y374140D01*
X63870Y374140D01*
X63817Y373876D01*
X63776Y373672D01*
X63776Y373672D01*
X63776Y373672D01*
Y350000D01*
Y344331D01*
Y320000D01*
X63870Y319532D01*
X64135Y319135D01*
X64532Y318870D01*
X65000Y318776D01*
X128777D01*
Y255468D01*
X128870Y255000D01*
X129135Y254603D01*
X129532Y254338D01*
X130000Y254245D01*
X138101D01*
X138293Y253783D01*
X134135Y249625D01*
X133870Y249228D01*
X133776Y248760D01*
Y225000D01*
Y210000D01*
X133870Y209532D01*
X134135Y209135D01*
X134532Y208870D01*
X135000Y208776D01*
X138777D01*
Y185620D01*
X138870Y185152D01*
X139135Y184755D01*
X139755Y184135D01*
X140152Y183870D01*
X140620Y183776D01*
X155000D01*
X155468Y183870D01*
X155865Y184135D01*
X156130Y184532D01*
X156223Y185000D01*
Y198776D01*
X166684D01*
Y184664D01*
X165102Y183082D01*
X165102Y183082D01*
X164969Y182884D01*
X164837Y182685D01*
X164743Y182217D01*
X164743Y182217D01*
X164286Y181955D01*
X163524D01*
Y181955D01*
X163362Y181755D01*
X160500D01*
Y177999D01*
Y174243D01*
X162527D01*
Y171755D01*
X160500D01*
Y167999D01*
Y164243D01*
X162527D01*
Y140000D01*
X162620Y139532D01*
X162885Y139135D01*
X163282Y138870D01*
X163750Y138777D01*
X220000D01*
X220468Y138870D01*
X220865Y139135D01*
X221130Y139532D01*
X221223Y140000D01*
Y185000D01*
X221130Y185468D01*
X220865Y185865D01*
X220468Y186130D01*
X220000Y186223D01*
X179760D01*
Y188791D01*
X176004D01*
Y189791D01*
X179760D01*
Y191051D01*
X179889Y191217D01*
X180260Y191425D01*
X180270Y191422D01*
X180321Y191428D01*
X180372Y191418D01*
X190000D01*
X190468Y191511D01*
X190865Y191776D01*
X191130Y192173D01*
X191224Y192641D01*
Y200622D01*
X191246Y200659D01*
X191609Y201047D01*
X193437D01*
Y205000D01*
Y208953D01*
X191609D01*
X191246Y209341D01*
X191224Y209378D01*
Y210627D01*
X191642Y210847D01*
X197882D01*
Y219153D01*
X195670D01*
Y221728D01*
X196209Y222039D01*
X196898Y222728D01*
X197385Y223572D01*
X197637Y224513D01*
Y225487D01*
X197385Y226428D01*
X196898Y227272D01*
X196209Y227961D01*
X195365Y228448D01*
X194424Y228700D01*
X193450D01*
X192509Y228448D01*
X191665Y227961D01*
X190976Y227272D01*
X190489Y226428D01*
X190237Y225487D01*
Y224513D01*
X190489Y223572D01*
X190976Y222728D01*
X191665Y222039D01*
X192204Y221728D01*
Y219153D01*
X191642D01*
X191224Y219373D01*
Y220148D01*
X191191Y220310D01*
X191179Y220476D01*
X191145Y220543D01*
X191130Y220616D01*
X191038Y220754D01*
X190963Y220902D01*
X190907Y220951D01*
X190865Y221013D01*
X190727Y221105D01*
X190601Y221213D01*
X190149Y221468D01*
X190078Y221492D01*
X190016Y221533D01*
X189853Y221565D01*
X189696Y221617D01*
X189621Y221612D01*
X189548Y221626D01*
X189385Y221594D01*
X189220Y221581D01*
X189153Y221548D01*
X189080Y221533D01*
X188942Y221441D01*
X188794Y221366D01*
X188745Y221309D01*
X188683Y221268D01*
X188638Y221223D01*
X180000D01*
X179532Y221130D01*
X179135Y220865D01*
X178870Y220468D01*
X178777Y220000D01*
Y209073D01*
X176095D01*
X175919Y209038D01*
X175740Y209021D01*
X175687Y208992D01*
X175627Y208980D01*
X175478Y208880D01*
X175319Y208796D01*
X175281Y208749D01*
X175230Y208715D01*
X175130Y208566D01*
X175016Y208427D01*
X174915Y208236D01*
X174721Y208275D01*
X172760D01*
X172213Y208166D01*
X171870Y207937D01*
X171527Y208166D01*
X170980Y208275D01*
X169838D01*
X169837Y208277D01*
X169898Y208465D01*
X170153Y208807D01*
X170468Y208870D01*
X170865Y209135D01*
X171130Y209532D01*
X171223Y210000D01*
Y212032D01*
X171723Y212183D01*
X171750Y212144D01*
X172213Y211834D01*
X172760Y211725D01*
X174721D01*
X175267Y211834D01*
X175730Y212144D01*
X176040Y212607D01*
X176149Y213154D01*
Y217083D01*
X176040Y217629D01*
X175730Y218093D01*
X175473Y218264D01*
Y225847D01*
X177913D01*
Y234153D01*
X171687D01*
X171223Y234386D01*
Y236044D01*
X176023D01*
Y238267D01*
X179529D01*
X179840Y237728D01*
X180529Y237039D01*
X181373Y236552D01*
X182314Y236300D01*
X183288D01*
X184229Y236552D01*
X185073Y237039D01*
X185761Y237728D01*
X186249Y238572D01*
X186501Y239513D01*
Y240487D01*
X186249Y241428D01*
X185761Y242272D01*
X185073Y242961D01*
X184229Y243448D01*
X183288Y243700D01*
X182314D01*
X181373Y243448D01*
X180529Y242961D01*
X179840Y242272D01*
X179529Y241733D01*
X176023D01*
Y243956D01*
X171514D01*
X171223Y244309D01*
Y255000D01*
X171130Y255468D01*
X170865Y255865D01*
X170468Y256130D01*
X170000Y256224D01*
X158723D01*
Y258052D01*
X165323D01*
Y270294D01*
X158723D01*
Y279706D01*
X165323D01*
Y291948D01*
X158723D01*
Y292500D01*
X158630Y292968D01*
X158365Y293365D01*
X155865Y295865D01*
X155468Y296130D01*
X155000Y296223D01*
X153782D01*
Y320000D01*
X153768Y320072D01*
X154175Y320572D01*
X154573D01*
Y322893D01*
X165127D01*
X165438Y322354D01*
X166127Y321665D01*
X166970Y321178D01*
X167911Y320926D01*
X168886D01*
X169827Y321178D01*
X170670Y321665D01*
X171359Y322354D01*
X171846Y323198D01*
X172098Y324139D01*
Y325113D01*
X171846Y326054D01*
X171359Y326898D01*
X170670Y327587D01*
X169827Y328074D01*
X168886Y328326D01*
X167911D01*
X166970Y328074D01*
X166127Y327587D01*
X165438Y326898D01*
X165127Y326359D01*
X154573D01*
Y328680D01*
X149811D01*
X149398Y328890D01*
Y330000D01*
Y340532D01*
X152558D01*
Y359468D01*
X149398D01*
Y374016D01*
X149348Y374266D01*
X149304Y374484D01*
X149304Y374484D01*
X149304Y374484D01*
X149165Y374693D01*
X149039Y374881D01*
X149039Y374881D01*
X149039Y374881D01*
X148851Y375007D01*
X148642Y375146D01*
X148642Y375146D01*
X148642Y375146D01*
X148425Y375189D01*
X148174Y375239D01*
X65354Y375249D01*
D02*
G37*
G36*
X217235Y381121D02*
X215836D01*
X214463Y380848D01*
X213170Y380313D01*
X212006Y379535D01*
X211016Y378545D01*
X210239Y377381D01*
X209703Y376088D01*
X209430Y374716D01*
Y373316D01*
X209703Y371943D01*
X210239Y370650D01*
X211016Y369486D01*
X212006Y368496D01*
X213170Y367719D01*
X214463Y367183D01*
X215836Y366910D01*
X217235D01*
X218608Y367183D01*
X219901Y367719D01*
X221065Y368496D01*
X222055Y369486D01*
X222832Y370650D01*
X223368Y371943D01*
X223641Y373316D01*
Y374716D01*
X223368Y376088D01*
X222832Y377381D01*
X222055Y378545D01*
X221065Y379535D01*
X219901Y380313D01*
X218608Y380848D01*
X217235Y381121D01*
D02*
G37*
G36*
X24322D02*
X22922D01*
X21549Y380848D01*
X20256Y380313D01*
X19093Y379535D01*
X18103Y378545D01*
X17325Y377381D01*
X16790Y376088D01*
X16517Y374716D01*
Y373316D01*
X16790Y371943D01*
X17325Y370650D01*
X18103Y369486D01*
X19093Y368496D01*
X20256Y367719D01*
X21549Y367183D01*
X22922Y366910D01*
X24322D01*
X25695Y367183D01*
X26988Y367719D01*
X28152Y368496D01*
X29141Y369486D01*
X29919Y370650D01*
X30454Y371943D01*
X30728Y373316D01*
Y374716D01*
X30454Y376088D01*
X29919Y377381D01*
X29141Y378545D01*
X28152Y379535D01*
X26988Y380313D01*
X25695Y380848D01*
X24322Y381121D01*
D02*
G37*
G36*
X27075Y358283D02*
X23622D01*
Y354831D01*
X27075D01*
Y358283D01*
D02*
G37*
G36*
X22622D02*
X19169D01*
Y354831D01*
X22622D01*
Y358283D01*
D02*
G37*
G36*
X27075Y353831D02*
X23622D01*
Y350378D01*
X27075D01*
Y353831D01*
D02*
G37*
G36*
X22622D02*
X19169D01*
Y350378D01*
X22622D01*
Y353831D01*
D02*
G37*
G36*
X224125Y358484D02*
X215820D01*
Y350178D01*
X224125D01*
Y358484D01*
D02*
G37*
G36*
X23642Y348284D02*
X23622D01*
Y344831D01*
X27075D01*
Y344851D01*
X26805Y345856D01*
X26285Y346758D01*
X25549Y347494D01*
X24648Y348014D01*
X23642Y348284D01*
D02*
G37*
G36*
X22622D02*
X22602D01*
X21596Y348014D01*
X20695Y347494D01*
X19959Y346758D01*
X19439Y345856D01*
X19169Y344851D01*
Y344831D01*
X22622D01*
Y348284D01*
D02*
G37*
G36*
X27075Y343831D02*
X23622D01*
Y340378D01*
X23642D01*
X24648Y340647D01*
X25549Y341168D01*
X26285Y341904D01*
X26805Y342805D01*
X27075Y343810D01*
Y343831D01*
D02*
G37*
G36*
X22622D02*
X19169D01*
Y343810D01*
X19439Y342805D01*
X19959Y341904D01*
X20695Y341168D01*
X21596Y340647D01*
X22602Y340378D01*
X22622D01*
Y343831D01*
D02*
G37*
G36*
X220519Y348483D02*
X219426D01*
X218370Y348200D01*
X217423Y347654D01*
X216649Y346881D01*
X216103Y345934D01*
X215820Y344877D01*
Y343784D01*
X216103Y342728D01*
X216649Y341781D01*
X217423Y341008D01*
X218370Y340461D01*
X219426Y340178D01*
X220519D01*
X221575Y340461D01*
X222522Y341008D01*
X223295Y341781D01*
X223842Y342728D01*
X224125Y343784D01*
Y344877D01*
X223842Y345934D01*
X223295Y346881D01*
X222522Y347654D01*
X221575Y348200D01*
X220519Y348483D01*
D02*
G37*
G36*
X23642Y338283D02*
X23622D01*
Y334831D01*
X27075D01*
Y334851D01*
X26805Y335856D01*
X26285Y336758D01*
X25549Y337494D01*
X24648Y338014D01*
X23642Y338283D01*
D02*
G37*
G36*
X22622D02*
X22602D01*
X21596Y338014D01*
X20695Y337494D01*
X19959Y336758D01*
X19439Y335856D01*
X19169Y334851D01*
Y334831D01*
X22622D01*
Y338283D01*
D02*
G37*
G36*
X27075Y333831D02*
X23622D01*
Y330378D01*
X23642D01*
X24648Y330647D01*
X25549Y331168D01*
X26285Y331904D01*
X26805Y332805D01*
X27075Y333810D01*
Y333831D01*
D02*
G37*
G36*
X22622D02*
X19169D01*
Y333810D01*
X19439Y332805D01*
X19959Y331904D01*
X20695Y331168D01*
X21596Y330647D01*
X22602Y330378D01*
X22622D01*
Y333831D01*
D02*
G37*
G36*
X220519Y338484D02*
X219426D01*
X218370Y338200D01*
X217423Y337654D01*
X216649Y336881D01*
X216103Y335934D01*
X215820Y334877D01*
Y333784D01*
X216103Y332728D01*
X216649Y331781D01*
X217423Y331008D01*
X218370Y330461D01*
X219426Y330178D01*
X220519D01*
X221575Y330461D01*
X222522Y331008D01*
X223295Y331781D01*
X223842Y332728D01*
X224125Y333784D01*
Y334877D01*
X223842Y335934D01*
X223295Y336881D01*
X222522Y337654D01*
X221575Y338200D01*
X220519Y338484D01*
D02*
G37*
G36*
Y328484D02*
X219426D01*
X218370Y328201D01*
X217423Y327654D01*
X216649Y326881D01*
X216103Y325934D01*
X215820Y324877D01*
Y323784D01*
X216103Y322728D01*
X216649Y321781D01*
X217423Y321008D01*
X218370Y320461D01*
X219426Y320178D01*
X220519D01*
X221575Y320461D01*
X222522Y321008D01*
X223295Y321781D01*
X223842Y322728D01*
X224125Y323784D01*
Y324877D01*
X223842Y325934D01*
X223295Y326881D01*
X222522Y327654D01*
X221575Y328201D01*
X220519Y328484D01*
D02*
G37*
G36*
X23669D02*
X22575D01*
X21519Y328201D01*
X20572Y327654D01*
X19799Y326881D01*
X19252Y325934D01*
X18969Y324877D01*
Y323784D01*
X19252Y322728D01*
X19799Y321781D01*
X20572Y321008D01*
X21519Y320461D01*
X22575Y320178D01*
X23669D01*
X24725Y320461D01*
X25672Y321008D01*
X26445Y321781D01*
X26992Y322728D01*
X27275Y323784D01*
Y324877D01*
X26992Y325934D01*
X26445Y326881D01*
X25672Y327654D01*
X24725Y328201D01*
X23669Y328484D01*
D02*
G37*
G36*
X220519Y318483D02*
X219426D01*
X218370Y318200D01*
X217423Y317654D01*
X216649Y316881D01*
X216103Y315934D01*
X215820Y314877D01*
Y313784D01*
X216103Y312728D01*
X216649Y311781D01*
X217423Y311008D01*
X218370Y310461D01*
X219426Y310178D01*
X220519D01*
X221575Y310461D01*
X222522Y311008D01*
X223295Y311781D01*
X223842Y312728D01*
X224125Y313784D01*
Y314877D01*
X223842Y315934D01*
X223295Y316881D01*
X222522Y317654D01*
X221575Y318200D01*
X220519Y318483D01*
D02*
G37*
G36*
X23669D02*
X22575D01*
X21519Y318200D01*
X20572Y317654D01*
X19799Y316881D01*
X19252Y315934D01*
X18969Y314877D01*
Y313784D01*
X19252Y312728D01*
X19799Y311781D01*
X20572Y311008D01*
X21519Y310461D01*
X22575Y310178D01*
X23669D01*
X24725Y310461D01*
X25672Y311008D01*
X26445Y311781D01*
X26992Y312728D01*
X27275Y313784D01*
Y314877D01*
X26992Y315934D01*
X26445Y316881D01*
X25672Y317654D01*
X24725Y318200D01*
X23669Y318483D01*
D02*
G37*
G36*
X49480Y319800D02*
X47520D01*
X45598Y319418D01*
X43787Y318668D01*
X42157Y317579D01*
X40771Y316193D01*
X39682Y314563D01*
X38932Y312752D01*
X38550Y310830D01*
Y308870D01*
X38932Y306948D01*
X39682Y305137D01*
X40771Y303507D01*
X42157Y302121D01*
X43787Y301032D01*
X45598Y300282D01*
X47520Y299900D01*
X49480D01*
X51402Y300282D01*
X53213Y301032D01*
X54843Y302121D01*
X56229Y303507D01*
X57318Y305137D01*
X58068Y306948D01*
X58450Y308870D01*
Y310830D01*
X58068Y312752D01*
X57318Y314563D01*
X56229Y316193D01*
X54843Y317579D01*
X53213Y318668D01*
X51402Y319418D01*
X49480Y319800D01*
D02*
G37*
G36*
X197693Y208953D02*
X194437D01*
Y205500D01*
X197693D01*
Y208953D01*
D02*
G37*
G36*
Y204500D02*
X194437D01*
Y201047D01*
X197693D01*
Y204500D01*
D02*
G37*
G36*
X165780Y194619D02*
X162508D01*
Y192501D01*
X165780D01*
Y194619D01*
D02*
G37*
G36*
X161508D02*
X158236D01*
Y192501D01*
X161508D01*
Y194619D01*
D02*
G37*
G36*
X165780Y191501D02*
X162508D01*
Y189383D01*
X165780D01*
Y191501D01*
D02*
G37*
G36*
X161508D02*
X158236D01*
Y189383D01*
X161508D01*
Y191501D01*
D02*
G37*
G36*
X159500Y181755D02*
X156638D01*
Y178499D01*
X159500D01*
Y181755D01*
D02*
G37*
G36*
Y177499D02*
X156638D01*
Y174243D01*
X159500D01*
Y177499D01*
D02*
G37*
G36*
Y171755D02*
X156638D01*
Y168499D01*
X159500D01*
Y171755D01*
D02*
G37*
G36*
Y167499D02*
X156638D01*
Y164243D01*
X159500D01*
Y167499D01*
D02*
G37*
G36*
X161118Y159268D02*
X155500D01*
Y150500D01*
X161118D01*
Y159268D01*
D02*
G37*
G36*
X154500D02*
X148882D01*
Y150500D01*
X154500D01*
Y159268D01*
D02*
G37*
G36*
X161118Y149500D02*
X155500D01*
Y140732D01*
X161118D01*
Y149500D01*
D02*
G37*
G36*
X154500D02*
X148882D01*
Y140732D01*
X154500D01*
Y149500D01*
D02*
G37*
G36*
X112480Y102300D02*
X110520D01*
X108598Y101918D01*
X106787Y101168D01*
X105157Y100079D01*
X103771Y98693D01*
X102682Y97063D01*
X101932Y95252D01*
X101550Y93330D01*
Y91370D01*
X101932Y89448D01*
X102682Y87637D01*
X103771Y86007D01*
X105157Y84621D01*
X106787Y83532D01*
X108598Y82782D01*
X110520Y82400D01*
X112480D01*
X114402Y82782D01*
X116213Y83532D01*
X117843Y84621D01*
X119229Y86007D01*
X120318Y87637D01*
X121068Y89448D01*
X121450Y91370D01*
Y93330D01*
X121068Y95252D01*
X120318Y97063D01*
X119229Y98693D01*
X117843Y100079D01*
X116213Y101168D01*
X114402Y101918D01*
X112480Y102300D01*
D02*
G37*
G36*
X27275Y82893D02*
X18969D01*
Y74587D01*
X27275D01*
Y82893D01*
D02*
G37*
G36*
X224113Y82881D02*
X215808D01*
Y74576D01*
X224113D01*
Y82881D01*
D02*
G37*
G36*
X210507D02*
X209414D01*
X208358Y82598D01*
X207411Y82051D01*
X206638Y81278D01*
X206091Y80331D01*
X205808Y79275D01*
Y78182D01*
X206091Y77126D01*
X206638Y76178D01*
X207411Y75405D01*
X208358Y74859D01*
X209414Y74576D01*
X210507D01*
X211563Y74859D01*
X212510Y75405D01*
X213284Y76178D01*
X213830Y77126D01*
X214113Y78182D01*
Y79275D01*
X213830Y80331D01*
X213284Y81278D01*
X212510Y82051D01*
X211563Y82598D01*
X210507Y82881D01*
D02*
G37*
G36*
X200507D02*
X199414D01*
X198358Y82598D01*
X197411Y82051D01*
X196638Y81278D01*
X196091Y80331D01*
X195808Y79275D01*
Y78182D01*
X196091Y77126D01*
X196638Y76178D01*
X197411Y75405D01*
X198358Y74859D01*
X199414Y74576D01*
X200507D01*
X201564Y74859D01*
X202510Y75405D01*
X203284Y76178D01*
X203830Y77126D01*
X204113Y78182D01*
Y79275D01*
X203830Y80331D01*
X203284Y81278D01*
X202510Y82051D01*
X201564Y82598D01*
X200507Y82881D01*
D02*
G37*
G36*
X190507D02*
X189414D01*
X188358Y82598D01*
X187411Y82051D01*
X186638Y81278D01*
X186091Y80331D01*
X185808Y79275D01*
Y78182D01*
X186091Y77126D01*
X186638Y76178D01*
X187411Y75405D01*
X188358Y74859D01*
X189414Y74576D01*
X190507D01*
X191563Y74859D01*
X192510Y75405D01*
X193284Y76178D01*
X193830Y77126D01*
X194113Y78182D01*
Y79275D01*
X193830Y80331D01*
X193284Y81278D01*
X192510Y82051D01*
X191563Y82598D01*
X190507Y82881D01*
D02*
G37*
G36*
X180507D02*
X179414D01*
X178358Y82598D01*
X177411Y82051D01*
X176638Y81278D01*
X176091Y80331D01*
X175808Y79275D01*
Y78182D01*
X176091Y77126D01*
X176638Y76178D01*
X177411Y75405D01*
X178358Y74859D01*
X179414Y74576D01*
X180507D01*
X181563Y74859D01*
X182510Y75405D01*
X183284Y76178D01*
X183830Y77126D01*
X184113Y78182D01*
Y79275D01*
X183830Y80331D01*
X183284Y81278D01*
X182510Y82051D01*
X181563Y82598D01*
X180507Y82881D01*
D02*
G37*
G36*
X23669Y72893D02*
X22575D01*
X21519Y72610D01*
X20572Y72063D01*
X19799Y71290D01*
X19252Y70343D01*
X18969Y69287D01*
Y68193D01*
X19252Y67137D01*
X19799Y66190D01*
X20572Y65417D01*
X21519Y64870D01*
X22575Y64587D01*
X23669D01*
X24725Y64870D01*
X25672Y65417D01*
X26445Y66190D01*
X26992Y67137D01*
X27275Y68193D01*
Y69287D01*
X26992Y70343D01*
X26445Y71290D01*
X25672Y72063D01*
X24725Y72610D01*
X23669Y72893D01*
D02*
G37*
G36*
Y62893D02*
X22575D01*
X21519Y62610D01*
X20572Y62063D01*
X19799Y61290D01*
X19252Y60343D01*
X18969Y59287D01*
Y58193D01*
X19252Y57137D01*
X19799Y56190D01*
X20572Y55417D01*
X21519Y54870D01*
X22575Y54587D01*
X23669D01*
X24725Y54870D01*
X25672Y55417D01*
X26445Y56190D01*
X26992Y57137D01*
X27275Y58193D01*
Y59287D01*
X26992Y60343D01*
X26445Y61290D01*
X25672Y62063D01*
X24725Y62610D01*
X23669Y62893D01*
D02*
G37*
G36*
X85176Y62926D02*
X74824D01*
Y52574D01*
X85176D01*
Y62926D01*
D02*
G37*
G36*
X23669Y52893D02*
X22575D01*
X21519Y52610D01*
X20572Y52063D01*
X19799Y51290D01*
X19252Y50343D01*
X18969Y49287D01*
Y48193D01*
X19252Y47137D01*
X19799Y46190D01*
X20572Y45417D01*
X21519Y44870D01*
X22575Y44587D01*
X23669D01*
X24725Y44870D01*
X25672Y45417D01*
X26445Y46190D01*
X26992Y47137D01*
X27275Y48193D01*
Y49287D01*
X26992Y50343D01*
X26445Y51290D01*
X25672Y52063D01*
X24725Y52610D01*
X23669Y52893D01*
D02*
G37*
G36*
Y42893D02*
X22575D01*
X21519Y42610D01*
X20572Y42063D01*
X19799Y41290D01*
X19252Y40343D01*
X18969Y39287D01*
Y38193D01*
X19252Y37137D01*
X19799Y36190D01*
X20572Y35417D01*
X21519Y34870D01*
X22575Y34587D01*
X23669D01*
X24725Y34870D01*
X25672Y35417D01*
X26445Y36190D01*
X26992Y37137D01*
X27275Y38193D01*
Y39287D01*
X26992Y40343D01*
X26445Y41290D01*
X25672Y42063D01*
X24725Y42610D01*
X23669Y42893D01*
D02*
G37*
G36*
X220235Y31728D02*
X218836D01*
X217463Y31455D01*
X216170Y30919D01*
X215006Y30141D01*
X214016Y29151D01*
X213239Y27988D01*
X212703Y26695D01*
X212430Y25322D01*
Y23922D01*
X212703Y22549D01*
X213239Y21256D01*
X214016Y20092D01*
X215006Y19103D01*
X216170Y18325D01*
X217463Y17790D01*
X218836Y17516D01*
X220235D01*
X221608Y17790D01*
X222901Y18325D01*
X224065Y19103D01*
X225055Y20092D01*
X225832Y21256D01*
X226368Y22549D01*
X226641Y23922D01*
Y25322D01*
X226368Y26695D01*
X225832Y27988D01*
X225055Y29151D01*
X224065Y30141D01*
X222901Y30919D01*
X221608Y31455D01*
X220235Y31728D01*
D02*
G37*
G36*
X24322Y30728D02*
X22922D01*
X21549Y30454D01*
X20256Y29919D01*
X19093Y29141D01*
X18103Y28152D01*
X17325Y26988D01*
X16790Y25695D01*
X16517Y24322D01*
Y22922D01*
X16790Y21549D01*
X17325Y20256D01*
X18103Y19093D01*
X19093Y18103D01*
X20256Y17325D01*
X21549Y16790D01*
X22922Y16517D01*
X24322D01*
X25695Y16790D01*
X26988Y17325D01*
X28152Y18103D01*
X29141Y19093D01*
X29919Y20256D01*
X30454Y21549D01*
X30728Y22922D01*
Y24322D01*
X30454Y25695D01*
X29919Y26988D01*
X29141Y28152D01*
X28152Y29141D01*
X26988Y29919D01*
X25695Y30454D01*
X24322Y30728D01*
D02*
G37*
%LPD*%
G36*
X148174Y374016D02*
Y359268D01*
X146740D01*
Y350000D01*
Y340732D01*
X148174D01*
Y330000D01*
Y320000D01*
X65000D01*
Y344331D01*
Y350000D01*
Y373672D01*
X65354Y374025D01*
X148174Y374016D01*
D02*
G37*
G36*
X152558Y296223D02*
X146240D01*
X145772Y296130D01*
X145375Y295865D01*
X145110Y295468D01*
X145017Y295000D01*
Y291748D01*
X142576D01*
Y285827D01*
Y279906D01*
X145017D01*
Y270094D01*
X142576D01*
Y264173D01*
X142076D01*
Y263673D01*
X138714D01*
Y258252D01*
X142109D01*
X142300Y257790D01*
X139978Y255468D01*
X130000D01*
Y318776D01*
X146270D01*
Y315874D01*
X150633D01*
Y319228D01*
X149885D01*
X149598Y319704D01*
X149759Y320000D01*
X152558D01*
Y296223D01*
D02*
G37*
G36*
X157500Y292500D02*
Y255000D01*
X170000D01*
Y244309D01*
X169646Y243956D01*
X168898Y243956D01*
X168481Y243756D01*
X168398D01*
X165874D01*
Y240000D01*
Y236244D01*
X168481D01*
X168898Y236044D01*
X169153Y236044D01*
X170000D01*
Y234386D01*
X169839Y233953D01*
X169500Y233953D01*
X166583D01*
Y230000D01*
Y226047D01*
X169500D01*
X169839Y226047D01*
X170000Y225614D01*
Y210000D01*
X135000D01*
Y225000D01*
Y248760D01*
X144292Y258052D01*
X145638D01*
Y259398D01*
X146240Y260000D01*
Y295000D01*
X155000D01*
X157500Y292500D01*
D02*
G37*
G36*
X168062Y208277D02*
X167956Y208187D01*
X167606Y207998D01*
X167240Y208071D01*
X166760D01*
Y204882D01*
Y201693D01*
X167240D01*
X167606Y201766D01*
X167956Y201577D01*
X168106Y201450D01*
Y200000D01*
X155000D01*
Y185000D01*
X140620D01*
X140000Y185620D01*
Y208776D01*
X168037D01*
X168062Y208277D01*
D02*
G37*
G36*
X190000Y220148D02*
Y219373D01*
X189879Y219109D01*
X189553Y218953D01*
X189470D01*
X186552D01*
Y215000D01*
Y211047D01*
X189553D01*
X189879Y210891D01*
X190000Y210627D01*
Y209378D01*
X189884Y209106D01*
X189564Y208953D01*
X189481D01*
X186563D01*
Y205000D01*
Y201047D01*
X189564D01*
X189884Y200894D01*
X190000Y200622D01*
Y192641D01*
X180372D01*
X179960Y192853D01*
X179760Y193288D01*
Y195878D01*
X176004D01*
Y196378D01*
X175504D01*
Y199740D01*
X172461D01*
Y201448D01*
X172760Y201693D01*
X173240D01*
Y204882D01*
X173740D01*
Y205382D01*
X175945D01*
Y206846D01*
X175852Y207315D01*
X175828Y207350D01*
X176095Y207850D01*
X180000D01*
Y220000D01*
X189145D01*
X189548Y220403D01*
X190000Y220148D01*
D02*
G37*
G36*
X170500Y201693D02*
X170766D01*
X170860Y201669D01*
X171060Y201551D01*
X171237Y201234D01*
Y199740D01*
X171330Y199272D01*
X171596Y198875D01*
X171992Y198610D01*
X172048Y198599D01*
Y192816D01*
Y185729D01*
X172461D01*
Y185310D01*
X172771Y185000D01*
X220000D01*
Y140000D01*
X163750D01*
Y164243D01*
X166587D01*
Y167999D01*
Y171755D01*
X163750D01*
Y174243D01*
X166587D01*
Y177999D01*
Y181755D01*
X166158D01*
X165967Y182217D01*
X167907Y184157D01*
Y198776D01*
X168106D01*
X168574Y198870D01*
X168971Y199135D01*
X169236Y199532D01*
X169329Y200000D01*
Y201450D01*
X169500Y201550D01*
Y204882D01*
X170500D01*
Y201693D01*
D02*
G37*
%LPC*%
G36*
X145740Y359268D02*
X140122D01*
Y350500D01*
X145740D01*
Y359268D01*
D02*
G37*
G36*
X80655Y347226D02*
X80500D01*
Y342750D01*
X84976D01*
Y342905D01*
X84637Y344171D01*
X83982Y345306D01*
X83056Y346232D01*
X81921Y346887D01*
X80655Y347226D01*
D02*
G37*
G36*
X79500D02*
X79345D01*
X78079Y346887D01*
X76944Y346232D01*
X76018Y345306D01*
X75363Y344171D01*
X75024Y342905D01*
Y342750D01*
X79500D01*
Y347226D01*
D02*
G37*
G36*
X145740Y349500D02*
X140122D01*
Y340732D01*
X145740D01*
Y349500D01*
D02*
G37*
G36*
X84976Y341750D02*
X80500D01*
Y337274D01*
X80655D01*
X81921Y337613D01*
X83056Y338268D01*
X83982Y339194D01*
X84637Y340329D01*
X84976Y341595D01*
Y341750D01*
D02*
G37*
G36*
X79500D02*
X75024D01*
Y341595D01*
X75363Y340329D01*
X76018Y339194D01*
X76944Y338268D01*
X78079Y337613D01*
X79345Y337274D01*
X79500D01*
Y341750D01*
D02*
G37*
G36*
X112185Y349200D02*
X110816D01*
X109473Y348933D01*
X108208Y348409D01*
X107070Y347648D01*
X106102Y346680D01*
X105341Y345542D01*
X104817Y344277D01*
X104550Y342934D01*
Y341565D01*
X104817Y340223D01*
X105341Y338958D01*
X106102Y337820D01*
X107070Y336852D01*
X108208Y336091D01*
X109473Y335567D01*
X110816Y335300D01*
X112185D01*
X113527Y335567D01*
X114792Y336091D01*
X115930Y336852D01*
X116898Y337820D01*
X117659Y338958D01*
X118183Y340223D01*
X118450Y341565D01*
Y342934D01*
X118183Y344277D01*
X117659Y345542D01*
X116898Y346680D01*
X115930Y347648D01*
X114792Y348409D01*
X113527Y348933D01*
X112185Y349200D01*
D02*
G37*
G36*
X146892Y328480D02*
X145211D01*
Y325126D01*
X146892D01*
Y328480D01*
D02*
G37*
G36*
X144211D02*
X142530D01*
Y325126D01*
X144211D01*
Y328480D01*
D02*
G37*
G36*
X146892Y324126D02*
X145211D01*
Y320772D01*
X146892D01*
Y324126D01*
D02*
G37*
G36*
X144211D02*
X142530D01*
Y320772D01*
X144211D01*
Y324126D01*
D02*
G37*
G36*
X150633Y314874D02*
X148951D01*
Y311520D01*
X150633D01*
Y314874D01*
D02*
G37*
G36*
X147951D02*
X146270D01*
Y311520D01*
X147951D01*
Y314874D01*
D02*
G37*
G36*
X141576Y291748D02*
X138714D01*
Y286327D01*
X141576D01*
Y291748D01*
D02*
G37*
G36*
Y285327D02*
X138714D01*
Y279906D01*
X141576D01*
Y285327D01*
D02*
G37*
G36*
Y270094D02*
X138714D01*
Y264673D01*
X141576D01*
Y270094D01*
D02*
G37*
G36*
X155280Y291748D02*
X152418D01*
Y286327D01*
X155280D01*
Y291748D01*
D02*
G37*
G36*
X151418D02*
X148556D01*
Y286327D01*
X151418D01*
Y291748D01*
D02*
G37*
G36*
X155280Y285327D02*
X152418D01*
Y279906D01*
X155280D01*
Y285327D01*
D02*
G37*
G36*
X151418D02*
X148556D01*
Y279906D01*
X151418D01*
Y285327D01*
D02*
G37*
G36*
X155280Y270094D02*
X152418D01*
Y264673D01*
X155280D01*
Y270094D01*
D02*
G37*
G36*
X151418D02*
X148556D01*
Y264673D01*
X151418D01*
Y270094D01*
D02*
G37*
G36*
X155280Y263673D02*
X152418D01*
Y258252D01*
X155280D01*
Y263673D01*
D02*
G37*
G36*
X151418D02*
X148556D01*
Y258252D01*
X151418D01*
Y263673D01*
D02*
G37*
G36*
X164874Y243756D02*
X162012D01*
Y240500D01*
X164874D01*
Y243756D01*
D02*
G37*
G36*
Y239500D02*
X162012D01*
Y236244D01*
X164874D01*
Y239500D01*
D02*
G37*
G36*
X165583Y233953D02*
X162327D01*
Y230500D01*
X165583D01*
Y233953D01*
D02*
G37*
G36*
Y229500D02*
X162327D01*
Y226047D01*
X165583D01*
Y229500D01*
D02*
G37*
G36*
X158300Y218850D02*
X150500D01*
Y216000D01*
X158300D01*
Y218850D01*
D02*
G37*
G36*
X149500D02*
X141700D01*
Y216000D01*
X149500D01*
Y218850D01*
D02*
G37*
G36*
X167240Y218307D02*
X166760D01*
Y215618D01*
X168465D01*
Y217083D01*
X168371Y217551D01*
X168106Y217948D01*
X167709Y218214D01*
X167240Y218307D01*
D02*
G37*
G36*
X165760D02*
X165279D01*
X164811Y218214D01*
X164414Y217948D01*
X164148Y217551D01*
X164055Y217083D01*
Y215618D01*
X165760D01*
Y218307D01*
D02*
G37*
G36*
X158300Y215000D02*
X150500D01*
Y212150D01*
X158300D01*
Y215000D01*
D02*
G37*
G36*
X149500D02*
X141700D01*
Y212150D01*
X149500D01*
Y215000D01*
D02*
G37*
G36*
X168465Y214618D02*
X166760D01*
Y211929D01*
X167240D01*
X167709Y212022D01*
X168106Y212288D01*
X168371Y212685D01*
X168465Y213154D01*
Y214618D01*
D02*
G37*
G36*
X165760D02*
X164055D01*
Y213154D01*
X164148Y212685D01*
X164414Y212288D01*
X164811Y212022D01*
X165279Y211929D01*
X165760D01*
Y214618D01*
D02*
G37*
G36*
X165760Y208071D02*
X165279D01*
X164811Y207978D01*
X164414Y207712D01*
X164148Y207315D01*
X164055Y206846D01*
Y205382D01*
X165760D01*
Y208071D01*
D02*
G37*
G36*
X158300Y207850D02*
X150500D01*
Y205000D01*
X158300D01*
Y207850D01*
D02*
G37*
G36*
X149500D02*
X141700D01*
Y205000D01*
X149500D01*
Y207850D01*
D02*
G37*
G36*
X165760Y204382D02*
X164055D01*
Y202917D01*
X164148Y202449D01*
X164414Y202052D01*
X164811Y201786D01*
X165279Y201693D01*
X165760D01*
Y204382D01*
D02*
G37*
G36*
X158300Y204000D02*
X150500D01*
Y201150D01*
X158300D01*
Y204000D01*
D02*
G37*
G36*
X149500D02*
X141700D01*
Y201150D01*
X149500D01*
Y204000D01*
D02*
G37*
G36*
X149146Y194642D02*
X148492D01*
Y192501D01*
X151721D01*
X151697Y192684D01*
X151433Y193322D01*
X151013Y193868D01*
X150466Y194288D01*
X149829Y194552D01*
X149146Y194642D01*
D02*
G37*
G36*
X147492D02*
X146838D01*
X146155Y194552D01*
X145518Y194288D01*
X144971Y193868D01*
X144551Y193322D01*
X144287Y192684D01*
X144263Y192501D01*
X147492D01*
Y194642D01*
D02*
G37*
G36*
X151721Y191501D02*
X148492D01*
Y189360D01*
X149146D01*
X149829Y189450D01*
X150466Y189714D01*
X151013Y190134D01*
X151433Y190681D01*
X151697Y191317D01*
X151721Y191501D01*
D02*
G37*
G36*
X147492D02*
X144263D01*
X144287Y191317D01*
X144551Y190681D01*
X144971Y190134D01*
X145518Y189714D01*
X146155Y189450D01*
X146838Y189360D01*
X147492D01*
Y191501D01*
D02*
G37*
G36*
X185552Y218953D02*
X182296D01*
Y215500D01*
X185552D01*
Y218953D01*
D02*
G37*
G36*
Y214500D02*
X182296D01*
Y211047D01*
X185552D01*
Y214500D01*
D02*
G37*
G36*
X185563Y208953D02*
X182307D01*
Y205500D01*
X185563D01*
Y208953D01*
D02*
G37*
G36*
X175945Y204382D02*
X174240D01*
Y201693D01*
X174721D01*
X175189Y201786D01*
X175586Y202052D01*
X175852Y202449D01*
X175945Y202917D01*
Y204382D01*
D02*
G37*
G36*
X185563Y204500D02*
X182307D01*
Y201047D01*
X185563D01*
Y204500D01*
D02*
G37*
G36*
X179760Y199740D02*
X176504D01*
Y196878D01*
X179760D01*
Y199740D01*
D02*
G37*
G36*
X210711Y183423D02*
Y180750D01*
X213383D01*
X213222Y181351D01*
X212761Y182149D01*
X212110Y182801D01*
X211312Y183262D01*
X210711Y183423D01*
D02*
G37*
G36*
X209211D02*
X208610Y183262D01*
X207812Y182801D01*
X207160Y182149D01*
X206699Y181351D01*
X206538Y180750D01*
X209211D01*
Y183423D01*
D02*
G37*
G36*
X200711D02*
Y180750D01*
X203383D01*
X203222Y181351D01*
X202761Y182149D01*
X202110Y182801D01*
X201312Y183262D01*
X200711Y183423D01*
D02*
G37*
G36*
X199211D02*
X198610Y183262D01*
X197812Y182801D01*
X197160Y182149D01*
X196699Y181351D01*
X196538Y180750D01*
X199211D01*
Y183423D01*
D02*
G37*
G36*
X190750D02*
Y180750D01*
X193422D01*
X193262Y181351D01*
X192801Y182149D01*
X192149Y182801D01*
X191351Y183262D01*
X190750Y183423D01*
D02*
G37*
G36*
X189250D02*
X188649Y183262D01*
X187851Y182801D01*
X187199Y182149D01*
X186739Y181351D01*
X186577Y180750D01*
X189250D01*
Y183423D01*
D02*
G37*
G36*
X180711D02*
Y180750D01*
X183383D01*
X183222Y181351D01*
X182761Y182149D01*
X182110Y182801D01*
X181312Y183262D01*
X180711Y183423D01*
D02*
G37*
G36*
X179211D02*
X178610Y183262D01*
X177812Y182801D01*
X177160Y182149D01*
X176699Y181351D01*
X176538Y180750D01*
X179211D01*
Y183423D01*
D02*
G37*
G36*
X170449Y181755D02*
X167587D01*
Y178499D01*
X170449D01*
Y181755D01*
D02*
G37*
G36*
X213383Y179250D02*
X210711D01*
Y176577D01*
X211312Y176739D01*
X212110Y177199D01*
X212761Y177851D01*
X213222Y178649D01*
X213383Y179250D01*
D02*
G37*
G36*
X209211D02*
X206538D01*
X206699Y178649D01*
X207160Y177851D01*
X207812Y177199D01*
X208610Y176739D01*
X209211Y176577D01*
Y179250D01*
D02*
G37*
G36*
X203383D02*
X200711D01*
Y176577D01*
X201312Y176739D01*
X202110Y177199D01*
X202761Y177851D01*
X203222Y178649D01*
X203383Y179250D01*
D02*
G37*
G36*
X199211D02*
X196538D01*
X196699Y178649D01*
X197160Y177851D01*
X197812Y177199D01*
X198610Y176739D01*
X199211Y176577D01*
Y179250D01*
D02*
G37*
G36*
X193422D02*
X190750D01*
Y176577D01*
X191351Y176739D01*
X192149Y177199D01*
X192801Y177851D01*
X193262Y178649D01*
X193422Y179250D01*
D02*
G37*
G36*
X189250D02*
X186577D01*
X186739Y178649D01*
X187199Y177851D01*
X187851Y177199D01*
X188649Y176739D01*
X189250Y176577D01*
Y179250D01*
D02*
G37*
G36*
X183383D02*
X180711D01*
Y176577D01*
X181312Y176739D01*
X182110Y177199D01*
X182761Y177851D01*
X183222Y178649D01*
X183383Y179250D01*
D02*
G37*
G36*
X179211D02*
X176538D01*
X176699Y178649D01*
X177160Y177851D01*
X177812Y177199D01*
X178610Y176739D01*
X179211Y176577D01*
Y179250D01*
D02*
G37*
G36*
X170449Y177499D02*
X167587D01*
Y174243D01*
X170449D01*
Y177499D01*
D02*
G37*
G36*
X210750Y173423D02*
Y170750D01*
X213422D01*
X213262Y171351D01*
X212801Y172149D01*
X212149Y172801D01*
X211351Y173261D01*
X210750Y173423D01*
D02*
G37*
G36*
X209250D02*
X208649Y173261D01*
X207851Y172801D01*
X207199Y172149D01*
X206738Y171351D01*
X206577Y170750D01*
X209250D01*
Y173423D01*
D02*
G37*
G36*
X200750D02*
Y170750D01*
X203422D01*
X203261Y171351D01*
X202801Y172149D01*
X202149Y172801D01*
X201351Y173261D01*
X200750Y173423D01*
D02*
G37*
G36*
X199250D02*
X198649Y173261D01*
X197851Y172801D01*
X197199Y172149D01*
X196739Y171351D01*
X196578Y170750D01*
X199250D01*
Y173423D01*
D02*
G37*
G36*
X190750D02*
Y170750D01*
X193422D01*
X193262Y171351D01*
X192801Y172149D01*
X192149Y172801D01*
X191351Y173261D01*
X190750Y173423D01*
D02*
G37*
G36*
X189250D02*
X188649Y173261D01*
X187851Y172801D01*
X187199Y172149D01*
X186739Y171351D01*
X186577Y170750D01*
X189250D01*
Y173423D01*
D02*
G37*
G36*
X180510D02*
Y170750D01*
X183182D01*
X183021Y171351D01*
X182561Y172149D01*
X181909Y172801D01*
X181111Y173261D01*
X180510Y173423D01*
D02*
G37*
G36*
X179010D02*
X178409Y173261D01*
X177611Y172801D01*
X176959Y172149D01*
X176498Y171351D01*
X176337Y170750D01*
X179010D01*
Y173423D01*
D02*
G37*
G36*
X170449Y171755D02*
X167587D01*
Y168499D01*
X170449D01*
Y171755D01*
D02*
G37*
G36*
X213422Y169250D02*
X210750D01*
Y166577D01*
X211351Y166738D01*
X212149Y167199D01*
X212801Y167851D01*
X213262Y168649D01*
X213422Y169250D01*
D02*
G37*
G36*
X209250D02*
X206577D01*
X206738Y168649D01*
X207199Y167851D01*
X207851Y167199D01*
X208649Y166738D01*
X209250Y166577D01*
Y169250D01*
D02*
G37*
G36*
X203422D02*
X200750D01*
Y166577D01*
X201351Y166738D01*
X202149Y167199D01*
X202801Y167851D01*
X203261Y168649D01*
X203422Y169250D01*
D02*
G37*
G36*
X199250D02*
X196578D01*
X196739Y168649D01*
X197199Y167851D01*
X197851Y167199D01*
X198649Y166738D01*
X199250Y166577D01*
Y169250D01*
D02*
G37*
G36*
X193422D02*
X190750D01*
Y166577D01*
X191351Y166738D01*
X192149Y167199D01*
X192801Y167851D01*
X193262Y168649D01*
X193422Y169250D01*
D02*
G37*
G36*
X189250D02*
X186577D01*
X186739Y168649D01*
X187199Y167851D01*
X187851Y167199D01*
X188649Y166738D01*
X189250Y166577D01*
Y169250D01*
D02*
G37*
G36*
X183182D02*
X180510D01*
Y166577D01*
X181111Y166738D01*
X181909Y167199D01*
X182561Y167851D01*
X183021Y168649D01*
X183182Y169250D01*
D02*
G37*
G36*
X179010D02*
X176337D01*
X176498Y168649D01*
X176959Y167851D01*
X177611Y167199D01*
X178409Y166738D01*
X179010Y166577D01*
Y169250D01*
D02*
G37*
G36*
X170449Y167499D02*
X167587D01*
Y164243D01*
X170449D01*
Y167499D01*
D02*
G37*
G36*
X210711Y163423D02*
Y160750D01*
X213383D01*
X213222Y161351D01*
X212761Y162149D01*
X212110Y162801D01*
X211312Y163261D01*
X210711Y163423D01*
D02*
G37*
G36*
X209211D02*
X208610Y163261D01*
X207812Y162801D01*
X207160Y162149D01*
X206699Y161351D01*
X206538Y160750D01*
X209211D01*
Y163423D01*
D02*
G37*
G36*
X200711D02*
Y160750D01*
X203383D01*
X203222Y161351D01*
X202761Y162149D01*
X202110Y162801D01*
X201312Y163261D01*
X200711Y163423D01*
D02*
G37*
G36*
X199211D02*
X198610Y163261D01*
X197812Y162801D01*
X197160Y162149D01*
X196699Y161351D01*
X196538Y160750D01*
X199211D01*
Y163423D01*
D02*
G37*
G36*
X190750D02*
Y160750D01*
X193422D01*
X193262Y161351D01*
X192801Y162149D01*
X192149Y162801D01*
X191351Y163261D01*
X190750Y163423D01*
D02*
G37*
G36*
X189250D02*
X188649Y163261D01*
X187851Y162801D01*
X187199Y162149D01*
X186739Y161351D01*
X186577Y160750D01*
X189250D01*
Y163423D01*
D02*
G37*
G36*
X180510D02*
Y160750D01*
X183182D01*
X183021Y161351D01*
X182561Y162149D01*
X181909Y162801D01*
X181111Y163261D01*
X180510Y163423D01*
D02*
G37*
G36*
X179010D02*
X178409Y163261D01*
X177611Y162801D01*
X176959Y162149D01*
X176498Y161351D01*
X176337Y160750D01*
X179010D01*
Y163423D01*
D02*
G37*
G36*
X213383Y159250D02*
X210711D01*
Y156578D01*
X211312Y156738D01*
X212110Y157199D01*
X212761Y157851D01*
X213222Y158649D01*
X213383Y159250D01*
D02*
G37*
G36*
X209211D02*
X206538D01*
X206699Y158649D01*
X207160Y157851D01*
X207812Y157199D01*
X208610Y156738D01*
X209211Y156578D01*
Y159250D01*
D02*
G37*
G36*
X203383D02*
X200711D01*
Y156578D01*
X201312Y156738D01*
X202110Y157199D01*
X202761Y157851D01*
X203222Y158649D01*
X203383Y159250D01*
D02*
G37*
G36*
X199211D02*
X196538D01*
X196699Y158649D01*
X197160Y157851D01*
X197812Y157199D01*
X198610Y156738D01*
X199211Y156578D01*
Y159250D01*
D02*
G37*
G36*
X193422D02*
X190750D01*
Y156578D01*
X191351Y156738D01*
X192149Y157199D01*
X192801Y157851D01*
X193262Y158649D01*
X193422Y159250D01*
D02*
G37*
G36*
X189250D02*
X186577D01*
X186739Y158649D01*
X187199Y157851D01*
X187851Y157199D01*
X188649Y156738D01*
X189250Y156578D01*
Y159250D01*
D02*
G37*
G36*
X183182D02*
X180510D01*
Y156578D01*
X181111Y156738D01*
X181909Y157199D01*
X182561Y157851D01*
X183021Y158649D01*
X183182Y159250D01*
D02*
G37*
G36*
X179010D02*
X176337D01*
X176498Y158649D01*
X176959Y157851D01*
X177611Y157199D01*
X178409Y156738D01*
X179010Y156578D01*
Y159250D01*
D02*
G37*
G36*
X210750Y153422D02*
Y150750D01*
X213422D01*
X213262Y151351D01*
X212801Y152149D01*
X212149Y152801D01*
X211351Y153261D01*
X210750Y153422D01*
D02*
G37*
G36*
X209250D02*
X208649Y153261D01*
X207851Y152801D01*
X207199Y152149D01*
X206738Y151351D01*
X206577Y150750D01*
X209250D01*
Y153422D01*
D02*
G37*
G36*
X200750D02*
Y150750D01*
X203422D01*
X203261Y151351D01*
X202801Y152149D01*
X202149Y152801D01*
X201351Y153261D01*
X200750Y153422D01*
D02*
G37*
G36*
X199250D02*
X198649Y153261D01*
X197851Y152801D01*
X197199Y152149D01*
X196739Y151351D01*
X196578Y150750D01*
X199250D01*
Y153422D01*
D02*
G37*
G36*
X190750D02*
Y150750D01*
X193422D01*
X193262Y151351D01*
X192801Y152149D01*
X192149Y152801D01*
X191351Y153261D01*
X190750Y153422D01*
D02*
G37*
G36*
X189250D02*
X188649Y153261D01*
X187851Y152801D01*
X187199Y152149D01*
X186739Y151351D01*
X186577Y150750D01*
X189250D01*
Y153422D01*
D02*
G37*
G36*
X180750D02*
Y150750D01*
X183423D01*
X183262Y151351D01*
X182801Y152149D01*
X182149Y152801D01*
X181351Y153261D01*
X180750Y153422D01*
D02*
G37*
G36*
X179250D02*
X178649Y153261D01*
X177851Y152801D01*
X177199Y152149D01*
X176739Y151351D01*
X176577Y150750D01*
X179250D01*
Y153422D01*
D02*
G37*
G36*
X213422Y149250D02*
X210750D01*
Y146578D01*
X211351Y146739D01*
X212149Y147199D01*
X212801Y147851D01*
X213262Y148649D01*
X213422Y149250D01*
D02*
G37*
G36*
X209250D02*
X206577D01*
X206738Y148649D01*
X207199Y147851D01*
X207851Y147199D01*
X208649Y146739D01*
X209250Y146578D01*
Y149250D01*
D02*
G37*
G36*
X203422D02*
X200750D01*
Y146578D01*
X201351Y146739D01*
X202149Y147199D01*
X202801Y147851D01*
X203261Y148649D01*
X203422Y149250D01*
D02*
G37*
G36*
X199250D02*
X196578D01*
X196739Y148649D01*
X197199Y147851D01*
X197851Y147199D01*
X198649Y146739D01*
X199250Y146578D01*
Y149250D01*
D02*
G37*
G36*
X193422D02*
X190750D01*
Y146578D01*
X191351Y146739D01*
X192149Y147199D01*
X192801Y147851D01*
X193262Y148649D01*
X193422Y149250D01*
D02*
G37*
G36*
X189250D02*
X186577D01*
X186739Y148649D01*
X187199Y147851D01*
X187851Y147199D01*
X188649Y146739D01*
X189250Y146578D01*
Y149250D01*
D02*
G37*
G36*
X183423D02*
X180750D01*
Y146578D01*
X181351Y146739D01*
X182149Y147199D01*
X182801Y147851D01*
X183262Y148649D01*
X183423Y149250D01*
D02*
G37*
G36*
X179250D02*
X176577D01*
X176739Y148649D01*
X177199Y147851D01*
X177851Y147199D01*
X178649Y146739D01*
X179250Y146578D01*
Y149250D01*
D02*
G37*
%LPD*%
D13*
X193937Y215011D02*
Y225000D01*
X193926Y215000D02*
X193937Y215011D01*
X172461Y240000D02*
X182801D01*
X142076Y285827D02*
Y288386D01*
X152192Y324626D02*
X168398D01*
X173740Y215118D02*
Y229784D01*
X173957Y230000D01*
X19685Y393701D02*
G03*
X500Y374016I250J-19435D01*
G01*
X236221D02*
G03*
X216035Y393701I-19935J-250D01*
G01*
Y1000D02*
G03*
X236221Y19685I750J19435D01*
G01*
X500D02*
G03*
X19685Y1000I18935J250D01*
G01*
X236221Y19685D02*
Y374016D01*
X19685Y1000D02*
X19685D01*
X216035D01*
X20000Y393701D02*
X216035D01*
X500Y19685D02*
Y374016D01*
D14*
X162008Y192001D02*
D03*
D15*
X147992D02*
D03*
D16*
X155000Y150000D02*
D03*
X146240Y350000D02*
D03*
D17*
X160000Y167999D02*
D03*
X167087D02*
D03*
X160000Y177999D02*
D03*
X167087D02*
D03*
X165374Y240000D02*
D03*
X172461D02*
D03*
D18*
X166260Y215118D02*
D03*
X173740D02*
D03*
Y204882D02*
D03*
X170000D02*
D03*
X166260D02*
D03*
D19*
X173957Y230000D02*
D03*
X166083D02*
D03*
X193926Y215000D02*
D03*
X186052D02*
D03*
X193937Y205000D02*
D03*
X186063D02*
D03*
D20*
X176004Y189291D02*
D03*
Y196378D02*
D03*
D21*
X150000Y204500D02*
D03*
Y215500D02*
D03*
D22*
X142076Y285827D02*
D03*
Y264173D02*
D03*
X161761D02*
D03*
Y285827D02*
D03*
X151918D02*
D03*
Y264173D02*
D03*
D23*
X152192Y324626D02*
D03*
X144711D02*
D03*
X148451Y315374D02*
D03*
D32*
X48500Y309850D02*
D03*
X111500Y92350D02*
D03*
D33*
X111500Y342250D02*
D03*
D34*
X80000Y57750D02*
D03*
D35*
Y342250D02*
D03*
D37*
X219961Y78728D02*
D03*
D38*
X209961D02*
D03*
X199961D02*
D03*
X189961D02*
D03*
X179961D02*
D03*
X23122Y38740D02*
D03*
Y48740D02*
D03*
Y58740D02*
D03*
Y68740D02*
D03*
X219972Y314331D02*
D03*
Y324331D02*
D03*
Y334331D02*
D03*
Y344331D02*
D03*
X23122Y314331D02*
D03*
Y324331D02*
D03*
Y334331D02*
D03*
Y344331D02*
D03*
D39*
X216535Y374016D02*
D03*
X219535Y24622D02*
D03*
X23622Y374016D02*
D03*
Y23622D02*
D03*
D40*
X23122Y78740D02*
D03*
X219972Y354331D02*
D03*
X23122D02*
D03*
D41*
X193937Y225000D02*
D03*
X182801Y240000D02*
D03*
X168398Y324626D02*
D03*
X190000Y180000D02*
D03*
X179961D02*
D03*
X179760Y170000D02*
D03*
X210000D02*
D03*
X209961Y180000D02*
D03*
X200000Y170000D02*
D03*
X199961Y180000D02*
D03*
X190000Y170000D02*
D03*
X200000Y150000D02*
D03*
X210000D02*
D03*
X209961Y160000D02*
D03*
X199961D02*
D03*
X180000Y150000D02*
D03*
X190000D02*
D03*
Y160000D02*
D03*
X179760D02*
D03*
M02*
