G04*
G04 #@! TF.GenerationSoftware,Altium Limited,Altium Designer,22.6.1 (34)*
G04*
G04 Layer_Color=8388736*
%FSLAX25Y25*%
%MOIN*%
G70*
G04*
G04 #@! TF.SameCoordinates,F07FD183-076F-48D4-B815-8826F00F65DA*
G04*
G04*
G04 #@! TF.FilePolarity,Negative*
G04*
G01*
G75*
%ADD13C,0.01000*%
%ADD14R,0.05544X0.03237*%
G04:AMPARAMS|DCode=15|XSize=55.44mil|YSize=32.37mil|CornerRadius=16.18mil|HoleSize=0mil|Usage=FLASHONLY|Rotation=180.000|XOffset=0mil|YOffset=0mil|HoleType=Round|Shape=RoundedRectangle|*
%AMROUNDEDRECTD15*
21,1,0.05544,0.00000,0,0,180.0*
21,1,0.02307,0.03237,0,0,180.0*
1,1,0.03237,-0.01154,0.00000*
1,1,0.03237,0.01154,0.00000*
1,1,0.03237,0.01154,0.00000*
1,1,0.03237,-0.01154,0.00000*
%
%ADD15ROUNDEDRECTD15*%
%ADD16R,0.10236X0.16535*%
G04:AMPARAMS|DCode=18|XSize=43.31mil|YSize=23.62mil|CornerRadius=2.01mil|HoleSize=0mil|Usage=FLASHONLY|Rotation=90.000|XOffset=0mil|YOffset=0mil|HoleType=Round|Shape=RoundedRectangle|*
%AMROUNDEDRECTD18*
21,1,0.04331,0.01961,0,0,90.0*
21,1,0.03929,0.02362,0,0,90.0*
1,1,0.00402,0.00980,0.01965*
1,1,0.00402,0.00980,-0.01965*
1,1,0.00402,-0.00980,-0.01965*
1,1,0.00402,-0.00980,0.01965*
%
%ADD18ROUNDEDRECTD18*%
%ADD21R,0.14600X0.04700*%
%ADD22R,0.04724X0.09843*%
%ADD24R,0.05524X0.06312*%
%ADD25R,0.06312X0.06706*%
%ADD26R,0.06312X0.05524*%
%ADD27R,0.03162X0.06509*%
%ADD28R,0.06706X0.06706*%
%ADD29C,0.06706*%
%ADD30C,0.12611*%
%ADD31R,0.06706X0.06706*%
%ADD32C,0.17500*%
%ADD33C,0.11500*%
%ADD34R,0.07953X0.07953*%
%ADD35C,0.07953*%
%ADD36C,0.05800*%
D13*
X19685Y393701D02*
G03*
X500Y374016I250J-19435D01*
G01*
X236221D02*
G03*
X216035Y393701I-19935J-250D01*
G01*
Y1000D02*
G03*
X236221Y19685I750J19435D01*
G01*
X500D02*
G03*
X19685Y1000I18935J250D01*
G01*
X236221Y19685D02*
Y374016D01*
X19685Y1000D02*
X19685D01*
X216035D01*
X20000Y393701D02*
X216035D01*
X500Y19685D02*
Y374016D01*
D14*
X162008Y192001D02*
D03*
D15*
X147992D02*
D03*
D16*
X155000Y150000D02*
D03*
X146240Y350000D02*
D03*
D18*
X166260Y215118D02*
D03*
X173740D02*
D03*
Y204882D02*
D03*
X170000D02*
D03*
X166260D02*
D03*
D21*
X150000Y204500D02*
D03*
Y215500D02*
D03*
D22*
X142076Y285827D02*
D03*
Y264173D02*
D03*
X161761D02*
D03*
Y285827D02*
D03*
X151918D02*
D03*
Y264173D02*
D03*
D24*
X160000Y167999D02*
D03*
X167087D02*
D03*
X160000Y177999D02*
D03*
X167087D02*
D03*
X165374Y240000D02*
D03*
X172461D02*
D03*
D25*
X173957Y230000D02*
D03*
X166083D02*
D03*
X193926Y215000D02*
D03*
X186052D02*
D03*
X193937Y205000D02*
D03*
X186063D02*
D03*
D26*
X176004Y189291D02*
D03*
Y196378D02*
D03*
D27*
X152192Y324626D02*
D03*
X144711D02*
D03*
X148451Y315374D02*
D03*
D28*
X219961Y78728D02*
D03*
D29*
X209961D02*
D03*
X199961D02*
D03*
X189961D02*
D03*
X179961D02*
D03*
X23122Y38740D02*
D03*
Y48740D02*
D03*
Y58740D02*
D03*
Y68740D02*
D03*
X219972Y314331D02*
D03*
Y324331D02*
D03*
Y334331D02*
D03*
Y344331D02*
D03*
X23122Y314331D02*
D03*
Y324331D02*
D03*
Y334331D02*
D03*
Y344331D02*
D03*
D30*
X216535Y374016D02*
D03*
X219535Y24622D02*
D03*
X23622Y374016D02*
D03*
Y23622D02*
D03*
D31*
X23122Y78740D02*
D03*
X219972Y354331D02*
D03*
X23122D02*
D03*
D32*
X48500Y309850D02*
D03*
X111500Y92350D02*
D03*
D33*
X111500Y342250D02*
D03*
D34*
X80000Y57750D02*
D03*
D35*
Y342250D02*
D03*
D36*
X193937Y225000D02*
D03*
X182801Y240000D02*
D03*
X168398Y324626D02*
D03*
X190000Y180000D02*
D03*
X179961D02*
D03*
X179760Y170000D02*
D03*
X210000D02*
D03*
X209961Y180000D02*
D03*
X200000Y170000D02*
D03*
X199961Y180000D02*
D03*
X190000Y170000D02*
D03*
X200000Y150000D02*
D03*
X210000D02*
D03*
X209961Y160000D02*
D03*
X199961D02*
D03*
X180000Y150000D02*
D03*
X190000D02*
D03*
Y160000D02*
D03*
X179760D02*
D03*
M02*
