G04*
G04 #@! TF.GenerationSoftware,Altium Limited,Altium Designer,22.6.1 (34)*
G04*
G04 Layer_Color=16711935*
%FSLAX25Y25*%
%MOIN*%
G70*
G04*
G04 #@! TF.SameCoordinates,F07FD183-076F-48D4-B815-8826F00F65DA*
G04*
G04*
G04 #@! TF.FilePolarity,Negative*
G04*
G01*
G75*
%ADD13C,0.01000*%
%ADD28R,0.06706X0.06706*%
%ADD29C,0.06706*%
%ADD31R,0.06706X0.06706*%
%ADD32C,0.17500*%
%ADD33C,0.11500*%
%ADD34R,0.07953X0.07953*%
%ADD35C,0.07953*%
%ADD36C,0.05800*%
%ADD43C,0.17800*%
D13*
X19685Y393701D02*
G03*
X500Y374016I250J-19435D01*
G01*
X236221D02*
G03*
X216035Y393701I-19935J-250D01*
G01*
Y1000D02*
G03*
X236221Y19685I750J19435D01*
G01*
X500D02*
G03*
X19685Y1000I18935J250D01*
G01*
X236221Y19685D02*
Y374016D01*
X19685Y1000D02*
X19685D01*
X216035D01*
X20000Y393701D02*
X216035D01*
X500Y19685D02*
Y374016D01*
D28*
X219961Y78728D02*
D03*
D29*
X209961D02*
D03*
X199961D02*
D03*
X189961D02*
D03*
X179961D02*
D03*
X23122Y38740D02*
D03*
Y48740D02*
D03*
Y58740D02*
D03*
Y68740D02*
D03*
X219972Y314331D02*
D03*
Y324331D02*
D03*
Y334331D02*
D03*
Y344331D02*
D03*
X23122Y314331D02*
D03*
Y324331D02*
D03*
Y334331D02*
D03*
Y344331D02*
D03*
D31*
Y78740D02*
D03*
X219972Y354331D02*
D03*
X23122D02*
D03*
D32*
X48500Y309850D02*
D03*
X111500Y92350D02*
D03*
D33*
X111500Y342250D02*
D03*
D34*
X80000Y57750D02*
D03*
D35*
Y342250D02*
D03*
D36*
X193937Y225000D02*
D03*
X182801Y240000D02*
D03*
X168398Y324626D02*
D03*
X190000Y180000D02*
D03*
X179961D02*
D03*
X179760Y170000D02*
D03*
X210000D02*
D03*
X209961Y180000D02*
D03*
X200000Y170000D02*
D03*
X199961Y180000D02*
D03*
X190000Y170000D02*
D03*
X200000Y150000D02*
D03*
X210000D02*
D03*
X209961Y160000D02*
D03*
X199961D02*
D03*
X180000Y150000D02*
D03*
X190000D02*
D03*
Y160000D02*
D03*
X179760D02*
D03*
D43*
X216535Y374016D02*
D03*
X219535Y24622D02*
D03*
X23622Y374016D02*
D03*
Y23622D02*
D03*
M02*
