M48
;Layer_Color=9474304
;FILE_FORMAT=2:5
INCH,LZ
;TYPE=PLATED
T1F00S00C0.02800
T2F00S00C0.03900
T3F00S00C0.05200
T4F00S00C0.10039
;TYPE=NON_PLATED
T5F00S00C0.09400
T6F00S00C0.14000
%
T01
X021Y015
X0209961Y016
X021Y017
X0209961Y018
X0199961
X019
Y017
X02
X0199961Y016
X019
Y015
X02
X018
X017976Y016
Y017
X0179961Y018
X0193937Y0225
X0182801Y024
X0168398Y0324626
T02
X0023122Y003874
Y004874
Y005874
X0209961Y0078728
X0219961
X0199961
X0189961
X0179961
X0023122Y007874
Y006874
Y0314331
Y0324331
Y0334331
Y0344331
Y0354331
X0219972
Y0344331
Y0334331
Y0324331
Y0314331
T03
X008Y005775
Y034225
T04
X0023622Y0023622
X0219535Y0024622
X0023622Y0374016
X0216535
T05
X01115Y034225
T06
X01115Y009235
X00485Y030985
M30
