M48
;Layer_Color=9474304
;FILE_FORMAT=2:5
INCH,LZ
;TYPE=PLATED
T1F00S00C0.01500
T2F00S00C0.03268
T3F00S00C0.03900
%
T01
X0039323Y004
X03025Y00575
X03475
X0444075Y0068425
X0512872Y004
X056Y0039645
X055Y0145
X0668661Y0218661
X044Y0218342
X0444075Y0206575
X04375Y02
X043Y01875
X0425Y0175
Y01
X043Y0088972
X04375Y0078972
X0285Y0175
X02925Y01875
X03Y02
X0307087Y02075
X0099727Y014
X00875Y015
Y00975
X01Y0088972
X01125Y0078972
X0125Y0068972
X0325Y02375
X03375Y0225
X0347936Y025
X0354675Y0278642
X03325Y0296358
X0312007Y0312913
X0301874Y0343937
X04225Y0296358
X0455Y0278642
X03675Y02325
X055Y0375
X06775Y0225
X06875Y02325
X07Y02375
X07075Y02425
X0558944Y0479138
X0455692Y0489138
X0445Y052
X0422119Y0526457
X0415Y0503838
X036009Y0526457
X046676Y0535
X0410356Y04125
X0304079Y041264
X0318037Y05
X01875Y06875
X0210711Y0674289
X0231421Y06925
X0264705Y0659996
X0280661Y064139
X0276963Y0636887
X0288Y063391
Y0619
Y061374
Y060626
X028Y05975
X0276894Y062183
X0265Y062
Y061
X0305Y0619
X031Y0625
Y0633979
X033Y0642261
Y0625
X0343275Y0636887
X0354685Y06298
Y06475
X0343275Y060626
X036Y062
X0375Y06425
X0395Y064
X0434897Y0638623
X0437312Y06745
X0418037Y06875
X041Y068
X0384138Y06925
X0372404
X046311Y0651063
X049Y0652721
X0465308Y062
X0426963Y05975
X04075Y0565374
X0415Y0552
X0415Y054183
X04225Y054587
X039Y054
Y05518
X0382309Y0565374
X036Y056
X0359048Y055125
X0466056Y0548021
X0493352Y0575945
X0525Y05798
Y0570114
Y056
Y055
Y0589985
Y06
Y0614713
Y0624357
X0709161Y068
X06975Y06925
X06875Y0705
X06775Y072
X0669017Y0737855
X0558275Y0731725
X0471658Y0737855
X047Y07825
X0455692Y0794083
X04475Y080487
X0445Y07725
X04325Y0779463
X0425537Y07875
X0417856Y07898
X041464Y0776307
X041Y0768567
X0398838Y0753356
X0390315Y0752185
X0387278Y0746772
X03825Y0745868
X03777Y0749645
X036839Y0750245
X0365232Y0745513
X036
X0372559Y0742381
X0368269Y0728037
X03875Y0725
X0390537Y07375
X0375232Y07125
X0425537Y07
X0433542Y0835
X0464981Y0823543
X03902Y08125
X0334661Y0815
X031Y08125
X0313107Y079
X0305Y07825
X03Y0786573
X0294644Y0793039
X0291042Y0797213
X0285Y0804306
X02725Y08
X02625Y08075
Y0745
X02425Y0729025
X0220711Y0744289
X0310069Y0732062
X0300464Y072
X0305Y0705
X0343275Y0731725
X0347717Y0746555
X0354862Y0744897
X0338037Y0749884
X03325Y0775
X0325Y0768567
X0318037Y0779228
X0125Y07
X01125Y07125
X01Y0725
X00875Y07375
T02
X0476393Y0624357
Y0629357
Y0634357
T03
X003987Y0058425
Y0068425
X0512311
Y0058425
X0678661Y0097925
X0688661
X0698661
X0708661
X0668661
X0512311Y0098425
Y0088425
Y0078425
X03825Y0125
X03725
X03625
X03525
X03425
X03325
X0236221Y0097925
X022622
X021622
X0206221
X0196221
X003987Y0098425
Y0088425
Y0078425
Y0334016
Y0344016
Y0354016
Y0364016
Y0374016
X023672
Y0364016
Y0354016
Y0344016
Y0334016
X0512311
Y0344016
Y0354016
Y0364016
Y0374016
X0709161
Y0364016
Y0354016
Y0344016
Y0334016
X0708661Y0519185
X0698661
X0688661
X0678661
X0668661
X0512311Y0519685
Y0509685
Y0499685
Y0489685
Y0479685
X023622Y0519185
X022622
X021622
X020622
X0196221
X003987Y0519685
Y0509685
Y0499685
Y0489685
Y0479685
X0354685Y0659449
X0364685
X0374685
X0384685
X0394685
X0709161Y0755276
Y0765276
Y0775276
Y0785276
Y0795276
X0512311
Y0785276
Y0775276
Y0765276
Y0755276
X023672
Y0765276
Y0775276
Y0785276
Y0795276
X003987
Y0785276
Y0775276
Y0765276
Y0755276
M30
