G04*
G04 #@! TF.GenerationSoftware,Altium Limited,Altium Designer,22.6.1 (34)*
G04*
G04 Layer_Physical_Order=1*
G04 Layer_Color=255*
%FSLAX25Y25*%
%MOIN*%
G70*
G04*
G04 #@! TF.SameCoordinates,B7B55DA8-A8C8-4B2F-A26B-231347B163EA*
G04*
G04*
G04 #@! TF.FilePolarity,Positive*
G04*
G01*
G75*
%ADD12C,0.01000*%
%ADD13R,0.10200X0.05500*%
%ADD14R,0.07100X0.06700*%
%ADD15R,0.07500X0.02800*%
%ADD16R,0.16535X0.10236*%
%ADD26C,0.01500*%
%ADD27C,0.09000*%
%ADD28C,0.05900*%
%ADD29R,0.05906X0.05906*%
%ADD30C,0.05906*%
%ADD31C,0.11811*%
%ADD32R,0.05906X0.05906*%
%ADD33C,0.03000*%
G36*
X19980Y388157D02*
X216035Y388156D01*
X216067Y388160D01*
X216098Y388157D01*
X217050Y388168D01*
X218923Y387945D01*
X220751Y387480D01*
X222503Y386780D01*
X224148Y385857D01*
X225658Y384728D01*
X227009Y383411D01*
X228176Y381929D01*
X229139Y380308D01*
X229883Y378574D01*
X230394Y376758D01*
X230664Y374892D01*
X230676Y373981D01*
Y19793D01*
X230644Y18981D01*
X230336Y17186D01*
X229796Y15446D01*
X229034Y13791D01*
X228062Y12249D01*
X226898Y10848D01*
X225561Y9611D01*
X224074Y8558D01*
X222462Y7709D01*
X220753Y7077D01*
X218976Y6674D01*
X217162Y6505D01*
X216251Y6540D01*
X216155Y6531D01*
X216058Y6544D01*
X19685Y6545D01*
X19652Y6540D01*
X19619Y6544D01*
X18734Y6532D01*
X16991Y6739D01*
X15290Y7170D01*
X13659Y7821D01*
X12128Y8678D01*
X10721Y9728D01*
X9463Y10953D01*
X8376Y12331D01*
X7478Y13839D01*
X6785Y15452D01*
X6308Y17141D01*
X6056Y18878D01*
X6044Y19722D01*
Y374016D01*
X6040Y374048D01*
X6044Y374080D01*
X6033Y375000D01*
X6247Y376808D01*
X6696Y378573D01*
X7371Y380263D01*
X8262Y381852D01*
X9352Y383311D01*
X10623Y384614D01*
X12053Y385741D01*
X13618Y386672D01*
X15291Y387390D01*
X17044Y387884D01*
X18846Y388145D01*
X19756Y388157D01*
X19863Y388172D01*
X19980Y388157D01*
D02*
G37*
%LPC*%
G36*
X217235Y381121D02*
X215836D01*
X214463Y380848D01*
X213170Y380313D01*
X212006Y379535D01*
X211016Y378545D01*
X210239Y377381D01*
X209703Y376088D01*
X209430Y374716D01*
Y373316D01*
X209703Y371943D01*
X210239Y370650D01*
X211016Y369486D01*
X212006Y368496D01*
X213170Y367719D01*
X214463Y367183D01*
X215836Y366910D01*
X217235D01*
X218608Y367183D01*
X219901Y367719D01*
X221065Y368496D01*
X222055Y369486D01*
X222832Y370650D01*
X223368Y371943D01*
X223641Y373316D01*
Y374716D01*
X223368Y376088D01*
X222832Y377381D01*
X222055Y378545D01*
X221065Y379535D01*
X219901Y380313D01*
X218608Y380848D01*
X217235Y381121D01*
D02*
G37*
G36*
X24322D02*
X22922D01*
X21549Y380848D01*
X20256Y380313D01*
X19093Y379535D01*
X18103Y378545D01*
X17325Y377381D01*
X16790Y376088D01*
X16517Y374716D01*
Y373316D01*
X16790Y371943D01*
X17325Y370650D01*
X18103Y369486D01*
X19093Y368496D01*
X20256Y367719D01*
X21549Y367183D01*
X22922Y366910D01*
X24322D01*
X25695Y367183D01*
X26988Y367719D01*
X28152Y368496D01*
X29141Y369486D01*
X29919Y370650D01*
X30454Y371943D01*
X30728Y373316D01*
Y374716D01*
X30454Y376088D01*
X29919Y377381D01*
X29141Y378545D01*
X28152Y379535D01*
X26988Y380313D01*
X25695Y380848D01*
X24322Y381121D01*
D02*
G37*
G36*
X223925Y358283D02*
X220472D01*
Y354831D01*
X223925D01*
Y358283D01*
D02*
G37*
G36*
X219472D02*
X216020D01*
Y354831D01*
X219472D01*
Y358283D01*
D02*
G37*
G36*
X223925Y353831D02*
X220472D01*
Y350378D01*
X223925D01*
Y353831D01*
D02*
G37*
G36*
X219472D02*
X216020D01*
Y350378D01*
X219472D01*
Y353831D01*
D02*
G37*
G36*
X220493Y348284D02*
X220472D01*
Y344831D01*
X223925D01*
Y344851D01*
X223656Y345856D01*
X223135Y346758D01*
X222399Y347494D01*
X221498Y348014D01*
X220493Y348284D01*
D02*
G37*
G36*
X219472D02*
X219452D01*
X218447Y348014D01*
X217545Y347494D01*
X216810Y346758D01*
X216289Y345856D01*
X216020Y344851D01*
Y344831D01*
X219472D01*
Y348284D01*
D02*
G37*
G36*
X223925Y343831D02*
X220472D01*
Y340378D01*
X220493D01*
X221498Y340647D01*
X222399Y341168D01*
X223135Y341904D01*
X223656Y342805D01*
X223925Y343810D01*
Y343831D01*
D02*
G37*
G36*
X219472D02*
X216020D01*
Y343810D01*
X216289Y342805D01*
X216810Y341904D01*
X217545Y341168D01*
X218447Y340647D01*
X219452Y340378D01*
X219472D01*
Y343831D01*
D02*
G37*
G36*
X220493Y338283D02*
X220472D01*
Y334831D01*
X223925D01*
Y334851D01*
X223656Y335856D01*
X223135Y336758D01*
X222399Y337494D01*
X221498Y338014D01*
X220493Y338283D01*
D02*
G37*
G36*
X219472D02*
X219452D01*
X218447Y338014D01*
X217545Y337494D01*
X216810Y336758D01*
X216289Y335856D01*
X216020Y334851D01*
Y334831D01*
X219472D01*
Y338283D01*
D02*
G37*
G36*
X223925Y333831D02*
X220472D01*
Y330378D01*
X220493D01*
X221498Y330647D01*
X222399Y331168D01*
X223135Y331904D01*
X223656Y332805D01*
X223925Y333810D01*
Y333831D01*
D02*
G37*
G36*
X219472D02*
X216020D01*
Y333810D01*
X216289Y332805D01*
X216810Y331904D01*
X217545Y331168D01*
X218447Y330647D01*
X219452Y330378D01*
X219472D01*
Y333831D01*
D02*
G37*
G36*
X27275Y358484D02*
X18969D01*
Y350178D01*
X21134D01*
Y347978D01*
X20572Y347654D01*
X19799Y346881D01*
X19252Y345934D01*
X18969Y344877D01*
Y343784D01*
X19252Y342728D01*
X19799Y341781D01*
X20572Y341008D01*
X21134Y340683D01*
Y337978D01*
X20572Y337654D01*
X19799Y336881D01*
X19252Y335934D01*
X18969Y334877D01*
Y333784D01*
X19252Y332728D01*
X19799Y331781D01*
X20572Y331008D01*
X21519Y330461D01*
X22575Y330178D01*
X23669D01*
X24725Y330461D01*
X25672Y331008D01*
X26445Y331781D01*
X26992Y332728D01*
X27275Y333784D01*
Y334877D01*
X26992Y335934D01*
X26445Y336881D01*
X25672Y337654D01*
X25110Y337978D01*
Y340683D01*
X25672Y341008D01*
X26445Y341781D01*
X26992Y342728D01*
X27275Y343784D01*
Y344877D01*
X26992Y345934D01*
X26445Y346881D01*
X25672Y347654D01*
X25110Y347978D01*
Y350178D01*
X27275D01*
Y358484D01*
D02*
G37*
G36*
X220519Y328484D02*
X219426D01*
X218370Y328201D01*
X217423Y327654D01*
X216649Y326881D01*
X216103Y325934D01*
X215820Y324877D01*
Y323784D01*
X216103Y322728D01*
X216649Y321781D01*
X217423Y321008D01*
X218370Y320461D01*
X219426Y320178D01*
X220519D01*
X221575Y320461D01*
X222522Y321008D01*
X223295Y321781D01*
X223842Y322728D01*
X224125Y323784D01*
Y324877D01*
X223842Y325934D01*
X223295Y326881D01*
X222522Y327654D01*
X221575Y328201D01*
X220519Y328484D01*
D02*
G37*
G36*
X23669D02*
X22575D01*
X21519Y328201D01*
X20572Y327654D01*
X19799Y326881D01*
X19252Y325934D01*
X18969Y324877D01*
Y323784D01*
X19252Y322728D01*
X19799Y321781D01*
X20572Y321008D01*
X21519Y320461D01*
X22575Y320178D01*
X23669D01*
X24725Y320461D01*
X25672Y321008D01*
X26445Y321781D01*
X26992Y322728D01*
X27275Y323784D01*
Y324877D01*
X26992Y325934D01*
X26445Y326881D01*
X25672Y327654D01*
X24725Y328201D01*
X23669Y328484D01*
D02*
G37*
G36*
X220519Y318483D02*
X219426D01*
X218370Y318200D01*
X217423Y317654D01*
X216649Y316881D01*
X216103Y315934D01*
X215820Y314877D01*
Y313784D01*
X216103Y312728D01*
X216649Y311781D01*
X217423Y311008D01*
X218370Y310461D01*
X219426Y310178D01*
X220519D01*
X221575Y310461D01*
X222522Y311008D01*
X223295Y311781D01*
X223842Y312728D01*
X224125Y313784D01*
Y314877D01*
X223842Y315934D01*
X223295Y316881D01*
X222522Y317654D01*
X221575Y318200D01*
X220519Y318483D01*
D02*
G37*
G36*
X23669D02*
X22575D01*
X21519Y318200D01*
X20572Y317654D01*
X19799Y316881D01*
X19252Y315934D01*
X18969Y314877D01*
Y313784D01*
X19252Y312728D01*
X19799Y311781D01*
X20572Y311008D01*
X21519Y310461D01*
X22575Y310178D01*
X23669D01*
X24725Y310461D01*
X25672Y311008D01*
X26445Y311781D01*
X26992Y312728D01*
X27275Y313784D01*
Y314877D01*
X26992Y315934D01*
X26445Y316881D01*
X25672Y317654D01*
X24725Y318200D01*
X23669Y318483D01*
D02*
G37*
G36*
X94468Y251318D02*
X75532D01*
Y246988D01*
X46830D01*
X46658Y247161D01*
X46042Y247516D01*
X45355Y247700D01*
X44644D01*
X43958Y247516D01*
X43342Y247161D01*
X42840Y246658D01*
X42484Y246042D01*
X42300Y245356D01*
Y244644D01*
X42484Y243958D01*
X42840Y243342D01*
X43342Y242840D01*
X43958Y242484D01*
X44644Y242300D01*
X45355D01*
X46042Y242484D01*
X46658Y242840D01*
X46830Y243012D01*
X75532D01*
Y238682D01*
X94468D01*
Y243012D01*
X143012D01*
Y214601D01*
X143163Y213841D01*
X143594Y213196D01*
X144473Y212317D01*
X145118Y211886D01*
X145146Y211880D01*
X145097Y211380D01*
X106988D01*
Y217175D01*
X106837Y217936D01*
X106406Y218581D01*
X105527Y219459D01*
X104882Y219890D01*
X104121Y220042D01*
X94468D01*
Y224372D01*
X75532D01*
Y220042D01*
X61830D01*
X61658Y220214D01*
X61042Y220569D01*
X60356Y220754D01*
X59645D01*
X58958Y220569D01*
X58342Y220214D01*
X57840Y219711D01*
X57484Y219096D01*
X57300Y218409D01*
Y217698D01*
X57484Y217011D01*
X57840Y216396D01*
X58342Y215893D01*
X58958Y215538D01*
X59645Y215353D01*
X60356D01*
X61042Y215538D01*
X61658Y215893D01*
X61830Y216065D01*
X75532D01*
Y211735D01*
X94468D01*
Y216065D01*
X103012D01*
Y210271D01*
X103163Y209510D01*
X103594Y208865D01*
X104473Y207986D01*
X105118Y207555D01*
X105879Y207404D01*
X166538D01*
Y206792D01*
X166738D01*
Y205561D01*
X171488D01*
X176238D01*
Y206792D01*
X176438D01*
Y211123D01*
Y215454D01*
Y220654D01*
X166538D01*
Y215711D01*
X146988D01*
Y244121D01*
X146837Y244882D01*
X146406Y245527D01*
X145527Y246406D01*
X144882Y246837D01*
X144121Y246988D01*
X94468D01*
Y251318D01*
D02*
G37*
G36*
X219332Y244248D02*
X206732D01*
Y236348D01*
X219332D01*
Y244248D01*
D02*
G37*
G36*
X179986Y244454D02*
X170486D01*
Y235354D01*
X179986D01*
Y244454D01*
D02*
G37*
G36*
X215750Y227100D02*
X214250D01*
X212800Y226712D01*
X211500Y225961D01*
X210439Y224900D01*
X209688Y223600D01*
X209300Y222150D01*
Y220650D01*
X209688Y219200D01*
X210439Y217900D01*
X211500Y216839D01*
X212800Y216089D01*
X214250Y215700D01*
X215750D01*
X217200Y216089D01*
X218500Y216839D01*
X219561Y217900D01*
X220311Y219200D01*
X220700Y220650D01*
Y222150D01*
X220311Y223600D01*
X219561Y224900D01*
X218500Y225961D01*
X217200Y226712D01*
X215750Y227100D01*
D02*
G37*
G36*
X215546Y194054D02*
X214454D01*
X213398Y193771D01*
X212452Y193225D01*
X211679Y192452D01*
X211133Y191506D01*
X210850Y190450D01*
Y189358D01*
X211133Y188302D01*
X211679Y187356D01*
X212452Y186583D01*
X213398Y186037D01*
X214454Y185754D01*
X215546D01*
X216602Y186037D01*
X217548Y186583D01*
X218321Y187356D01*
X218867Y188302D01*
X219150Y189358D01*
Y190450D01*
X218867Y191506D01*
X218321Y192452D01*
X217548Y193225D01*
X216602Y193771D01*
X215546Y194054D01*
D02*
G37*
G36*
X219332Y182437D02*
X206732D01*
Y174537D01*
X219332D01*
Y182437D01*
D02*
G37*
G36*
X176238Y204561D02*
X171488D01*
X166738D01*
Y203331D01*
X166538D01*
Y202719D01*
X125879D01*
X125118Y202568D01*
X124473Y202137D01*
X123594Y201258D01*
X123163Y200613D01*
X123012Y199852D01*
Y190823D01*
X121915Y189727D01*
X94468D01*
Y194057D01*
X75532D01*
Y189727D01*
X51830D01*
X51658Y189899D01*
X51042Y190255D01*
X50355Y190439D01*
X49645D01*
X48958Y190255D01*
X48342Y189899D01*
X47839Y189396D01*
X47484Y188781D01*
X47300Y188094D01*
Y187383D01*
X47484Y186696D01*
X47839Y186081D01*
X48342Y185578D01*
X48958Y185223D01*
X49645Y185039D01*
X50355D01*
X51042Y185223D01*
X51658Y185578D01*
X51830Y185750D01*
X75532D01*
Y181421D01*
X94468D01*
Y185750D01*
X122739D01*
X123499Y185902D01*
X124144Y186333D01*
X126406Y188594D01*
X126837Y189239D01*
X126988Y190000D01*
Y198742D01*
X154555D01*
X154904Y198242D01*
X154800Y197855D01*
Y197144D01*
X154984Y196458D01*
X155340Y195842D01*
X155842Y195340D01*
X156458Y194984D01*
X157144Y194800D01*
X157855D01*
X157880Y194807D01*
X158245Y194563D01*
X158273Y194557D01*
X158224Y194058D01*
X137069D01*
X136308Y193906D01*
X135663Y193475D01*
X133594Y191406D01*
X133163Y190761D01*
X133012Y190000D01*
Y161988D01*
X94468D01*
Y166318D01*
X75532D01*
Y161988D01*
X36830D01*
X36658Y162161D01*
X36042Y162516D01*
X35355Y162700D01*
X34644D01*
X33958Y162516D01*
X33342Y162161D01*
X32840Y161658D01*
X32484Y161042D01*
X32300Y160355D01*
Y159644D01*
X32484Y158958D01*
X32840Y158342D01*
X33342Y157840D01*
X33958Y157484D01*
X34644Y157300D01*
X35355D01*
X36042Y157484D01*
X36658Y157840D01*
X36830Y158012D01*
X75532D01*
Y153682D01*
X94468D01*
Y158012D01*
X134121D01*
X134882Y158163D01*
X135527Y158594D01*
X136406Y159473D01*
X136837Y160118D01*
X136988Y160879D01*
Y189176D01*
X137893Y190081D01*
X166538D01*
Y185139D01*
Y180808D01*
X170486D01*
Y172952D01*
X179986D01*
Y182052D01*
X176438D01*
Y185139D01*
Y189469D01*
Y193800D01*
Y198131D01*
Y203331D01*
X176238D01*
Y204561D01*
D02*
G37*
G36*
X27275Y82893D02*
X18969D01*
Y74587D01*
X27275D01*
Y78012D01*
X58170D01*
X58342Y77839D01*
X58958Y77484D01*
X59645Y77300D01*
X60356D01*
X61042Y77484D01*
X61658Y77839D01*
X62160Y78342D01*
X62516Y78958D01*
X62700Y79645D01*
Y80356D01*
X62516Y81042D01*
X62160Y81658D01*
X61658Y82161D01*
X61042Y82516D01*
X60356Y82700D01*
X59645D01*
X58958Y82516D01*
X58342Y82161D01*
X58170Y81988D01*
X27275D01*
Y82893D01*
D02*
G37*
G36*
X224113Y82881D02*
X215808D01*
Y74576D01*
X224113D01*
Y82881D01*
D02*
G37*
G36*
X210507D02*
X209414D01*
X208358Y82598D01*
X207411Y82051D01*
X206638Y81278D01*
X206091Y80331D01*
X205808Y79275D01*
Y78182D01*
X206091Y77126D01*
X206638Y76178D01*
X207411Y75405D01*
X208358Y74859D01*
X209414Y74576D01*
X210507D01*
X211563Y74859D01*
X212510Y75405D01*
X213284Y76178D01*
X213830Y77126D01*
X214113Y78182D01*
Y79275D01*
X213830Y80331D01*
X213284Y81278D01*
X212510Y82051D01*
X211563Y82598D01*
X210507Y82881D01*
D02*
G37*
G36*
X200507D02*
X199414D01*
X198358Y82598D01*
X197411Y82051D01*
X196638Y81278D01*
X196091Y80331D01*
X195808Y79275D01*
Y78182D01*
X196091Y77126D01*
X196638Y76178D01*
X197411Y75405D01*
X198358Y74859D01*
X199414Y74576D01*
X200507D01*
X201564Y74859D01*
X202510Y75405D01*
X203284Y76178D01*
X203830Y77126D01*
X204113Y78182D01*
Y79275D01*
X203830Y80331D01*
X203284Y81278D01*
X202510Y82051D01*
X201564Y82598D01*
X200507Y82881D01*
D02*
G37*
G36*
X190507D02*
X189414D01*
X188358Y82598D01*
X187411Y82051D01*
X186638Y81278D01*
X186091Y80331D01*
X185808Y79275D01*
Y78182D01*
X186091Y77126D01*
X186638Y76178D01*
X187411Y75405D01*
X188358Y74859D01*
X189414Y74576D01*
X190507D01*
X191563Y74859D01*
X192510Y75405D01*
X193284Y76178D01*
X193830Y77126D01*
X194113Y78182D01*
Y79275D01*
X193830Y80331D01*
X193284Y81278D01*
X192510Y82051D01*
X191563Y82598D01*
X190507Y82881D01*
D02*
G37*
G36*
X180507D02*
X179414D01*
X178358Y82598D01*
X177411Y82051D01*
X176638Y81278D01*
X176091Y80331D01*
X175808Y79275D01*
Y78182D01*
X176091Y77126D01*
X176638Y76178D01*
X177411Y75405D01*
X178358Y74859D01*
X179414Y74576D01*
X180507D01*
X181563Y74859D01*
X182510Y75405D01*
X183284Y76178D01*
X183830Y77126D01*
X184113Y78182D01*
Y79275D01*
X183830Y80331D01*
X183284Y81278D01*
X182510Y82051D01*
X181563Y82598D01*
X180507Y82881D01*
D02*
G37*
G36*
X23669Y72893D02*
X22575D01*
X21519Y72610D01*
X20572Y72063D01*
X19799Y71290D01*
X19252Y70343D01*
X18969Y69287D01*
Y68193D01*
X19252Y67137D01*
X19799Y66190D01*
X20572Y65417D01*
X21519Y64870D01*
X22575Y64587D01*
X23669D01*
X24725Y64870D01*
X25672Y65417D01*
X26445Y66190D01*
X26769Y66752D01*
X33334D01*
X34095Y66903D01*
X34689Y67300D01*
X35355D01*
X36042Y67484D01*
X36658Y67839D01*
X37161Y68342D01*
X37516Y68958D01*
X37700Y69644D01*
Y70355D01*
X37516Y71042D01*
X37161Y71658D01*
X36658Y72161D01*
X36042Y72516D01*
X35355Y72700D01*
X34644D01*
X33958Y72516D01*
X33342Y72161D01*
X32840Y71658D01*
X32484Y71042D01*
X32400Y70728D01*
X26769D01*
X26445Y71290D01*
X25672Y72063D01*
X24725Y72610D01*
X23669Y72893D01*
D02*
G37*
G36*
Y62893D02*
X22575D01*
X21519Y62610D01*
X20572Y62063D01*
X19799Y61290D01*
X19252Y60343D01*
X18969Y59287D01*
Y58193D01*
X19252Y57137D01*
X19799Y56190D01*
X20572Y55417D01*
X21519Y54870D01*
X22575Y54587D01*
X23669D01*
X24725Y54870D01*
X25672Y55417D01*
X26445Y56190D01*
X26769Y56752D01*
X48334D01*
X49095Y56903D01*
X49689Y57300D01*
X50355D01*
X51042Y57484D01*
X51658Y57840D01*
X52161Y58342D01*
X52516Y58958D01*
X52700Y59645D01*
Y60356D01*
X52516Y61042D01*
X52161Y61658D01*
X51658Y62160D01*
X51042Y62516D01*
X50355Y62700D01*
X49645D01*
X48958Y62516D01*
X48342Y62160D01*
X47839Y61658D01*
X47484Y61042D01*
X47400Y60728D01*
X26769D01*
X26445Y61290D01*
X25672Y62063D01*
X24725Y62610D01*
X23669Y62893D01*
D02*
G37*
G36*
Y52893D02*
X22575D01*
X21519Y52610D01*
X20572Y52063D01*
X19799Y51290D01*
X19252Y50343D01*
X18969Y49287D01*
Y48193D01*
X19252Y47137D01*
X19799Y46190D01*
X20572Y45417D01*
X21519Y44870D01*
X22575Y44587D01*
X23669D01*
X24725Y44870D01*
X25672Y45417D01*
X26445Y46190D01*
X26769Y46752D01*
X43334D01*
X44095Y46903D01*
X44689Y47300D01*
X45355D01*
X46042Y47484D01*
X46658Y47839D01*
X47161Y48342D01*
X47516Y48958D01*
X47700Y49645D01*
Y50355D01*
X47516Y51042D01*
X47161Y51658D01*
X46658Y52161D01*
X46042Y52516D01*
X45355Y52700D01*
X44644D01*
X43958Y52516D01*
X43342Y52161D01*
X42840Y51658D01*
X42484Y51042D01*
X42400Y50728D01*
X26769D01*
X26445Y51290D01*
X25672Y52063D01*
X24725Y52610D01*
X23669Y52893D01*
D02*
G37*
G36*
Y42893D02*
X22575D01*
X21519Y42610D01*
X20572Y42063D01*
X19799Y41290D01*
X19252Y40343D01*
X18969Y39287D01*
Y38193D01*
X19252Y37137D01*
X19799Y36190D01*
X20572Y35417D01*
X21519Y34870D01*
X22575Y34587D01*
X23669D01*
X24725Y34870D01*
X25672Y35417D01*
X26445Y36190D01*
X26992Y37137D01*
X27275Y38193D01*
Y39287D01*
X26992Y40343D01*
X26445Y41290D01*
X25672Y42063D01*
X24725Y42610D01*
X23669Y42893D01*
D02*
G37*
G36*
X220235Y31728D02*
X218836D01*
X217463Y31455D01*
X216170Y30919D01*
X215006Y30141D01*
X214016Y29151D01*
X213239Y27988D01*
X212703Y26695D01*
X212430Y25322D01*
Y23922D01*
X212703Y22549D01*
X213239Y21256D01*
X214016Y20092D01*
X215006Y19103D01*
X216170Y18325D01*
X217463Y17790D01*
X218836Y17516D01*
X220235D01*
X221608Y17790D01*
X222901Y18325D01*
X224065Y19103D01*
X225055Y20092D01*
X225832Y21256D01*
X226368Y22549D01*
X226641Y23922D01*
Y25322D01*
X226368Y26695D01*
X225832Y27988D01*
X225055Y29151D01*
X224065Y30141D01*
X222901Y30919D01*
X221608Y31455D01*
X220235Y31728D01*
D02*
G37*
G36*
X24322Y30728D02*
X22922D01*
X21549Y30454D01*
X20256Y29919D01*
X19093Y29141D01*
X18103Y28152D01*
X17325Y26988D01*
X16790Y25695D01*
X16517Y24322D01*
Y22922D01*
X16790Y21549D01*
X17325Y20256D01*
X18103Y19093D01*
X19093Y18103D01*
X20256Y17325D01*
X21549Y16790D01*
X22922Y16517D01*
X24322D01*
X25695Y16790D01*
X26988Y17325D01*
X28152Y18103D01*
X29141Y19093D01*
X29919Y20256D01*
X30454Y21549D01*
X30728Y22922D01*
Y24322D01*
X30454Y25695D01*
X29919Y26988D01*
X29141Y28152D01*
X28152Y29141D01*
X26988Y29919D01*
X25695Y30454D01*
X24322Y30728D01*
D02*
G37*
%LPD*%
D12*
X19685Y393701D02*
G03*
X500Y374016I250J-19435D01*
G01*
X236221D02*
G03*
X216035Y393701I-19935J-250D01*
G01*
Y1000D02*
G03*
X236221Y19685I750J19435D01*
G01*
X500D02*
G03*
X19685Y1000I18935J250D01*
G01*
X236221Y19685D02*
Y374016D01*
X19685Y1000D02*
X19685D01*
X216035D01*
X20000Y393701D02*
X216035D01*
X500Y19685D02*
Y374016D01*
D13*
X213032Y240298D02*
D03*
Y178487D02*
D03*
D14*
X175236Y239904D02*
D03*
Y177502D02*
D03*
D15*
X171488Y218054D02*
D03*
Y213723D02*
D03*
Y209392D02*
D03*
Y205061D02*
D03*
Y200731D02*
D03*
Y196400D02*
D03*
Y192069D02*
D03*
Y187739D02*
D03*
Y183408D02*
D03*
D16*
X85000Y160000D02*
D03*
Y218054D02*
D03*
Y187739D02*
D03*
Y245000D02*
D03*
D26*
X23122Y334331D02*
Y344331D01*
Y354331D01*
X85000Y218054D02*
X104121D01*
X105000Y210271D02*
Y217175D01*
X104121Y218054D02*
X105000Y217175D01*
Y210271D02*
X105879Y209392D01*
X171488D01*
X144121Y245000D02*
X145000Y244121D01*
Y214601D02*
Y244121D01*
X85000Y245000D02*
X144121D01*
X145000Y214601D02*
X145879Y213723D01*
X171488D01*
X215000Y220000D02*
X215459Y220459D01*
X157906Y197500D02*
X159006Y196400D01*
X157500Y197500D02*
X157906D01*
X159006Y196400D02*
X171488D01*
X43334Y48740D02*
X44594Y50000D01*
X45000D01*
X23122Y48740D02*
X43334D01*
X45000Y245000D02*
X85000D01*
X23122Y78740D02*
X24382Y80000D01*
X60000D01*
Y218054D02*
X85000D01*
X48334Y58740D02*
X49594Y60000D01*
X50000D01*
X23122Y58740D02*
X48334D01*
X50000Y187739D02*
X85000D01*
X34594Y70000D02*
X35000D01*
X23122Y68740D02*
X33334D01*
X34594Y70000D01*
X35000Y160000D02*
X85000D01*
X86575Y187739D02*
X122739D01*
X125000Y190000D01*
Y199852D01*
X125879Y200731D02*
X171488D01*
X125000Y199852D02*
X125879Y200731D01*
X135000Y160879D02*
Y190000D01*
X85000Y160000D02*
X134121D01*
X135000Y160879D01*
X137069Y192069D02*
X171488D01*
X135000Y190000D02*
X137069Y192069D01*
D27*
X215000Y221400D02*
D03*
D28*
X215000Y189904D02*
D03*
D29*
X219961Y78728D02*
D03*
D30*
X209961D02*
D03*
X199961D02*
D03*
X189961D02*
D03*
X179961D02*
D03*
X23122Y38740D02*
D03*
Y48740D02*
D03*
Y58740D02*
D03*
Y68740D02*
D03*
X219972Y314331D02*
D03*
Y324331D02*
D03*
Y334331D02*
D03*
Y344331D02*
D03*
X23122Y314331D02*
D03*
Y324331D02*
D03*
Y334331D02*
D03*
Y344331D02*
D03*
D31*
X216535Y374016D02*
D03*
X219535Y24622D02*
D03*
X23622Y374016D02*
D03*
Y23622D02*
D03*
D32*
X23122Y78740D02*
D03*
X219972Y354331D02*
D03*
X23122D02*
D03*
D33*
X157500Y197500D02*
D03*
X45000Y50000D02*
D03*
Y245000D02*
D03*
X60000Y80000D02*
D03*
Y218054D02*
D03*
X50000Y60000D02*
D03*
Y187739D02*
D03*
X35000Y70000D02*
D03*
Y160000D02*
D03*
M02*
