G04*
G04 #@! TF.GenerationSoftware,Altium Limited,Altium Designer,22.6.1 (34)*
G04*
G04 Layer_Color=65535*
%FSLAX25Y25*%
%MOIN*%
G70*
G04*
G04 #@! TF.SameCoordinates,B7B55DA8-A8C8-4B2F-A26B-231347B163EA*
G04*
G04*
G04 #@! TF.FilePolarity,Positive*
G04*
G01*
G75*
%ADD10C,0.02000*%
%ADD11C,0.00600*%
%ADD12C,0.01000*%
G36*
X26203Y277216D02*
X24253D01*
X20288Y280682D01*
X20272Y280698D01*
X20238Y280715D01*
X20188Y280765D01*
X20138Y280832D01*
X19955Y280981D01*
X19755Y281165D01*
X19522Y281381D01*
X19289Y281581D01*
X19089Y281798D01*
X18906Y281964D01*
Y281881D01*
X18922Y281798D01*
Y281498D01*
X18939Y281298D01*
Y280832D01*
X18956Y277550D01*
X16923D01*
Y285230D01*
X18656D01*
X22737Y281681D01*
X24087Y280432D01*
Y280532D01*
X24070Y280598D01*
Y280765D01*
X24054Y280965D01*
Y281181D01*
X24037Y281398D01*
Y285496D01*
X26203D01*
Y277216D01*
D02*
G37*
G36*
Y268270D02*
X24253D01*
X20288Y271735D01*
X20272Y271752D01*
X20238Y271768D01*
X20188Y271818D01*
X20138Y271885D01*
X19955Y272035D01*
X19755Y272218D01*
X19522Y272435D01*
X19289Y272635D01*
X19089Y272851D01*
X18906Y273018D01*
Y272935D01*
X18922Y272851D01*
Y272551D01*
X18939Y272352D01*
Y271885D01*
X18956Y268603D01*
X16923D01*
Y276283D01*
X18656D01*
X22737Y272735D01*
X24087Y271485D01*
Y271585D01*
X24070Y271652D01*
Y271818D01*
X24054Y272018D01*
Y272235D01*
X24037Y272452D01*
Y276550D01*
X26203D01*
Y268270D01*
D02*
G37*
G36*
X22271Y261106D02*
X22288D01*
X22321D01*
X22371D01*
X22454Y261123D01*
X22654Y261139D01*
X22904Y261189D01*
X23170Y261256D01*
X23454Y261356D01*
X23737Y261506D01*
X23987Y261689D01*
X24020Y261722D01*
X24087Y261789D01*
X24170Y261906D01*
X24287Y262072D01*
X24403Y262289D01*
X24487Y262522D01*
X24553Y262805D01*
X24587Y263105D01*
Y263205D01*
X24570Y263305D01*
X24553Y263439D01*
X24520Y263589D01*
X24453Y263738D01*
X24387Y263905D01*
X24287Y264055D01*
X24270Y264072D01*
X24220Y264122D01*
X24153Y264188D01*
X24037Y264288D01*
X23887Y264388D01*
X23720Y264488D01*
X23504Y264588D01*
X23254Y264671D01*
X23670Y267120D01*
X23687D01*
X23737Y267104D01*
X23804Y267070D01*
X23887Y267037D01*
X24003Y266970D01*
X24137Y266920D01*
X24437Y266754D01*
X24770Y266537D01*
X25103Y266287D01*
X25436Y265971D01*
X25719Y265621D01*
Y265604D01*
X25753Y265571D01*
X25786Y265521D01*
X25836Y265438D01*
X25886Y265338D01*
X25936Y265221D01*
X26003Y265088D01*
X26069Y264921D01*
X26136Y264738D01*
X26203Y264555D01*
X26303Y264122D01*
X26386Y263622D01*
X26419Y263072D01*
Y262972D01*
X26403Y262839D01*
X26386Y262672D01*
X26369Y262472D01*
X26336Y262256D01*
X26286Y261989D01*
X26219Y261722D01*
X26136Y261439D01*
X26036Y261139D01*
X25903Y260840D01*
X25753Y260556D01*
X25570Y260256D01*
X25353Y259990D01*
X25120Y259740D01*
X24836Y259507D01*
X24820Y259490D01*
X24770Y259473D01*
X24703Y259423D01*
X24603Y259357D01*
X24487Y259290D01*
X24337Y259224D01*
X24153Y259140D01*
X23954Y259057D01*
X23737Y258957D01*
X23504Y258874D01*
X23237Y258807D01*
X22954Y258740D01*
X22654Y258674D01*
X22337Y258624D01*
X21988Y258607D01*
X21638Y258591D01*
X21605D01*
X21538D01*
X21421Y258607D01*
X21255D01*
X21071Y258624D01*
X20838Y258657D01*
X20588Y258690D01*
X20322Y258740D01*
X20039Y258807D01*
X19739Y258890D01*
X19439Y258974D01*
X19139Y259090D01*
X18839Y259240D01*
X18556Y259390D01*
X18272Y259573D01*
X18023Y259790D01*
X18006Y259807D01*
X17973Y259840D01*
X17906Y259907D01*
X17823Y260007D01*
X17723Y260123D01*
X17606Y260273D01*
X17490Y260440D01*
X17356Y260623D01*
X17240Y260840D01*
X17123Y261056D01*
X17006Y261306D01*
X16906Y261589D01*
X16823Y261873D01*
X16756Y262172D01*
X16723Y262506D01*
X16706Y262839D01*
Y262939D01*
X16723Y263039D01*
Y263189D01*
X16756Y263355D01*
X16773Y263555D01*
X16823Y263772D01*
X16873Y264022D01*
X16956Y264271D01*
X17040Y264538D01*
X17156Y264821D01*
X17290Y265088D01*
X17439Y265354D01*
X17639Y265621D01*
X17839Y265871D01*
X18089Y266104D01*
X18106Y266121D01*
X18156Y266154D01*
X18239Y266221D01*
X18339Y266287D01*
X18489Y266387D01*
X18672Y266487D01*
X18872Y266587D01*
X19122Y266704D01*
X19405Y266804D01*
X19705Y266920D01*
X20055Y267004D01*
X20422Y267104D01*
X20838Y267170D01*
X21288Y267220D01*
X21754Y267254D01*
X22271D01*
Y261106D01*
D02*
G37*
G36*
X26203Y254342D02*
X16123Y254326D01*
X26203Y251793D01*
Y249294D01*
X16123Y246778D01*
X26203D01*
Y244379D01*
X13391D01*
Y248245D01*
X22138Y250560D01*
X13391Y252859D01*
Y256741D01*
X26203D01*
Y254342D01*
D02*
G37*
G36*
Y234517D02*
X20905D01*
X20888D01*
X20838D01*
X20772D01*
X20688D01*
X20572D01*
X20438Y234500D01*
X20155Y234483D01*
X19855Y234450D01*
X19572Y234400D01*
X19305Y234333D01*
X19206Y234300D01*
X19122Y234250D01*
X19105Y234233D01*
X19039Y234184D01*
X18956Y234100D01*
X18856Y234000D01*
X18756Y233850D01*
X18672Y233667D01*
X18606Y233451D01*
X18589Y233201D01*
Y233117D01*
X18606Y233017D01*
X18622Y232884D01*
X18672Y232734D01*
X18722Y232568D01*
X18806Y232401D01*
X18906Y232234D01*
X18922Y232218D01*
X18972Y232168D01*
X19039Y232084D01*
X19139Y231984D01*
X19272Y231885D01*
X19439Y231768D01*
X19622Y231668D01*
X19839Y231585D01*
X19872D01*
X19955Y231551D01*
X20105Y231518D01*
X20305Y231485D01*
X20572Y231451D01*
X20905Y231418D01*
X21288Y231401D01*
X21521Y231385D01*
X21754D01*
X26203D01*
Y228936D01*
X21121D01*
X21105D01*
X21055D01*
X20988D01*
X20905D01*
X20788D01*
X20672D01*
X20405Y228919D01*
X20105Y228902D01*
X19822Y228886D01*
X19572Y228852D01*
X19472Y228819D01*
X19389Y228802D01*
X19372D01*
X19322Y228786D01*
X19255Y228752D01*
X19155Y228702D01*
X18972Y228569D01*
X18872Y228486D01*
X18789Y228386D01*
X18772Y228369D01*
X18756Y228336D01*
X18722Y228269D01*
X18689Y228203D01*
X18656Y228086D01*
X18622Y227969D01*
X18589Y227819D01*
Y227553D01*
X18606Y227453D01*
X18622Y227320D01*
X18672Y227153D01*
X18722Y226986D01*
X18806Y226803D01*
X18906Y226620D01*
X18922Y226603D01*
X18956Y226553D01*
X19039Y226470D01*
X19122Y226370D01*
X19255Y226270D01*
X19405Y226153D01*
X19589Y226054D01*
X19789Y225970D01*
X19822D01*
X19905Y225937D01*
X20039Y225920D01*
X20238Y225887D01*
X20505Y225853D01*
X20655Y225837D01*
X20838Y225820D01*
X21021Y225804D01*
X21238D01*
X21455Y225787D01*
X21704D01*
X26203D01*
Y223338D01*
X16923D01*
Y225604D01*
X18206D01*
X18189Y225620D01*
X18139Y225654D01*
X18073Y225720D01*
X17973Y225820D01*
X17856Y225937D01*
X17723Y226070D01*
X17589Y226237D01*
X17456Y226420D01*
X17323Y226620D01*
X17173Y226836D01*
X17056Y227070D01*
X16940Y227320D01*
X16840Y227586D01*
X16773Y227869D01*
X16723Y228169D01*
X16706Y228469D01*
Y228619D01*
X16723Y228786D01*
X16756Y229002D01*
X16806Y229236D01*
X16873Y229502D01*
X16956Y229769D01*
X17090Y230019D01*
X17106Y230052D01*
X17156Y230135D01*
X17240Y230252D01*
X17356Y230402D01*
X17523Y230568D01*
X17706Y230735D01*
X17923Y230918D01*
X18189Y231085D01*
X18172D01*
X18156Y231118D01*
X18073Y231185D01*
X17939Y231318D01*
X17773Y231485D01*
X17606Y231684D01*
X17423Y231901D01*
X17240Y232151D01*
X17090Y232401D01*
Y232418D01*
X17073Y232434D01*
X17023Y232534D01*
X16973Y232667D01*
X16890Y232867D01*
X16823Y233084D01*
X16773Y233351D01*
X16723Y233617D01*
X16706Y233917D01*
Y234084D01*
X16723Y234283D01*
X16756Y234517D01*
X16806Y234783D01*
X16890Y235067D01*
X16990Y235366D01*
X17123Y235633D01*
Y235650D01*
X17140Y235666D01*
X17206Y235750D01*
X17290Y235883D01*
X17439Y236033D01*
X17606Y236216D01*
X17823Y236383D01*
X18073Y236549D01*
X18356Y236699D01*
X18389Y236716D01*
X18472Y236749D01*
X18606Y236783D01*
X18806Y236832D01*
X19072Y236882D01*
X19405Y236932D01*
X19605Y236949D01*
X19805D01*
X20022Y236966D01*
X20272D01*
X26203D01*
Y234517D01*
D02*
G37*
G36*
X21738Y221589D02*
X21888D01*
X22071Y221572D01*
X22288Y221539D01*
X22521Y221489D01*
X22771Y221439D01*
X23037Y221355D01*
X23321Y221272D01*
X23604Y221155D01*
X23904Y221022D01*
X24204Y220872D01*
X24487Y220689D01*
X24770Y220472D01*
X25036Y220239D01*
X25053Y220222D01*
X25103Y220173D01*
X25170Y220106D01*
X25253Y219989D01*
X25353Y219856D01*
X25470Y219706D01*
X25603Y219506D01*
X25719Y219306D01*
X25853Y219056D01*
X25986Y218806D01*
X26103Y218523D01*
X26203Y218223D01*
X26286Y217907D01*
X26353Y217557D01*
X26403Y217207D01*
X26419Y216824D01*
Y216690D01*
X26403Y216607D01*
Y216491D01*
X26386Y216357D01*
X26369Y216207D01*
X26353Y216041D01*
X26286Y215658D01*
X26186Y215258D01*
X26036Y214808D01*
X25853Y214375D01*
Y214358D01*
X25820Y214325D01*
X25786Y214258D01*
X25736Y214192D01*
X25686Y214092D01*
X25603Y213975D01*
X25420Y213725D01*
X25186Y213442D01*
X24886Y213159D01*
X24553Y212875D01*
X24153Y212626D01*
X24137D01*
X24103Y212592D01*
X24037Y212576D01*
X23954Y212526D01*
X23837Y212492D01*
X23720Y212442D01*
X23570Y212376D01*
X23387Y212326D01*
X23204Y212276D01*
X23004Y212209D01*
X22771Y212159D01*
X22537Y212126D01*
X22021Y212059D01*
X21438Y212026D01*
X21421D01*
X21388D01*
X21321D01*
X21221Y212042D01*
X21121D01*
X20988Y212059D01*
X20838Y212076D01*
X20688Y212109D01*
X20322Y212176D01*
X19922Y212276D01*
X19505Y212426D01*
X19072Y212626D01*
X19056D01*
X19022Y212659D01*
X18956Y212692D01*
X18889Y212742D01*
X18789Y212792D01*
X18672Y212875D01*
X18422Y213059D01*
X18139Y213309D01*
X17856Y213592D01*
X17573Y213942D01*
X17323Y214325D01*
Y214341D01*
X17290Y214375D01*
X17273Y214441D01*
X17223Y214525D01*
X17173Y214625D01*
X17123Y214758D01*
X17073Y214891D01*
X17006Y215058D01*
X16906Y215424D01*
X16806Y215841D01*
X16740Y216291D01*
X16706Y216791D01*
Y216891D01*
X16723Y216990D01*
Y217140D01*
X16756Y217324D01*
X16773Y217524D01*
X16823Y217757D01*
X16873Y218023D01*
X16956Y218290D01*
X17040Y218573D01*
X17156Y218856D01*
X17290Y219140D01*
X17439Y219439D01*
X17639Y219723D01*
X17839Y219989D01*
X18089Y220256D01*
X18106Y220272D01*
X18156Y220322D01*
X18223Y220389D01*
X18339Y220472D01*
X18472Y220572D01*
X18639Y220689D01*
X18822Y220806D01*
X19039Y220939D01*
X19272Y221056D01*
X19539Y221172D01*
X19822Y221289D01*
X20122Y221389D01*
X20438Y221489D01*
X20788Y221555D01*
X21155Y221589D01*
X21538Y221605D01*
X21554D01*
X21638D01*
X21738Y221589D01*
D02*
G37*
G36*
X26069Y211059D02*
X26086Y211043D01*
X26103Y210993D01*
X26119Y210926D01*
X26186Y210743D01*
X26236Y210510D01*
X26303Y210226D01*
X26369Y209893D01*
X26403Y209527D01*
X26419Y209127D01*
Y209010D01*
X26403Y208894D01*
X26386Y208744D01*
X26369Y208560D01*
X26319Y208361D01*
X26269Y208144D01*
X26203Y207944D01*
X26186Y207927D01*
X26169Y207861D01*
X26119Y207761D01*
X26053Y207644D01*
X25870Y207394D01*
X25753Y207261D01*
X25636Y207161D01*
X25620Y207144D01*
X25570Y207128D01*
X25486Y207078D01*
X25370Y207028D01*
X25236Y206961D01*
X25070Y206911D01*
X24886Y206861D01*
X24670Y206811D01*
X24653D01*
X24587Y206795D01*
X24470D01*
X24287Y206778D01*
X24054Y206761D01*
X23920D01*
X23754D01*
X23587Y206745D01*
X23387D01*
X23170D01*
X22937D01*
X18872D01*
Y205612D01*
X16923D01*
Y206745D01*
X15074D01*
X13624Y209194D01*
X16923D01*
Y210876D01*
X18872D01*
Y209194D01*
X22637D01*
X22654D01*
X22687D01*
X22737D01*
X22821D01*
X23004D01*
X23221D01*
X23454Y209210D01*
X23670D01*
X23854D01*
X23920Y209227D01*
X23970D01*
X24003Y209243D01*
X24070Y209277D01*
X24170Y209344D01*
X24270Y209443D01*
Y209460D01*
X24287Y209477D01*
X24320Y209560D01*
X24370Y209710D01*
X24387Y209877D01*
Y209943D01*
X24370Y210010D01*
X24353Y210126D01*
X24337Y210260D01*
X24287Y210426D01*
X24237Y210626D01*
X24153Y210859D01*
X26069Y211076D01*
Y211059D01*
D02*
G37*
G36*
X23537Y204462D02*
X23637Y204446D01*
X23770Y204429D01*
X24070Y204345D01*
X24403Y204212D01*
X24587Y204129D01*
X24770Y204029D01*
X24953Y203912D01*
X25153Y203762D01*
X25320Y203596D01*
X25503Y203413D01*
X25520Y203396D01*
X25536Y203363D01*
X25586Y203296D01*
X25653Y203213D01*
X25719Y203096D01*
X25786Y202963D01*
X25870Y202796D01*
X25953Y202613D01*
X26053Y202413D01*
X26136Y202180D01*
X26203Y201913D01*
X26269Y201630D01*
X26336Y201313D01*
X26386Y200980D01*
X26403Y200630D01*
X26419Y200247D01*
Y200064D01*
X26403Y199931D01*
Y199781D01*
X26386Y199597D01*
X26353Y199381D01*
X26319Y199164D01*
X26236Y198681D01*
X26103Y198181D01*
X25919Y197698D01*
X25803Y197465D01*
X25670Y197248D01*
X25653Y197232D01*
X25636Y197198D01*
X25586Y197148D01*
X25536Y197065D01*
X25453Y196982D01*
X25353Y196882D01*
X25120Y196665D01*
X24820Y196415D01*
X24470Y196182D01*
X24054Y195966D01*
X23820Y195882D01*
X23587Y195816D01*
X23204Y198281D01*
X23237D01*
X23321Y198315D01*
X23454Y198348D01*
X23604Y198415D01*
X23787Y198498D01*
X23970Y198598D01*
X24137Y198731D01*
X24287Y198898D01*
X24303Y198914D01*
X24337Y198981D01*
X24403Y199098D01*
X24470Y199248D01*
X24537Y199448D01*
X24603Y199664D01*
X24637Y199947D01*
X24653Y200247D01*
Y200397D01*
X24637Y200580D01*
X24603Y200780D01*
X24570Y201013D01*
X24503Y201247D01*
X24420Y201480D01*
X24303Y201680D01*
X24287Y201697D01*
X24253Y201730D01*
X24204Y201780D01*
X24137Y201847D01*
X24037Y201913D01*
X23937Y201963D01*
X23804Y201996D01*
X23654Y202013D01*
X23637D01*
X23604D01*
X23554Y201996D01*
X23487D01*
X23337Y201930D01*
X23254Y201897D01*
X23187Y201830D01*
Y201813D01*
X23154Y201797D01*
X23121Y201747D01*
X23087Y201663D01*
X23037Y201547D01*
X22987Y201413D01*
X22921Y201230D01*
X22871Y201013D01*
Y200980D01*
X22837Y200880D01*
X22804Y200730D01*
X22754Y200530D01*
X22704Y200297D01*
X22637Y200030D01*
X22554Y199731D01*
X22471Y199431D01*
X22288Y198781D01*
X22188Y198465D01*
X22088Y198165D01*
X21971Y197881D01*
X21871Y197632D01*
X21771Y197415D01*
X21671Y197248D01*
X21655Y197232D01*
X21638Y197198D01*
X21588Y197148D01*
X21538Y197082D01*
X21455Y196998D01*
X21355Y196898D01*
X21121Y196699D01*
X20821Y196499D01*
X20455Y196315D01*
X20255Y196249D01*
X20039Y196199D01*
X19822Y196165D01*
X19572Y196149D01*
X19555D01*
X19522D01*
X19455D01*
X19372Y196165D01*
X19272Y196182D01*
X19139Y196199D01*
X18856Y196265D01*
X18539Y196382D01*
X18372Y196465D01*
X18206Y196549D01*
X18023Y196665D01*
X17856Y196782D01*
X17689Y196932D01*
X17539Y197098D01*
X17523Y197115D01*
X17506Y197148D01*
X17456Y197198D01*
X17406Y197282D01*
X17339Y197382D01*
X17273Y197498D01*
X17206Y197648D01*
X17123Y197831D01*
X17040Y198015D01*
X16973Y198231D01*
X16906Y198481D01*
X16840Y198748D01*
X16790Y199031D01*
X16740Y199347D01*
X16723Y199681D01*
X16706Y200047D01*
Y200231D01*
X16723Y200364D01*
Y200514D01*
X16740Y200697D01*
X16756Y200897D01*
X16790Y201113D01*
X16856Y201580D01*
X16973Y202046D01*
X17123Y202496D01*
X17223Y202696D01*
X17339Y202879D01*
Y202896D01*
X17373Y202913D01*
X17406Y202963D01*
X17456Y203029D01*
X17589Y203196D01*
X17789Y203396D01*
X18056Y203596D01*
X18372Y203812D01*
X18739Y204012D01*
X19155Y204162D01*
X19589Y201847D01*
X19572D01*
X19505Y201813D01*
X19405Y201780D01*
X19289Y201713D01*
X19155Y201647D01*
X19022Y201547D01*
X18889Y201430D01*
X18772Y201280D01*
X18756Y201263D01*
X18722Y201197D01*
X18672Y201113D01*
X18622Y200980D01*
X18572Y200814D01*
X18522Y200614D01*
X18489Y200364D01*
X18472Y200097D01*
Y199931D01*
X18489Y199764D01*
X18506Y199547D01*
X18539Y199331D01*
X18589Y199098D01*
X18656Y198881D01*
X18756Y198698D01*
Y198681D01*
X18789Y198664D01*
X18889Y198565D01*
X19039Y198481D01*
X19139Y198448D01*
X19255Y198431D01*
X19272D01*
X19305D01*
X19355Y198448D01*
X19405Y198465D01*
X19555Y198531D01*
X19639Y198581D01*
X19705Y198664D01*
X19722Y198681D01*
X19755Y198748D01*
X19772Y198798D01*
X19805Y198881D01*
X19839Y198964D01*
X19872Y199081D01*
X19922Y199214D01*
X19972Y199381D01*
X20022Y199564D01*
X20088Y199781D01*
X20155Y200014D01*
X20222Y200297D01*
X20305Y200614D01*
X20388Y200963D01*
Y200980D01*
X20405Y201047D01*
X20438Y201147D01*
X20472Y201280D01*
X20505Y201447D01*
X20572Y201630D01*
X20622Y201830D01*
X20688Y202046D01*
X20855Y202496D01*
X21038Y202946D01*
X21138Y203163D01*
X21255Y203363D01*
X21371Y203546D01*
X21488Y203696D01*
Y203712D01*
X21521Y203729D01*
X21605Y203812D01*
X21754Y203946D01*
X21954Y204096D01*
X22221Y204229D01*
X22537Y204362D01*
X22904Y204446D01*
X23104Y204479D01*
X23321D01*
X23337D01*
X23370D01*
X23437D01*
X23537Y204462D01*
D02*
G37*
G36*
X26203Y191850D02*
X24820D01*
X24853Y191834D01*
X24937Y191751D01*
X25086Y191651D01*
X25253Y191484D01*
X25436Y191301D01*
X25636Y191068D01*
X25820Y190818D01*
X26003Y190518D01*
Y190501D01*
X26019Y190484D01*
X26036Y190434D01*
X26069Y190384D01*
X26136Y190218D01*
X26203Y190001D01*
X26286Y189735D01*
X26353Y189435D01*
X26403Y189118D01*
X26419Y188785D01*
Y188635D01*
X26403Y188452D01*
X26369Y188219D01*
X26319Y187969D01*
X26253Y187686D01*
X26153Y187386D01*
X26019Y187102D01*
X26003Y187069D01*
X25936Y186986D01*
X25853Y186853D01*
X25719Y186703D01*
X25553Y186519D01*
X25353Y186336D01*
X25136Y186186D01*
X24870Y186036D01*
X24853D01*
X24836Y186020D01*
X24787Y186003D01*
X24737Y185986D01*
X24570Y185936D01*
X24337Y185886D01*
X24037Y185820D01*
X23687Y185770D01*
X23270Y185736D01*
X22804Y185720D01*
X16923D01*
Y188169D01*
X21188D01*
X21205D01*
X21271D01*
X21371D01*
X21505D01*
X21655D01*
X21838D01*
X22221Y188185D01*
X22637Y188202D01*
X23037Y188219D01*
X23221Y188235D01*
X23370Y188252D01*
X23504Y188285D01*
X23604Y188302D01*
X23620D01*
X23670Y188335D01*
X23754Y188369D01*
X23854Y188418D01*
X23954Y188485D01*
X24070Y188568D01*
X24187Y188668D01*
X24287Y188785D01*
X24303Y188802D01*
X24320Y188852D01*
X24370Y188935D01*
X24403Y189035D01*
X24453Y189168D01*
X24503Y189318D01*
X24520Y189501D01*
X24537Y189685D01*
Y189785D01*
X24520Y189918D01*
X24487Y190068D01*
X24453Y190234D01*
X24403Y190434D01*
X24320Y190618D01*
X24204Y190818D01*
X24187Y190834D01*
X24137Y190901D01*
X24070Y190984D01*
X23970Y191084D01*
X23837Y191201D01*
X23704Y191317D01*
X23537Y191417D01*
X23354Y191501D01*
X23321Y191517D01*
X23287D01*
X23237Y191534D01*
X23171Y191551D01*
X23087Y191567D01*
X22971Y191584D01*
X22837Y191601D01*
X22687Y191617D01*
X22504Y191634D01*
X22304D01*
X22071Y191651D01*
X21804Y191667D01*
X21521Y191684D01*
X21188D01*
X20838D01*
X16923D01*
Y194133D01*
X26203D01*
Y191850D01*
D02*
G37*
G36*
X22354Y183520D02*
X22454Y183487D01*
X22604Y183437D01*
X22771Y183371D01*
X22971Y183304D01*
X23204Y183204D01*
X23437Y183087D01*
X23954Y182821D01*
X24220Y182671D01*
X24470Y182488D01*
X24737Y182304D01*
X24970Y182088D01*
X25203Y181871D01*
X25403Y181621D01*
X25420Y181605D01*
X25453Y181555D01*
X25503Y181488D01*
X25553Y181388D01*
X25636Y181255D01*
X25719Y181088D01*
X25820Y180905D01*
X25903Y180705D01*
X26003Y180472D01*
X26103Y180205D01*
X26186Y179922D01*
X26253Y179622D01*
X26319Y179306D01*
X26369Y178956D01*
X26403Y178606D01*
X26419Y178223D01*
Y178106D01*
X26403Y177973D01*
X26386Y177806D01*
X26369Y177589D01*
X26319Y177323D01*
X26269Y177056D01*
X26203Y176740D01*
X26103Y176423D01*
X26003Y176074D01*
X25853Y175724D01*
X25686Y175374D01*
X25486Y175024D01*
X25253Y174674D01*
X24986Y174341D01*
X24687Y174024D01*
X24670Y174008D01*
X24603Y173958D01*
X24503Y173874D01*
X24370Y173774D01*
X24187Y173641D01*
X23970Y173508D01*
X23720Y173358D01*
X23437Y173208D01*
X23104Y173058D01*
X22754Y172908D01*
X22354Y172775D01*
X21938Y172642D01*
X21471Y172542D01*
X20988Y172458D01*
X20455Y172408D01*
X19905Y172392D01*
X19888D01*
X19872D01*
X19822D01*
X19772D01*
X19605Y172408D01*
X19372Y172425D01*
X19105Y172442D01*
X18806Y172475D01*
X18456Y172525D01*
X18089Y172591D01*
X17689Y172692D01*
X17290Y172792D01*
X16873Y172925D01*
X16457Y173091D01*
X16057Y173275D01*
X15657Y173491D01*
X15290Y173758D01*
X14941Y174041D01*
X14924Y174058D01*
X14857Y174124D01*
X14774Y174207D01*
X14657Y174341D01*
X14524Y174507D01*
X14374Y174707D01*
X14208Y174941D01*
X14041Y175207D01*
X13874Y175490D01*
X13724Y175824D01*
X13574Y176173D01*
X13441Y176557D01*
X13325Y176973D01*
X13241Y177423D01*
X13174Y177889D01*
X13158Y178373D01*
Y178472D01*
X13174Y178606D01*
Y178772D01*
X13208Y178972D01*
X13225Y179206D01*
X13274Y179455D01*
X13325Y179739D01*
X13408Y180039D01*
X13491Y180355D01*
X13608Y180672D01*
X13741Y180988D01*
X13908Y181305D01*
X14091Y181621D01*
X14307Y181921D01*
X14557Y182204D01*
X14574Y182221D01*
X14591Y182238D01*
X14641Y182288D01*
X14707Y182354D01*
X14791Y182421D01*
X14890Y182504D01*
X15024Y182588D01*
X15157Y182687D01*
X15307Y182804D01*
X15490Y182904D01*
X15674Y183021D01*
X15890Y183121D01*
X16123Y183237D01*
X16357Y183337D01*
X16623Y183437D01*
X16906Y183520D01*
X17523Y180955D01*
X17506D01*
X17473Y180938D01*
X17423Y180921D01*
X17356Y180905D01*
X17173Y180838D01*
X16956Y180755D01*
X16706Y180622D01*
X16440Y180455D01*
X16190Y180238D01*
X15957Y179989D01*
X15923Y179955D01*
X15857Y179855D01*
X15774Y179705D01*
X15657Y179505D01*
X15557Y179255D01*
X15457Y178956D01*
X15390Y178606D01*
X15374Y178239D01*
Y178106D01*
X15390Y178006D01*
X15407Y177889D01*
X15424Y177740D01*
X15507Y177423D01*
X15624Y177056D01*
X15707Y176873D01*
X15807Y176673D01*
X15923Y176473D01*
X16073Y176290D01*
X16223Y176107D01*
X16407Y175940D01*
X16423Y175924D01*
X16457Y175907D01*
X16523Y175857D01*
X16607Y175807D01*
X16706Y175740D01*
X16856Y175657D01*
X17006Y175574D01*
X17206Y175507D01*
X17423Y175424D01*
X17656Y175340D01*
X17939Y175257D01*
X18239Y175190D01*
X18556Y175141D01*
X18922Y175091D01*
X19305Y175074D01*
X19722Y175057D01*
X19755D01*
X19822D01*
X19955D01*
X20122Y175074D01*
X20322Y175091D01*
X20538Y175107D01*
X20805Y175124D01*
X21071Y175174D01*
X21638Y175274D01*
X22204Y175424D01*
X22488Y175524D01*
X22737Y175640D01*
X22971Y175774D01*
X23187Y175924D01*
X23204Y175940D01*
X23237Y175957D01*
X23287Y176007D01*
X23337Y176074D01*
X23420Y176173D01*
X23504Y176273D01*
X23604Y176390D01*
X23687Y176540D01*
X23887Y176857D01*
X24037Y177240D01*
X24103Y177456D01*
X24153Y177690D01*
X24187Y177939D01*
X24204Y178189D01*
Y178289D01*
X24187Y178356D01*
X24170Y178556D01*
X24120Y178806D01*
X24037Y179072D01*
X23937Y179372D01*
X23770Y179672D01*
X23554Y179955D01*
X23537Y179972D01*
X23520Y179989D01*
X23420Y180072D01*
X23270Y180205D01*
X23037Y180372D01*
X22904Y180455D01*
X22754Y180555D01*
X22588Y180638D01*
X22388Y180722D01*
X22188Y180822D01*
X21971Y180888D01*
X21721Y180972D01*
X21471Y181038D01*
X22254Y183554D01*
X22271D01*
X22354Y183520D01*
D02*
G37*
G36*
X22654Y165794D02*
X22804Y165778D01*
X22971Y165744D01*
X23154Y165711D01*
X23370Y165661D01*
X23587Y165594D01*
X23820Y165511D01*
X24054Y165411D01*
X24303Y165295D01*
X24553Y165145D01*
X24787Y164978D01*
X25020Y164795D01*
X25253Y164578D01*
X25270Y164561D01*
X25303Y164528D01*
X25370Y164445D01*
X25436Y164362D01*
X25520Y164228D01*
X25620Y164095D01*
X25736Y163928D01*
X25836Y163728D01*
X25953Y163512D01*
X26069Y163279D01*
X26169Y163029D01*
X26253Y162762D01*
X26319Y162462D01*
X26386Y162162D01*
X26419Y161829D01*
X26436Y161496D01*
Y161329D01*
X26419Y161213D01*
X26403Y161063D01*
X26386Y160880D01*
X26353Y160696D01*
X26319Y160480D01*
X26203Y160030D01*
X26119Y159797D01*
X26019Y159547D01*
X25903Y159313D01*
X25769Y159064D01*
X25620Y158830D01*
X25453Y158614D01*
X25436Y158597D01*
X25403Y158564D01*
X25353Y158514D01*
X25270Y158431D01*
X25170Y158347D01*
X25053Y158247D01*
X24903Y158131D01*
X24753Y158031D01*
X24570Y157914D01*
X24370Y157798D01*
X24153Y157681D01*
X23920Y157581D01*
X23670Y157481D01*
X23420Y157414D01*
X23137Y157348D01*
X22837Y157298D01*
X22537Y159680D01*
X22554D01*
X22571D01*
X22621Y159697D01*
X22687D01*
X22854Y159747D01*
X23054Y159797D01*
X23287Y159863D01*
X23520Y159980D01*
X23737Y160113D01*
X23937Y160280D01*
X23954Y160296D01*
X24004Y160363D01*
X24087Y160480D01*
X24170Y160613D01*
X24253Y160796D01*
X24337Y160996D01*
X24387Y161246D01*
X24403Y161496D01*
Y161529D01*
X24387Y161629D01*
X24370Y161762D01*
X24337Y161929D01*
X24270Y162129D01*
X24170Y162346D01*
X24020Y162562D01*
X23837Y162762D01*
X23804Y162779D01*
X23737Y162845D01*
X23604Y162929D01*
X23420Y163029D01*
X23204Y163129D01*
X22937Y163212D01*
X22621Y163279D01*
X22271Y163295D01*
X22254D01*
X22221D01*
X22188D01*
X22121D01*
X21954Y163262D01*
X21738Y163229D01*
X21505Y163179D01*
X21255Y163079D01*
X21005Y162962D01*
X20788Y162795D01*
X20772Y162779D01*
X20705Y162712D01*
X20622Y162595D01*
X20505Y162462D01*
X20405Y162279D01*
X20322Y162079D01*
X20255Y161846D01*
X20238Y161579D01*
Y161496D01*
X20255Y161396D01*
Y161263D01*
X20288Y161096D01*
X20322Y160913D01*
X20372Y160696D01*
X20438Y160463D01*
X18439Y160730D01*
Y160896D01*
X18422Y161080D01*
X18406Y161296D01*
X18356Y161546D01*
X18272Y161796D01*
X18173Y162029D01*
X18023Y162246D01*
X18006Y162262D01*
X17939Y162329D01*
X17839Y162412D01*
X17689Y162512D01*
X17523Y162612D01*
X17306Y162696D01*
X17056Y162762D01*
X16790Y162779D01*
X16757D01*
X16690D01*
X16556Y162762D01*
X16423Y162729D01*
X16257Y162679D01*
X16073Y162612D01*
X15907Y162512D01*
X15757Y162379D01*
X15740Y162362D01*
X15690Y162312D01*
X15624Y162229D01*
X15557Y162112D01*
X15490Y161962D01*
X15424Y161796D01*
X15374Y161596D01*
X15357Y161363D01*
Y161263D01*
X15374Y161146D01*
X15407Y160996D01*
X15474Y160813D01*
X15540Y160646D01*
X15657Y160463D01*
X15807Y160280D01*
X15823Y160263D01*
X15890Y160213D01*
X15990Y160130D01*
X16123Y160047D01*
X16307Y159947D01*
X16523Y159863D01*
X16773Y159797D01*
X17073Y159747D01*
X16690Y157481D01*
X16673D01*
X16640Y157498D01*
X16573Y157514D01*
X16490Y157531D01*
X16390Y157548D01*
X16290Y157581D01*
X16023Y157664D01*
X15723Y157747D01*
X15407Y157881D01*
X15107Y158014D01*
X14824Y158181D01*
X14791Y158197D01*
X14707Y158264D01*
X14574Y158380D01*
X14424Y158530D01*
X14241Y158714D01*
X14058Y158947D01*
X13891Y159214D01*
X13724Y159513D01*
Y159530D01*
X13708Y159547D01*
X13691Y159597D01*
X13658Y159663D01*
X13591Y159847D01*
X13524Y160080D01*
X13458Y160363D01*
X13391Y160680D01*
X13341Y161046D01*
X13325Y161429D01*
Y161613D01*
X13341Y161729D01*
X13358Y161879D01*
X13391Y162062D01*
X13424Y162262D01*
X13474Y162479D01*
X13524Y162696D01*
X13608Y162929D01*
X13708Y163179D01*
X13808Y163412D01*
X13958Y163662D01*
X14108Y163895D01*
X14291Y164112D01*
X14491Y164328D01*
X14507Y164345D01*
X14541Y164362D01*
X14591Y164411D01*
X14657Y164478D01*
X14741Y164545D01*
X14857Y164611D01*
X15107Y164795D01*
X15424Y164961D01*
X15790Y165094D01*
X16190Y165211D01*
X16407Y165228D01*
X16623Y165244D01*
X16640D01*
X16690D01*
X16790Y165228D01*
X16906Y165211D01*
X17040Y165194D01*
X17206Y165145D01*
X17390Y165094D01*
X17589Y165011D01*
X17806Y164911D01*
X18023Y164795D01*
X18256Y164645D01*
X18472Y164461D01*
X18706Y164245D01*
X18922Y164012D01*
X19122Y163728D01*
X19322Y163395D01*
Y163412D01*
X19339Y163445D01*
X19355Y163495D01*
X19372Y163578D01*
X19405Y163678D01*
X19439Y163778D01*
X19555Y164028D01*
X19689Y164312D01*
X19872Y164595D01*
X20105Y164878D01*
X20388Y165145D01*
X20405D01*
X20422Y165178D01*
X20472Y165211D01*
X20538Y165244D01*
X20705Y165361D01*
X20938Y165478D01*
X21238Y165594D01*
X21571Y165711D01*
X21954Y165778D01*
X22371Y165811D01*
X22388D01*
X22437D01*
X22537D01*
X22654Y165794D01*
D02*
G37*
G36*
X22188Y156065D02*
X22321Y156048D01*
X22488Y156032D01*
X22671Y155998D01*
X22871Y155965D01*
X23304Y155865D01*
X23770Y155698D01*
X24020Y155598D01*
X24253Y155465D01*
X24503Y155332D01*
X24737Y155165D01*
X24753Y155148D01*
X24803Y155115D01*
X24886Y155032D01*
X25003Y154932D01*
X25136Y154815D01*
X25270Y154649D01*
X25420Y154465D01*
X25586Y154265D01*
X25736Y154032D01*
X25903Y153766D01*
X26036Y153482D01*
X26169Y153183D01*
X26286Y152849D01*
X26369Y152483D01*
X26419Y152100D01*
X26436Y151700D01*
Y151533D01*
X26419Y151400D01*
X26403Y151250D01*
X26386Y151084D01*
X26353Y150883D01*
X26319Y150684D01*
X26203Y150217D01*
X26119Y149984D01*
X26036Y149734D01*
X25919Y149501D01*
X25803Y149267D01*
X25653Y149034D01*
X25486Y148818D01*
X25470Y148801D01*
X25436Y148768D01*
X25386Y148718D01*
X25320Y148634D01*
X25220Y148551D01*
X25103Y148451D01*
X24970Y148351D01*
X24803Y148235D01*
X24637Y148118D01*
X24453Y148001D01*
X24237Y147885D01*
X24004Y147785D01*
X23770Y147685D01*
X23504Y147601D01*
X23237Y147535D01*
X22937Y147485D01*
X22671Y149934D01*
X22687D01*
X22704D01*
X22804Y149951D01*
X22954Y150001D01*
X23154Y150050D01*
X23354Y150117D01*
X23570Y150234D01*
X23787Y150367D01*
X23987Y150534D01*
X24004Y150550D01*
X24054Y150634D01*
X24137Y150734D01*
X24220Y150883D01*
X24320Y151050D01*
X24387Y151250D01*
X24453Y151467D01*
X24470Y151717D01*
Y151750D01*
X24453Y151850D01*
X24437Y151983D01*
X24387Y152166D01*
X24320Y152366D01*
X24204Y152583D01*
X24054Y152799D01*
X23854Y153016D01*
X23820Y153033D01*
X23737Y153099D01*
X23587Y153183D01*
X23370Y153283D01*
X23104Y153383D01*
X22787Y153466D01*
X22404Y153533D01*
X21954Y153549D01*
X21938D01*
X21904D01*
X21838D01*
X21754D01*
X21655Y153533D01*
X21554Y153516D01*
X21288Y153482D01*
X21005Y153416D01*
X20705Y153333D01*
X20422Y153199D01*
X20172Y153016D01*
X20138Y152999D01*
X20072Y152916D01*
X19988Y152799D01*
X19872Y152649D01*
X19755Y152450D01*
X19672Y152216D01*
X19605Y151950D01*
X19572Y151650D01*
Y151550D01*
X19589Y151467D01*
X19605Y151383D01*
X19622Y151267D01*
X19689Y151017D01*
X19805Y150734D01*
X19972Y150417D01*
X20072Y150250D01*
X20188Y150084D01*
X20338Y149934D01*
X20505Y149767D01*
X20222Y147785D01*
X13558Y149051D01*
Y155515D01*
X15857D01*
Y150900D01*
X18039Y150500D01*
Y150517D01*
X18023Y150534D01*
X18006Y150584D01*
X17973Y150650D01*
X17906Y150817D01*
X17823Y151017D01*
X17756Y151283D01*
X17689Y151567D01*
X17639Y151866D01*
X17623Y152183D01*
Y152350D01*
X17639Y152450D01*
X17656Y152600D01*
X17689Y152766D01*
X17723Y152949D01*
X17773Y153149D01*
X17839Y153349D01*
X17923Y153583D01*
X18006Y153799D01*
X18123Y154032D01*
X18272Y154265D01*
X18422Y154499D01*
X18606Y154732D01*
X18822Y154949D01*
X18839Y154965D01*
X18872Y154999D01*
X18939Y155049D01*
X19039Y155132D01*
X19155Y155215D01*
X19305Y155315D01*
X19472Y155415D01*
X19655Y155515D01*
X19872Y155615D01*
X20105Y155732D01*
X20355Y155815D01*
X20638Y155898D01*
X20921Y155982D01*
X21238Y156032D01*
X21571Y156065D01*
X21921Y156081D01*
X21938D01*
X21988D01*
X22071D01*
X22188Y156065D01*
D02*
G37*
G36*
X23620Y144686D02*
X26203D01*
Y142304D01*
X23620D01*
Y137072D01*
X21488D01*
X13341Y142604D01*
Y144686D01*
X21471D01*
Y146269D01*
X23620D01*
Y144686D01*
D02*
G37*
G36*
X26203Y121162D02*
X13391D01*
Y130642D01*
X15557D01*
Y123744D01*
X18389D01*
Y130158D01*
X20555D01*
Y123744D01*
X24037D01*
Y130892D01*
X26203D01*
Y121162D01*
D02*
G37*
G36*
X22354Y118896D02*
X22454Y118863D01*
X22604Y118813D01*
X22771Y118746D01*
X22971Y118680D01*
X23204Y118580D01*
X23437Y118463D01*
X23954Y118197D01*
X24220Y118047D01*
X24470Y117863D01*
X24737Y117680D01*
X24970Y117464D01*
X25203Y117247D01*
X25403Y116997D01*
X25420Y116980D01*
X25453Y116930D01*
X25503Y116864D01*
X25553Y116764D01*
X25636Y116631D01*
X25719Y116464D01*
X25820Y116281D01*
X25903Y116081D01*
X26003Y115848D01*
X26103Y115581D01*
X26186Y115298D01*
X26253Y114998D01*
X26319Y114681D01*
X26369Y114331D01*
X26403Y113982D01*
X26419Y113599D01*
Y113482D01*
X26403Y113349D01*
X26386Y113182D01*
X26369Y112965D01*
X26319Y112699D01*
X26269Y112432D01*
X26203Y112116D01*
X26103Y111799D01*
X26003Y111449D01*
X25853Y111100D01*
X25686Y110750D01*
X25486Y110400D01*
X25253Y110050D01*
X24986Y109717D01*
X24687Y109400D01*
X24670Y109383D01*
X24603Y109334D01*
X24503Y109250D01*
X24370Y109150D01*
X24187Y109017D01*
X23970Y108884D01*
X23720Y108734D01*
X23437Y108584D01*
X23104Y108434D01*
X22754Y108284D01*
X22354Y108151D01*
X21938Y108017D01*
X21471Y107917D01*
X20988Y107834D01*
X20455Y107784D01*
X19905Y107767D01*
X19888D01*
X19872D01*
X19822D01*
X19772D01*
X19605Y107784D01*
X19372Y107801D01*
X19105Y107817D01*
X18806Y107851D01*
X18456Y107901D01*
X18089Y107967D01*
X17689Y108067D01*
X17290Y108167D01*
X16873Y108301D01*
X16457Y108467D01*
X16057Y108651D01*
X15657Y108867D01*
X15290Y109134D01*
X14941Y109417D01*
X14924Y109433D01*
X14857Y109500D01*
X14774Y109583D01*
X14657Y109717D01*
X14524Y109883D01*
X14374Y110083D01*
X14208Y110317D01*
X14041Y110583D01*
X13874Y110866D01*
X13724Y111199D01*
X13574Y111549D01*
X13441Y111933D01*
X13325Y112349D01*
X13241Y112799D01*
X13174Y113265D01*
X13158Y113748D01*
Y113848D01*
X13174Y113982D01*
Y114148D01*
X13208Y114348D01*
X13225Y114581D01*
X13274Y114831D01*
X13325Y115114D01*
X13408Y115414D01*
X13491Y115731D01*
X13608Y116048D01*
X13741Y116364D01*
X13908Y116681D01*
X14091Y116997D01*
X14307Y117297D01*
X14557Y117580D01*
X14574Y117597D01*
X14591Y117613D01*
X14641Y117664D01*
X14707Y117730D01*
X14791Y117797D01*
X14890Y117880D01*
X15024Y117963D01*
X15157Y118063D01*
X15307Y118180D01*
X15490Y118280D01*
X15674Y118397D01*
X15890Y118497D01*
X16123Y118613D01*
X16357Y118713D01*
X16623Y118813D01*
X16906Y118896D01*
X17523Y116331D01*
X17506D01*
X17473Y116314D01*
X17423Y116297D01*
X17356Y116281D01*
X17173Y116214D01*
X16956Y116131D01*
X16706Y115998D01*
X16440Y115831D01*
X16190Y115614D01*
X15957Y115364D01*
X15923Y115331D01*
X15857Y115231D01*
X15774Y115081D01*
X15657Y114881D01*
X15557Y114631D01*
X15457Y114331D01*
X15390Y113982D01*
X15374Y113615D01*
Y113482D01*
X15390Y113382D01*
X15407Y113265D01*
X15424Y113115D01*
X15507Y112799D01*
X15624Y112432D01*
X15707Y112249D01*
X15807Y112049D01*
X15923Y111849D01*
X16073Y111666D01*
X16223Y111483D01*
X16407Y111316D01*
X16423Y111299D01*
X16457Y111283D01*
X16523Y111233D01*
X16607Y111183D01*
X16706Y111116D01*
X16856Y111033D01*
X17006Y110950D01*
X17206Y110883D01*
X17423Y110800D01*
X17656Y110716D01*
X17939Y110633D01*
X18239Y110566D01*
X18556Y110516D01*
X18922Y110466D01*
X19305Y110450D01*
X19722Y110433D01*
X19755D01*
X19822D01*
X19955D01*
X20122Y110450D01*
X20322Y110466D01*
X20538Y110483D01*
X20805Y110500D01*
X21071Y110550D01*
X21638Y110650D01*
X22204Y110800D01*
X22488Y110899D01*
X22737Y111016D01*
X22971Y111150D01*
X23187Y111299D01*
X23204Y111316D01*
X23237Y111333D01*
X23287Y111383D01*
X23337Y111449D01*
X23420Y111549D01*
X23504Y111649D01*
X23604Y111766D01*
X23687Y111916D01*
X23887Y112232D01*
X24037Y112616D01*
X24103Y112832D01*
X24153Y113065D01*
X24187Y113315D01*
X24204Y113565D01*
Y113665D01*
X24187Y113732D01*
X24170Y113932D01*
X24120Y114182D01*
X24037Y114448D01*
X23937Y114748D01*
X23770Y115048D01*
X23554Y115331D01*
X23537Y115348D01*
X23520Y115364D01*
X23420Y115448D01*
X23270Y115581D01*
X23037Y115748D01*
X22904Y115831D01*
X22754Y115931D01*
X22588Y116014D01*
X22388Y116097D01*
X22188Y116197D01*
X21971Y116264D01*
X21721Y116347D01*
X21471Y116414D01*
X22254Y118930D01*
X22271D01*
X22354Y118896D01*
D02*
G37*
G36*
X26203Y96305D02*
X13391D01*
Y105785D01*
X15557D01*
Y98888D01*
X18389D01*
Y105302D01*
X20555D01*
Y98888D01*
X24037D01*
Y106035D01*
X26203D01*
Y96305D01*
D02*
G37*
G36*
X142994Y28435D02*
X144193D01*
Y26503D01*
X142611D01*
X142094Y23920D01*
X144193D01*
X144194Y21988D01*
X141695D01*
X141012Y18589D01*
X139046D01*
X139712Y21988D01*
X137763D01*
X137080Y18589D01*
X135114D01*
X135797Y21988D01*
X134614D01*
X134614Y23920D01*
X136197D01*
X136713Y26503D01*
X134614D01*
Y28435D01*
X137113D01*
X137813Y31834D01*
X139762D01*
X139079Y28435D01*
X140978D01*
X141661Y31834D01*
X143694D01*
X142994Y28435D01*
D02*
G37*
G36*
X165002Y31667D02*
X165119D01*
X165268Y31634D01*
X165435Y31617D01*
X165602Y31584D01*
X165985Y31484D01*
X166385Y31334D01*
X166585Y31234D01*
X166785Y31134D01*
X166984Y31001D01*
X167168Y30851D01*
X167184Y30834D01*
X167218Y30817D01*
X167251Y30768D01*
X167318Y30701D01*
X167401Y30618D01*
X167484Y30518D01*
X167584Y30384D01*
X167684Y30251D01*
X167784Y30084D01*
X167901Y29918D01*
X168001Y29718D01*
X168101Y29501D01*
X168184Y29285D01*
X168267Y29035D01*
X168351Y28768D01*
X168401Y28485D01*
X166018Y28235D01*
Y28252D01*
Y28269D01*
X166001Y28352D01*
X165968Y28485D01*
X165918Y28635D01*
X165868Y28818D01*
X165785Y28985D01*
X165685Y29151D01*
X165552Y29302D01*
X165535Y29318D01*
X165485Y29351D01*
X165402Y29418D01*
X165302Y29485D01*
X165152Y29535D01*
X165002Y29601D01*
X164819Y29635D01*
X164602Y29651D01*
X164569D01*
X164469Y29635D01*
X164336Y29618D01*
X164152Y29568D01*
X163952Y29485D01*
X163719Y29351D01*
X163503Y29185D01*
X163286Y28952D01*
X163269Y28918D01*
X163236Y28868D01*
X163203Y28802D01*
X163153Y28718D01*
X163103Y28618D01*
X163053Y28485D01*
X163003Y28319D01*
X162953Y28135D01*
X162886Y27935D01*
X162836Y27702D01*
X162786Y27419D01*
X162736Y27136D01*
X162686Y26803D01*
X162653Y26436D01*
X162619Y26036D01*
X162636Y26053D01*
X162670Y26086D01*
X162720Y26136D01*
X162786Y26203D01*
X162869Y26286D01*
X162986Y26386D01*
X163103Y26486D01*
X163253Y26586D01*
X163586Y26786D01*
X163969Y26969D01*
X164186Y27036D01*
X164419Y27086D01*
X164652Y27119D01*
X164902Y27136D01*
X165052D01*
X165152Y27119D01*
X165285Y27102D01*
X165452Y27069D01*
X165618Y27036D01*
X165802Y26986D01*
X166001Y26919D01*
X166218Y26853D01*
X166435Y26752D01*
X166668Y26636D01*
X166885Y26503D01*
X167101Y26336D01*
X167318Y26169D01*
X167534Y25953D01*
X167551Y25936D01*
X167584Y25903D01*
X167634Y25836D01*
X167701Y25736D01*
X167784Y25620D01*
X167884Y25486D01*
X167984Y25320D01*
X168084Y25137D01*
X168184Y24937D01*
X168284Y24703D01*
X168384Y24453D01*
X168467Y24187D01*
X168534Y23887D01*
X168584Y23587D01*
X168617Y23271D01*
X168634Y22921D01*
Y22904D01*
Y22837D01*
Y22738D01*
X168617Y22588D01*
X168600Y22421D01*
X168567Y22238D01*
X168534Y22021D01*
X168484Y21788D01*
X168434Y21538D01*
X168351Y21288D01*
X168251Y21022D01*
X168151Y20755D01*
X168001Y20488D01*
X167851Y20238D01*
X167667Y19989D01*
X167468Y19755D01*
X167451Y19739D01*
X167418Y19705D01*
X167351Y19639D01*
X167268Y19572D01*
X167151Y19489D01*
X167018Y19389D01*
X166851Y19272D01*
X166668Y19172D01*
X166468Y19056D01*
X166235Y18939D01*
X166001Y18839D01*
X165735Y18756D01*
X165452Y18689D01*
X165168Y18622D01*
X164852Y18589D01*
X164519Y18573D01*
X164435D01*
X164336Y18589D01*
X164202D01*
X164036Y18622D01*
X163836Y18656D01*
X163619Y18706D01*
X163386Y18756D01*
X163136Y18839D01*
X162886Y18939D01*
X162619Y19056D01*
X162353Y19206D01*
X162086Y19372D01*
X161820Y19572D01*
X161570Y19805D01*
X161320Y20072D01*
X161303Y20088D01*
X161270Y20139D01*
X161203Y20238D01*
X161120Y20355D01*
X161037Y20522D01*
X160937Y20738D01*
X160820Y20971D01*
X160704Y21255D01*
X160587Y21588D01*
X160470Y21954D01*
X160370Y22354D01*
X160287Y22804D01*
X160204Y23287D01*
X160137Y23820D01*
X160104Y24403D01*
X160087Y25020D01*
Y25036D01*
Y25053D01*
Y25103D01*
Y25170D01*
Y25253D01*
X160104Y25353D01*
Y25603D01*
X160120Y25886D01*
X160154Y26219D01*
X160204Y26586D01*
X160254Y26986D01*
X160320Y27402D01*
X160404Y27819D01*
X160504Y28235D01*
X160637Y28668D01*
X160787Y29068D01*
X160953Y29451D01*
X161153Y29801D01*
X161387Y30118D01*
X161403Y30134D01*
X161453Y30185D01*
X161520Y30268D01*
X161620Y30368D01*
X161753Y30484D01*
X161903Y30618D01*
X162086Y30751D01*
X162303Y30901D01*
X162520Y31051D01*
X162786Y31184D01*
X163053Y31317D01*
X163353Y31434D01*
X163669Y31534D01*
X164019Y31617D01*
X164369Y31667D01*
X164752Y31684D01*
X164902D01*
X165002Y31667D01*
D02*
G37*
G36*
X125634Y28285D02*
X125867Y28252D01*
X126134Y28202D01*
X126417Y28119D01*
X126717Y28019D01*
X126984Y27885D01*
X127000D01*
X127017Y27869D01*
X127100Y27802D01*
X127234Y27719D01*
X127384Y27569D01*
X127567Y27402D01*
X127734Y27186D01*
X127900Y26936D01*
X128050Y26653D01*
X128067Y26619D01*
X128100Y26536D01*
X128133Y26403D01*
X128183Y26203D01*
X128233Y25936D01*
X128283Y25603D01*
X128300Y25403D01*
Y25203D01*
X128317Y24986D01*
Y24737D01*
X128317Y18806D01*
X125868D01*
X125867Y24104D01*
Y24120D01*
Y24170D01*
Y24237D01*
Y24320D01*
Y24437D01*
X125851Y24570D01*
X125834Y24853D01*
X125801Y25153D01*
X125751Y25436D01*
X125684Y25703D01*
X125651Y25803D01*
X125601Y25886D01*
X125584Y25903D01*
X125534Y25969D01*
X125451Y26053D01*
X125351Y26153D01*
X125201Y26253D01*
X125018Y26336D01*
X124801Y26403D01*
X124551Y26419D01*
X124468D01*
X124368Y26403D01*
X124235Y26386D01*
X124085Y26336D01*
X123918Y26286D01*
X123752Y26203D01*
X123585Y26103D01*
X123568Y26086D01*
X123519Y26036D01*
X123435Y25969D01*
X123335Y25870D01*
X123235Y25736D01*
X123119Y25570D01*
X123019Y25386D01*
X122935Y25170D01*
Y25137D01*
X122902Y25053D01*
X122869Y24903D01*
X122835Y24703D01*
X122802Y24437D01*
X122769Y24104D01*
X122752Y23720D01*
X122736Y23487D01*
Y23254D01*
Y18806D01*
X120286D01*
X120286Y23887D01*
Y23904D01*
Y23954D01*
Y24020D01*
Y24104D01*
Y24220D01*
Y24337D01*
X120270Y24603D01*
X120253Y24903D01*
X120237Y25186D01*
X120203Y25436D01*
X120170Y25536D01*
X120153Y25620D01*
Y25636D01*
X120136Y25686D01*
X120103Y25753D01*
X120053Y25853D01*
X119920Y26036D01*
X119837Y26136D01*
X119737Y26219D01*
X119720Y26236D01*
X119687Y26253D01*
X119620Y26286D01*
X119553Y26319D01*
X119437Y26353D01*
X119320Y26386D01*
X119170Y26419D01*
X118904D01*
X118804Y26403D01*
X118670Y26386D01*
X118504Y26336D01*
X118337Y26286D01*
X118154Y26203D01*
X117971Y26103D01*
X117954Y26086D01*
X117904Y26053D01*
X117821Y25969D01*
X117721Y25886D01*
X117621Y25753D01*
X117504Y25603D01*
X117404Y25420D01*
X117321Y25220D01*
Y25186D01*
X117288Y25103D01*
X117271Y24970D01*
X117238Y24770D01*
X117204Y24503D01*
X117188Y24353D01*
X117171Y24170D01*
X117154Y23987D01*
X117154Y23770D01*
X117138Y23554D01*
Y23304D01*
Y18806D01*
X114689D01*
X114689Y28085D01*
X116954D01*
Y26803D01*
X116971Y26819D01*
X117004Y26869D01*
X117071Y26936D01*
X117171Y27036D01*
X117288Y27152D01*
X117421Y27286D01*
X117587Y27419D01*
X117771Y27552D01*
X117971Y27685D01*
X118187Y27835D01*
X118421Y27952D01*
X118670Y28069D01*
X118937Y28169D01*
X119220Y28235D01*
X119520Y28285D01*
X119820Y28302D01*
X119970D01*
X120136Y28285D01*
X120353Y28252D01*
X120586Y28202D01*
X120853Y28135D01*
X121119Y28052D01*
X121369Y27919D01*
X121403Y27902D01*
X121486Y27852D01*
X121603Y27769D01*
X121753Y27652D01*
X121919Y27485D01*
X122086Y27302D01*
X122269Y27086D01*
X122436Y26819D01*
Y26836D01*
X122469Y26853D01*
X122536Y26936D01*
X122669Y27069D01*
X122835Y27236D01*
X123035Y27402D01*
X123252Y27586D01*
X123502Y27769D01*
X123752Y27919D01*
X123768D01*
X123785Y27935D01*
X123885Y27985D01*
X124018Y28035D01*
X124218Y28119D01*
X124435Y28185D01*
X124701Y28235D01*
X124968Y28285D01*
X125268Y28302D01*
X125434D01*
X125634Y28285D01*
D02*
G37*
G36*
X108941D02*
X109108D01*
X109274Y28269D01*
X109474Y28252D01*
X109857Y28202D01*
X110274Y28135D01*
X110657Y28035D01*
X110824Y27969D01*
X110990Y27902D01*
X111007D01*
X111023Y27885D01*
X111123Y27835D01*
X111257Y27752D01*
X111440Y27635D01*
X111623Y27502D01*
X111806Y27319D01*
X111973Y27136D01*
X112123Y26919D01*
X112140Y26886D01*
X112173Y26803D01*
X112206Y26736D01*
X112223Y26653D01*
X112256Y26536D01*
X112290Y26419D01*
X112323Y26286D01*
X112356Y26119D01*
X112373Y25936D01*
X112406Y25736D01*
X112423Y25520D01*
X112440Y25270D01*
X112456Y25003D01*
Y24720D01*
X112423Y21855D01*
Y21838D01*
Y21804D01*
Y21738D01*
Y21655D01*
Y21555D01*
Y21438D01*
X112440Y21171D01*
X112456Y20872D01*
X112473Y20572D01*
X112506Y20288D01*
X112540Y20039D01*
Y20005D01*
X112556Y19939D01*
X112590Y19822D01*
X112639Y19672D01*
X112706Y19489D01*
X112773Y19272D01*
X112873Y19039D01*
X112989Y18806D01*
X110557D01*
Y18822D01*
X110540Y18856D01*
X110524Y18906D01*
X110490Y18989D01*
X110457Y19089D01*
X110407Y19206D01*
X110357Y19355D01*
X110307Y19522D01*
Y19539D01*
Y19555D01*
X110274Y19639D01*
X110257Y19739D01*
X110224Y19805D01*
X110190Y19772D01*
X110107Y19705D01*
X109991Y19589D01*
X109824Y19455D01*
X109624Y19306D01*
X109391Y19155D01*
X109141Y19022D01*
X108874Y18889D01*
X108841Y18872D01*
X108758Y18839D01*
X108608Y18789D01*
X108424Y18739D01*
X108191Y18689D01*
X107941Y18639D01*
X107658Y18606D01*
X107358Y18589D01*
X107225D01*
X107125Y18606D01*
X107008D01*
X106859Y18622D01*
X106542Y18689D01*
X106175Y18772D01*
X105792Y18906D01*
X105426Y19105D01*
X105259Y19222D01*
X105093Y19355D01*
X105076Y19372D01*
X105059Y19389D01*
X105026Y19439D01*
X104959Y19489D01*
X104843Y19672D01*
X104693Y19889D01*
X104543Y20172D01*
X104410Y20522D01*
X104309Y20905D01*
X104293Y21105D01*
X104276Y21321D01*
Y21338D01*
Y21355D01*
Y21455D01*
X104293Y21605D01*
X104326Y21788D01*
X104359Y22004D01*
X104426Y22238D01*
X104526Y22488D01*
X104643Y22721D01*
X104659Y22754D01*
X104709Y22821D01*
X104793Y22937D01*
X104926Y23071D01*
X105076Y23221D01*
X105243Y23370D01*
X105459Y23520D01*
X105692Y23654D01*
X105726Y23670D01*
X105826Y23704D01*
X105975Y23770D01*
X106192Y23854D01*
X106475Y23937D01*
X106808Y24037D01*
X107192Y24137D01*
X107641Y24220D01*
X107658D01*
X107725Y24237D01*
X107808Y24253D01*
X107925Y24270D01*
X108058Y24304D01*
X108225Y24337D01*
X108591Y24420D01*
X108991Y24520D01*
X109391Y24620D01*
X109574Y24670D01*
X109741Y24737D01*
X109907Y24787D01*
X110040Y24837D01*
Y25070D01*
Y25087D01*
Y25103D01*
Y25186D01*
X110024Y25320D01*
X109991Y25470D01*
X109957Y25653D01*
X109891Y25820D01*
X109791Y25969D01*
X109674Y26103D01*
X109657Y26119D01*
X109607Y26153D01*
X109507Y26203D01*
X109374Y26269D01*
X109207Y26319D01*
X108974Y26369D01*
X108691Y26403D01*
X108358Y26419D01*
X108241D01*
X108125Y26403D01*
X107975Y26386D01*
X107808Y26353D01*
X107641Y26303D01*
X107475Y26236D01*
X107325Y26153D01*
X107308Y26136D01*
X107258Y26103D01*
X107192Y26036D01*
X107108Y25936D01*
X107025Y25820D01*
X106925Y25653D01*
X106825Y25470D01*
X106742Y25236D01*
X104526Y25636D01*
Y25653D01*
X104543Y25703D01*
X104559Y25769D01*
X104593Y25853D01*
X104643Y25969D01*
X104693Y26103D01*
X104826Y26386D01*
X104993Y26719D01*
X105226Y27052D01*
X105492Y27369D01*
X105809Y27635D01*
X105826D01*
X105859Y27669D01*
X105909Y27702D01*
X105975Y27735D01*
X106076Y27785D01*
X106192Y27852D01*
X106342Y27902D01*
X106492Y27969D01*
X106675Y28035D01*
X106875Y28085D01*
X107108Y28152D01*
X107342Y28202D01*
X107608Y28235D01*
X107908Y28269D01*
X108208Y28302D01*
X108808D01*
X108941Y28285D01*
D02*
G37*
G36*
X93331Y29451D02*
X89549D01*
X89549Y18806D01*
X86966D01*
X86966Y29451D01*
X83168D01*
Y31617D01*
X93331D01*
Y29451D01*
D02*
G37*
G36*
X98712Y28285D02*
X98862D01*
X99028Y28252D01*
X99228Y28235D01*
X99445Y28185D01*
X99695Y28135D01*
X99945Y28052D01*
X100211Y27969D01*
X100494Y27852D01*
X100761Y27719D01*
X101028Y27569D01*
X101294Y27369D01*
X101544Y27169D01*
X101777Y26919D01*
X101794Y26902D01*
X101827Y26852D01*
X101894Y26769D01*
X101960Y26669D01*
X102060Y26519D01*
X102160Y26336D01*
X102260Y26136D01*
X102377Y25886D01*
X102477Y25603D01*
X102594Y25303D01*
X102677Y24953D01*
X102777Y24587D01*
X102843Y24170D01*
X102893Y23720D01*
X102927Y23254D01*
Y22737D01*
X96779D01*
Y22721D01*
Y22688D01*
Y22637D01*
X96796Y22554D01*
X96812Y22354D01*
X96863Y22104D01*
X96929Y21838D01*
X97029Y21555D01*
X97179Y21271D01*
X97362Y21021D01*
X97396Y20988D01*
X97462Y20922D01*
X97579Y20838D01*
X97746Y20722D01*
X97962Y20605D01*
X98195Y20522D01*
X98479Y20455D01*
X98778Y20422D01*
X98878D01*
X98978Y20438D01*
X99112Y20455D01*
X99261Y20488D01*
X99411Y20555D01*
X99578Y20622D01*
X99728Y20722D01*
X99745Y20738D01*
X99795Y20788D01*
X99861Y20855D01*
X99961Y20971D01*
X100061Y21121D01*
X100161Y21288D01*
X100261Y21505D01*
X100344Y21755D01*
X102794Y21338D01*
Y21321D01*
X102777Y21271D01*
X102743Y21205D01*
X102710Y21121D01*
X102644Y21005D01*
X102594Y20872D01*
X102427Y20572D01*
X102210Y20238D01*
X101961Y19905D01*
X101644Y19572D01*
X101294Y19289D01*
X101277D01*
X101244Y19255D01*
X101194Y19222D01*
X101111Y19172D01*
X101011Y19122D01*
X100894Y19072D01*
X100761Y19006D01*
X100594Y18939D01*
X100411Y18872D01*
X100228Y18806D01*
X99795Y18706D01*
X99295Y18622D01*
X98745Y18589D01*
X98645D01*
X98512Y18606D01*
X98345Y18622D01*
X98145Y18639D01*
X97929Y18672D01*
X97662Y18722D01*
X97396Y18789D01*
X97112Y18872D01*
X96812Y18972D01*
X96513Y19105D01*
X96229Y19255D01*
X95929Y19439D01*
X95663Y19655D01*
X95413Y19889D01*
X95180Y20172D01*
X95163Y20188D01*
X95147Y20238D01*
X95096Y20305D01*
X95030Y20405D01*
X94963Y20522D01*
X94897Y20672D01*
X94813Y20855D01*
X94730Y21055D01*
X94630Y21271D01*
X94547Y21505D01*
X94480Y21771D01*
X94414Y22054D01*
X94347Y22354D01*
X94297Y22671D01*
X94280Y23021D01*
X94263Y23370D01*
Y23404D01*
Y23471D01*
X94280Y23587D01*
Y23754D01*
X94297Y23937D01*
X94330Y24170D01*
X94363Y24420D01*
X94414Y24687D01*
X94480Y24970D01*
X94563Y25270D01*
X94647Y25570D01*
X94763Y25870D01*
X94913Y26169D01*
X95063Y26453D01*
X95246Y26736D01*
X95463Y26986D01*
X95480Y27002D01*
X95513Y27036D01*
X95580Y27102D01*
X95680Y27186D01*
X95796Y27286D01*
X95946Y27402D01*
X96113Y27519D01*
X96296Y27652D01*
X96513Y27769D01*
X96729Y27885D01*
X96979Y28002D01*
X97262Y28102D01*
X97545Y28185D01*
X97845Y28252D01*
X98179Y28285D01*
X98512Y28302D01*
X98612D01*
X98712Y28285D01*
D02*
G37*
G36*
X154589Y31667D02*
X154739Y31651D01*
X154923Y31617D01*
X155122Y31567D01*
X155339Y31517D01*
X155572Y31451D01*
X155806Y31367D01*
X156055Y31251D01*
X156289Y31117D01*
X156522Y30968D01*
X156755Y30784D01*
X156988Y30584D01*
X157188Y30351D01*
X157205Y30334D01*
X157238Y30284D01*
X157305Y30185D01*
X157388Y30051D01*
X157472Y29868D01*
X157588Y29651D01*
X157705Y29401D01*
X157821Y29102D01*
X157938Y28768D01*
X158038Y28385D01*
X158155Y27952D01*
X158238Y27469D01*
X158321Y26952D01*
X158388Y26386D01*
X158421Y25786D01*
X158438Y25120D01*
Y25103D01*
Y25087D01*
Y25036D01*
Y24953D01*
Y24870D01*
Y24770D01*
X158421Y24520D01*
X158405Y24220D01*
X158371Y23887D01*
X158338Y23504D01*
X158288Y23104D01*
X158221Y22671D01*
X158121Y22238D01*
X158021Y21804D01*
X157905Y21371D01*
X157755Y20955D01*
X157588Y20555D01*
X157388Y20188D01*
X157172Y19872D01*
X157155Y19855D01*
X157122Y19822D01*
X157072Y19755D01*
X156988Y19672D01*
X156872Y19572D01*
X156755Y19455D01*
X156589Y19339D01*
X156422Y19222D01*
X156222Y19106D01*
X156006Y18989D01*
X155772Y18872D01*
X155506Y18772D01*
X155239Y18689D01*
X154939Y18622D01*
X154606Y18589D01*
X154273Y18572D01*
X154190D01*
X154090Y18589D01*
X153956D01*
X153806Y18622D01*
X153623Y18656D01*
X153423Y18689D01*
X153190Y18756D01*
X152957Y18822D01*
X152724Y18922D01*
X152474Y19039D01*
X152207Y19172D01*
X151957Y19339D01*
X151724Y19539D01*
X151474Y19755D01*
X151257Y20005D01*
X151241Y20022D01*
X151207Y20072D01*
X151157Y20155D01*
X151074Y20288D01*
X150991Y20455D01*
X150908Y20655D01*
X150791Y20905D01*
X150691Y21188D01*
X150591Y21521D01*
X150491Y21888D01*
X150391Y22304D01*
X150308Y22771D01*
X150224Y23287D01*
X150174Y23854D01*
X150141Y24470D01*
X150125Y25137D01*
Y25153D01*
Y25186D01*
Y25220D01*
Y25303D01*
Y25386D01*
X150141Y25486D01*
Y25736D01*
X150158Y26036D01*
X150191Y26369D01*
X150224Y26752D01*
X150274Y27152D01*
X150341Y27569D01*
X150424Y28002D01*
X150524Y28452D01*
X150658Y28868D01*
X150791Y29285D01*
X150958Y29685D01*
X151157Y30051D01*
X151374Y30368D01*
X151391Y30384D01*
X151424Y30418D01*
X151474Y30484D01*
X151557Y30568D01*
X151674Y30668D01*
X151807Y30784D01*
X151957Y30901D01*
X152124Y31034D01*
X152324Y31151D01*
X152540Y31267D01*
X152773Y31384D01*
X153040Y31484D01*
X153307Y31567D01*
X153606Y31634D01*
X153940Y31667D01*
X154273Y31684D01*
X154456D01*
X154589Y31667D01*
D02*
G37*
%LPC*%
G36*
X20772Y264821D02*
X20755D01*
X20721D01*
X20672D01*
X20588Y264805D01*
X20405Y264788D01*
X20172Y264738D01*
X19905Y264671D01*
X19639Y264571D01*
X19389Y264438D01*
X19155Y264255D01*
X19139Y264238D01*
X19072Y264155D01*
X18972Y264055D01*
X18872Y263905D01*
X18772Y263722D01*
X18672Y263505D01*
X18606Y263255D01*
X18589Y262989D01*
Y262955D01*
X18606Y262855D01*
X18622Y262705D01*
X18656Y262522D01*
X18739Y262306D01*
X18839Y262089D01*
X18989Y261873D01*
X19189Y261656D01*
X19222Y261639D01*
X19289Y261573D01*
X19422Y261489D01*
X19605Y261406D01*
X19839Y261306D01*
X20105Y261223D01*
X20422Y261156D01*
X20772Y261139D01*
Y264821D01*
D02*
G37*
G36*
X21554Y219073D02*
X21538D01*
X21488D01*
X21421D01*
X21321Y219056D01*
X21221D01*
X21088Y219040D01*
X20772Y218990D01*
X20438Y218906D01*
X20088Y218790D01*
X19755Y218623D01*
X19455Y218407D01*
X19439D01*
X19422Y218373D01*
X19339Y218290D01*
X19222Y218157D01*
X19072Y217957D01*
X18939Y217723D01*
X18822Y217457D01*
X18739Y217157D01*
X18706Y216990D01*
Y216707D01*
X18722Y216641D01*
X18739Y216474D01*
X18806Y216241D01*
X18889Y215991D01*
X19022Y215724D01*
X19206Y215441D01*
X19322Y215324D01*
X19455Y215191D01*
X19489Y215158D01*
X19539Y215125D01*
X19589Y215091D01*
X19672Y215041D01*
X19755Y214991D01*
X19988Y214875D01*
X20288Y214741D01*
X20655Y214641D01*
X21088Y214575D01*
X21571Y214541D01*
X21588D01*
X21638D01*
X21704D01*
X21804Y214558D01*
X21921D01*
X22054Y214575D01*
X22354Y214625D01*
X22687Y214708D01*
X23054Y214808D01*
X23387Y214975D01*
X23687Y215191D01*
X23720Y215225D01*
X23804Y215308D01*
X23920Y215441D01*
X24054Y215641D01*
X24187Y215874D01*
X24303Y216141D01*
X24387Y216457D01*
X24403Y216624D01*
X24420Y216807D01*
Y216907D01*
X24403Y216974D01*
X24387Y217140D01*
X24320Y217357D01*
X24237Y217623D01*
X24103Y217890D01*
X23920Y218157D01*
X23820Y218290D01*
X23687Y218407D01*
X23670D01*
X23654Y218440D01*
X23604Y218473D01*
X23554Y218507D01*
X23470Y218556D01*
X23387Y218623D01*
X23137Y218740D01*
X22837Y218856D01*
X22471Y218973D01*
X22054Y219040D01*
X21554Y219073D01*
D02*
G37*
G36*
X21471Y142304D02*
X17123D01*
X21471Y139372D01*
Y142304D01*
D02*
G37*
G36*
X140595Y26503D02*
X138679D01*
X138163Y23920D01*
X140095D01*
X140595Y26503D01*
D02*
G37*
G36*
X164519Y25320D02*
X164402D01*
X164269Y25286D01*
X164102Y25253D01*
X163919Y25186D01*
X163719Y25087D01*
X163503Y24937D01*
X163319Y24753D01*
X163303Y24720D01*
X163253Y24653D01*
X163169Y24520D01*
X163086Y24337D01*
X162986Y24104D01*
X162919Y23820D01*
X162853Y23487D01*
X162836Y23104D01*
Y23087D01*
Y23054D01*
Y22987D01*
X162853Y22904D01*
Y22804D01*
X162869Y22688D01*
X162903Y22421D01*
X162969Y22121D01*
X163069Y21821D01*
X163203Y21521D01*
X163386Y21255D01*
X163419Y21221D01*
X163486Y21155D01*
X163602Y21055D01*
X163752Y20938D01*
X163936Y20805D01*
X164152Y20705D01*
X164385Y20638D01*
X164635Y20605D01*
X164669D01*
X164752Y20622D01*
X164869Y20638D01*
X165035Y20672D01*
X165218Y20738D01*
X165402Y20838D01*
X165585Y20955D01*
X165768Y21138D01*
X165785Y21171D01*
X165835Y21238D01*
X165918Y21371D01*
X166001Y21555D01*
X166085Y21804D01*
X166168Y22104D01*
X166218Y22471D01*
X166235Y22887D01*
Y22904D01*
Y22937D01*
Y23004D01*
Y23087D01*
X166218Y23187D01*
X166201Y23321D01*
X166168Y23587D01*
X166118Y23887D01*
X166018Y24187D01*
X165902Y24470D01*
X165735Y24720D01*
X165718Y24753D01*
X165652Y24820D01*
X165552Y24903D01*
X165402Y25020D01*
X165218Y25137D01*
X165018Y25220D01*
X164785Y25286D01*
X164519Y25320D01*
D02*
G37*
G36*
X110041Y23237D02*
X110024D01*
X109957Y23204D01*
X109841Y23171D01*
X109674Y23121D01*
X109457Y23071D01*
X109191Y23004D01*
X108891Y22937D01*
X108525Y22854D01*
X108508D01*
X108475Y22837D01*
X108424D01*
X108358Y22821D01*
X108191Y22771D01*
X107975Y22721D01*
X107758Y22654D01*
X107542Y22588D01*
X107342Y22521D01*
X107192Y22438D01*
X107175Y22421D01*
X107125Y22371D01*
X107042Y22304D01*
X106958Y22204D01*
X106875Y22071D01*
X106792Y21921D01*
X106742Y21755D01*
X106725Y21571D01*
Y21555D01*
Y21488D01*
X106742Y21388D01*
X106775Y21271D01*
X106825Y21121D01*
X106892Y20988D01*
X106975Y20838D01*
X107108Y20688D01*
X107125Y20672D01*
X107175Y20638D01*
X107258Y20572D01*
X107375Y20505D01*
X107508Y20438D01*
X107675Y20372D01*
X107858Y20338D01*
X108075Y20322D01*
X108191D01*
X108325Y20338D01*
X108491Y20372D01*
X108674Y20422D01*
X108891Y20505D01*
X109124Y20605D01*
X109358Y20755D01*
X109374Y20772D01*
X109424Y20805D01*
X109507Y20888D01*
X109591Y20971D01*
X109691Y21088D01*
X109791Y21221D01*
X109874Y21388D01*
X109941Y21555D01*
Y21571D01*
X109957Y21621D01*
X109974Y21704D01*
X109991Y21821D01*
X110007Y21988D01*
X110024Y22188D01*
X110041Y22438D01*
Y22737D01*
Y23237D01*
D02*
G37*
G36*
X98662Y26419D02*
X98628D01*
X98528Y26403D01*
X98378Y26386D01*
X98195Y26353D01*
X97979Y26269D01*
X97762Y26169D01*
X97545Y26019D01*
X97329Y25820D01*
X97312Y25786D01*
X97246Y25720D01*
X97162Y25586D01*
X97079Y25403D01*
X96979Y25170D01*
X96896Y24903D01*
X96829Y24587D01*
X96812Y24237D01*
X100494D01*
Y24253D01*
Y24287D01*
Y24337D01*
X100478Y24420D01*
X100461Y24603D01*
X100411Y24837D01*
X100344Y25103D01*
X100244Y25370D01*
X100111Y25620D01*
X99928Y25853D01*
X99911Y25870D01*
X99828Y25936D01*
X99728Y26036D01*
X99578Y26136D01*
X99395Y26236D01*
X99178Y26336D01*
X98928Y26403D01*
X98662Y26419D01*
D02*
G37*
G36*
X154273Y29651D02*
X154190D01*
X154106Y29635D01*
X154006Y29618D01*
X153873Y29585D01*
X153740Y29518D01*
X153606Y29451D01*
X153473Y29351D01*
X153456Y29335D01*
X153423Y29302D01*
X153357Y29218D01*
X153273Y29118D01*
X153190Y28985D01*
X153107Y28802D01*
X153023Y28585D01*
X152940Y28335D01*
Y28319D01*
X152923Y28285D01*
Y28235D01*
X152907Y28152D01*
X152890Y28052D01*
X152857Y27919D01*
X152840Y27752D01*
X152823Y27586D01*
X152790Y27369D01*
X152773Y27136D01*
X152757Y26869D01*
X152724Y26586D01*
X152707Y26253D01*
Y25903D01*
X152690Y25536D01*
Y25120D01*
Y25087D01*
Y25020D01*
Y24903D01*
Y24753D01*
Y24570D01*
X152707Y24353D01*
Y24120D01*
X152724Y23887D01*
X152740Y23370D01*
X152790Y22854D01*
X152807Y22604D01*
X152840Y22388D01*
X152873Y22188D01*
X152907Y22004D01*
Y21988D01*
X152923Y21971D01*
X152957Y21871D01*
X153007Y21721D01*
X153073Y21538D01*
X153140Y21355D01*
X153240Y21171D01*
X153357Y21005D01*
X153473Y20872D01*
X153490Y20855D01*
X153540Y20838D01*
X153606Y20788D01*
X153706Y20738D01*
X153823Y20688D01*
X153956Y20655D01*
X154106Y20622D01*
X154273Y20605D01*
X154356D01*
X154439Y20622D01*
X154539Y20638D01*
X154673Y20672D01*
X154806Y20722D01*
X154939Y20788D01*
X155072Y20888D01*
X155089Y20905D01*
X155122Y20938D01*
X155189Y21022D01*
X155272Y21121D01*
X155356Y21255D01*
X155439Y21438D01*
X155522Y21655D01*
X155606Y21904D01*
Y21921D01*
X155622Y21954D01*
X155639Y22004D01*
X155656Y22088D01*
X155672Y22188D01*
X155689Y22321D01*
X155722Y22488D01*
X155739Y22671D01*
X155772Y22871D01*
X155789Y23104D01*
X155806Y23370D01*
X155839Y23670D01*
X155856Y23987D01*
Y24337D01*
X155872Y24703D01*
Y25120D01*
Y25153D01*
Y25220D01*
Y25336D01*
Y25486D01*
Y25670D01*
X155856Y25886D01*
Y26119D01*
X155839Y26353D01*
X155822Y26869D01*
X155772Y27386D01*
X155756Y27619D01*
X155722Y27852D01*
X155672Y28052D01*
X155639Y28219D01*
Y28235D01*
X155622Y28252D01*
X155606Y28352D01*
X155539Y28502D01*
X155472Y28685D01*
X155389Y28868D01*
X155289Y29052D01*
X155189Y29218D01*
X155056Y29351D01*
X155039Y29368D01*
X154989Y29401D01*
X154923Y29451D01*
X154839Y29501D01*
X154723Y29551D01*
X154589Y29601D01*
X154439Y29635D01*
X154273Y29651D01*
D02*
G37*
%LPD*%
D10*
X170351Y224032D02*
G03*
X172625Y224032I1137J-978D01*
G01*
D11*
X180096Y179542D02*
X201999D01*
X170114Y229425D02*
Y235244D01*
X219442Y239242D02*
X229414D01*
Y179542D02*
Y239242D01*
X180096D02*
X201999D01*
X219442Y179542D02*
X229414D01*
D12*
X77754Y260116D02*
X81752D01*
X79753D01*
Y254117D01*
X83752D02*
Y260116D01*
X86751D01*
X87751Y259116D01*
Y257116D01*
X86751Y256117D01*
X83752D01*
X89750Y253118D02*
X93748D01*
X99747Y259116D02*
X98747Y260116D01*
X96748D01*
X95748Y259116D01*
Y258116D01*
X96748Y257116D01*
X98747D01*
X99747Y256117D01*
Y255117D01*
X98747Y254117D01*
X96748D01*
X95748Y255117D01*
X105745Y259116D02*
X104745Y260116D01*
X102746D01*
X101746Y259116D01*
Y258116D01*
X102746Y257116D01*
X104745D01*
X105745Y256117D01*
Y255117D01*
X104745Y254117D01*
X102746D01*
X101746Y255117D01*
X77754Y202816D02*
X81752D01*
X79753D01*
Y196817D01*
X83752D02*
Y202816D01*
X86751D01*
X87751Y201816D01*
Y199816D01*
X86751Y198817D01*
X83752D01*
X89750Y195818D02*
X93748D01*
X99747Y201816D02*
X98747Y202816D01*
X96748D01*
X95748Y201816D01*
Y200816D01*
X96748Y199816D01*
X98747D01*
X99747Y198817D01*
Y197817D01*
X98747Y196817D01*
X96748D01*
X95748Y197817D01*
X105745Y201816D02*
X104745Y202816D01*
X102746D01*
X101746Y201816D01*
Y197817D01*
X102746Y196817D01*
X104745D01*
X105745Y197817D01*
X107744Y202816D02*
Y196817D01*
X111743D01*
X113742Y202816D02*
Y196817D01*
Y198817D01*
X117741Y202816D01*
X114742Y199816D01*
X117741Y196817D01*
X77754Y233215D02*
X81752D01*
X79753D01*
Y227217D01*
X83752D02*
Y233215D01*
X86751D01*
X87751Y232216D01*
Y230216D01*
X86751Y229217D01*
X83752D01*
X89750Y226218D02*
X93748D01*
X95748Y227217D02*
Y233215D01*
X97747Y231216D01*
X99747Y233215D01*
Y227217D01*
X104745Y233215D02*
X102746D01*
X101746Y232216D01*
Y228217D01*
X102746Y227217D01*
X104745D01*
X105745Y228217D01*
Y232216D01*
X104745Y233215D01*
X111743Y232216D02*
X110743Y233215D01*
X108744D01*
X107744Y232216D01*
Y231216D01*
X108744Y230216D01*
X110743D01*
X111743Y229217D01*
Y228217D01*
X110743Y227217D01*
X108744D01*
X107744Y228217D01*
X113742Y233215D02*
X115741D01*
X114742D01*
Y227217D01*
X113742D01*
X115741D01*
X77754Y175116D02*
X81752D01*
X79753D01*
Y169117D01*
X83752D02*
Y175116D01*
X86751D01*
X87751Y174116D01*
Y172116D01*
X86751Y171117D01*
X83752D01*
X89750Y168118D02*
X93748D01*
X95748Y169117D02*
Y175116D01*
X97747Y173116D01*
X99747Y175116D01*
Y169117D01*
X101746Y175116D02*
X103745D01*
X102746D01*
Y169117D01*
X101746D01*
X103745D01*
X110743Y174116D02*
X109743Y175116D01*
X107744D01*
X106744Y174116D01*
Y173116D01*
X107744Y172116D01*
X109743D01*
X110743Y171117D01*
Y170117D01*
X109743Y169117D01*
X107744D01*
X106744Y170117D01*
X115741Y175116D02*
X113742D01*
X112742Y174116D01*
Y170117D01*
X113742Y169117D01*
X115741D01*
X116741Y170117D01*
Y174116D01*
X115741Y175116D01*
X166452Y253516D02*
X164453D01*
X165453D01*
Y248517D01*
X164453Y247517D01*
X163453D01*
X162454Y248517D01*
X168452Y247517D02*
X170451D01*
X169451D01*
Y253516D01*
X168452Y252516D01*
X19685Y393701D02*
G03*
X500Y374016I250J-19435D01*
G01*
X236221D02*
G03*
X216035Y393701I-19935J-250D01*
G01*
Y1000D02*
G03*
X236221Y19685I750J19435D01*
G01*
X500D02*
G03*
X19685Y1000I18935J250D01*
G01*
X236221Y19685D02*
Y374016D01*
X19685Y1000D02*
X19685D01*
X216035D01*
X20000Y393701D02*
X216035D01*
X500Y19685D02*
Y374016D01*
M02*
