G04*
G04 #@! TF.GenerationSoftware,Altium Limited,Altium Designer,22.6.1 (34)*
G04*
G04 Layer_Color=8421504*
%FSLAX25Y25*%
%MOIN*%
G70*
G04*
G04 #@! TF.SameCoordinates,B7B55DA8-A8C8-4B2F-A26B-231347B163EA*
G04*
G04*
G04 #@! TF.FilePolarity,Positive*
G04*
G01*
G75*
%ADD12C,0.01000*%
%ADD13R,0.10200X0.05500*%
%ADD14R,0.07100X0.06700*%
%ADD15R,0.07500X0.02800*%
%ADD16R,0.16535X0.10236*%
D12*
X19685Y393701D02*
G03*
X500Y374016I250J-19435D01*
G01*
X236221D02*
G03*
X216035Y393701I-19935J-250D01*
G01*
Y1000D02*
G03*
X236221Y19685I750J19435D01*
G01*
X500D02*
G03*
X19685Y1000I18935J250D01*
G01*
X236221Y19685D02*
Y374016D01*
X19685Y1000D02*
X19685D01*
X216035D01*
X20000Y393701D02*
X216035D01*
X500Y19685D02*
Y374016D01*
D13*
X213032Y240298D02*
D03*
Y178487D02*
D03*
D14*
X175236Y239904D02*
D03*
Y177502D02*
D03*
D15*
X171488Y218054D02*
D03*
Y213723D02*
D03*
Y209392D02*
D03*
Y205061D02*
D03*
Y200731D02*
D03*
Y196400D02*
D03*
Y192069D02*
D03*
Y187739D02*
D03*
Y183408D02*
D03*
D16*
X85000Y160000D02*
D03*
Y218054D02*
D03*
Y187739D02*
D03*
Y245000D02*
D03*
M02*
