G04*
G04 #@! TF.GenerationSoftware,Altium Limited,Altium Designer,21.0.9 (235)*
G04*
G04 Layer_Physical_Order=1*
G04 Layer_Color=255*
%FSLAX25Y25*%
%MOIN*%
G70*
G04*
G04 #@! TF.SameCoordinates,9EEF2FA0-A7D9-48CE-A635-C582822CA6DE*
G04*
G04*
G04 #@! TF.FilePolarity,Positive*
G04*
G01*
G75*
%ADD13C,0.01000*%
G04:AMPARAMS|DCode=17|XSize=47.64mil|YSize=23.23mil|CornerRadius=5.81mil|HoleSize=0mil|Usage=FLASHONLY|Rotation=0.000|XOffset=0mil|YOffset=0mil|HoleType=Round|Shape=RoundedRectangle|*
%AMROUNDEDRECTD17*
21,1,0.04764,0.01161,0,0,0.0*
21,1,0.03602,0.02323,0,0,0.0*
1,1,0.01161,0.01801,-0.00581*
1,1,0.01161,-0.01801,-0.00581*
1,1,0.01161,-0.01801,0.00581*
1,1,0.01161,0.01801,0.00581*
%
%ADD17ROUNDEDRECTD17*%
%ADD18R,0.07480X0.04331*%
%ADD19R,0.04724X0.05512*%
%ADD20R,0.05512X0.05906*%
%ADD21R,0.08700X0.06700*%
%ADD22R,0.10236X0.16535*%
%ADD23R,0.08465X0.03740*%
%ADD24R,0.08465X0.12795*%
%ADD25R,0.12598X0.06299*%
%ADD26R,0.05512X0.04724*%
%ADD27R,0.05906X0.05512*%
%ADD28R,0.06700X0.08700*%
%ADD29R,0.01600X0.04550*%
%ADD30R,0.08000X0.02402*%
%ADD31R,0.02402X0.08000*%
%ADD32R,0.04550X0.01600*%
%ADD33R,0.08268X0.05512*%
%ADD48C,0.01500*%
%ADD49C,0.02500*%
%ADD50R,0.05906X0.05906*%
%ADD51C,0.05906*%
%ADD52O,0.08661X0.04331*%
%ADD53R,0.05906X0.05906*%
%ADD54C,0.03000*%
G36*
X328028Y826772D02*
Y817992D01*
X328122Y817524D01*
X328387Y817127D01*
X328784Y816862D01*
X329252Y816769D01*
X331987D01*
X332275Y816269D01*
X332144Y816042D01*
X331961Y815355D01*
Y814645D01*
X332144Y813958D01*
X332191Y813878D01*
X331941Y813445D01*
X312542D01*
X312516Y813542D01*
X312160Y814158D01*
X311658Y814660D01*
X311042Y815016D01*
X310355Y815200D01*
X309645D01*
X308958Y815016D01*
X308342Y814660D01*
X307839Y814158D01*
X307484Y813542D01*
X307300Y812856D01*
Y812144D01*
X307484Y811458D01*
X307839Y810842D01*
X308280Y810402D01*
X308235Y810145D01*
X308101Y809902D01*
X288319D01*
X287558Y809750D01*
X287356Y809615D01*
X264203D01*
X264158Y809661D01*
X263542Y810016D01*
X262856Y810200D01*
X262144D01*
X261458Y810016D01*
X260842Y809661D01*
X260339Y809158D01*
X259984Y808542D01*
X259800Y807856D01*
Y807145D01*
X259984Y806458D01*
X260339Y805842D01*
X260842Y805340D01*
X261458Y804984D01*
X262144Y804800D01*
X262856D01*
X263542Y804984D01*
X264158Y805340D01*
X264457Y805639D01*
X282125D01*
X282428Y805139D01*
X282300Y804661D01*
Y803950D01*
X282484Y803263D01*
X282516Y803209D01*
X282266Y802776D01*
X273693D01*
X273050Y802648D01*
X272855Y802700D01*
X272145D01*
X271458Y802516D01*
X270842Y802160D01*
X270339Y801658D01*
X269984Y801042D01*
X269800Y800356D01*
Y799645D01*
X269984Y798958D01*
X270339Y798342D01*
X270842Y797839D01*
X271458Y797484D01*
X272145Y797300D01*
X272855D01*
X273542Y797484D01*
X274158Y797839D01*
X274660Y798342D01*
X274924Y798799D01*
X288340D01*
X288590Y798366D01*
X288526Y798255D01*
X288342Y797568D01*
Y796857D01*
X288526Y796171D01*
X288882Y795555D01*
X289384Y795052D01*
X290000Y794697D01*
X290687Y794513D01*
X291398D01*
X291874Y794640D01*
X292204Y794211D01*
X292128Y794081D01*
X291945Y793394D01*
Y792683D01*
X292128Y791997D01*
X292484Y791381D01*
X292987Y790878D01*
X293602Y790523D01*
X294289Y790339D01*
X295000D01*
X295687Y790523D01*
X296302Y790878D01*
X296805Y791381D01*
X296996Y791713D01*
X310400D01*
X310689Y791213D01*
X310591Y791042D01*
X310407Y790355D01*
Y789644D01*
X310558Y789082D01*
X310297Y788582D01*
X301809D01*
X301658Y788733D01*
X301042Y789089D01*
X300356Y789273D01*
X299644D01*
X298958Y789089D01*
X298342Y788733D01*
X297839Y788230D01*
X297484Y787615D01*
X297300Y786928D01*
Y786217D01*
X297484Y785530D01*
X297839Y784915D01*
X298342Y784412D01*
X298958Y784057D01*
X299644Y783873D01*
X300356D01*
X301042Y784057D01*
X301658Y784412D01*
X301851Y784605D01*
X302654D01*
X302686Y784528D01*
X302809Y784105D01*
X302484Y783542D01*
X302300Y782856D01*
Y782144D01*
X302484Y781458D01*
X302839Y780842D01*
X303342Y780339D01*
X303958Y779984D01*
X304644Y779800D01*
X305356D01*
X306042Y779984D01*
X306658Y780339D01*
X307116Y780797D01*
X315325D01*
X315576Y780364D01*
X315521Y780270D01*
X315337Y779584D01*
Y778873D01*
X315521Y778186D01*
X315877Y777570D01*
X316380Y777068D01*
X316995Y776712D01*
X317682Y776528D01*
X318393D01*
X319080Y776712D01*
X319695Y777068D01*
X319998Y777370D01*
X330345D01*
X330552Y776870D01*
X330340Y776658D01*
X329984Y776042D01*
X329800Y775355D01*
Y774645D01*
X329984Y773958D01*
X330340Y773342D01*
X330842Y772839D01*
X331458Y772484D01*
X332144Y772300D01*
X332856D01*
X333542Y772484D01*
X334158Y772839D01*
X334661Y773342D01*
X335015Y773957D01*
X339800D01*
Y770701D01*
X326685D01*
X326658Y770728D01*
X326042Y771083D01*
X325356Y771267D01*
X324644D01*
X323958Y771083D01*
X323342Y770728D01*
X322839Y770225D01*
X322484Y769609D01*
X322300Y768923D01*
Y768212D01*
X322484Y767525D01*
X322839Y766910D01*
X323342Y766407D01*
X323958Y766051D01*
X324644Y765867D01*
X325356D01*
X326042Y766051D01*
X326658Y766407D01*
X326976Y766725D01*
X339800D01*
Y766458D01*
X345316D01*
Y756375D01*
X345484D01*
Y755161D01*
X341113D01*
X340352Y755010D01*
X339707Y754578D01*
X337713Y752584D01*
X337682D01*
X336995Y752400D01*
X336380Y752045D01*
X335877Y751542D01*
X335521Y750926D01*
X335337Y750240D01*
Y749529D01*
X335521Y748842D01*
X335877Y748226D01*
X336380Y747724D01*
X336995Y747368D01*
X337682Y747184D01*
X338393D01*
X339080Y747368D01*
X339695Y747724D01*
X340198Y748226D01*
X340553Y748842D01*
X340737Y749529D01*
Y749985D01*
X341936Y751184D01*
X346594D01*
X347355Y751336D01*
X348000Y751767D01*
X348772Y752539D01*
X349272Y752388D01*
Y750922D01*
X347605Y749255D01*
X347361D01*
X346674Y749071D01*
X346059Y748716D01*
X345556Y748213D01*
X345201Y747597D01*
X345017Y746911D01*
Y746200D01*
X345201Y745513D01*
X345556Y744897D01*
X346059Y744395D01*
X346674Y744039D01*
X347361Y743855D01*
X348072D01*
X348759Y744039D01*
X349374Y744395D01*
X349877Y744897D01*
X350233Y745513D01*
X350417Y746200D01*
Y746443D01*
X352345Y748372D01*
X352845Y748164D01*
Y746698D01*
X352702Y746555D01*
X352346Y745939D01*
X352163Y745253D01*
Y744542D01*
X352346Y743855D01*
X352702Y743239D01*
X353205Y742737D01*
X353820Y742381D01*
X354507Y742197D01*
X355218D01*
X355905Y742381D01*
X356520Y742737D01*
X357023Y743239D01*
X357320Y743754D01*
X357695Y743827D01*
X357884Y743810D01*
X358342Y743352D01*
X358958Y742997D01*
X359645Y742813D01*
X360355D01*
X361042Y742997D01*
X361658Y743352D01*
X362160Y743855D01*
X362327Y744144D01*
X362905D01*
X363071Y743855D01*
X363574Y743352D01*
X364190Y742997D01*
X364876Y742813D01*
X365587D01*
X366274Y742997D01*
X366890Y743352D01*
X367392Y743855D01*
X367748Y744471D01*
X367932Y745157D01*
Y745868D01*
X367748Y746555D01*
X367392Y747171D01*
X367399Y747267D01*
X367840Y747597D01*
X368034Y747545D01*
X368745D01*
X369432Y747729D01*
X370047Y748084D01*
X370071Y748108D01*
X370571Y747901D01*
Y744211D01*
X370399Y744039D01*
X370043Y743423D01*
X369859Y742737D01*
Y742026D01*
X370043Y741339D01*
X370399Y740723D01*
X370901Y740221D01*
X371304Y739988D01*
X371170Y739488D01*
X290946D01*
X290593Y739842D01*
X290593Y740861D01*
X290392Y741278D01*
Y741361D01*
Y744279D01*
X286440D01*
X282487D01*
Y741278D01*
X282287Y740861D01*
X282287Y740606D01*
Y739488D01*
X89330D01*
X89158Y739661D01*
X88542Y740016D01*
X87855Y740200D01*
X87145D01*
X86458Y740016D01*
X85842Y739661D01*
X85339Y739158D01*
X84984Y738542D01*
X84800Y737855D01*
Y737145D01*
X84984Y736458D01*
X85339Y735842D01*
X85842Y735339D01*
X86458Y734984D01*
X87145Y734800D01*
X87855D01*
X88542Y734984D01*
X89158Y735339D01*
X89330Y735512D01*
X282287D01*
Y732949D01*
X290593D01*
Y735512D01*
X388707D01*
X388880Y735339D01*
X389495Y734984D01*
X390182Y734800D01*
X390893D01*
X391580Y734984D01*
X392195Y735339D01*
X392698Y735842D01*
X393053Y736458D01*
X393237Y737145D01*
Y737855D01*
X393053Y738542D01*
X392698Y739158D01*
X392195Y739661D01*
X391580Y740016D01*
X390893Y740200D01*
X390182D01*
X389495Y740016D01*
X388880Y739661D01*
X388707Y739488D01*
X373948D01*
X373814Y739988D01*
X374217Y740221D01*
X374720Y740723D01*
X375075Y741339D01*
X375259Y742026D01*
Y742737D01*
X375075Y743423D01*
X374720Y744039D01*
X374547Y744211D01*
Y749047D01*
X375047Y749113D01*
X375184Y748602D01*
X375539Y747987D01*
X376042Y747484D01*
X376658Y747128D01*
X377344Y746945D01*
X378056D01*
X378742Y747128D01*
X379358Y747484D01*
X379860Y747987D01*
X379897Y748050D01*
X380415Y747947D01*
X380454Y747641D01*
X380340Y747526D01*
X379984Y746911D01*
X379800Y746224D01*
Y745513D01*
X379984Y744826D01*
X380340Y744211D01*
X380842Y743708D01*
X381458Y743352D01*
X382144Y743168D01*
X382856D01*
X383542Y743352D01*
X384158Y743708D01*
X384661Y744211D01*
X384899Y744624D01*
X385413Y744744D01*
X385506Y744725D01*
X385620Y744611D01*
X386235Y744256D01*
X386922Y744072D01*
X387633D01*
X388320Y744256D01*
X388935Y744611D01*
X389438Y745114D01*
X389794Y745729D01*
X389978Y746416D01*
Y747127D01*
X389794Y747814D01*
X389438Y748429D01*
X388935Y748932D01*
X388808Y749006D01*
Y749457D01*
X389224Y749697D01*
X389273Y749669D01*
X389960Y749485D01*
X390670D01*
X391357Y749669D01*
X391973Y750024D01*
X392476Y750527D01*
X392831Y751143D01*
X393015Y751829D01*
Y752540D01*
X392831Y753227D01*
X392476Y753843D01*
X392303Y754015D01*
Y756375D01*
X395413D01*
Y754792D01*
X395565Y754031D01*
X395996Y753386D01*
X396138Y753244D01*
Y753000D01*
X396322Y752314D01*
X396677Y751698D01*
X397180Y751195D01*
X397796Y750840D01*
X398482Y750656D01*
X399193D01*
X399880Y750840D01*
X400496Y751195D01*
X400998Y751698D01*
X401354Y752314D01*
X401538Y753000D01*
Y753711D01*
X401354Y754398D01*
X400998Y755014D01*
X400496Y755516D01*
X399880Y755872D01*
X399829Y755886D01*
X399802Y756375D01*
X399802D01*
Y766458D01*
X405318D01*
Y766725D01*
X408024D01*
X408342Y766407D01*
X408958Y766051D01*
X409645Y765867D01*
X410356D01*
X411042Y766051D01*
X411658Y766407D01*
X412160Y766910D01*
X412516Y767525D01*
X412700Y768212D01*
Y768923D01*
X412516Y769609D01*
X412284Y770012D01*
X412546Y770512D01*
X443170D01*
X443342Y770339D01*
X443958Y769984D01*
X444644Y769800D01*
X445356D01*
X446042Y769984D01*
X446658Y770339D01*
X447160Y770842D01*
X447516Y771458D01*
X447700Y772145D01*
Y772856D01*
X447516Y773542D01*
X447160Y774158D01*
X446658Y774660D01*
X446042Y775016D01*
X445356Y775200D01*
X444644D01*
X443958Y775016D01*
X443342Y774660D01*
X443170Y774488D01*
X417285D01*
X416996Y774988D01*
X417156Y775265D01*
X417340Y775952D01*
Y776663D01*
X417250Y777000D01*
X417623Y777500D01*
X430644D01*
X430842Y777302D01*
X431458Y776947D01*
X432144Y776763D01*
X432856D01*
X433542Y776947D01*
X434158Y777302D01*
X434660Y777805D01*
X435016Y778420D01*
X435200Y779107D01*
Y779818D01*
X435016Y780505D01*
X434932Y780650D01*
X435182Y781083D01*
X467696D01*
X467703Y781078D01*
X467839Y780842D01*
X468342Y780339D01*
X468958Y779984D01*
X469644Y779800D01*
X470356D01*
X471042Y779984D01*
X471658Y780339D01*
X472160Y780842D01*
X472516Y781458D01*
X472700Y782144D01*
Y782856D01*
X472516Y783542D01*
X472160Y784158D01*
X471658Y784660D01*
X471042Y785016D01*
X470356Y785200D01*
X469644D01*
X468958Y785016D01*
X468863Y784961D01*
X468371Y785059D01*
X427622D01*
X427415Y785559D01*
X427698Y785842D01*
X428053Y786458D01*
X428237Y787145D01*
Y787855D01*
X428053Y788542D01*
X427698Y789158D01*
X427195Y789661D01*
X426580Y790016D01*
X425893Y790200D01*
X425182D01*
X424495Y790016D01*
X423880Y789661D01*
X423377Y789158D01*
X423056Y788602D01*
X420834D01*
X420464Y789102D01*
X420555Y789444D01*
Y790156D01*
X420371Y790842D01*
X420047Y791404D01*
X420177Y791847D01*
X420201Y791904D01*
X454067D01*
X454650Y791567D01*
X455337Y791383D01*
X456048D01*
X456735Y791567D01*
X457350Y791923D01*
X457853Y792425D01*
X458209Y793041D01*
X458392Y793728D01*
Y794439D01*
X458209Y795125D01*
X457853Y795741D01*
X457350Y796244D01*
X456735Y796599D01*
X456048Y796783D01*
X455337D01*
X454650Y796599D01*
X454035Y796244D01*
X453671Y795880D01*
X443288D01*
X442856Y796044D01*
Y803012D01*
X445540D01*
X445842Y802709D01*
X446458Y802354D01*
X447145Y802170D01*
X447856D01*
X448542Y802354D01*
X449158Y802709D01*
X449660Y803212D01*
X450016Y803828D01*
X450200Y804515D01*
Y805225D01*
X450016Y805912D01*
X449660Y806528D01*
X449158Y807031D01*
X448542Y807386D01*
X447856Y807570D01*
X447145D01*
X446458Y807386D01*
X445842Y807031D01*
X445800Y806988D01*
X442856D01*
Y813956D01*
X428645D01*
Y811279D01*
X425312D01*
Y811475D01*
X415431D01*
Y809743D01*
X415260D01*
X414499Y809592D01*
X413854Y809161D01*
X407469Y802776D01*
X405318D01*
Y803188D01*
X405118D01*
Y803870D01*
X395118D01*
Y803188D01*
X394918D01*
Y798387D01*
Y794843D01*
Y791300D01*
Y787757D01*
Y784213D01*
Y780670D01*
Y777087D01*
Y773544D01*
Y770001D01*
Y766775D01*
X350200D01*
Y770001D01*
Y773544D01*
Y777087D01*
Y780670D01*
Y784213D01*
Y787757D01*
Y791300D01*
Y794843D01*
Y798387D01*
Y801969D01*
Y805513D01*
Y809056D01*
Y812599D01*
Y816769D01*
X391433D01*
X391627Y816269D01*
X390558Y815199D01*
X390556Y815200D01*
X389844D01*
X389158Y815016D01*
X388542Y814660D01*
X388039Y814158D01*
X387684Y813542D01*
X387500Y812856D01*
Y812144D01*
X387684Y811458D01*
X388039Y810842D01*
X388542Y810340D01*
X389158Y809984D01*
X389844Y809800D01*
X390556D01*
X391242Y809984D01*
X391858Y810340D01*
X392360Y810842D01*
X392716Y811458D01*
X392817Y811835D01*
X393994Y813012D01*
X394918D01*
Y809056D01*
Y805513D01*
X395118D01*
Y804870D01*
X405118D01*
Y805513D01*
X405318D01*
Y809919D01*
X405865D01*
X406626Y810071D01*
X407271Y810502D01*
X411050Y814280D01*
X416317D01*
X417078Y814432D01*
X417723Y814863D01*
X418810Y815949D01*
X419240Y816595D01*
X419392Y817355D01*
Y826772D01*
X423742D01*
X423742Y823524D01*
X423942Y823107D01*
Y823024D01*
Y820500D01*
X431454D01*
Y823107D01*
X431654Y823524D01*
X431654Y823779D01*
Y825512D01*
X433544D01*
X433544Y823505D01*
X433744Y823088D01*
Y823005D01*
Y820481D01*
X441256D01*
Y823088D01*
X441456Y823505D01*
X441456Y823760D01*
Y825512D01*
X443190D01*
X443544Y825158D01*
X443544Y823760D01*
X443744Y823343D01*
Y823260D01*
Y820736D01*
X451256D01*
Y823343D01*
X451456Y823760D01*
X451456Y824015D01*
Y825512D01*
X453544D01*
X453544Y823742D01*
X453744Y823324D01*
Y823242D01*
Y820717D01*
X461256D01*
Y823324D01*
X461417Y823660D01*
X461921Y823791D01*
X462281Y823432D01*
Y823188D01*
X462465Y822501D01*
X462821Y821885D01*
X463323Y821383D01*
X463939Y821027D01*
X464626Y820843D01*
X465337D01*
X466023Y821027D01*
X466639Y821383D01*
X467142Y821885D01*
X467497Y822501D01*
X467681Y823188D01*
Y823899D01*
X467497Y824586D01*
X467142Y825201D01*
X466639Y825704D01*
X466023Y826059D01*
X465520Y826194D01*
X465467Y826272D01*
X465732Y826772D01*
X724000Y826772D01*
Y162083D01*
X394360D01*
X393953Y162307D01*
X393953Y162583D01*
Y165563D01*
X386047D01*
Y162583D01*
X385640Y162083D01*
X56000D01*
Y348777D01*
X220000D01*
X220468Y348870D01*
X220865Y349135D01*
X221130Y349532D01*
X221223Y350000D01*
Y388776D01*
X308776D01*
Y350000D01*
X308870Y349532D01*
X309135Y349135D01*
X309532Y348870D01*
X310000Y348777D01*
X510361D01*
X510440Y348792D01*
X510521Y348787D01*
X510672Y348838D01*
X510829Y348870D01*
X510896Y348915D01*
X510973Y348940D01*
X511093Y349046D01*
X511226Y349135D01*
X511271Y349202D01*
X511332Y349255D01*
X511402Y349399D01*
X511491Y349532D01*
X511764Y349863D01*
X512858D01*
X513131Y349532D01*
X513220Y349399D01*
X513290Y349255D01*
X513351Y349202D01*
X513396Y349135D01*
X513529Y349046D01*
X513649Y348940D01*
X513726Y348915D01*
X513793Y348870D01*
X513950Y348838D01*
X514101Y348787D01*
X514182Y348792D01*
X514261Y348777D01*
X530000D01*
X530468Y348870D01*
X530865Y349135D01*
X531130Y349532D01*
X531223Y350000D01*
Y372406D01*
X549248D01*
X549645Y372300D01*
X550355D01*
X551042Y372484D01*
X551658Y372839D01*
X552161Y373342D01*
X552516Y373958D01*
X552700Y374644D01*
Y375356D01*
X552516Y376042D01*
X552161Y376658D01*
X551658Y377161D01*
X551042Y377516D01*
X550355Y377700D01*
X549645D01*
X548958Y377516D01*
X548761Y377402D01*
X531223D01*
Y405000D01*
X531130Y405468D01*
X530865Y405865D01*
X530468Y406130D01*
X530000Y406223D01*
X56000D01*
Y826772D01*
X328028Y826772D01*
D02*
G37*
G36*
X530000Y350000D02*
X514261D01*
X514127Y350500D01*
X514738Y350853D01*
X515474Y351589D01*
X515994Y352490D01*
X516264Y353495D01*
Y353516D01*
X512311D01*
X508358D01*
Y353495D01*
X508628Y352490D01*
X509148Y351589D01*
X509884Y350853D01*
X510495Y350500D01*
X510361Y350000D01*
X310000D01*
Y390000D01*
X220000D01*
Y350000D01*
X41820D01*
X41686Y350500D01*
X42297Y350853D01*
X43033Y351589D01*
X43554Y352490D01*
X43823Y353495D01*
Y353516D01*
X39870D01*
X35917D01*
Y353495D01*
X36187Y352490D01*
X36707Y351589D01*
X37443Y350853D01*
X38054Y350500D01*
X37920Y350000D01*
X30000D01*
Y405000D01*
X530000D01*
Y350000D01*
D02*
G37*
%LPC*%
G36*
X451256Y819736D02*
X448000D01*
Y816874D01*
X451256D01*
Y819736D01*
D02*
G37*
G36*
X447000D02*
X443744D01*
Y816874D01*
X447000D01*
Y819736D01*
D02*
G37*
G36*
X461256Y819717D02*
X458000D01*
Y816855D01*
X461256D01*
Y819717D01*
D02*
G37*
G36*
X457000D02*
X453744D01*
Y816855D01*
X457000D01*
Y819717D01*
D02*
G37*
G36*
X431454Y819500D02*
X428198D01*
Y816638D01*
X431454D01*
Y819500D01*
D02*
G37*
G36*
X427198D02*
X423942D01*
Y816638D01*
X427198D01*
Y819500D01*
D02*
G37*
G36*
X441256Y819481D02*
X438000D01*
Y816619D01*
X441256D01*
Y819481D01*
D02*
G37*
G36*
X437000D02*
X433744D01*
Y816619D01*
X437000D01*
Y819481D01*
D02*
G37*
G36*
X240673Y799228D02*
X237220D01*
Y795776D01*
X240673D01*
Y799228D01*
D02*
G37*
G36*
X236220D02*
X232768D01*
Y795776D01*
X236220D01*
Y799228D01*
D02*
G37*
G36*
X713114D02*
X709661D01*
Y795776D01*
X713114D01*
Y799228D01*
D02*
G37*
G36*
X708661D02*
X705209D01*
Y795776D01*
X708661D01*
Y799228D01*
D02*
G37*
G36*
X713114Y794775D02*
X709661D01*
Y791323D01*
X713114D01*
Y794775D01*
D02*
G37*
G36*
X708661D02*
X705209D01*
Y791323D01*
X708661D01*
Y794775D01*
D02*
G37*
G36*
X240673Y794775D02*
X237220D01*
Y791323D01*
X240673D01*
Y794775D01*
D02*
G37*
G36*
X236220D02*
X232768D01*
Y791323D01*
X236220D01*
Y794775D01*
D02*
G37*
G36*
X516464Y799428D02*
X508158D01*
Y791123D01*
X516464D01*
Y799428D01*
D02*
G37*
G36*
X237241Y789228D02*
X237220D01*
Y785776D01*
X240673D01*
Y785796D01*
X240404Y786801D01*
X239883Y787703D01*
X239147Y788439D01*
X238246Y788959D01*
X237241Y789228D01*
D02*
G37*
G36*
X236220D02*
X236200D01*
X235195Y788959D01*
X234293Y788439D01*
X233558Y787703D01*
X233037Y786801D01*
X232768Y785796D01*
Y785776D01*
X236220D01*
Y789228D01*
D02*
G37*
G36*
X709682D02*
X709661D01*
Y785776D01*
X713114D01*
Y785796D01*
X712845Y786801D01*
X712324Y787703D01*
X711588Y788439D01*
X710687Y788959D01*
X709682Y789228D01*
D02*
G37*
G36*
X708661D02*
X708641D01*
X707636Y788959D01*
X706734Y788439D01*
X705998Y787703D01*
X705478Y786801D01*
X705209Y785796D01*
Y785776D01*
X708661D01*
Y789228D01*
D02*
G37*
G36*
X713114Y784775D02*
X709661D01*
Y781323D01*
X709682D01*
X710687Y781592D01*
X711588Y782113D01*
X712324Y782849D01*
X712845Y783750D01*
X713114Y784755D01*
Y784775D01*
D02*
G37*
G36*
X708661D02*
X705209D01*
Y784755D01*
X705478Y783750D01*
X705998Y782849D01*
X706734Y782113D01*
X707636Y781592D01*
X708641Y781323D01*
X708661D01*
Y784775D01*
D02*
G37*
G36*
X240673Y784775D02*
X237220D01*
Y781323D01*
X237241D01*
X238246Y781592D01*
X239147Y782113D01*
X239883Y782849D01*
X240404Y783750D01*
X240673Y784755D01*
Y784775D01*
D02*
G37*
G36*
X236220D02*
X232768D01*
Y784755D01*
X233037Y783750D01*
X233558Y782849D01*
X234293Y782113D01*
X235195Y781592D01*
X236200Y781323D01*
X236220D01*
Y784775D01*
D02*
G37*
G36*
X512858Y789428D02*
X511764D01*
X510708Y789145D01*
X509761Y788599D01*
X508988Y787825D01*
X508441Y786878D01*
X508158Y785822D01*
Y784729D01*
X508441Y783673D01*
X508988Y782726D01*
X509761Y781953D01*
X510708Y781406D01*
X511764Y781123D01*
X512858D01*
X513914Y781406D01*
X514861Y781953D01*
X515634Y782726D01*
X516181Y783673D01*
X516464Y784729D01*
Y785822D01*
X516181Y786878D01*
X515634Y787825D01*
X514861Y788599D01*
X513914Y789145D01*
X512858Y789428D01*
D02*
G37*
G36*
X237241Y779228D02*
X237220D01*
Y775775D01*
X240673D01*
Y775796D01*
X240404Y776801D01*
X239883Y777703D01*
X239147Y778439D01*
X238246Y778959D01*
X237241Y779228D01*
D02*
G37*
G36*
X236220D02*
X236200D01*
X235195Y778959D01*
X234293Y778439D01*
X233558Y777703D01*
X233037Y776801D01*
X232768Y775796D01*
Y775775D01*
X236220D01*
Y779228D01*
D02*
G37*
G36*
X709682D02*
X709661D01*
Y775775D01*
X713114D01*
Y775796D01*
X712845Y776801D01*
X712324Y777703D01*
X711588Y778439D01*
X710687Y778959D01*
X709682Y779228D01*
D02*
G37*
G36*
X708661D02*
X708641D01*
X707636Y778959D01*
X706734Y778439D01*
X705998Y777703D01*
X705478Y776801D01*
X705209Y775796D01*
Y775775D01*
X708661D01*
Y779228D01*
D02*
G37*
G36*
X713114Y774776D02*
X709661D01*
Y771323D01*
X709682D01*
X710687Y771592D01*
X711588Y772113D01*
X712324Y772849D01*
X712845Y773750D01*
X713114Y774755D01*
Y774776D01*
D02*
G37*
G36*
X708661D02*
X705209D01*
Y774755D01*
X705478Y773750D01*
X705998Y772849D01*
X706734Y772113D01*
X707636Y771592D01*
X708641Y771323D01*
X708661D01*
Y774776D01*
D02*
G37*
G36*
X240673Y774776D02*
X237220D01*
Y771323D01*
X237241D01*
X238246Y771592D01*
X239147Y772113D01*
X239883Y772849D01*
X240404Y773750D01*
X240673Y774755D01*
Y774776D01*
D02*
G37*
G36*
X236220D02*
X232768D01*
Y774755D01*
X233037Y773750D01*
X233558Y772849D01*
X234293Y772113D01*
X235195Y771592D01*
X236200Y771323D01*
X236220D01*
Y774776D01*
D02*
G37*
G36*
X512858Y779428D02*
X511764D01*
X510708Y779145D01*
X509761Y778599D01*
X508988Y777825D01*
X508441Y776878D01*
X508158Y775822D01*
Y774729D01*
X508441Y773673D01*
X508988Y772726D01*
X509761Y771953D01*
X510708Y771406D01*
X511764Y771123D01*
X512858D01*
X513914Y771406D01*
X514861Y771953D01*
X515634Y772726D01*
X516181Y773673D01*
X516464Y774729D01*
Y775822D01*
X516181Y776878D01*
X515634Y777825D01*
X514861Y778599D01*
X513914Y779145D01*
X512858Y779428D01*
D02*
G37*
G36*
X709708Y769428D02*
X708615D01*
X707558Y769145D01*
X706612Y768599D01*
X705838Y767825D01*
X705292Y766879D01*
X705009Y765822D01*
Y764729D01*
X705292Y763673D01*
X705838Y762726D01*
X706612Y761953D01*
X707558Y761406D01*
X708615Y761123D01*
X709708D01*
X710764Y761406D01*
X711711Y761953D01*
X712484Y762726D01*
X713031Y763673D01*
X713314Y764729D01*
Y765822D01*
X713031Y766879D01*
X712484Y767825D01*
X711711Y768599D01*
X710764Y769145D01*
X709708Y769428D01*
D02*
G37*
G36*
X512858D02*
X511764D01*
X510708Y769145D01*
X509761Y768599D01*
X508988Y767825D01*
X508441Y766879D01*
X508158Y765822D01*
Y764729D01*
X508441Y763673D01*
X508988Y762726D01*
X509761Y761953D01*
X510708Y761406D01*
X511764Y761123D01*
X512858D01*
X513914Y761406D01*
X514861Y761953D01*
X515634Y762726D01*
X516181Y763673D01*
X516464Y764729D01*
Y765822D01*
X516181Y766879D01*
X515634Y767825D01*
X514861Y768599D01*
X513914Y769145D01*
X512858Y769428D01*
D02*
G37*
G36*
X237267D02*
X236174D01*
X235118Y769145D01*
X234171Y768599D01*
X233397Y767825D01*
X232851Y766879D01*
X232568Y765822D01*
Y764729D01*
X232851Y763673D01*
X233397Y762726D01*
X234171Y761953D01*
X235118Y761406D01*
X236174Y761123D01*
X237267D01*
X238323Y761406D01*
X239270Y761953D01*
X240043Y762726D01*
X240590Y763673D01*
X240873Y764729D01*
Y765822D01*
X240590Y766879D01*
X240043Y767825D01*
X239270Y768599D01*
X238323Y769145D01*
X237267Y769428D01*
D02*
G37*
G36*
X709708Y759428D02*
X708615D01*
X707558Y759145D01*
X706612Y758599D01*
X705838Y757825D01*
X705292Y756879D01*
X705009Y755822D01*
Y754729D01*
X705292Y753673D01*
X705838Y752726D01*
X706612Y751953D01*
X707558Y751406D01*
X708615Y751123D01*
X709708D01*
X710764Y751406D01*
X711711Y751953D01*
X712484Y752726D01*
X713031Y753673D01*
X713314Y754729D01*
Y755822D01*
X713031Y756879D01*
X712484Y757825D01*
X711711Y758599D01*
X710764Y759145D01*
X709708Y759428D01*
D02*
G37*
G36*
X512858D02*
X511764D01*
X510708Y759145D01*
X509761Y758599D01*
X508988Y757825D01*
X508441Y756879D01*
X508158Y755822D01*
Y754729D01*
X508441Y753673D01*
X508988Y752726D01*
X509761Y751953D01*
X510708Y751406D01*
X511764Y751123D01*
X512858D01*
X513914Y751406D01*
X514861Y751953D01*
X515634Y752726D01*
X516181Y753673D01*
X516464Y754729D01*
Y755822D01*
X516181Y756879D01*
X515634Y757825D01*
X514861Y758599D01*
X513914Y759145D01*
X512858Y759428D01*
D02*
G37*
G36*
X237267D02*
X236174D01*
X235118Y759145D01*
X234171Y758599D01*
X233397Y757825D01*
X232851Y756879D01*
X232568Y755822D01*
Y754729D01*
X232851Y753673D01*
X233397Y752726D01*
X234171Y751953D01*
X235118Y751406D01*
X236174Y751123D01*
X237267D01*
X238323Y751406D01*
X239270Y751953D01*
X240043Y752726D01*
X240590Y753673D01*
X240873Y754729D01*
Y755822D01*
X240590Y756879D01*
X240043Y757825D01*
X239270Y758599D01*
X238323Y759145D01*
X237267Y759428D01*
D02*
G37*
G36*
X262856Y747700D02*
X262144D01*
X261458Y747516D01*
X260842Y747160D01*
X260339Y746658D01*
X260120Y746278D01*
X222541D01*
X222368Y746450D01*
X221753Y746805D01*
X221066Y746989D01*
X220355D01*
X219668Y746805D01*
X219053Y746450D01*
X218550Y745947D01*
X218195Y745331D01*
X218011Y744645D01*
Y743934D01*
X218195Y743247D01*
X218550Y742631D01*
X219053Y742129D01*
X219668Y741773D01*
X220355Y741589D01*
X221066D01*
X221753Y741773D01*
X222368Y742129D01*
X222541Y742301D01*
X261384D01*
X261818Y742388D01*
X262144Y742300D01*
X262856D01*
X263542Y742484D01*
X264158Y742839D01*
X264661Y743342D01*
X265016Y743958D01*
X265200Y744644D01*
Y745356D01*
X265016Y746042D01*
X264661Y746658D01*
X264158Y747160D01*
X263542Y747516D01*
X262856Y747700D01*
D02*
G37*
G36*
X290392Y748535D02*
X286940D01*
Y745279D01*
X290392D01*
Y748535D01*
D02*
G37*
G36*
X285940D02*
X282487D01*
Y745279D01*
X285940D01*
Y748535D01*
D02*
G37*
G36*
X669372Y740555D02*
X668661D01*
X667975Y740372D01*
X667359Y740016D01*
X667187Y739844D01*
X473488D01*
X473316Y740016D01*
X472700Y740372D01*
X472013Y740555D01*
X471302D01*
X470616Y740372D01*
X470000Y740016D01*
X469497Y739513D01*
X469142Y738898D01*
X468958Y738211D01*
Y737500D01*
X469142Y736813D01*
X469497Y736198D01*
X470000Y735695D01*
X470616Y735339D01*
X471302Y735155D01*
X472013D01*
X472700Y735339D01*
X473316Y735695D01*
X473488Y735867D01*
X667187D01*
X667359Y735695D01*
X667975Y735339D01*
X668661Y735155D01*
X669372D01*
X670059Y735339D01*
X670675Y735695D01*
X671177Y736198D01*
X671533Y736813D01*
X671717Y737500D01*
Y738211D01*
X671533Y738898D01*
X671177Y739513D01*
X670675Y740016D01*
X670059Y740372D01*
X669372Y740555D01*
D02*
G37*
G36*
X310425Y734762D02*
X309714D01*
X309027Y734578D01*
X308411Y734223D01*
X307909Y733720D01*
X307553Y733105D01*
X307369Y732418D01*
Y731707D01*
X307553Y731020D01*
X307909Y730405D01*
X308325Y729988D01*
X308238Y729631D01*
X308147Y729488D01*
X291565D01*
X290354Y730699D01*
X289709Y731130D01*
X288949Y731282D01*
X243992D01*
X243542Y731541D01*
X242856Y731725D01*
X242144D01*
X241458Y731541D01*
X240842Y731185D01*
X240339Y730683D01*
X239984Y730067D01*
X239800Y729381D01*
Y728670D01*
X239984Y727983D01*
X240270Y727488D01*
X240074Y726988D01*
X101830D01*
X101658Y727161D01*
X101042Y727516D01*
X100356Y727700D01*
X99645D01*
X98958Y727516D01*
X98342Y727161D01*
X97839Y726658D01*
X97484Y726042D01*
X97300Y725355D01*
Y724645D01*
X97484Y723958D01*
X97839Y723342D01*
X98342Y722839D01*
X98958Y722484D01*
X99645Y722300D01*
X100356D01*
X101042Y722484D01*
X101658Y722839D01*
X101830Y723012D01*
X273078D01*
X273078Y721044D01*
X273278Y720627D01*
Y717626D01*
X281184D01*
Y720627D01*
X281384Y721044D01*
X281384Y721299D01*
Y723012D01*
X299340D01*
X299422Y722516D01*
X298806Y722160D01*
X298303Y721658D01*
X297948Y721042D01*
X297764Y720356D01*
Y719644D01*
X297948Y718958D01*
X298303Y718342D01*
X298806Y717839D01*
X299422Y717484D01*
X300108Y717300D01*
X300819D01*
X301506Y717484D01*
X302121Y717839D01*
X302294Y718012D01*
X675670D01*
X675842Y717839D01*
X676458Y717484D01*
X677144Y717300D01*
X677855D01*
X678542Y717484D01*
X679158Y717839D01*
X679661Y718342D01*
X680016Y718958D01*
X680200Y719644D01*
Y720356D01*
X680016Y721042D01*
X679661Y721658D01*
X679158Y722160D01*
X678542Y722516D01*
X677855Y722700D01*
X677144D01*
X676458Y722516D01*
X675842Y722160D01*
X675670Y721988D01*
X388624D01*
X388542Y722484D01*
X389158Y722839D01*
X389661Y723342D01*
X390016Y723958D01*
X390200Y724645D01*
Y725355D01*
X390016Y726042D01*
X389661Y726658D01*
X389158Y727161D01*
X388542Y727516D01*
X387856Y727700D01*
X387144D01*
X386458Y727516D01*
X385842Y727161D01*
X385670Y726988D01*
X371301D01*
X370917Y727488D01*
X370969Y727682D01*
Y728393D01*
X370785Y729080D01*
X370694Y729237D01*
X370983Y729737D01*
X556445D01*
X556617Y729565D01*
X557233Y729209D01*
X557920Y729025D01*
X558631D01*
X559317Y729209D01*
X559933Y729565D01*
X560435Y730067D01*
X560791Y730683D01*
X560975Y731369D01*
Y732081D01*
X560791Y732767D01*
X560435Y733383D01*
X559933Y733885D01*
X559317Y734241D01*
X558631Y734425D01*
X557920D01*
X557233Y734241D01*
X556617Y733885D01*
X556445Y733713D01*
X345105D01*
X344933Y733885D01*
X344317Y734241D01*
X343631Y734425D01*
X342919D01*
X342233Y734241D01*
X341617Y733885D01*
X341614Y733882D01*
X312068D01*
X311727Y734223D01*
X311111Y734578D01*
X310425Y734762D01*
D02*
G37*
G36*
X281184Y716626D02*
X273278D01*
Y714488D01*
X114330D01*
X114158Y714661D01*
X113542Y715016D01*
X112856Y715200D01*
X112144D01*
X111458Y715016D01*
X110842Y714661D01*
X110339Y714158D01*
X109984Y713542D01*
X109800Y712855D01*
Y712145D01*
X109984Y711458D01*
X110339Y710842D01*
X110842Y710339D01*
X111458Y709984D01*
X112144Y709800D01*
X112856D01*
X113542Y709984D01*
X114158Y710339D01*
X114330Y710512D01*
X373402D01*
X373574Y710339D01*
X374190Y709984D01*
X374876Y709800D01*
X375587D01*
X376274Y709984D01*
X376890Y710339D01*
X377392Y710842D01*
X377748Y711458D01*
X377932Y712145D01*
Y712855D01*
X377748Y713542D01*
X377392Y714158D01*
X376890Y714661D01*
X376274Y715016D01*
X375587Y715200D01*
X374876D01*
X374190Y715016D01*
X373574Y714661D01*
X373402Y714488D01*
X281184D01*
Y716626D01*
D02*
G37*
G36*
X687855Y707700D02*
X687145D01*
X686458Y707516D01*
X685842Y707161D01*
X685670Y706988D01*
X306830D01*
X306658Y707161D01*
X306042Y707516D01*
X305356Y707700D01*
X304644D01*
X303958Y707516D01*
X303342Y707161D01*
X302839Y706658D01*
X302484Y706042D01*
X302300Y705356D01*
Y704644D01*
X302484Y703958D01*
X302839Y703342D01*
X303342Y702840D01*
X303958Y702484D01*
X303876Y701988D01*
X126830D01*
X126658Y702161D01*
X126042Y702516D01*
X125356Y702700D01*
X124644D01*
X123958Y702516D01*
X123342Y702161D01*
X122839Y701658D01*
X122484Y701042D01*
X122300Y700355D01*
Y699645D01*
X122484Y698958D01*
X122839Y698342D01*
X123342Y697839D01*
X123958Y697484D01*
X124644Y697300D01*
X125356D01*
X126042Y697484D01*
X126658Y697839D01*
X126830Y698012D01*
X423707D01*
X423880Y697839D01*
X424495Y697484D01*
X425182Y697300D01*
X425893D01*
X426580Y697484D01*
X427195Y697839D01*
X427698Y698342D01*
X428053Y698958D01*
X428237Y699645D01*
Y700355D01*
X428053Y701042D01*
X427698Y701658D01*
X427195Y702161D01*
X426580Y702516D01*
X426661Y703012D01*
X685670D01*
X685842Y702840D01*
X686458Y702484D01*
X687145Y702300D01*
X687855D01*
X688542Y702484D01*
X689158Y702840D01*
X689661Y703342D01*
X690016Y703958D01*
X690200Y704644D01*
Y705356D01*
X690016Y706042D01*
X689661Y706658D01*
X689158Y707161D01*
X688542Y707516D01*
X687855Y707700D01*
D02*
G37*
G36*
X697856Y695200D02*
X697145D01*
X696458Y695016D01*
X695842Y694661D01*
X695670Y694488D01*
X385968D01*
X385796Y694661D01*
X385180Y695016D01*
X384494Y695200D01*
X383783D01*
X383096Y695016D01*
X382481Y694661D01*
X381978Y694158D01*
X381622Y693542D01*
X381438Y692856D01*
Y692144D01*
X381622Y691458D01*
X381978Y690842D01*
X382481Y690340D01*
X383096Y689984D01*
X383015Y689488D01*
X373528D01*
X373446Y689984D01*
X374062Y690340D01*
X374565Y690842D01*
X374920Y691458D01*
X375104Y692144D01*
Y692856D01*
X374920Y693542D01*
X374565Y694158D01*
X374062Y694661D01*
X373446Y695016D01*
X372760Y695200D01*
X372049D01*
X371362Y695016D01*
X370746Y694661D01*
X370574Y694488D01*
X233251D01*
X233079Y694661D01*
X232463Y695016D01*
X231777Y695200D01*
X231066D01*
X230379Y695016D01*
X229763Y694661D01*
X229261Y694158D01*
X228905Y693542D01*
X228721Y692856D01*
Y692144D01*
X228905Y691458D01*
X229261Y690842D01*
X229763Y690340D01*
X230379Y689984D01*
X230298Y689488D01*
X189330D01*
X189158Y689661D01*
X188542Y690016D01*
X187856Y690200D01*
X187144D01*
X186458Y690016D01*
X185842Y689661D01*
X185339Y689158D01*
X184984Y688542D01*
X184800Y687855D01*
Y687145D01*
X184984Y686458D01*
X185339Y685842D01*
X185842Y685339D01*
X186458Y684984D01*
X187144Y684800D01*
X187856D01*
X188542Y684984D01*
X189158Y685339D01*
X189330Y685512D01*
X416207D01*
X416380Y685339D01*
X416995Y684984D01*
X417682Y684800D01*
X418393D01*
X419080Y684984D01*
X419695Y685339D01*
X420198Y685842D01*
X420553Y686458D01*
X420737Y687145D01*
Y687855D01*
X420553Y688542D01*
X420198Y689158D01*
X419695Y689661D01*
X419080Y690016D01*
X419161Y690512D01*
X695670D01*
X695842Y690340D01*
X696458Y689984D01*
X697145Y689800D01*
X697856D01*
X698542Y689984D01*
X699158Y690340D01*
X699660Y690842D01*
X700016Y691458D01*
X700200Y692144D01*
Y692856D01*
X700016Y693542D01*
X699660Y694158D01*
X699158Y694661D01*
X698542Y695016D01*
X697856Y695200D01*
D02*
G37*
G36*
X709517Y682700D02*
X708806D01*
X708119Y682516D01*
X707504Y682161D01*
X707331Y681988D01*
X411830D01*
X411658Y682161D01*
X411042Y682516D01*
X410356Y682700D01*
X409645D01*
X408958Y682516D01*
X408342Y682161D01*
X407839Y681658D01*
X407484Y681042D01*
X407300Y680356D01*
Y679644D01*
X407484Y678958D01*
X407839Y678342D01*
X408342Y677840D01*
X408958Y677484D01*
X409645Y677300D01*
X410356D01*
X411042Y677484D01*
X411658Y677840D01*
X411830Y678012D01*
X707331D01*
X707504Y677840D01*
X708119Y677484D01*
X708806Y677300D01*
X709517D01*
X710204Y677484D01*
X710819Y677840D01*
X711322Y678342D01*
X711677Y678958D01*
X711861Y679644D01*
Y680356D01*
X711677Y681042D01*
X711322Y681658D01*
X710819Y682161D01*
X710204Y682516D01*
X709517Y682700D01*
D02*
G37*
G36*
X437668Y677200D02*
X436957D01*
X436270Y677016D01*
X435655Y676660D01*
X435272Y676278D01*
X212541D01*
X212368Y676450D01*
X211753Y676805D01*
X211066Y676989D01*
X210355D01*
X209668Y676805D01*
X209053Y676450D01*
X208550Y675947D01*
X208195Y675331D01*
X208011Y674645D01*
Y673934D01*
X208195Y673247D01*
X208550Y672632D01*
X209053Y672129D01*
X209668Y671773D01*
X210355Y671589D01*
X211066D01*
X211753Y671773D01*
X212368Y672129D01*
X212541Y672301D01*
X435721D01*
X436270Y671984D01*
X436957Y671800D01*
X437668D01*
X438355Y671984D01*
X438970Y672339D01*
X439473Y672842D01*
X439828Y673458D01*
X440012Y674145D01*
Y674856D01*
X439828Y675542D01*
X439473Y676158D01*
X438970Y676660D01*
X438355Y677016D01*
X437668Y677200D01*
D02*
G37*
G36*
X292758Y667475D02*
X280122D01*
Y661984D01*
X266535D01*
X266362Y662156D01*
X265747Y662511D01*
X265060Y662696D01*
X264349D01*
X263662Y662511D01*
X263047Y662156D01*
X262544Y661653D01*
X262189Y661038D01*
X262005Y660351D01*
Y659640D01*
X262189Y658953D01*
X262544Y658338D01*
X263047Y657835D01*
X263662Y657479D01*
X264349Y657296D01*
X265060D01*
X265747Y657479D01*
X266362Y657835D01*
X266535Y658007D01*
X280122D01*
Y648540D01*
X292758D01*
Y667475D01*
D02*
G37*
G36*
X323953Y662693D02*
X320500D01*
Y659437D01*
X323953D01*
Y662693D01*
D02*
G37*
G36*
X319500D02*
X316047D01*
Y659437D01*
X319500D01*
Y662693D01*
D02*
G37*
G36*
X398838Y663602D02*
X390532D01*
Y655296D01*
X398838D01*
Y663602D01*
D02*
G37*
G36*
X385232D02*
X384138D01*
X383082Y663319D01*
X382135Y662772D01*
X381362Y661999D01*
X380815Y661052D01*
X380532Y659996D01*
Y658902D01*
X380815Y657846D01*
X381362Y656899D01*
X382135Y656126D01*
X383082Y655579D01*
X384138Y655296D01*
X385232D01*
X386288Y655579D01*
X387235Y656126D01*
X388008Y656899D01*
X388555Y657846D01*
X388838Y658902D01*
Y659996D01*
X388555Y661052D01*
X388008Y661999D01*
X387235Y662772D01*
X386288Y663319D01*
X385232Y663602D01*
D02*
G37*
G36*
X375232D02*
X374138D01*
X373082Y663319D01*
X372135Y662772D01*
X371362Y661999D01*
X370815Y661052D01*
X370532Y659996D01*
Y658902D01*
X370815Y657846D01*
X371362Y656899D01*
X372135Y656126D01*
X373082Y655579D01*
X374138Y655296D01*
X375232D01*
X376288Y655579D01*
X377235Y656126D01*
X378008Y656899D01*
X378555Y657846D01*
X378838Y658902D01*
Y659996D01*
X378555Y661052D01*
X378008Y661999D01*
X377235Y662772D01*
X376288Y663319D01*
X375232Y663602D01*
D02*
G37*
G36*
X365232D02*
X364138D01*
X363082Y663319D01*
X362135Y662772D01*
X361362Y661999D01*
X360815Y661052D01*
X360532Y659996D01*
Y658902D01*
X360815Y657846D01*
X361362Y656899D01*
X362135Y656126D01*
X363082Y655579D01*
X364138Y655296D01*
X365232D01*
X366288Y655579D01*
X367235Y656126D01*
X368008Y656899D01*
X368555Y657846D01*
X368838Y658902D01*
Y659996D01*
X368555Y661052D01*
X368008Y661999D01*
X367235Y662772D01*
X366288Y663319D01*
X365232Y663602D01*
D02*
G37*
G36*
X355232D02*
X354138D01*
X353082Y663319D01*
X352135Y662772D01*
X351362Y661999D01*
X350815Y661052D01*
X350532Y659996D01*
Y658902D01*
X350815Y657846D01*
X351362Y656899D01*
X352135Y656126D01*
X353082Y655579D01*
X354138Y655296D01*
X355232D01*
X356288Y655579D01*
X357235Y656126D01*
X358008Y656899D01*
X358555Y657846D01*
X358838Y658902D01*
Y659996D01*
X358555Y661052D01*
X358008Y661999D01*
X357235Y662772D01*
X356288Y663319D01*
X355232Y663602D01*
D02*
G37*
G36*
X486411Y655649D02*
X478499D01*
Y648779D01*
X478499Y648524D01*
X478699Y648107D01*
Y648024D01*
Y645500D01*
X486211D01*
Y648107D01*
X486411Y648524D01*
X486411Y648779D01*
Y650733D01*
X488170D01*
X488342Y650560D01*
X488958Y650205D01*
X489644Y650021D01*
X490355D01*
X491042Y650205D01*
X491658Y650560D01*
X492161Y651063D01*
X492516Y651679D01*
X492700Y652365D01*
Y653076D01*
X492516Y653763D01*
X492161Y654379D01*
X491658Y654881D01*
X491042Y655237D01*
X490355Y655421D01*
X489644D01*
X488958Y655237D01*
X488342Y654881D01*
X488170Y654709D01*
X486411D01*
Y655649D01*
D02*
G37*
G36*
X440527Y659118D02*
X427890D01*
Y640183D01*
X432179D01*
X432430Y639750D01*
X432381Y639665D01*
X432197Y638979D01*
Y638268D01*
X432381Y637581D01*
X432736Y636965D01*
X432909Y636793D01*
Y633230D01*
X427398D01*
Y624531D01*
X442396D01*
Y633230D01*
X436885D01*
Y636793D01*
X437057Y636965D01*
X437413Y637581D01*
X437597Y638268D01*
Y638979D01*
X437413Y639665D01*
X437364Y639750D01*
X437614Y640183D01*
X440527D01*
Y649075D01*
X461280D01*
X461452Y648903D01*
X462068Y648547D01*
X462755Y648363D01*
X463466D01*
X464152Y648547D01*
X464768Y648903D01*
X465271Y649405D01*
X465626Y650021D01*
X465810Y650707D01*
Y651418D01*
X465626Y652105D01*
X465271Y652721D01*
X464768Y653224D01*
X464152Y653579D01*
X463466Y653763D01*
X462755D01*
X462068Y653579D01*
X461452Y653224D01*
X461280Y653051D01*
X440527D01*
Y659118D01*
D02*
G37*
G36*
X323953Y658437D02*
X320000D01*
X316047D01*
Y655436D01*
X315847Y655019D01*
X315847Y654764D01*
Y647107D01*
X324153D01*
Y649075D01*
X350299D01*
X351985Y647388D01*
Y647145D01*
X352169Y646458D01*
X352524Y645842D01*
X353027Y645339D01*
X353643Y644984D01*
X354330Y644800D01*
X355041D01*
X355727Y644984D01*
X356343Y645339D01*
X356846Y645842D01*
X357201Y646458D01*
X357385Y647145D01*
Y647856D01*
X357201Y648542D01*
X356846Y649158D01*
X356343Y649660D01*
X355727Y650016D01*
X355041Y650200D01*
X354797D01*
X352528Y652469D01*
X351883Y652900D01*
X351122Y653051D01*
X324153D01*
X324153Y655019D01*
X323953Y655436D01*
Y655519D01*
Y658437D01*
D02*
G37*
G36*
X375356Y645200D02*
X374644D01*
X373958Y645016D01*
X373342Y644661D01*
X372931Y644249D01*
X331830D01*
X331658Y644422D01*
X331042Y644777D01*
X330356Y644961D01*
X329644D01*
X328958Y644777D01*
X328342Y644422D01*
X327839Y643919D01*
X327484Y643303D01*
X327300Y642617D01*
Y641906D01*
X327484Y641219D01*
X327839Y640603D01*
X328342Y640101D01*
X328958Y639745D01*
X329644Y639561D01*
X330356D01*
X331042Y639745D01*
X331658Y640101D01*
X331830Y640273D01*
X373457D01*
X373958Y639984D01*
X374644Y639800D01*
X375356D01*
X376042Y639984D01*
X376658Y640340D01*
X377161Y640842D01*
X377516Y641458D01*
X377700Y642144D01*
Y642856D01*
X377516Y643542D01*
X377161Y644158D01*
X376658Y644661D01*
X376042Y645016D01*
X375356Y645200D01*
D02*
G37*
G36*
X306742Y643582D02*
X305441D01*
Y641890D01*
X308354D01*
Y641971D01*
X308231Y642588D01*
X307882Y643111D01*
X307359Y643460D01*
X306742Y643582D01*
D02*
G37*
G36*
X304441D02*
X303140D01*
X302523Y643460D01*
X302000Y643111D01*
X301651Y642588D01*
X301528Y641971D01*
Y641890D01*
X304441D01*
Y643582D01*
D02*
G37*
G36*
X486211Y644500D02*
X482955D01*
Y641638D01*
X486211D01*
Y644500D01*
D02*
G37*
G36*
X481955D02*
X478699D01*
Y641638D01*
X481955D01*
Y644500D01*
D02*
G37*
G36*
X281017Y644090D02*
X280306D01*
X279619Y643906D01*
X279004Y643551D01*
X278501Y643048D01*
X278145Y642432D01*
X277961Y641746D01*
Y641035D01*
X278145Y640348D01*
X278267Y640138D01*
X278213Y639941D01*
X277994Y639611D01*
X277554Y639523D01*
X277318Y639587D01*
X276607D01*
X275920Y639403D01*
X275305Y639047D01*
X274802Y638544D01*
X274447Y637929D01*
X274263Y637242D01*
Y636531D01*
X274447Y635844D01*
X274802Y635229D01*
X275305Y634726D01*
X275920Y634371D01*
X276607Y634187D01*
X277318D01*
X278005Y634371D01*
X278620Y634726D01*
X279123Y635229D01*
X279373Y635662D01*
X285316D01*
X285605Y635162D01*
X285484Y634952D01*
X285300Y634265D01*
Y633554D01*
X285484Y632868D01*
X285840Y632252D01*
X286342Y631749D01*
X286958Y631394D01*
X287645Y631210D01*
X288355D01*
X289042Y631394D01*
X289658Y631749D01*
X289830Y631922D01*
X292159D01*
X292563Y631652D01*
X293258Y631514D01*
X296860D01*
X297555Y631652D01*
X298144Y632045D01*
X298538Y632634D01*
X298676Y633329D01*
Y634490D01*
X298538Y635185D01*
X298417Y635366D01*
X298148Y635780D01*
X298417Y636194D01*
X298538Y636375D01*
X298676Y637069D01*
Y638231D01*
X298538Y638926D01*
X298417Y639107D01*
X298148Y639520D01*
X298417Y639934D01*
X298538Y640115D01*
X298676Y640809D01*
Y641971D01*
X298538Y642666D01*
X298144Y643255D01*
X297555Y643648D01*
X296860Y643786D01*
X293258D01*
X292563Y643648D01*
X292159Y643378D01*
X282491D01*
X282319Y643551D01*
X281703Y643906D01*
X281017Y644090D01*
D02*
G37*
G36*
X308354Y640890D02*
X305441D01*
Y639198D01*
X306742D01*
X307359Y639321D01*
X307882Y639670D01*
X308231Y640193D01*
X308354Y640809D01*
Y640890D01*
D02*
G37*
G36*
X304441D02*
X301528D01*
Y640809D01*
X301651Y640193D01*
X302000Y639670D01*
X302523Y639321D01*
X303140Y639198D01*
X304441D01*
Y640890D01*
D02*
G37*
G36*
X268953Y639280D02*
X265500D01*
Y636024D01*
X268953D01*
Y639280D01*
D02*
G37*
G36*
X264500D02*
X261047D01*
Y636024D01*
X264500D01*
Y639280D01*
D02*
G37*
G36*
X310355Y636679D02*
X309645D01*
X308958Y636495D01*
X308342Y636140D01*
X308101Y635898D01*
X307841D01*
X307437Y636168D01*
X306742Y636306D01*
X303140D01*
X302445Y636168D01*
X301856Y635774D01*
X301462Y635185D01*
X301324Y634490D01*
Y633329D01*
X301462Y632634D01*
X301856Y632045D01*
X302445Y631652D01*
X303140Y631514D01*
X306742D01*
X307437Y631652D01*
X307841Y631922D01*
X308239D01*
X308342Y631818D01*
X308958Y631463D01*
X309645Y631279D01*
X310355D01*
X311042Y631463D01*
X311658Y631818D01*
X312160Y632321D01*
X312516Y632937D01*
X312700Y633624D01*
Y634335D01*
X312516Y635021D01*
X312160Y635637D01*
X311658Y636140D01*
X311042Y636495D01*
X310355Y636679D01*
D02*
G37*
G36*
X478558Y637549D02*
X476893D01*
Y634857D01*
X481685D01*
X481642Y635183D01*
X481323Y635953D01*
X480816Y636614D01*
X480154Y637122D01*
X479384Y637441D01*
X478558Y637549D01*
D02*
G37*
G36*
X475893D02*
X474227D01*
X473401Y637441D01*
X472631Y637122D01*
X471970Y636614D01*
X471462Y635953D01*
X471143Y635183D01*
X471101Y634857D01*
X475893D01*
Y637549D01*
D02*
G37*
G36*
X461881Y633030D02*
X455082D01*
Y629380D01*
X461881D01*
Y633030D01*
D02*
G37*
G36*
X454082D02*
X447283D01*
Y629380D01*
X454082D01*
Y633030D01*
D02*
G37*
G36*
X323956Y640449D02*
X316044D01*
Y633324D01*
Y626988D01*
X311830D01*
X311658Y627161D01*
X311042Y627516D01*
X310355Y627700D01*
X309645D01*
X308958Y627516D01*
X308342Y627161D01*
X308170Y626988D01*
X302807D01*
X300739Y629056D01*
X300094Y629487D01*
X299333Y629638D01*
X269153D01*
X269153Y631606D01*
X268953Y632023D01*
Y632106D01*
Y635024D01*
X265000D01*
X261047D01*
Y632023D01*
X260847Y631606D01*
X260847Y631351D01*
Y623694D01*
X263012D01*
Y621830D01*
X262840Y621658D01*
X262484Y621042D01*
X262300Y620356D01*
Y619644D01*
X262484Y618958D01*
X262840Y618342D01*
X263342Y617839D01*
X263958Y617484D01*
X264645Y617300D01*
X265355D01*
X266042Y617484D01*
X266658Y617839D01*
X267161Y618342D01*
X267516Y618958D01*
X267700Y619644D01*
Y620356D01*
X267516Y621042D01*
X267161Y621658D01*
X266988Y621830D01*
Y623694D01*
X269153D01*
Y625662D01*
X298510D01*
X299684Y624487D01*
X299493Y624026D01*
X278492D01*
X277936Y624346D01*
X277250Y624530D01*
X276539D01*
X275852Y624346D01*
X275236Y623991D01*
X274734Y623488D01*
X274378Y622872D01*
X274194Y622186D01*
Y621475D01*
X274378Y620788D01*
X274734Y620172D01*
X275236Y619670D01*
X275852Y619314D01*
X276539Y619130D01*
X277250D01*
X277936Y619314D01*
X278552Y619670D01*
X278931Y620049D01*
X284968D01*
X285352Y619549D01*
X285300Y619355D01*
Y618645D01*
X285484Y617958D01*
X285840Y617342D01*
X286342Y616840D01*
X286655Y616659D01*
Y616081D01*
X286342Y615901D01*
X285840Y615398D01*
X285484Y614782D01*
X285300Y614096D01*
Y613385D01*
X285484Y612698D01*
X285605Y612488D01*
X285316Y611988D01*
X266830D01*
X266658Y612160D01*
X266042Y612516D01*
X265355Y612700D01*
X264645D01*
X263958Y612516D01*
X263342Y612160D01*
X262840Y611658D01*
X262484Y611042D01*
X262300Y610356D01*
Y609645D01*
X262484Y608958D01*
X262840Y608342D01*
X263342Y607839D01*
X263958Y607484D01*
X264645Y607300D01*
X265355D01*
X266042Y607484D01*
X266658Y607839D01*
X266830Y608012D01*
X285316D01*
X285605Y607512D01*
X285484Y607302D01*
X285300Y606615D01*
Y605904D01*
X285484Y605218D01*
X285840Y604602D01*
X286342Y604099D01*
X286958Y603744D01*
X287645Y603560D01*
X288355D01*
X289042Y603744D01*
X289658Y604099D01*
X289830Y604272D01*
X297159D01*
X297563Y604002D01*
X298258Y603863D01*
X301860D01*
X302555Y604002D01*
X303144Y604395D01*
X303538Y604984D01*
X303676Y605679D01*
Y606841D01*
X303538Y607535D01*
X303417Y607716D01*
X303148Y608130D01*
X303417Y608543D01*
X303538Y608724D01*
X303676Y609419D01*
Y610581D01*
X303538Y611275D01*
X303417Y611456D01*
X303148Y611870D01*
X303417Y612284D01*
X303538Y612465D01*
X303676Y613160D01*
Y614321D01*
X303538Y615016D01*
X303144Y615605D01*
X302555Y615998D01*
X301860Y616137D01*
X298258D01*
X297563Y615998D01*
X297159Y615728D01*
X289830D01*
X289658Y615901D01*
X289345Y616081D01*
Y616659D01*
X289658Y616840D01*
X289830Y617012D01*
X303170D01*
X303342Y616840D01*
X303958Y616484D01*
X304644Y616300D01*
X305356D01*
X306042Y616484D01*
X306658Y616840D01*
X307160Y617342D01*
X307516Y617958D01*
X307700Y618645D01*
Y619355D01*
X307652Y619533D01*
X308101Y619792D01*
X309299Y618594D01*
X309944Y618163D01*
X310704Y618012D01*
X358170D01*
X358342Y617839D01*
X358958Y617484D01*
X359645Y617300D01*
X360355D01*
X361042Y617484D01*
X361658Y617839D01*
X362160Y618342D01*
X362516Y618958D01*
X362700Y619644D01*
Y620356D01*
X362516Y621042D01*
X362160Y621658D01*
X361658Y622160D01*
X361042Y622516D01*
X360355Y622700D01*
X359645D01*
X358958Y622516D01*
X358342Y622160D01*
X358170Y621988D01*
X331124D01*
X331042Y622484D01*
X331658Y622839D01*
X332160Y623342D01*
X332516Y623958D01*
X332700Y624645D01*
Y625355D01*
X332516Y626042D01*
X332160Y626658D01*
X331658Y627161D01*
X331396Y627312D01*
X331530Y627812D01*
X352855D01*
X353027Y627639D01*
X353643Y627284D01*
X354330Y627100D01*
X355041D01*
X355727Y627284D01*
X356343Y627639D01*
X356846Y628142D01*
X357201Y628758D01*
X357385Y629445D01*
Y630156D01*
X357201Y630842D01*
X356846Y631458D01*
X356343Y631960D01*
X355727Y632316D01*
X355041Y632500D01*
X354330D01*
X353643Y632316D01*
X353027Y631960D01*
X352855Y631788D01*
X323956D01*
Y634898D01*
X341445D01*
X341617Y634726D01*
X342233Y634371D01*
X342919Y634187D01*
X343631D01*
X344317Y634371D01*
X344933Y634726D01*
X345436Y635229D01*
X345791Y635844D01*
X345975Y636531D01*
Y637242D01*
X345791Y637929D01*
X345436Y638544D01*
X344933Y639047D01*
X344317Y639403D01*
X343631Y639587D01*
X342919D01*
X342233Y639403D01*
X341617Y639047D01*
X341445Y638875D01*
X323956D01*
Y640449D01*
D02*
G37*
G36*
X461881Y628380D02*
X455082D01*
Y624730D01*
X461881D01*
Y628380D01*
D02*
G37*
G36*
X454082D02*
X447283D01*
Y624730D01*
X454082D01*
Y628380D01*
D02*
G37*
G36*
X395356Y642700D02*
X394644D01*
X393958Y642516D01*
X393342Y642161D01*
X392840Y641658D01*
X392484Y641042D01*
X392300Y640355D01*
Y639644D01*
X392484Y638958D01*
X392840Y638342D01*
X393012Y638170D01*
Y633950D01*
X390450D01*
Y622850D01*
X399550D01*
Y633950D01*
X396988D01*
Y638170D01*
X397161Y638342D01*
X397516Y638958D01*
X397700Y639644D01*
Y640355D01*
X397516Y641042D01*
X397161Y641658D01*
X396658Y642161D01*
X396042Y642516D01*
X395356Y642700D01*
D02*
G37*
G36*
X481685Y633857D02*
X471101D01*
X471143Y633530D01*
X471462Y632760D01*
X471778Y632349D01*
X471827Y631757D01*
X471288Y631054D01*
X470949Y630235D01*
X470833Y629357D01*
X470949Y628478D01*
X471288Y627660D01*
X471619Y627227D01*
X471783Y626857D01*
X471619Y626486D01*
X471288Y626054D01*
X470949Y625235D01*
X470833Y624357D01*
X470911Y623762D01*
X470799Y623736D01*
X470659Y623672D01*
X470576Y623656D01*
X470538Y623631D01*
X470479Y623611D01*
X470445Y623592D01*
X470402Y623555D01*
X470364Y623538D01*
X470305Y623475D01*
X470179Y623390D01*
X470138Y623329D01*
X470082Y623281D01*
X470007Y623133D01*
X469914Y622994D01*
X469899Y622921D01*
X469866Y622856D01*
X469853Y622689D01*
X469821Y622525D01*
Y618952D01*
X469359Y618761D01*
X468008Y620112D01*
Y620356D01*
X467824Y621042D01*
X467468Y621658D01*
X466965Y622160D01*
X466350Y622516D01*
X465663Y622700D01*
X464952D01*
X464265Y622516D01*
X463650Y622160D01*
X463147Y621658D01*
X462792Y621042D01*
X462608Y620356D01*
Y619644D01*
X462792Y618958D01*
X463147Y618342D01*
X463650Y617839D01*
X464265Y617484D01*
X464952Y617300D01*
X465196D01*
X469608Y612888D01*
X470253Y612457D01*
X471014Y612305D01*
X471185D01*
Y609406D01*
X471185Y609341D01*
X471185D01*
X471306Y608956D01*
X471306Y608956D01*
Y602696D01*
X471068Y602244D01*
X470957Y602198D01*
X470838Y602175D01*
X470738Y602108D01*
X470627Y602062D01*
X470542Y601976D01*
X470441Y601909D01*
X470374Y601810D01*
X470289Y601725D01*
X470027Y601333D01*
X469981Y601222D01*
X469914Y601121D01*
X469890Y601003D01*
X469844Y600892D01*
X469844Y600771D01*
X469821Y600653D01*
Y586988D01*
X469914Y586520D01*
X470179Y586123D01*
X470576Y585858D01*
X471044Y585765D01*
X475985D01*
X476185Y585601D01*
Y585500D01*
X481417D01*
Y584500D01*
X476185D01*
Y584399D01*
X475985Y584235D01*
X471044D01*
X470576Y584142D01*
X470179Y583877D01*
X469914Y583480D01*
X469821Y583012D01*
Y558956D01*
X467679D01*
Y561044D01*
X468203D01*
Y568956D01*
X461333D01*
X461079Y568956D01*
X460661Y568756D01*
X460578D01*
X458054D01*
Y565000D01*
Y561244D01*
X460661D01*
X461079Y561044D01*
X461333Y561044D01*
X463702D01*
Y558956D01*
X462128D01*
Y551044D01*
X463702D01*
Y549344D01*
X463540Y549063D01*
X463356Y548376D01*
Y547665D01*
X463540Y546978D01*
X463896Y546363D01*
X464398Y545860D01*
X465014Y545505D01*
X465701Y545321D01*
X466412D01*
X467098Y545505D01*
X467714Y545860D01*
X468217Y546363D01*
X468572Y546978D01*
X468756Y547665D01*
Y548376D01*
X468572Y549063D01*
X468217Y549678D01*
X467714Y550181D01*
X467679Y550201D01*
Y551044D01*
X469821D01*
Y540000D01*
X469914Y539532D01*
X470179Y539135D01*
X470576Y538870D01*
X471044Y538776D01*
X477109D01*
X477188Y538792D01*
X477269Y538787D01*
X477420Y538838D01*
X477577Y538870D01*
X477644Y538914D01*
X477721Y538940D01*
X477841Y539046D01*
X477974Y539135D01*
X478019Y539202D01*
X478080Y539255D01*
X478151Y539399D01*
X478240Y539532D01*
X478255Y539611D01*
X478291Y539683D01*
X478412Y540133D01*
X478419Y540250D01*
X479640D01*
X479648Y540133D01*
X479769Y539683D01*
X479805Y539611D01*
X479820Y539532D01*
X479909Y539399D01*
X479980Y539255D01*
X480041Y539202D01*
X480085Y539135D01*
X480219Y539046D01*
X480339Y538940D01*
X480415Y538914D01*
X480482Y538870D01*
X480640Y538838D01*
X480791Y538787D01*
X480872Y538792D01*
X480951Y538776D01*
X530000D01*
X530468Y538870D01*
X530865Y539135D01*
X531130Y539532D01*
X531223Y540000D01*
X531223Y630000D01*
X531130Y630468D01*
X530865Y630865D01*
X530468Y631130D01*
X530000Y631223D01*
X482247D01*
X482207Y631216D01*
X482167Y631221D01*
X481974Y631169D01*
X481779Y631130D01*
X481691Y631107D01*
X481249Y631377D01*
X480958Y631757D01*
X481007Y632349D01*
X481323Y632760D01*
X481642Y633530D01*
X481685Y633857D01*
D02*
G37*
G36*
X399350Y620350D02*
X395500D01*
Y615500D01*
X399350D01*
Y620350D01*
D02*
G37*
G36*
X394500D02*
X390650D01*
Y615500D01*
X394500D01*
Y620350D01*
D02*
G37*
G36*
X311742Y615933D02*
X310441D01*
Y614240D01*
X313354D01*
Y614321D01*
X313231Y614938D01*
X312882Y615460D01*
X312359Y615810D01*
X311742Y615933D01*
D02*
G37*
G36*
X309441D02*
X308140D01*
X307523Y615810D01*
X307000Y615460D01*
X306651Y614938D01*
X306528Y614321D01*
Y614240D01*
X309441D01*
Y615933D01*
D02*
G37*
G36*
X313354Y613240D02*
X310441D01*
Y611548D01*
X311742D01*
X312359Y611670D01*
X312882Y612020D01*
X313231Y612543D01*
X313354Y613160D01*
Y613240D01*
D02*
G37*
G36*
X309441D02*
X306528D01*
Y613160D01*
X306651Y612543D01*
X307000Y612020D01*
X307523Y611670D01*
X308140Y611548D01*
X309441D01*
Y613240D01*
D02*
G37*
G36*
X399350Y614500D02*
X395500D01*
Y609650D01*
X399350D01*
Y614500D01*
D02*
G37*
G36*
X394500D02*
X390650D01*
Y609650D01*
X394500D01*
Y614500D01*
D02*
G37*
G36*
X343631Y608960D02*
X342919D01*
X342233Y608776D01*
X341617Y608420D01*
X341445Y608248D01*
X312841D01*
X312437Y608518D01*
X311742Y608656D01*
X308140D01*
X307445Y608518D01*
X306856Y608124D01*
X306462Y607535D01*
X306324Y606841D01*
Y605679D01*
X306462Y604984D01*
X306856Y604395D01*
X307445Y604002D01*
X308140Y603863D01*
X311742D01*
X312437Y604002D01*
X312841Y604272D01*
X341445D01*
X341617Y604099D01*
X342233Y603744D01*
X342919Y603560D01*
X343631D01*
X344317Y603744D01*
X344933Y604099D01*
X345436Y604602D01*
X345791Y605218D01*
X345975Y605904D01*
Y606615D01*
X345791Y607302D01*
X345436Y607918D01*
X344933Y608420D01*
X344317Y608776D01*
X343631Y608960D01*
D02*
G37*
G36*
X427318Y600200D02*
X426607D01*
X425920Y600016D01*
X425305Y599660D01*
X425132Y599488D01*
X281830D01*
X281658Y599660D01*
X281042Y600016D01*
X280356Y600200D01*
X279644D01*
X278958Y600016D01*
X278342Y599660D01*
X277839Y599158D01*
X277484Y598542D01*
X277300Y597856D01*
Y597145D01*
X277484Y596458D01*
X277839Y595842D01*
X278342Y595339D01*
X278958Y594984D01*
X279644Y594800D01*
X280356D01*
X281042Y594984D01*
X281658Y595339D01*
X281830Y595512D01*
X425132D01*
X425305Y595339D01*
X425920Y594984D01*
X426607Y594800D01*
X427318D01*
X428005Y594984D01*
X428620Y595339D01*
X429123Y595842D01*
X429479Y596458D01*
X429663Y597145D01*
Y597856D01*
X429479Y598542D01*
X429123Y599158D01*
X428620Y599660D01*
X428005Y600016D01*
X427318Y600200D01*
D02*
G37*
G36*
X446618Y596071D02*
X441000D01*
Y587303D01*
X446618D01*
Y596071D01*
D02*
G37*
G36*
X440000D02*
X434382D01*
Y587303D01*
X440000D01*
Y596071D01*
D02*
G37*
G36*
X463815Y592398D02*
X459083D01*
Y585500D01*
X463815D01*
Y592398D01*
D02*
G37*
G36*
X458083D02*
X453350D01*
Y585500D01*
X458083D01*
Y592398D01*
D02*
G37*
G36*
X463815Y584500D02*
X459083D01*
Y577602D01*
X463815D01*
Y584500D01*
D02*
G37*
G36*
X458083D02*
X453350D01*
Y577602D01*
X458083D01*
Y584500D01*
D02*
G37*
G36*
X446618Y586303D02*
X441000D01*
Y577535D01*
X446618D01*
Y586303D01*
D02*
G37*
G36*
X440000D02*
X434382D01*
Y577535D01*
X440000D01*
Y586303D01*
D02*
G37*
G36*
X419153Y569330D02*
X410847D01*
Y567362D01*
X409330D01*
X409158Y567535D01*
X408542Y567890D01*
X407856Y568074D01*
X407145D01*
X406458Y567890D01*
X405842Y567535D01*
X405339Y567032D01*
X404984Y566416D01*
X404800Y565730D01*
Y565019D01*
X404984Y564332D01*
X405339Y563716D01*
X405842Y563213D01*
X406458Y562858D01*
X407145Y562674D01*
X407856D01*
X408542Y562858D01*
X409158Y563213D01*
X409330Y563386D01*
X410847D01*
Y561418D01*
Y553544D01*
X412274D01*
X412524Y553111D01*
X412484Y553042D01*
X412300Y552355D01*
Y551645D01*
X412484Y550958D01*
X412840Y550342D01*
X413342Y549839D01*
X413958Y549484D01*
X414644Y549300D01*
X415355D01*
X416042Y549484D01*
X416658Y549839D01*
X417161Y550342D01*
X417516Y550958D01*
X417700Y551645D01*
Y552355D01*
X417516Y553042D01*
X417476Y553111D01*
X417726Y553544D01*
X419153D01*
Y561418D01*
Y569330D01*
D02*
G37*
G36*
X394153Y569330D02*
X385847D01*
Y567362D01*
X384139D01*
X383967Y567534D01*
X383351Y567890D01*
X382665Y568074D01*
X381954D01*
X381267Y567890D01*
X380651Y567534D01*
X380149Y567032D01*
X379793Y566416D01*
X379609Y565730D01*
Y565019D01*
X379793Y564332D01*
X380149Y563716D01*
X380651Y563213D01*
X381267Y562858D01*
X381954Y562674D01*
X382665D01*
X383351Y562858D01*
X383967Y563213D01*
X384139Y563386D01*
X385847D01*
Y561418D01*
Y553544D01*
X387312D01*
X387601Y553044D01*
X387484Y552842D01*
X387300Y552155D01*
Y551444D01*
X387484Y550758D01*
X387840Y550142D01*
X388342Y549640D01*
X388958Y549284D01*
X389645Y549100D01*
X390355D01*
X391042Y549284D01*
X391658Y549640D01*
X392161Y550142D01*
X392516Y550758D01*
X392700Y551444D01*
Y552155D01*
X392516Y552842D01*
X392399Y553044D01*
X392688Y553544D01*
X394153D01*
Y561418D01*
Y569330D01*
D02*
G37*
G36*
X457054Y568756D02*
X454192D01*
Y565500D01*
X457054D01*
Y568756D01*
D02*
G37*
G36*
Y564500D02*
X454192D01*
Y561244D01*
X457054D01*
Y564500D01*
D02*
G37*
G36*
X360355Y562700D02*
X359645D01*
X358958Y562516D01*
X358342Y562160D01*
X357839Y561658D01*
X357484Y561042D01*
X357403Y560738D01*
X354325D01*
Y560750D01*
X347375D01*
Y556750D01*
X354325D01*
Y556762D01*
X358750D01*
X359511Y556913D01*
X360090Y557300D01*
X360355D01*
X361042Y557484D01*
X361101Y557518D01*
X370532D01*
X370532Y553544D01*
X370732Y553127D01*
Y553044D01*
Y550126D01*
X378638D01*
Y553127D01*
X378838Y553544D01*
X378838Y553799D01*
Y561456D01*
X372871D01*
X372679Y561494D01*
X362255D01*
X362160Y561658D01*
X361658Y562160D01*
X361042Y562516D01*
X360355Y562700D01*
D02*
G37*
G36*
X343275Y556800D02*
X340500D01*
Y555500D01*
X343275D01*
Y556800D01*
D02*
G37*
G36*
X339500D02*
X336725D01*
Y555500D01*
X339500D01*
Y556800D01*
D02*
G37*
G36*
X359403Y553950D02*
X358692D01*
X358005Y553766D01*
X357390Y553410D01*
X357218Y553238D01*
X354325D01*
Y553250D01*
X347375D01*
Y549250D01*
X354325D01*
Y549262D01*
X357218D01*
X357390Y549089D01*
X358005Y548734D01*
X358692Y548550D01*
X359403D01*
X360090Y548734D01*
X360705Y549089D01*
X361208Y549592D01*
X361564Y550208D01*
X361748Y550894D01*
Y551606D01*
X361564Y552292D01*
X361208Y552908D01*
X360705Y553410D01*
X360090Y553766D01*
X359403Y553950D01*
D02*
G37*
G36*
X343275Y554500D02*
X340500D01*
Y553200D01*
X343275D01*
Y554500D01*
D02*
G37*
G36*
X339500D02*
X336725D01*
Y553200D01*
X339500D01*
Y554500D01*
D02*
G37*
G36*
X378638Y549126D02*
X375185D01*
Y545870D01*
X378638D01*
Y549126D01*
D02*
G37*
G36*
X374185D02*
X370732D01*
Y545870D01*
X374185D01*
Y549126D01*
D02*
G37*
G36*
X422856Y548570D02*
X422145D01*
X421458Y548386D01*
X420842Y548031D01*
X420339Y547528D01*
X419984Y546912D01*
X419800Y546226D01*
Y545515D01*
X419984Y544828D01*
X420339Y544212D01*
X420842Y543710D01*
X421458Y543354D01*
X422145Y543170D01*
X422856D01*
X423542Y543354D01*
X424158Y543710D01*
X424660Y544212D01*
X425016Y544828D01*
X425200Y545515D01*
Y546226D01*
X425016Y546912D01*
X424660Y547528D01*
X424158Y548031D01*
X423542Y548386D01*
X422856Y548570D01*
D02*
G37*
G36*
X390355Y542700D02*
X389645D01*
X388958Y542516D01*
X388342Y542161D01*
X387840Y541658D01*
X387484Y541042D01*
X387300Y540355D01*
Y539644D01*
X387484Y538958D01*
X387840Y538342D01*
X388012Y538170D01*
Y537106D01*
X386044D01*
Y529981D01*
Y528445D01*
X361920D01*
X361748Y528617D01*
X361132Y528973D01*
X360445Y529157D01*
X359734D01*
X359048Y528973D01*
X358432Y528617D01*
X357929Y528115D01*
X357574Y527499D01*
X357390Y526812D01*
Y526101D01*
X357574Y525415D01*
X357929Y524799D01*
X358432Y524296D01*
X359048Y523941D01*
X359734Y523757D01*
X360445D01*
X361132Y523941D01*
X361748Y524296D01*
X361920Y524469D01*
X386044D01*
Y522894D01*
X393956D01*
Y529981D01*
Y537106D01*
X391988D01*
Y538170D01*
X392161Y538342D01*
X392516Y538958D01*
X392700Y539644D01*
Y540355D01*
X392516Y541042D01*
X392161Y541658D01*
X391658Y542161D01*
X391042Y542516D01*
X390355Y542700D01*
D02*
G37*
G36*
X415355Y544530D02*
X414644D01*
X413958Y544346D01*
X413342Y543991D01*
X412840Y543488D01*
X412484Y542872D01*
X412300Y542186D01*
Y541475D01*
X412484Y540788D01*
X412840Y540172D01*
X413012Y540000D01*
Y537106D01*
X411044D01*
Y529981D01*
Y522894D01*
X418956D01*
Y524469D01*
X420289D01*
X420461Y524296D01*
X421077Y523941D01*
X421764Y523757D01*
X422474D01*
X423161Y523941D01*
X423777Y524296D01*
X423949Y524469D01*
X432913D01*
X433674Y524620D01*
X434319Y525051D01*
X440824Y531555D01*
X450297D01*
X450698Y531315D01*
X450698Y531055D01*
Y528059D01*
X454650D01*
X458603D01*
Y530685D01*
X459103Y530892D01*
X463902Y526093D01*
X464547Y525662D01*
X465308Y525511D01*
X481862D01*
X482623Y525662D01*
X483268Y526093D01*
X484186Y527010D01*
X484617Y527655D01*
X484768Y528416D01*
Y529400D01*
X484780D01*
Y536350D01*
X480780D01*
Y529487D01*
X477280D01*
Y536350D01*
X473280D01*
Y534863D01*
X469709D01*
X469460Y535112D01*
Y535356D01*
X469276Y536042D01*
X468921Y536658D01*
X468418Y537160D01*
X467802Y537516D01*
X467115Y537700D01*
X466405D01*
X465718Y537516D01*
X465102Y537160D01*
X464600Y536658D01*
X464244Y536042D01*
X464060Y535356D01*
Y534645D01*
X464244Y533958D01*
X464600Y533342D01*
X465102Y532839D01*
X465718Y532484D01*
X466405Y532300D01*
X466648D01*
X467479Y531469D01*
X468124Y531038D01*
X468885Y530887D01*
X473280D01*
Y529487D01*
X466131D01*
X460669Y534949D01*
X460024Y535380D01*
X459263Y535532D01*
X440000D01*
X439239Y535380D01*
X438594Y534949D01*
X432090Y528445D01*
X423949D01*
X423777Y528617D01*
X423161Y528973D01*
X422474Y529157D01*
X421764D01*
X421077Y528973D01*
X420461Y528617D01*
X420289Y528445D01*
X418956D01*
Y529981D01*
Y537106D01*
X416988D01*
Y540000D01*
X417161Y540172D01*
X417516Y540788D01*
X417700Y541475D01*
Y542186D01*
X417516Y542872D01*
X417161Y543488D01*
X416658Y543991D01*
X416042Y544346D01*
X415355Y544530D01*
D02*
G37*
G36*
X458603Y527059D02*
X454650D01*
X450698D01*
Y524058D01*
X450498Y523641D01*
X450498Y523386D01*
Y521673D01*
X447145D01*
X446658Y522160D01*
X446042Y522516D01*
X445356Y522700D01*
X444644D01*
X443958Y522516D01*
X443342Y522160D01*
X442839Y521658D01*
X442484Y521042D01*
X442300Y520356D01*
Y519644D01*
X442484Y518958D01*
X442839Y518342D01*
X443342Y517839D01*
X443958Y517484D01*
X444644Y517300D01*
X445356D01*
X446042Y517484D01*
X446411Y517697D01*
X450498D01*
Y515729D01*
X458803D01*
Y517697D01*
X508158D01*
Y515532D01*
X516464D01*
Y523838D01*
X508158D01*
Y521673D01*
X458803D01*
X458803Y523641D01*
X458603Y524058D01*
Y524141D01*
Y527059D01*
D02*
G37*
G36*
X438953Y521862D02*
X435500D01*
Y518606D01*
X438953D01*
Y521862D01*
D02*
G37*
G36*
X434500D02*
X431047D01*
Y518606D01*
X434500D01*
Y521862D01*
D02*
G37*
G36*
X712814Y523338D02*
X704509D01*
Y515032D01*
X712814D01*
Y523338D01*
D02*
G37*
G36*
X699208D02*
X698115D01*
X697058Y523055D01*
X696112Y522508D01*
X695338Y521735D01*
X694792Y520788D01*
X694509Y519732D01*
Y518638D01*
X694792Y517582D01*
X695338Y516635D01*
X696112Y515862D01*
X697058Y515315D01*
X698115Y515032D01*
X699208D01*
X700264Y515315D01*
X701211Y515862D01*
X701984Y516635D01*
X702531Y517582D01*
X702814Y518638D01*
Y519732D01*
X702531Y520788D01*
X701984Y521735D01*
X701211Y522508D01*
X700264Y523055D01*
X699208Y523338D01*
D02*
G37*
G36*
X689208D02*
X688115D01*
X687058Y523055D01*
X686112Y522508D01*
X685338Y521735D01*
X684792Y520788D01*
X684509Y519732D01*
Y518638D01*
X684792Y517582D01*
X685338Y516635D01*
X686112Y515862D01*
X687058Y515315D01*
X688115Y515032D01*
X689208D01*
X690264Y515315D01*
X691211Y515862D01*
X691984Y516635D01*
X692531Y517582D01*
X692814Y518638D01*
Y519732D01*
X692531Y520788D01*
X691984Y521735D01*
X691211Y522508D01*
X690264Y523055D01*
X689208Y523338D01*
D02*
G37*
G36*
X679208D02*
X678115D01*
X677059Y523055D01*
X676112Y522508D01*
X675338Y521735D01*
X674792Y520788D01*
X674509Y519732D01*
Y518638D01*
X674792Y517582D01*
X675338Y516635D01*
X676112Y515862D01*
X677059Y515315D01*
X678115Y515032D01*
X679208D01*
X680264Y515315D01*
X681211Y515862D01*
X681984Y516635D01*
X682531Y517582D01*
X682814Y518638D01*
Y519732D01*
X682531Y520788D01*
X681984Y521735D01*
X681211Y522508D01*
X680264Y523055D01*
X679208Y523338D01*
D02*
G37*
G36*
X669208D02*
X668115D01*
X667059Y523055D01*
X666112Y522508D01*
X665338Y521735D01*
X664792Y520788D01*
X664509Y519732D01*
Y518638D01*
X664792Y517582D01*
X665338Y516635D01*
X666112Y515862D01*
X667059Y515315D01*
X668115Y515032D01*
X669208D01*
X670264Y515315D01*
X671211Y515862D01*
X671984Y516635D01*
X672531Y517582D01*
X672814Y518638D01*
Y519732D01*
X672531Y520788D01*
X671984Y521735D01*
X671211Y522508D01*
X670264Y523055D01*
X669208Y523338D01*
D02*
G37*
G36*
X240373D02*
X232068D01*
Y515032D01*
X240373D01*
Y523338D01*
D02*
G37*
G36*
X226767D02*
X225674D01*
X224618Y523055D01*
X223671Y522508D01*
X222897Y521735D01*
X222351Y520788D01*
X222068Y519732D01*
Y518638D01*
X222351Y517582D01*
X222897Y516635D01*
X223671Y515862D01*
X224618Y515315D01*
X225674Y515032D01*
X226767D01*
X227823Y515315D01*
X228770Y515862D01*
X229543Y516635D01*
X230090Y517582D01*
X230373Y518638D01*
Y519732D01*
X230090Y520788D01*
X229543Y521735D01*
X228770Y522508D01*
X227823Y523055D01*
X226767Y523338D01*
D02*
G37*
G36*
X216767D02*
X215674D01*
X214617Y523055D01*
X213671Y522508D01*
X212897Y521735D01*
X212351Y520788D01*
X212068Y519732D01*
Y518638D01*
X212351Y517582D01*
X212897Y516635D01*
X213671Y515862D01*
X214617Y515315D01*
X215674Y515032D01*
X216767D01*
X217823Y515315D01*
X218770Y515862D01*
X219544Y516635D01*
X220090Y517582D01*
X220373Y518638D01*
Y519732D01*
X220090Y520788D01*
X219544Y521735D01*
X218770Y522508D01*
X217823Y523055D01*
X216767Y523338D01*
D02*
G37*
G36*
X206767D02*
X205674D01*
X204618Y523055D01*
X203671Y522508D01*
X202897Y521735D01*
X202351Y520788D01*
X202068Y519732D01*
Y518638D01*
X202351Y517582D01*
X202897Y516635D01*
X203671Y515862D01*
X204618Y515315D01*
X205674Y515032D01*
X206767D01*
X207823Y515315D01*
X208770Y515862D01*
X209543Y516635D01*
X210090Y517582D01*
X210373Y518638D01*
Y519732D01*
X210090Y520788D01*
X209543Y521735D01*
X208770Y522508D01*
X207823Y523055D01*
X206767Y523338D01*
D02*
G37*
G36*
X196767D02*
X195674D01*
X194618Y523055D01*
X193671Y522508D01*
X192897Y521735D01*
X192351Y520788D01*
X192068Y519732D01*
Y518638D01*
X192351Y517582D01*
X192897Y516635D01*
X193671Y515862D01*
X194618Y515315D01*
X195674Y515032D01*
X196767D01*
X197823Y515315D01*
X198770Y515862D01*
X199543Y516635D01*
X200090Y517582D01*
X200373Y518638D01*
Y519732D01*
X200090Y520788D01*
X199543Y521735D01*
X198770Y522508D01*
X197823Y523055D01*
X196767Y523338D01*
D02*
G37*
G36*
X438953Y517606D02*
X435000D01*
X431047D01*
Y514605D01*
X430847Y514188D01*
X430847Y513933D01*
Y511673D01*
X425847D01*
X425086Y511522D01*
X424441Y511091D01*
X419176Y505826D01*
X416830D01*
X416658Y505998D01*
X416042Y506354D01*
X415355Y506538D01*
X414644D01*
X413958Y506354D01*
X413342Y505998D01*
X412840Y505496D01*
X412484Y504880D01*
X412300Y504193D01*
Y503482D01*
X412484Y502796D01*
X412752Y502331D01*
X412536Y501831D01*
X320025D01*
X319695Y502161D01*
X319080Y502516D01*
X318393Y502700D01*
X317682D01*
X316995Y502516D01*
X316380Y502161D01*
X315877Y501658D01*
X315521Y501042D01*
X315337Y500355D01*
Y499645D01*
X315521Y498958D01*
X315877Y498342D01*
X316380Y497839D01*
X316995Y497484D01*
X317682Y497300D01*
X318393D01*
X319080Y497484D01*
X319695Y497839D01*
X319710Y497854D01*
X508573D01*
X508988Y497135D01*
X509761Y496362D01*
X510708Y495815D01*
X511764Y495532D01*
X512858D01*
X513914Y495815D01*
X514861Y496362D01*
X515634Y497135D01*
X516181Y498082D01*
X516464Y499138D01*
Y500232D01*
X516181Y501288D01*
X515634Y502235D01*
X514861Y503008D01*
X513914Y503555D01*
X512858Y503838D01*
X511764D01*
X510708Y503555D01*
X509761Y503008D01*
X508988Y502235D01*
X508755Y501831D01*
X421406D01*
X421254Y502331D01*
X421406Y502432D01*
X426671Y507697D01*
X430847D01*
Y506276D01*
X439153D01*
Y507697D01*
X508664D01*
X508988Y507135D01*
X509761Y506362D01*
X510708Y505815D01*
X511764Y505532D01*
X512858D01*
X513914Y505815D01*
X514861Y506362D01*
X515634Y507135D01*
X516181Y508082D01*
X516464Y509138D01*
Y510232D01*
X516181Y511288D01*
X515634Y512235D01*
X514861Y513008D01*
X513914Y513555D01*
X512858Y513838D01*
X511764D01*
X510708Y513555D01*
X509761Y513008D01*
X508988Y512235D01*
X508664Y511673D01*
X439153D01*
X439153Y514188D01*
X438953Y514605D01*
Y514688D01*
Y517606D01*
D02*
G37*
G36*
X512858Y493838D02*
X511764D01*
X510708Y493555D01*
X509761Y493008D01*
X508988Y492235D01*
X508506Y491400D01*
X457175D01*
X456735Y491654D01*
X456048Y491838D01*
X455337D01*
X454650Y491654D01*
X454035Y491299D01*
X453532Y490796D01*
X453176Y490180D01*
X452992Y489494D01*
Y488783D01*
X453176Y488096D01*
X453532Y487480D01*
X454035Y486978D01*
X454650Y486622D01*
X455337Y486438D01*
X456048D01*
X456735Y486622D01*
X457350Y486978D01*
X457796Y487424D01*
X508822D01*
X508988Y487135D01*
X509761Y486362D01*
X510708Y485815D01*
X511764Y485532D01*
X512858D01*
X513914Y485815D01*
X514861Y486362D01*
X515634Y487135D01*
X516181Y488082D01*
X516464Y489138D01*
Y490232D01*
X516181Y491288D01*
X515634Y492235D01*
X514861Y493008D01*
X513914Y493555D01*
X512858Y493838D01*
D02*
G37*
G36*
Y483838D02*
X511764D01*
X510708Y483555D01*
X509761Y483008D01*
X508988Y482235D01*
X508441Y481288D01*
X508158Y480232D01*
Y479138D01*
X508441Y478082D01*
X508988Y477135D01*
X509761Y476362D01*
X510708Y475815D01*
X511764Y475532D01*
X512858D01*
X513914Y475815D01*
X514861Y476362D01*
X515634Y477135D01*
X515801Y477423D01*
X556840D01*
X557286Y476978D01*
X557902Y476622D01*
X558588Y476438D01*
X559299D01*
X559986Y476622D01*
X560602Y476978D01*
X561104Y477481D01*
X561460Y478096D01*
X561644Y478783D01*
Y479494D01*
X561460Y480181D01*
X561104Y480796D01*
X560602Y481299D01*
X559986Y481654D01*
X559299Y481838D01*
X558588D01*
X557902Y481654D01*
X557461Y481400D01*
X516116D01*
X515634Y482235D01*
X514861Y483008D01*
X513914Y483555D01*
X512858Y483838D01*
D02*
G37*
G36*
X310397Y434468D02*
X297761D01*
Y415532D01*
X302091D01*
Y414470D01*
X301918Y414298D01*
X301563Y413683D01*
X301379Y412996D01*
Y412285D01*
X301563Y411598D01*
X301918Y410983D01*
X302421Y410480D01*
X303037Y410124D01*
X303723Y409940D01*
X304434D01*
X305121Y410124D01*
X305737Y410480D01*
X306239Y410983D01*
X306595Y411598D01*
X306779Y412285D01*
Y412996D01*
X306595Y413683D01*
X306239Y414298D01*
X306067Y414470D01*
Y415532D01*
X310397D01*
Y434468D01*
D02*
G37*
G36*
X416674D02*
X404037D01*
Y415532D01*
X408367D01*
Y414330D01*
X408195Y414158D01*
X407839Y413542D01*
X407655Y412855D01*
Y412145D01*
X407839Y411458D01*
X408195Y410842D01*
X408698Y410339D01*
X409313Y409984D01*
X410000Y409800D01*
X410711D01*
X411398Y409984D01*
X412013Y410339D01*
X412516Y410842D01*
X412872Y411458D01*
X413056Y412145D01*
Y412855D01*
X412872Y413542D01*
X412516Y414158D01*
X412344Y414330D01*
Y415532D01*
X416674D01*
Y434468D01*
D02*
G37*
G36*
X713114Y377969D02*
X709661D01*
Y374516D01*
X713114D01*
Y377969D01*
D02*
G37*
G36*
X708661D02*
X705209D01*
Y374516D01*
X708661D01*
Y377969D01*
D02*
G37*
G36*
X240673D02*
X237220D01*
Y374516D01*
X240673D01*
Y377969D01*
D02*
G37*
G36*
X236220D02*
X232768D01*
Y374516D01*
X236220D01*
Y377969D01*
D02*
G37*
G36*
X713114Y373516D02*
X709661D01*
Y370063D01*
X713114D01*
Y373516D01*
D02*
G37*
G36*
X708661D02*
X705209D01*
Y370063D01*
X708661D01*
Y373516D01*
D02*
G37*
G36*
X240673Y373516D02*
X237220D01*
Y370063D01*
X240673D01*
Y373516D01*
D02*
G37*
G36*
X236220D02*
X232768D01*
Y370063D01*
X236220D01*
Y373516D01*
D02*
G37*
G36*
X709682Y367969D02*
X709661D01*
Y364516D01*
X713114D01*
Y364536D01*
X712845Y365542D01*
X712324Y366443D01*
X711588Y367179D01*
X710687Y367699D01*
X709682Y367969D01*
D02*
G37*
G36*
X708661D02*
X708641D01*
X707636Y367699D01*
X706734Y367179D01*
X705998Y366443D01*
X705478Y365542D01*
X705209Y364536D01*
Y364516D01*
X708661D01*
Y367969D01*
D02*
G37*
G36*
X237241D02*
X237220D01*
Y364516D01*
X240673D01*
Y364536D01*
X240404Y365542D01*
X239883Y366443D01*
X239147Y367179D01*
X238246Y367699D01*
X237241Y367969D01*
D02*
G37*
G36*
X236220D02*
X236200D01*
X235195Y367699D01*
X234293Y367179D01*
X233558Y366443D01*
X233037Y365542D01*
X232768Y364536D01*
Y364516D01*
X236220D01*
Y367969D01*
D02*
G37*
G36*
X713114Y363516D02*
X709661D01*
Y360063D01*
X709682D01*
X710687Y360332D01*
X711588Y360853D01*
X712324Y361589D01*
X712845Y362490D01*
X713114Y363495D01*
Y363516D01*
D02*
G37*
G36*
X708661D02*
X705209D01*
Y363495D01*
X705478Y362490D01*
X705998Y361589D01*
X706734Y360853D01*
X707636Y360332D01*
X708641Y360063D01*
X708661D01*
Y363516D01*
D02*
G37*
G36*
X240673Y363516D02*
X237220D01*
Y360063D01*
X237241D01*
X238246Y360332D01*
X239147Y360853D01*
X239883Y361589D01*
X240404Y362490D01*
X240673Y363495D01*
Y363516D01*
D02*
G37*
G36*
X236220D02*
X232768D01*
Y363495D01*
X233037Y362490D01*
X233558Y361589D01*
X234293Y360853D01*
X235195Y360332D01*
X236200Y360063D01*
X236220D01*
Y363516D01*
D02*
G37*
G36*
X709682Y357968D02*
X709661D01*
Y354516D01*
X713114D01*
Y354536D01*
X712845Y355541D01*
X712324Y356443D01*
X711588Y357179D01*
X710687Y357699D01*
X709682Y357968D01*
D02*
G37*
G36*
X708661D02*
X708641D01*
X707636Y357699D01*
X706734Y357179D01*
X705998Y356443D01*
X705478Y355541D01*
X705209Y354536D01*
Y354516D01*
X708661D01*
Y357968D01*
D02*
G37*
G36*
X237241D02*
X237220D01*
Y354516D01*
X240673D01*
Y354536D01*
X240404Y355541D01*
X239883Y356443D01*
X239147Y357179D01*
X238246Y357699D01*
X237241Y357968D01*
D02*
G37*
G36*
X236220D02*
X236200D01*
X235195Y357699D01*
X234293Y357179D01*
X233558Y356443D01*
X233037Y355541D01*
X232768Y354536D01*
Y354516D01*
X236220D01*
Y357968D01*
D02*
G37*
G36*
X713114Y353516D02*
X709661D01*
Y350063D01*
X709682D01*
X710687Y350332D01*
X711588Y350853D01*
X712324Y351589D01*
X712845Y352490D01*
X713114Y353495D01*
Y353516D01*
D02*
G37*
G36*
X708661D02*
X705209D01*
Y353495D01*
X705478Y352490D01*
X705998Y351589D01*
X706734Y350853D01*
X707636Y350332D01*
X708641Y350063D01*
X708661D01*
Y353516D01*
D02*
G37*
G36*
X240673Y353516D02*
X237220D01*
Y350063D01*
X237241D01*
X238246Y350332D01*
X239147Y350853D01*
X239883Y351589D01*
X240404Y352490D01*
X240673Y353495D01*
Y353516D01*
D02*
G37*
G36*
X236220D02*
X232768D01*
Y353495D01*
X233037Y352490D01*
X233558Y351589D01*
X234293Y350853D01*
X235195Y350332D01*
X236200Y350063D01*
X236220D01*
Y353516D01*
D02*
G37*
G36*
X297969Y347893D02*
X289664D01*
Y339981D01*
Y332107D01*
X291828D01*
Y323562D01*
X289861D01*
Y316438D01*
Y309351D01*
X297773D01*
Y310925D01*
X310177D01*
X310349Y310753D01*
X310965Y310397D01*
X311652Y310213D01*
X312363D01*
X313049Y310397D01*
X313665Y310753D01*
X314168Y311256D01*
X314523Y311871D01*
X314707Y312558D01*
Y313269D01*
X314523Y313955D01*
X314168Y314571D01*
X313665Y315074D01*
X313049Y315429D01*
X312363Y315613D01*
X311652D01*
X310965Y315429D01*
X310349Y315074D01*
X310177Y314902D01*
X297773D01*
Y316438D01*
Y323562D01*
X295805D01*
Y332107D01*
X297969D01*
Y339981D01*
Y341949D01*
X300044D01*
X300217Y341776D01*
X300832Y341421D01*
X301519Y341237D01*
X302230D01*
X302917Y341421D01*
X303532Y341776D01*
X304035Y342279D01*
X304391Y342895D01*
X304574Y343582D01*
Y344292D01*
X304391Y344979D01*
X304035Y345595D01*
X303532Y346098D01*
X302917Y346453D01*
X302230Y346637D01*
X301519D01*
X300832Y346453D01*
X300217Y346098D01*
X300044Y345925D01*
X297969D01*
Y347893D01*
D02*
G37*
G36*
X709708Y348168D02*
X708615D01*
X707558Y347885D01*
X706612Y347339D01*
X705838Y346566D01*
X705292Y345619D01*
X705009Y344563D01*
Y343469D01*
X705292Y342413D01*
X705838Y341466D01*
X706612Y340693D01*
X707558Y340146D01*
X708615Y339863D01*
X709708D01*
X710764Y340146D01*
X711711Y340693D01*
X712484Y341466D01*
X713031Y342413D01*
X713314Y343469D01*
Y344563D01*
X713031Y345619D01*
X712484Y346566D01*
X711711Y347339D01*
X710764Y347885D01*
X709708Y348168D01*
D02*
G37*
G36*
X512858D02*
X511764D01*
X510708Y347885D01*
X509761Y347339D01*
X508988Y346566D01*
X508441Y345619D01*
X508158Y344563D01*
Y343469D01*
X508441Y342413D01*
X508988Y341466D01*
X509761Y340693D01*
X510708Y340146D01*
X511764Y339863D01*
X512858D01*
X513914Y340146D01*
X514861Y340693D01*
X515634Y341466D01*
X516181Y342413D01*
X516464Y343469D01*
Y344563D01*
X516181Y345619D01*
X515634Y346566D01*
X514861Y347339D01*
X513914Y347885D01*
X512858Y348168D01*
D02*
G37*
G36*
X237267D02*
X236174D01*
X235118Y347885D01*
X234171Y347339D01*
X233397Y346566D01*
X232851Y345619D01*
X232568Y344563D01*
Y343469D01*
X232851Y342413D01*
X233397Y341466D01*
X234171Y340693D01*
X235118Y340146D01*
X236174Y339863D01*
X237267D01*
X238323Y340146D01*
X239270Y340693D01*
X240043Y341466D01*
X240590Y342413D01*
X240873Y343469D01*
Y344563D01*
X240590Y345619D01*
X240043Y346566D01*
X239270Y347339D01*
X238323Y347885D01*
X237267Y348168D01*
D02*
G37*
G36*
X709708Y338169D02*
X708615D01*
X707558Y337885D01*
X706612Y337339D01*
X705838Y336566D01*
X705292Y335619D01*
X705009Y334562D01*
Y333469D01*
X705292Y332413D01*
X705838Y331466D01*
X706612Y330693D01*
X707558Y330146D01*
X708615Y329863D01*
X709708D01*
X710764Y330146D01*
X711711Y330693D01*
X712484Y331466D01*
X713031Y332413D01*
X713314Y333469D01*
Y334562D01*
X713031Y335619D01*
X712484Y336566D01*
X711711Y337339D01*
X710764Y337885D01*
X709708Y338169D01*
D02*
G37*
G36*
X512858D02*
X511764D01*
X510708Y337885D01*
X509761Y337339D01*
X508988Y336566D01*
X508441Y335619D01*
X508158Y334562D01*
Y333469D01*
X508441Y332413D01*
X508988Y331466D01*
X509761Y330693D01*
X510708Y330146D01*
X511764Y329863D01*
X512858D01*
X513914Y330146D01*
X514861Y330693D01*
X515634Y331466D01*
X516181Y332413D01*
X516464Y333469D01*
Y334562D01*
X516181Y335619D01*
X515634Y336566D01*
X514861Y337339D01*
X513914Y337885D01*
X512858Y338169D01*
D02*
G37*
G36*
X237267D02*
X236174D01*
X235118Y337885D01*
X234171Y337339D01*
X233397Y336566D01*
X232851Y335619D01*
X232568Y334562D01*
Y333469D01*
X232851Y332413D01*
X233397Y331466D01*
X234171Y330693D01*
X235118Y330146D01*
X236174Y329863D01*
X237267D01*
X238323Y330146D01*
X239270Y330693D01*
X240043Y331466D01*
X240590Y332413D01*
X240873Y333469D01*
Y334562D01*
X240590Y335619D01*
X240043Y336566D01*
X239270Y337339D01*
X238323Y337885D01*
X237267Y338169D01*
D02*
G37*
G36*
X451937Y311453D02*
Y308000D01*
X455193D01*
Y311453D01*
X451937D01*
D02*
G37*
G36*
X351937D02*
Y308000D01*
X355193D01*
Y311453D01*
X351937D01*
D02*
G37*
G36*
X455193Y307000D02*
X451937D01*
Y303547D01*
X455193D01*
Y307000D01*
D02*
G37*
G36*
X355193D02*
X351937D01*
Y303547D01*
X355193D01*
Y307000D01*
D02*
G37*
G36*
X447519Y311653D02*
X447264Y311653D01*
X439607D01*
Y303347D01*
X440925D01*
Y300314D01*
X437579D01*
Y298346D01*
X424330D01*
X424158Y298519D01*
X423542Y298874D01*
X422856Y299058D01*
X422145D01*
X421458Y298874D01*
X420842Y298519D01*
X420670Y298346D01*
X412421D01*
Y300314D01*
X401753D01*
Y292402D01*
X412421D01*
Y294370D01*
X420670D01*
X420842Y294198D01*
X421458Y293842D01*
X422145Y293658D01*
X422856D01*
X423542Y293842D01*
X424158Y294198D01*
X424330Y294370D01*
X437579D01*
Y292402D01*
X448247D01*
Y300314D01*
X444902D01*
Y303347D01*
X447519Y303347D01*
X447936Y303547D01*
X448019D01*
X450937D01*
Y307500D01*
Y311453D01*
X447936D01*
X447519Y311653D01*
D02*
G37*
G36*
X347519D02*
X347264Y311653D01*
X339607D01*
Y303347D01*
X340925D01*
Y300314D01*
X337579D01*
Y298346D01*
X334330D01*
X334158Y298519D01*
X333542Y298874D01*
X332856Y299058D01*
X332144D01*
X331458Y298874D01*
X330842Y298519D01*
X330670Y298346D01*
X312421D01*
Y300314D01*
X301753D01*
Y292402D01*
X312421D01*
Y294370D01*
X330670D01*
X330842Y294198D01*
X331458Y293842D01*
X332144Y293658D01*
X332856D01*
X333542Y293842D01*
X334158Y294198D01*
X334330Y294370D01*
X337579D01*
Y292402D01*
X348247D01*
Y300314D01*
X344902D01*
Y303347D01*
X347519Y303347D01*
X347936Y303547D01*
X348019D01*
X350937D01*
Y307500D01*
Y311453D01*
X347936D01*
X347519Y311653D01*
D02*
G37*
G36*
X448247Y282598D02*
X437579D01*
Y280630D01*
X412421D01*
Y282598D01*
X401753D01*
Y274686D01*
X412421D01*
Y276654D01*
X437579D01*
Y274686D01*
X448247D01*
Y276654D01*
X453170D01*
X453342Y276481D01*
X453958Y276126D01*
X454644Y275942D01*
X455356D01*
X456042Y276126D01*
X456658Y276481D01*
X457161Y276984D01*
X457516Y277600D01*
X457700Y278286D01*
Y278997D01*
X457516Y279684D01*
X457161Y280300D01*
X456658Y280802D01*
X456042Y281158D01*
X455356Y281342D01*
X454644D01*
X453958Y281158D01*
X453342Y280802D01*
X453170Y280630D01*
X448247D01*
Y282598D01*
D02*
G37*
G36*
X348247D02*
X337579D01*
Y280630D01*
X312421D01*
Y282598D01*
X301753D01*
Y274686D01*
X312421D01*
Y276654D01*
X337579D01*
Y274686D01*
X348247D01*
Y276654D01*
X352845D01*
X353017Y276481D01*
X353633Y276126D01*
X354320Y275942D01*
X355031D01*
X355717Y276126D01*
X356333Y276481D01*
X356836Y276984D01*
X357191Y277600D01*
X357375Y278286D01*
Y278997D01*
X357191Y279684D01*
X356836Y280300D01*
X356333Y280802D01*
X355717Y281158D01*
X355031Y281342D01*
X354320D01*
X353633Y281158D01*
X353017Y280802D01*
X352845Y280630D01*
X348247D01*
Y282598D01*
D02*
G37*
G36*
X348291Y252700D02*
X347581D01*
X346894Y252516D01*
X346278Y252161D01*
X345776Y251658D01*
X345420Y251042D01*
X345236Y250356D01*
Y249644D01*
X345420Y248958D01*
X345776Y248342D01*
X346278Y247839D01*
X346894Y247484D01*
X347581Y247300D01*
X347824D01*
X354030Y241094D01*
X354675Y240663D01*
X355436Y240512D01*
X698876D01*
X698958Y240016D01*
X698342Y239661D01*
X698170Y239488D01*
X326830D01*
X326658Y239661D01*
X326042Y240016D01*
X325356Y240200D01*
X324644D01*
X323958Y240016D01*
X323342Y239661D01*
X322839Y239158D01*
X322484Y238542D01*
X322300Y237856D01*
Y237144D01*
X322484Y236458D01*
X322839Y235842D01*
X323342Y235339D01*
X323958Y234984D01*
X324644Y234800D01*
X325356D01*
X326042Y234984D01*
X326658Y235339D01*
X326830Y235512D01*
X366376D01*
X366458Y235016D01*
X365842Y234661D01*
X365339Y234158D01*
X364984Y233542D01*
X364800Y232856D01*
Y232144D01*
X364984Y231458D01*
X365339Y230842D01*
X365842Y230340D01*
X366458Y229984D01*
X367144Y229800D01*
X367856D01*
X368542Y229984D01*
X369158Y230340D01*
X369330Y230512D01*
X685670D01*
X685842Y230340D01*
X686458Y229984D01*
X687145Y229800D01*
X687855D01*
X688542Y229984D01*
X689158Y230340D01*
X689661Y230842D01*
X690016Y231458D01*
X690200Y232144D01*
Y232856D01*
X690016Y233542D01*
X689661Y234158D01*
X689158Y234661D01*
X688542Y235016D01*
X688624Y235512D01*
X698170D01*
X698342Y235339D01*
X698958Y234984D01*
X699645Y234800D01*
X700355D01*
X701042Y234984D01*
X701658Y235339D01*
X702161Y235842D01*
X702516Y236458D01*
X702700Y237144D01*
Y237856D01*
X702516Y238542D01*
X702161Y239158D01*
X701658Y239661D01*
X701042Y240016D01*
X701124Y240512D01*
X705670D01*
X705842Y240339D01*
X706458Y239984D01*
X707144Y239800D01*
X707856D01*
X708542Y239984D01*
X709158Y240339D01*
X709660Y240842D01*
X710016Y241458D01*
X710200Y242144D01*
Y242856D01*
X710016Y243542D01*
X709660Y244158D01*
X709158Y244660D01*
X708542Y245016D01*
X707856Y245200D01*
X707144D01*
X706458Y245016D01*
X705842Y244660D01*
X705670Y244488D01*
X356260D01*
X350636Y250112D01*
Y250356D01*
X350452Y251042D01*
X350097Y251658D01*
X349594Y252161D01*
X348978Y252516D01*
X348291Y252700D01*
D02*
G37*
G36*
X677855Y227700D02*
X677144D01*
X676458Y227516D01*
X675842Y227161D01*
X675670Y226988D01*
X339330D01*
X339158Y227161D01*
X338542Y227516D01*
X337856Y227700D01*
X337144D01*
X336458Y227516D01*
X335842Y227161D01*
X335339Y226658D01*
X334984Y226042D01*
X334800Y225356D01*
Y224644D01*
X334984Y223958D01*
X335339Y223342D01*
X335842Y222839D01*
X336458Y222484D01*
X337144Y222300D01*
X337856D01*
X338542Y222484D01*
X339158Y222839D01*
X339330Y223012D01*
X675670D01*
X675842Y222839D01*
X676458Y222484D01*
X677144Y222300D01*
X677855D01*
X678542Y222484D01*
X679158Y222839D01*
X679661Y223342D01*
X680016Y223958D01*
X680200Y224644D01*
Y225356D01*
X680016Y226042D01*
X679661Y226658D01*
X679158Y227161D01*
X678542Y227516D01*
X677855Y227700D01*
D02*
G37*
G36*
X669017Y221361D02*
X668306D01*
X667619Y221177D01*
X667004Y220822D01*
X666831Y220650D01*
X441403D01*
X441042Y220858D01*
X440355Y221042D01*
X439644D01*
X438958Y220858D01*
X438342Y220503D01*
X437840Y220000D01*
X437484Y219384D01*
X437300Y218698D01*
Y217987D01*
X437484Y217300D01*
X437840Y216684D01*
X438342Y216182D01*
X438958Y215826D01*
X439644Y215642D01*
X440355D01*
X441042Y215826D01*
X441658Y216182D01*
X442149Y216673D01*
X666831D01*
X667004Y216501D01*
X667619Y216145D01*
X668306Y215961D01*
X669017D01*
X669704Y216145D01*
X670319Y216501D01*
X670822Y217004D01*
X671177Y217619D01*
X671361Y218306D01*
Y219017D01*
X671177Y219704D01*
X670822Y220319D01*
X670319Y220822D01*
X669704Y221177D01*
X669017Y221361D01*
D02*
G37*
G36*
X307442Y210200D02*
X306731D01*
X306045Y210016D01*
X305429Y209661D01*
X304926Y209158D01*
X304571Y208542D01*
X304387Y207856D01*
Y207144D01*
X304571Y206458D01*
X304926Y205842D01*
X305429Y205340D01*
X306045Y204984D01*
X306731Y204800D01*
X307158D01*
X307251Y204738D01*
X308012Y204587D01*
X442245D01*
X442417Y204414D01*
X443033Y204059D01*
X443719Y203875D01*
X444430D01*
X445117Y204059D01*
X445733Y204414D01*
X446235Y204917D01*
X446591Y205533D01*
X446775Y206219D01*
Y206930D01*
X446591Y207617D01*
X446235Y208233D01*
X445733Y208735D01*
X445117Y209091D01*
X444430Y209275D01*
X443719D01*
X443033Y209091D01*
X442417Y208735D01*
X442245Y208563D01*
X309591D01*
X309247Y209158D01*
X308745Y209661D01*
X308129Y210016D01*
X307442Y210200D01*
D02*
G37*
G36*
X437855Y202700D02*
X437145D01*
X436458Y202516D01*
X435842Y202161D01*
X435670Y201988D01*
X301830D01*
X301658Y202161D01*
X301042Y202516D01*
X300356Y202700D01*
X299644D01*
X298958Y202516D01*
X298342Y202161D01*
X297839Y201658D01*
X297484Y201042D01*
X297300Y200356D01*
Y199644D01*
X297484Y198958D01*
X297839Y198342D01*
X298342Y197839D01*
X298958Y197484D01*
X299644Y197300D01*
X300356D01*
X301042Y197484D01*
X301658Y197839D01*
X301830Y198012D01*
X406547D01*
Y195500D01*
X410500D01*
X414453D01*
Y198012D01*
X435670D01*
X435842Y197839D01*
X436458Y197484D01*
X437145Y197300D01*
X437855D01*
X438542Y197484D01*
X439158Y197839D01*
X439661Y198342D01*
X440016Y198958D01*
X440200Y199644D01*
Y200356D01*
X440016Y201042D01*
X439661Y201658D01*
X439158Y202161D01*
X438542Y202516D01*
X437855Y202700D01*
D02*
G37*
G36*
X414453Y194500D02*
X410500D01*
X406547D01*
Y191499D01*
X406347Y191082D01*
X406347Y190827D01*
Y189488D01*
X294330D01*
X294158Y189661D01*
X293542Y190016D01*
X292856Y190200D01*
X292144D01*
X291458Y190016D01*
X290842Y189661D01*
X290339Y189158D01*
X289984Y188542D01*
X289800Y187856D01*
Y187144D01*
X289984Y186458D01*
X290339Y185842D01*
X290842Y185339D01*
X291458Y184984D01*
X292144Y184800D01*
X292856D01*
X293542Y184984D01*
X294158Y185339D01*
X294330Y185512D01*
X406347D01*
Y183170D01*
X414653D01*
Y185512D01*
X428170D01*
X428342Y185339D01*
X428958Y184984D01*
X429644Y184800D01*
X430356D01*
X431042Y184984D01*
X431658Y185339D01*
X432161Y185842D01*
X432516Y186458D01*
X432700Y187144D01*
Y187856D01*
X432516Y188542D01*
X432161Y189158D01*
X431658Y189661D01*
X431042Y190016D01*
X430356Y190200D01*
X429644D01*
X428958Y190016D01*
X428342Y189661D01*
X428170Y189488D01*
X415006D01*
X414653Y189842D01*
X414653Y191082D01*
X414453Y191499D01*
Y191582D01*
Y194500D01*
D02*
G37*
G36*
X394153Y177893D02*
X385847D01*
Y176988D01*
X286830D01*
X286658Y177161D01*
X286042Y177516D01*
X285355Y177700D01*
X284645D01*
X283958Y177516D01*
X283342Y177161D01*
X282839Y176658D01*
X282484Y176042D01*
X282300Y175356D01*
Y174644D01*
X282484Y173958D01*
X282839Y173342D01*
X283342Y172839D01*
X283958Y172484D01*
X284645Y172300D01*
X285355D01*
X286042Y172484D01*
X286658Y172839D01*
X286830Y173012D01*
X385847D01*
X385847Y169981D01*
X386047Y169564D01*
Y169481D01*
Y166563D01*
X393953D01*
Y169564D01*
X394153Y169981D01*
X394153Y170236D01*
Y173012D01*
X423170D01*
X423342Y172839D01*
X423958Y172484D01*
X424645Y172300D01*
X425355D01*
X426042Y172484D01*
X426658Y172839D01*
X427161Y173342D01*
X427516Y173958D01*
X427700Y174644D01*
Y175356D01*
X427516Y176042D01*
X427161Y176658D01*
X426658Y177161D01*
X426042Y177516D01*
X425355Y177700D01*
X424645D01*
X423958Y177516D01*
X423342Y177161D01*
X423170Y176988D01*
X394153D01*
Y177893D01*
D02*
G37*
%LPD*%
G36*
X530000Y540000D02*
X480951D01*
X480830Y540450D01*
X480830Y540500D01*
Y543225D01*
X479030D01*
X477230D01*
Y540500D01*
X477230Y540450D01*
X477109Y540000D01*
X471044D01*
Y551244D01*
X472277D01*
Y555000D01*
Y558756D01*
X471044D01*
Y583012D01*
X475985D01*
Y581930D01*
X486850D01*
Y588070D01*
X475985D01*
Y586988D01*
X471044D01*
Y600653D01*
X471306Y601044D01*
X478176D01*
X478431Y601044D01*
X478848Y601244D01*
X478931D01*
X481455D01*
Y605000D01*
Y608756D01*
X478848D01*
X478547Y608900D01*
X478510Y609138D01*
X478931Y609541D01*
X481334D01*
Y613297D01*
Y617053D01*
X478727D01*
X478310Y617253D01*
X478055Y617253D01*
X471185D01*
X471044Y617694D01*
Y622525D01*
X471078Y622544D01*
X471544Y622654D01*
X471970Y622099D01*
X472631Y621592D01*
X473401Y621273D01*
X474227Y621164D01*
X475893D01*
Y624357D01*
X476393D01*
Y624857D01*
X481685D01*
X481642Y625183D01*
X481323Y625953D01*
X481007Y626364D01*
X480958Y626957D01*
X481498Y627660D01*
X481837Y628478D01*
X481952Y629357D01*
X481917Y629624D01*
X482247Y630000D01*
X530000D01*
X530000Y540000D01*
D02*
G37*
%LPC*%
G36*
X525750Y626752D02*
Y625107D01*
X527395D01*
X527119Y625773D01*
X526416Y626476D01*
X525750Y626752D01*
D02*
G37*
G36*
X524250D02*
X523584Y626476D01*
X522881Y625773D01*
X522605Y625107D01*
X524250D01*
Y626752D01*
D02*
G37*
G36*
X527395Y623607D02*
X525750D01*
Y621961D01*
X526416Y622237D01*
X527119Y622940D01*
X527395Y623607D01*
D02*
G37*
G36*
X524250D02*
X522605D01*
X522881Y622940D01*
X523584Y622237D01*
X524250Y621961D01*
Y623607D01*
D02*
G37*
G36*
X481685Y623857D02*
X476893D01*
Y621164D01*
X478558D01*
X479384Y621273D01*
X480154Y621592D01*
X480816Y622099D01*
X481323Y622760D01*
X481642Y623530D01*
X481685Y623857D01*
D02*
G37*
G36*
X525750Y617108D02*
Y615463D01*
X527395D01*
X527119Y616129D01*
X526416Y616832D01*
X525750Y617108D01*
D02*
G37*
G36*
X524250D02*
X523584Y616832D01*
X522881Y616129D01*
X522605Y615463D01*
X524250D01*
Y617108D01*
D02*
G37*
G36*
X482334Y617053D02*
Y613797D01*
X485196D01*
Y617053D01*
X482334D01*
D02*
G37*
G36*
X527395Y613963D02*
X525750D01*
Y612318D01*
X526416Y612594D01*
X527119Y613297D01*
X527395Y613963D01*
D02*
G37*
G36*
X524250D02*
X522605D01*
X522881Y613297D01*
X523584Y612594D01*
X524250Y612318D01*
Y613963D01*
D02*
G37*
G36*
X485196Y612797D02*
X482334D01*
Y609541D01*
X485196D01*
Y612797D01*
D02*
G37*
G36*
X482455Y608756D02*
Y605500D01*
X485317D01*
Y608756D01*
X482455D01*
D02*
G37*
G36*
X485317Y604500D02*
X482455D01*
Y601244D01*
X485317D01*
Y604500D01*
D02*
G37*
G36*
X525750Y602395D02*
Y600750D01*
X527395D01*
X527119Y601416D01*
X526416Y602119D01*
X525750Y602395D01*
D02*
G37*
G36*
X524250D02*
X523584Y602119D01*
X522881Y601416D01*
X522605Y600750D01*
X524250D01*
Y602395D01*
D02*
G37*
G36*
X527395Y599250D02*
X525750D01*
Y597605D01*
X526416Y597881D01*
X527119Y598584D01*
X527395Y599250D01*
D02*
G37*
G36*
X524250D02*
X522605D01*
X522881Y598584D01*
X523584Y597881D01*
X524250Y597605D01*
Y599250D01*
D02*
G37*
G36*
X486650Y596925D02*
X481917D01*
Y594555D01*
X486650D01*
Y596925D01*
D02*
G37*
G36*
X480917D02*
X476185D01*
Y594555D01*
X480917D01*
Y596925D01*
D02*
G37*
G36*
X486650Y593555D02*
X481917D01*
Y591185D01*
X486650D01*
Y593555D01*
D02*
G37*
G36*
X480917D02*
X476185D01*
Y591185D01*
X480917D01*
Y593555D01*
D02*
G37*
G36*
X525750Y592381D02*
Y590735D01*
X527395D01*
X527119Y591401D01*
X526416Y592105D01*
X525750Y592381D01*
D02*
G37*
G36*
X524250D02*
X523584Y592105D01*
X522881Y591401D01*
X522605Y590735D01*
X524250D01*
Y592381D01*
D02*
G37*
G36*
X527395Y589235D02*
X525750D01*
Y587590D01*
X526416Y587866D01*
X527119Y588569D01*
X527395Y589235D01*
D02*
G37*
G36*
X524250D02*
X522605D01*
X522881Y588569D01*
X523584Y587866D01*
X524250Y587590D01*
Y589235D01*
D02*
G37*
G36*
X525750Y582195D02*
Y580550D01*
X527395D01*
X527119Y581216D01*
X526416Y581919D01*
X525750Y582195D01*
D02*
G37*
G36*
X524250D02*
X523584Y581919D01*
X522881Y581216D01*
X522605Y580550D01*
X524250D01*
Y582195D01*
D02*
G37*
G36*
X527395Y579050D02*
X525750D01*
Y577405D01*
X526416Y577681D01*
X527119Y578384D01*
X527395Y579050D01*
D02*
G37*
G36*
X524250D02*
X522605D01*
X522881Y578384D01*
X523584Y577681D01*
X524250Y577405D01*
Y579050D01*
D02*
G37*
G36*
X486850Y579015D02*
X475985D01*
Y572875D01*
X486850D01*
Y573957D01*
X491522D01*
X491694Y573784D01*
X492310Y573429D01*
X492997Y573245D01*
X493708D01*
X494394Y573429D01*
X495010Y573784D01*
X495513Y574287D01*
X495868Y574903D01*
X496052Y575589D01*
Y576300D01*
X495868Y576987D01*
X495513Y577603D01*
X495010Y578105D01*
X494394Y578461D01*
X493708Y578645D01*
X492997D01*
X492310Y578461D01*
X491694Y578105D01*
X491522Y577933D01*
X486850D01*
Y579015D01*
D02*
G37*
G36*
X525750Y572509D02*
Y570864D01*
X527395D01*
X527119Y571530D01*
X526416Y572233D01*
X525750Y572509D01*
D02*
G37*
G36*
X524250D02*
X523584Y572233D01*
X522881Y571530D01*
X522605Y570864D01*
X524250D01*
Y572509D01*
D02*
G37*
G36*
X527395Y569364D02*
X525750D01*
Y567719D01*
X526416Y567994D01*
X527119Y568698D01*
X527395Y569364D01*
D02*
G37*
G36*
X524250D02*
X522605D01*
X522881Y568698D01*
X523584Y567994D01*
X524250Y567719D01*
Y569364D01*
D02*
G37*
G36*
X525750Y562395D02*
Y560750D01*
X527395D01*
X527119Y561416D01*
X526416Y562119D01*
X525750Y562395D01*
D02*
G37*
G36*
X524250D02*
X523584Y562119D01*
X522881Y561416D01*
X522605Y560750D01*
X524250D01*
Y562395D01*
D02*
G37*
G36*
X527395Y559250D02*
X525750D01*
Y557605D01*
X526416Y557881D01*
X527119Y558584D01*
X527395Y559250D01*
D02*
G37*
G36*
X524250D02*
X522605D01*
X522881Y558584D01*
X523584Y557881D01*
X524250Y557605D01*
Y559250D01*
D02*
G37*
G36*
X476140Y558756D02*
X473277D01*
Y555500D01*
X476140D01*
Y558756D01*
D02*
G37*
G36*
Y554500D02*
X473277D01*
Y551244D01*
X476140D01*
Y554500D01*
D02*
G37*
G36*
X525750Y552395D02*
Y550750D01*
X527395D01*
X527119Y551416D01*
X526416Y552119D01*
X525750Y552395D01*
D02*
G37*
G36*
X524250D02*
X523584Y552119D01*
X522881Y551416D01*
X522605Y550750D01*
X524250D01*
Y552395D01*
D02*
G37*
G36*
X527395Y549250D02*
X525750D01*
Y547605D01*
X526416Y547881D01*
X527119Y548584D01*
X527395Y549250D01*
D02*
G37*
G36*
X524250D02*
X522605D01*
X522881Y548584D01*
X523584Y547881D01*
X524250Y547605D01*
Y549250D01*
D02*
G37*
G36*
X480830Y547000D02*
X479530D01*
Y544225D01*
X480830D01*
Y547000D01*
D02*
G37*
G36*
X478530D02*
X477230D01*
Y544225D01*
X478530D01*
Y547000D01*
D02*
G37*
G36*
X43823Y377969D02*
X40370D01*
Y374516D01*
X43823D01*
Y377969D01*
D02*
G37*
G36*
X39370D02*
X35917D01*
Y374516D01*
X39370D01*
Y377969D01*
D02*
G37*
G36*
X516264D02*
X512811D01*
Y374516D01*
X516264D01*
Y377969D01*
D02*
G37*
G36*
X511811D02*
X508358D01*
Y374516D01*
X511811D01*
Y377969D01*
D02*
G37*
G36*
X516264Y373516D02*
X512811D01*
Y370063D01*
X516264D01*
Y373516D01*
D02*
G37*
G36*
X511811D02*
X508358D01*
Y370063D01*
X511811D01*
Y373516D01*
D02*
G37*
G36*
X43823Y373516D02*
X40370D01*
Y370063D01*
X43823D01*
Y373516D01*
D02*
G37*
G36*
X39370D02*
X35917D01*
Y370063D01*
X39370D01*
Y373516D01*
D02*
G37*
G36*
X40391Y367969D02*
X40370D01*
Y364516D01*
X43823D01*
Y364536D01*
X43554Y365542D01*
X43033Y366443D01*
X42297Y367179D01*
X41396Y367699D01*
X40391Y367969D01*
D02*
G37*
G36*
X39370D02*
X39350D01*
X38344Y367699D01*
X37443Y367179D01*
X36707Y366443D01*
X36187Y365542D01*
X35917Y364536D01*
Y364516D01*
X39370D01*
Y367969D01*
D02*
G37*
G36*
X512831D02*
X512811D01*
Y364516D01*
X516264D01*
Y364536D01*
X515994Y365542D01*
X515474Y366443D01*
X514738Y367179D01*
X513837Y367699D01*
X512831Y367969D01*
D02*
G37*
G36*
X511811D02*
X511791D01*
X510785Y367699D01*
X509884Y367179D01*
X509148Y366443D01*
X508628Y365542D01*
X508358Y364536D01*
Y364516D01*
X511811D01*
Y367969D01*
D02*
G37*
G36*
X516264Y363516D02*
X512811D01*
Y360063D01*
X512831D01*
X513837Y360332D01*
X514738Y360853D01*
X515474Y361589D01*
X515994Y362490D01*
X516264Y363495D01*
Y363516D01*
D02*
G37*
G36*
X511811D02*
X508358D01*
Y363495D01*
X508628Y362490D01*
X509148Y361589D01*
X509884Y360853D01*
X510785Y360332D01*
X511791Y360063D01*
X511811D01*
Y363516D01*
D02*
G37*
G36*
X43823Y363516D02*
X40370D01*
Y360063D01*
X40391D01*
X41396Y360332D01*
X42297Y360853D01*
X43033Y361589D01*
X43554Y362490D01*
X43823Y363495D01*
Y363516D01*
D02*
G37*
G36*
X39370D02*
X35917D01*
Y363495D01*
X36187Y362490D01*
X36707Y361589D01*
X37443Y360853D01*
X38344Y360332D01*
X39350Y360063D01*
X39370D01*
Y363516D01*
D02*
G37*
G36*
X40391Y357968D02*
X40370D01*
Y354516D01*
X43823D01*
Y354536D01*
X43554Y355541D01*
X43033Y356443D01*
X42297Y357179D01*
X41396Y357699D01*
X40391Y357968D01*
D02*
G37*
G36*
X39370D02*
X39350D01*
X38344Y357699D01*
X37443Y357179D01*
X36707Y356443D01*
X36187Y355541D01*
X35917Y354536D01*
Y354516D01*
X39370D01*
Y357968D01*
D02*
G37*
G36*
X512831D02*
X512811D01*
Y354516D01*
X516264D01*
Y354536D01*
X515994Y355541D01*
X515474Y356443D01*
X514738Y357179D01*
X513837Y357699D01*
X512831Y357968D01*
D02*
G37*
G36*
X511811D02*
X511791D01*
X510785Y357699D01*
X509884Y357179D01*
X509148Y356443D01*
X508628Y355541D01*
X508358Y354536D01*
Y354516D01*
X511811D01*
Y357968D01*
D02*
G37*
%LPD*%
D13*
X19685Y846457D02*
G03*
X500Y826772I250J-19435D01*
G01*
X748032D02*
G03*
X727846Y846457I-19935J-250D01*
G01*
Y1000D02*
G03*
X748032Y19685I750J19435D01*
G01*
X500D02*
G03*
X19685Y1000I18935J250D01*
G01*
X748032Y374016D02*
Y826772D01*
X374016Y846457D02*
X728346D01*
X19685D02*
X374016D01*
X500Y472441D02*
Y826772D01*
X748032Y19685D02*
Y374016D01*
X374016Y1000D02*
X727846D01*
X500Y19685D02*
Y472441D01*
X19685Y1000D02*
X374016D01*
D17*
X304941Y641390D02*
D03*
Y633910D02*
D03*
X295059D02*
D03*
Y637650D02*
D03*
Y641390D02*
D03*
X309941Y613740D02*
D03*
Y606260D02*
D03*
X300059D02*
D03*
Y610000D02*
D03*
Y613740D02*
D03*
D18*
X420371Y808109D02*
D03*
Y798267D02*
D03*
D19*
X432207Y810000D02*
D03*
X439294D02*
D03*
X432207Y800000D02*
D03*
X439294D02*
D03*
X474748Y613297D02*
D03*
X481834D02*
D03*
X465691Y555000D02*
D03*
X472777D02*
D03*
X464641Y565000D02*
D03*
X457554D02*
D03*
X474868Y605000D02*
D03*
X481955D02*
D03*
D20*
X344626Y150000D02*
D03*
X352500D02*
D03*
X334605Y140000D02*
D03*
X342479D02*
D03*
X451437Y307500D02*
D03*
X443563D02*
D03*
X351437D02*
D03*
X343563D02*
D03*
D21*
X369100Y145000D02*
D03*
X382500D02*
D03*
D22*
X290000Y55000D02*
D03*
X362500D02*
D03*
X410356Y425000D02*
D03*
X286440Y658007D02*
D03*
X434209Y649650D02*
D03*
X304079Y425000D02*
D03*
X440500Y586803D02*
D03*
D23*
X481417Y575945D02*
D03*
Y585000D02*
D03*
Y594055D02*
D03*
D24*
X458583Y585000D02*
D03*
D25*
X454582Y628880D02*
D03*
X434897D02*
D03*
D26*
X482455Y645000D02*
D03*
Y652087D02*
D03*
X320000Y629800D02*
D03*
Y636887D02*
D03*
X390000Y533543D02*
D03*
Y526457D02*
D03*
X415000Y533543D02*
D03*
Y526457D02*
D03*
X293817Y320000D02*
D03*
Y312913D02*
D03*
X457500Y827304D02*
D03*
Y820217D02*
D03*
X427698Y827087D02*
D03*
Y820000D02*
D03*
X447500Y827323D02*
D03*
Y820236D02*
D03*
X437500Y827068D02*
D03*
Y819981D02*
D03*
D27*
X277231Y725000D02*
D03*
Y717126D02*
D03*
X435000Y510232D02*
D03*
Y518106D02*
D03*
X454650Y519685D02*
D03*
Y527559D02*
D03*
X410500Y195000D02*
D03*
Y187126D02*
D03*
X390000Y166063D02*
D03*
Y173937D02*
D03*
X286440Y744779D02*
D03*
Y736905D02*
D03*
X265000Y627650D02*
D03*
Y635524D02*
D03*
X320000Y658937D02*
D03*
Y651063D02*
D03*
X374685Y557500D02*
D03*
Y549626D02*
D03*
X415000Y565374D02*
D03*
Y557500D02*
D03*
X293817Y343937D02*
D03*
Y336063D02*
D03*
X390000Y557500D02*
D03*
Y565374D02*
D03*
D28*
X395000Y615000D02*
D03*
Y628400D02*
D03*
D29*
X475280Y532875D02*
D03*
X482780D02*
D03*
X479030Y543725D02*
D03*
D30*
X345000Y768858D02*
D03*
Y772402D02*
D03*
Y786614D02*
D03*
Y775945D02*
D03*
Y779488D02*
D03*
Y783071D02*
D03*
Y800787D02*
D03*
Y790158D02*
D03*
Y797244D02*
D03*
Y815000D02*
D03*
Y804370D02*
D03*
Y793701D02*
D03*
Y807913D02*
D03*
Y811457D02*
D03*
X400118Y768858D02*
D03*
Y772402D02*
D03*
Y775945D02*
D03*
Y779488D02*
D03*
Y783071D02*
D03*
Y786614D02*
D03*
Y790158D02*
D03*
Y793701D02*
D03*
Y797244D02*
D03*
Y800787D02*
D03*
Y804370D02*
D03*
Y807913D02*
D03*
Y811457D02*
D03*
Y815000D02*
D03*
D31*
X347717Y761575D02*
D03*
X351260D02*
D03*
X354803D02*
D03*
X358347D02*
D03*
X361929D02*
D03*
X365473D02*
D03*
X369016D02*
D03*
X372559D02*
D03*
X376102D02*
D03*
X379646D02*
D03*
X383228D02*
D03*
X386772D02*
D03*
X390315D02*
D03*
X393858D02*
D03*
X397402D02*
D03*
D32*
X350850Y551250D02*
D03*
Y558750D02*
D03*
X340000Y555000D02*
D03*
D33*
X407087Y296358D02*
D03*
X442913D02*
D03*
X407087Y278642D02*
D03*
X442913D02*
D03*
X307087Y296358D02*
D03*
X342913D02*
D03*
X307087Y278642D02*
D03*
X342913D02*
D03*
D48*
X112500Y712500D02*
X375232D01*
X471658Y737855D02*
X669017D01*
X231421Y692500D02*
X372404D01*
X372559Y742381D02*
Y761575D01*
X276894Y621830D02*
X277101Y622037D01*
X308667D01*
X291042Y797213D02*
X291058Y797228D01*
X344984D02*
X345000Y797244D01*
X291058Y797228D02*
X344984D01*
X320000Y636887D02*
X343275D01*
X309941Y606260D02*
X343275D01*
X288000Y633910D02*
X295059D01*
X288000Y606260D02*
X300059D01*
X265000Y620000D02*
Y627650D01*
Y610000D02*
X300059D01*
X288000Y613740D02*
X300059D01*
X288000Y619000D02*
X305000D01*
X310704Y620000D02*
X360000D01*
X308667Y622037D02*
X310704Y620000D01*
X309931Y633910D02*
X310000Y633979D01*
X304941Y633910D02*
X309931D01*
X277368Y636887D02*
X278132Y637650D01*
X276963Y636887D02*
X277368D01*
X278132Y637650D02*
X295059D01*
X280661Y641390D02*
X295059D01*
X343275Y731725D02*
X558275D01*
X512858Y479138D02*
X513131Y479412D01*
X513050Y39822D02*
X559822D01*
X560000Y39645D01*
X512872Y40000D02*
X513050Y39822D01*
X558671Y479412D02*
X558944Y479138D01*
X513131Y479412D02*
X558671D01*
X512311Y479685D02*
X512858Y479138D01*
X39323Y40000D02*
X512872D01*
X311449Y811457D02*
X345000D01*
X310406Y812500D02*
X311449Y811457D01*
X310000Y812500D02*
X310406D01*
X368390Y754890D02*
X369016Y755516D01*
Y761575D01*
X368390Y750245D02*
Y754890D01*
X329034Y727500D02*
X329571Y728037D01*
X368269D01*
X290742Y727500D02*
X329034D01*
X288949Y729293D02*
X290742Y727500D01*
X242768Y729293D02*
X288949D01*
X242500Y729025D02*
X242768Y729293D01*
X310238Y731894D02*
X343106D01*
X310069Y732062D02*
X310238Y731894D01*
X343106D02*
X343275Y731725D01*
X294644Y793039D02*
X294932Y793326D01*
X295898D01*
X296273Y793701D02*
X345000D01*
X295898Y793326D02*
X296273Y793701D01*
X87500Y150000D02*
X344626D01*
X99727Y140000D02*
X334605D01*
X437102Y674289D02*
X437312Y674500D01*
X187500Y687500D02*
X418037D01*
X210711Y674289D02*
X437102D01*
X408292Y800787D02*
X415260Y807755D01*
X418835D01*
X400118Y800787D02*
X408292D01*
X418835Y807755D02*
X420371Y809291D01*
X432207Y799999D02*
Y800000D01*
X420371Y798267D02*
X420491Y798387D01*
X430595D01*
X432207Y799999D01*
X412275Y797244D02*
X413417Y798387D01*
X420252D01*
X420371Y798267D01*
X400118Y811457D02*
X400569Y811907D01*
X418282Y835000D02*
X433542D01*
X417404Y817355D02*
Y834121D01*
X418282Y835000D01*
X416317Y816269D02*
X417404Y817355D01*
X410226Y816269D02*
X416317D01*
X405865Y811907D02*
X410226Y816269D01*
X400569Y811907D02*
X405865D01*
X390200Y812500D02*
X390670D01*
X393170Y815000D01*
X400118D01*
X439294Y805000D02*
Y810000D01*
Y800000D02*
Y805000D01*
X447370D02*
X447500Y804870D01*
X439294Y805000D02*
X447370D01*
X420371Y809291D02*
X431499D01*
X432207Y810000D01*
X400118Y797244D02*
X412275D01*
X461627Y826897D02*
X464981Y823543D01*
X458103Y826897D02*
X461627D01*
X457500Y827500D02*
X458103Y826897D01*
X427238Y827500D02*
X457500D01*
X432474Y779488D02*
X432500Y779463D01*
X400118Y779488D02*
X432474D01*
X376102Y754145D02*
Y761575D01*
X377413Y749931D02*
Y752834D01*
Y749931D02*
X377700Y749645D01*
X376102Y754145D02*
X377413Y752834D01*
X365352Y745633D02*
Y761454D01*
X365232Y745513D02*
X365352Y745633D01*
Y761454D02*
X365473Y761575D01*
X352500Y125000D02*
Y150000D01*
X342479Y140000D02*
X342500Y139979D01*
Y125000D02*
Y139979D01*
X382500Y745868D02*
Y751820D01*
X360000Y745513D02*
Y753356D01*
X354833Y744927D02*
X354862Y744897D01*
X354833Y744927D02*
Y761545D01*
X354803Y761575D02*
X354833Y761545D01*
X280000Y597500D02*
X426963D01*
X290000Y57500D02*
X302500D01*
X347500D02*
X362500D01*
X434897Y628880D02*
Y638623D01*
Y650688D01*
X458583Y585000D02*
X481417D01*
Y575945D02*
X493352D01*
X471014Y614293D02*
X473751D01*
X474868Y613176D01*
X465308Y620000D02*
X471014Y614293D01*
X474868Y605000D02*
Y613176D01*
X483089Y652721D02*
X490000D01*
X482455Y652087D02*
X483089Y652721D01*
X465691Y555000D02*
Y563950D01*
X464641Y565000D02*
X465691Y563950D01*
X466760Y535000D02*
X468885Y532875D01*
X475280D01*
X465691Y548386D02*
X466056Y548021D01*
X465691Y548386D02*
Y555000D01*
X482780Y528416D02*
Y532875D01*
X481862Y527499D02*
X482780Y528416D01*
X465308Y527499D02*
X481862D01*
X459263Y533543D02*
X465308Y527499D01*
X440000Y533543D02*
X459263D01*
X432913Y526457D02*
X440000Y533543D01*
X422119Y526457D02*
X432913D01*
X434209Y649650D02*
X434583Y649275D01*
X460000Y98425D02*
X512311D01*
X397402Y754792D02*
X398838Y753356D01*
X397402Y754792D02*
Y761575D01*
X334661Y815000D02*
X345000D01*
X415000Y552000D02*
Y557500D01*
X415000Y533543D02*
Y541830D01*
X415000Y557500D02*
X415000Y557500D01*
X410356Y412500D02*
Y425000D01*
X304079Y412640D02*
Y425000D01*
X435272Y651063D02*
X463110D01*
X264705Y659996D02*
X285000D01*
X442913Y278642D02*
X455000D01*
X407087D02*
X442913D01*
X342913D02*
X354675D01*
X307087D02*
X342913D01*
X293817Y343937D02*
X301874D01*
X407500Y565374D02*
X415000D01*
X382309Y565374D02*
X390000D01*
X350850Y551250D02*
X359048D01*
X299333Y627650D02*
X301983Y625000D01*
X310000D01*
X265000Y627650D02*
X299333D01*
X415000Y526457D02*
X422119D01*
X422500Y545870D02*
X422880Y546250D01*
X390000Y551800D02*
Y557500D01*
Y533543D02*
Y540000D01*
X360090Y526457D02*
X390000D01*
X360900Y559506D02*
X372679D01*
X360406Y560000D02*
X360900Y559506D01*
X360000Y560000D02*
X360406D01*
X372679Y559506D02*
X374685Y557500D01*
X351122Y651063D02*
X354685Y647500D01*
X320000Y651063D02*
X351122D01*
X320000Y629800D02*
X354685D01*
X313185Y790079D02*
X344921D01*
X313107Y790000D02*
X313185Y790079D01*
X344921D02*
X345000Y790158D01*
X318037Y779228D02*
X318167Y779358D01*
X344870D02*
X345000Y779488D01*
X512153Y499843D02*
X512311Y499685D01*
X318167Y779358D02*
X344870D01*
X318037Y500000D02*
X318195Y499843D01*
X512153D01*
X310000Y625000D02*
X330000D01*
X338037Y749884D02*
Y750097D01*
X341113Y753173D02*
X346594D01*
X338037Y750097D02*
X341113Y753173D01*
X330000Y642261D02*
X374761D01*
X375000Y642500D01*
X350850Y558750D02*
X358750D01*
X360000Y560000D01*
X422500Y296358D02*
X442913D01*
X407087D02*
X422500D01*
X442913D02*
Y306850D01*
X443563Y307500D01*
X293817Y312913D02*
X312007D01*
X293817Y320000D02*
Y336063D01*
X333851Y775945D02*
X345000D01*
X332906Y775000D02*
X333851Y775945D01*
X332500Y775000D02*
X332906D01*
X332500Y296358D02*
X342913D01*
X307087D02*
X332500D01*
X342913D02*
Y306850D01*
X343563Y307500D01*
X395000Y628400D02*
Y640000D01*
X358347Y755010D02*
X360000Y753356D01*
X358347Y755010D02*
Y761575D01*
X400118Y768858D02*
X400264Y768713D01*
X409855D01*
X410000Y768567D01*
Y680000D02*
X709161D01*
X382500Y751820D02*
X383228Y752549D01*
Y761575D01*
X384138Y692500D02*
X697500D01*
X305285Y782785D02*
X344715D01*
X305000Y782500D02*
X305285Y782785D01*
X344715D02*
X345000Y783071D01*
X305000Y705000D02*
X687500D01*
X300021Y786593D02*
X344979D01*
X345000Y786614D01*
X300000Y786573D02*
X300021Y786593D01*
X300464Y720000D02*
X677500D01*
X272500Y800000D02*
X272906D01*
X273693Y800787D02*
X345000D01*
X272906Y800000D02*
X273693Y800787D01*
X262627Y807627D02*
X288033D01*
X285000Y804306D02*
X285406D01*
X286440Y805340D01*
X340199D01*
X340363Y805175D02*
X340871D01*
X344549Y804821D02*
X345000Y804370D01*
X340871Y805175D02*
X341226Y804821D01*
X262500Y807500D02*
X262627Y807627D01*
X340199Y805340D02*
X340363Y805175D01*
X341226Y804821D02*
X344549D01*
X288033Y807627D02*
X288319Y807913D01*
X468371Y783071D02*
X468655Y782787D01*
X400118Y783071D02*
X468371D01*
X469713Y782787D02*
X470000Y782500D01*
X468655Y782787D02*
X469713D01*
X511491Y489412D02*
X511764Y489138D01*
X400309Y793892D02*
X455501D01*
X400118Y793701D02*
X400309Y793892D01*
X455501D02*
X455692Y794083D01*
X445000Y520000D02*
X445315Y519685D01*
X512311D01*
X455692Y489138D02*
X455966Y489412D01*
X511491D01*
X511764Y489138D02*
X512311Y489685D01*
X414459Y776126D02*
X414640Y776307D01*
X400118Y775945D02*
X400300Y776126D01*
X414459D01*
X415000Y503838D02*
X420000D01*
X425847Y509685D01*
X512311D01*
X400217Y772500D02*
X445000D01*
X400118Y772402D02*
X400217Y772500D01*
X347717Y746555D02*
X351260Y750098D01*
Y761575D01*
X347936Y250000D02*
X355436Y242500D01*
X707500D01*
X367500Y232500D02*
X687500D01*
X325000Y237500D02*
X700000D01*
X288319Y807913D02*
X345000D01*
X220711Y744289D02*
X261384D01*
X262094Y745000D02*
X262500D01*
X261384Y744289D02*
X262094Y745000D01*
X325145Y768713D02*
X344855D01*
X325000Y768567D02*
X325145Y768713D01*
X344855D02*
X345000Y768858D01*
X347473Y754051D02*
Y761331D01*
X347717Y761575D01*
X346594Y753173D02*
X347473Y754051D01*
X337500Y225000D02*
X677500D01*
X440000Y218342D02*
X440319Y218661D01*
X668661D01*
X307087Y207500D02*
X308012Y206575D01*
X444075D01*
Y68425D02*
X512311D01*
X511491Y78699D02*
X511764Y78972D01*
X300000Y200000D02*
X437500D01*
X437773Y78699D02*
X511491D01*
X437500Y78972D02*
X437773Y78699D01*
X511764Y78972D02*
X512311Y78425D01*
X511491Y88699D02*
X511764Y88972D01*
X292500Y187500D02*
X430000D01*
X430273Y88699D02*
X511491D01*
X430000Y88972D02*
X430273Y88699D01*
X511764Y88972D02*
X512311Y88425D01*
X285000Y175000D02*
X425000D01*
Y100000D02*
X426575Y98425D01*
X460000D01*
X416508Y790087D02*
X417568D01*
X416437Y790158D02*
X416508Y790087D01*
X417568D02*
X417856Y789800D01*
X400118Y790158D02*
X416437D01*
X424246Y786614D02*
X425132Y787500D01*
X400118Y786614D02*
X424246D01*
X425132Y787500D02*
X425537D01*
X125000Y700000D02*
X425537D01*
X40417Y68972D02*
X40690Y68699D01*
X124727D01*
X125000Y68972D01*
X39870Y68425D02*
X40417Y68972D01*
Y78972D02*
X40690Y78699D01*
X112227D01*
X112500Y78972D01*
X39870Y78425D02*
X40417Y78972D01*
Y88972D02*
X40690Y88699D01*
X387278Y746772D02*
Y747178D01*
X386772Y747683D02*
Y761575D01*
Y747683D02*
X387278Y747178D01*
X87500Y737500D02*
X390537D01*
X100000Y725000D02*
X387500D01*
X40690Y88699D02*
X99727D01*
X100000Y88972D01*
X39870Y88425D02*
X40417Y88972D01*
X390315Y752185D02*
Y761575D01*
X86575Y98425D02*
X87500Y97500D01*
X39870Y98425D02*
X86575D01*
D49*
X513200Y374904D02*
X549904D01*
X512311Y374016D02*
X513200Y374904D01*
X549904D02*
X550000Y375000D01*
X382500Y145000D02*
X550000D01*
X363100Y140000D02*
X368100Y145000D01*
X362500Y140000D02*
X363100D01*
X368100Y145000D02*
X369100D01*
X362500Y125000D02*
Y140000D01*
D50*
X382500Y125000D02*
D03*
X394685Y659449D02*
D03*
X708661Y97925D02*
D03*
Y519185D02*
D03*
X236220D02*
D03*
X236221Y97925D02*
D03*
D51*
X372500Y125000D02*
D03*
X362500D02*
D03*
X352500D02*
D03*
X342500D02*
D03*
X332500D02*
D03*
X354685Y659449D02*
D03*
X364685D02*
D03*
X374685D02*
D03*
X384685D02*
D03*
X698661Y97925D02*
D03*
X688661D02*
D03*
X678661D02*
D03*
X668661D02*
D03*
X512311Y88425D02*
D03*
Y78425D02*
D03*
Y68425D02*
D03*
Y58425D02*
D03*
X709161Y364016D02*
D03*
Y354016D02*
D03*
Y344016D02*
D03*
Y334016D02*
D03*
X512311Y364016D02*
D03*
Y354016D02*
D03*
Y344016D02*
D03*
Y334016D02*
D03*
X698661Y519185D02*
D03*
X688661D02*
D03*
X678661D02*
D03*
X668661D02*
D03*
X709161Y785276D02*
D03*
Y775276D02*
D03*
Y765276D02*
D03*
Y755276D02*
D03*
X236720Y785276D02*
D03*
Y775276D02*
D03*
Y765276D02*
D03*
Y755276D02*
D03*
X236720Y364016D02*
D03*
Y354016D02*
D03*
Y344016D02*
D03*
Y334016D02*
D03*
X226220Y519185D02*
D03*
X216220D02*
D03*
X206220D02*
D03*
X196221D02*
D03*
X226220Y97925D02*
D03*
X216220D02*
D03*
X206221D02*
D03*
X196221D02*
D03*
X39870Y785276D02*
D03*
Y775276D02*
D03*
Y765276D02*
D03*
Y755276D02*
D03*
Y509685D02*
D03*
Y499685D02*
D03*
Y489685D02*
D03*
Y479685D02*
D03*
X39870Y364016D02*
D03*
Y354016D02*
D03*
Y344016D02*
D03*
Y334016D02*
D03*
Y88425D02*
D03*
Y78425D02*
D03*
Y68425D02*
D03*
Y58425D02*
D03*
X512311Y509685D02*
D03*
Y499685D02*
D03*
Y489685D02*
D03*
Y479685D02*
D03*
Y785276D02*
D03*
Y775276D02*
D03*
Y765276D02*
D03*
Y755276D02*
D03*
D52*
X476393Y634357D02*
D03*
Y629357D02*
D03*
Y624357D02*
D03*
D53*
X512311Y98425D02*
D03*
X709161Y374016D02*
D03*
X512311D02*
D03*
X709161Y795276D02*
D03*
X236720D02*
D03*
X236720Y374016D02*
D03*
X39870Y795276D02*
D03*
Y519685D02*
D03*
X39870Y374016D02*
D03*
Y98425D02*
D03*
X512311Y519685D02*
D03*
Y795276D02*
D03*
D54*
X375232Y712500D02*
D03*
X669017Y737855D02*
D03*
X372404Y692500D02*
D03*
X372559Y742381D02*
D03*
X276894Y621830D02*
D03*
X291042Y797213D02*
D03*
X343275Y636887D02*
D03*
Y606260D02*
D03*
X288000Y633910D02*
D03*
Y606260D02*
D03*
X265000Y620000D02*
D03*
Y610000D02*
D03*
X288000Y613740D02*
D03*
Y619000D02*
D03*
X305000D02*
D03*
X310000Y625000D02*
D03*
Y633979D02*
D03*
X280661Y641390D02*
D03*
X276963Y636887D02*
D03*
X558275Y731725D02*
D03*
X560000Y39645D02*
D03*
X558944Y479138D02*
D03*
X512872Y40000D02*
D03*
X39323D02*
D03*
X368390Y750245D02*
D03*
X368269Y728037D02*
D03*
X310069Y732062D02*
D03*
X343275Y731725D02*
D03*
X242500Y729025D02*
D03*
X231421Y692500D02*
D03*
X294644Y793039D02*
D03*
X433542Y835000D02*
D03*
X390200Y812500D02*
D03*
X447500Y804870D02*
D03*
X377700Y749645D02*
D03*
X365232Y745513D02*
D03*
X432500Y779463D02*
D03*
X550000Y375000D02*
D03*
Y145000D02*
D03*
X87500Y150000D02*
D03*
X99727Y140000D02*
D03*
X382500Y745868D02*
D03*
X360000Y745513D02*
D03*
X354862Y744897D02*
D03*
X426963Y597500D02*
D03*
X302500Y57500D02*
D03*
X347500D02*
D03*
X493352Y575945D02*
D03*
X465308Y620000D02*
D03*
X490000Y652721D02*
D03*
X466760Y535000D02*
D03*
X466056Y548021D02*
D03*
X434897Y638623D02*
D03*
X398838Y753356D02*
D03*
X334661Y815000D02*
D03*
X415000Y552000D02*
D03*
X415000Y541830D02*
D03*
X525000Y550000D02*
D03*
Y560000D02*
D03*
Y570114D02*
D03*
Y579800D02*
D03*
Y589985D02*
D03*
Y600000D02*
D03*
Y614713D02*
D03*
Y624357D02*
D03*
X410356Y412500D02*
D03*
X304079Y412640D02*
D03*
X463110Y651063D02*
D03*
X264705Y659996D02*
D03*
X455000Y278642D02*
D03*
X354675D02*
D03*
X301874Y343937D02*
D03*
X407500Y565374D02*
D03*
X382309Y565374D02*
D03*
X359048Y551250D02*
D03*
X464981Y823543D02*
D03*
X422500Y545870D02*
D03*
X422119Y526457D02*
D03*
X390000Y540000D02*
D03*
Y551800D02*
D03*
X360090Y526457D02*
D03*
X354685Y647500D02*
D03*
Y629800D02*
D03*
X310000Y812500D02*
D03*
X313107Y790000D02*
D03*
X318037Y500000D02*
D03*
Y779228D02*
D03*
X330000Y625000D02*
D03*
X338037Y749884D02*
D03*
X330000Y642261D02*
D03*
X375000Y642500D02*
D03*
X360000Y620000D02*
D03*
Y560000D02*
D03*
X280000Y597500D02*
D03*
X422500Y296358D02*
D03*
X312007Y312913D02*
D03*
X332500Y775000D02*
D03*
Y296358D02*
D03*
X395000Y640000D02*
D03*
X410000Y768567D02*
D03*
Y680000D02*
D03*
X709161D02*
D03*
X384138Y692500D02*
D03*
X697500D02*
D03*
X305000Y782500D02*
D03*
Y705000D02*
D03*
X687500D02*
D03*
X300000Y786573D02*
D03*
X300464Y720000D02*
D03*
X677500D02*
D03*
X285000Y804306D02*
D03*
X471658Y737855D02*
D03*
X470000Y782500D02*
D03*
X455692Y794083D02*
D03*
X445000Y520000D02*
D03*
X455692Y489138D02*
D03*
X414640Y776307D02*
D03*
X418037Y687500D02*
D03*
X415000Y503838D02*
D03*
X445000Y772500D02*
D03*
X347717Y746555D02*
D03*
X347936Y250000D02*
D03*
X707500Y242500D02*
D03*
X272500Y800000D02*
D03*
X262500Y807500D02*
D03*
Y745000D02*
D03*
X325000Y768567D02*
D03*
Y237500D02*
D03*
X700000D02*
D03*
X367500Y232500D02*
D03*
X687500D02*
D03*
X337500Y225000D02*
D03*
X677500D02*
D03*
X437312Y674500D02*
D03*
X440000Y218342D02*
D03*
X668661Y218661D02*
D03*
X307087Y207500D02*
D03*
X444075Y206575D02*
D03*
Y68425D02*
D03*
X300000Y200000D02*
D03*
X437500D02*
D03*
Y78972D02*
D03*
X292500Y187500D02*
D03*
X430000D02*
D03*
Y88972D02*
D03*
X285000Y175000D02*
D03*
X425000D02*
D03*
Y100000D02*
D03*
X417856Y789800D02*
D03*
X425537Y787500D02*
D03*
Y700000D02*
D03*
X220711Y744289D02*
D03*
X210711Y674289D02*
D03*
X187500Y687500D02*
D03*
X125000Y700000D02*
D03*
Y68972D02*
D03*
X112500Y712500D02*
D03*
Y78972D02*
D03*
X387278Y746772D02*
D03*
X390537Y737500D02*
D03*
X387500Y725000D02*
D03*
X100000D02*
D03*
Y88972D02*
D03*
X390315Y752185D02*
D03*
X87500Y737500D02*
D03*
Y97500D02*
D03*
M02*
