G04*
G04 #@! TF.GenerationSoftware,Altium Limited,Altium Designer,21.0.9 (235)*
G04*
G04 Layer_Color=8421504*
%FSLAX25Y25*%
%MOIN*%
G70*
G04*
G04 #@! TF.SameCoordinates,9EEF2FA0-A7D9-48CE-A635-C582822CA6DE*
G04*
G04*
G04 #@! TF.FilePolarity,Positive*
G04*
G01*
G75*
%ADD13C,0.01000*%
G04:AMPARAMS|DCode=17|XSize=47.64mil|YSize=23.23mil|CornerRadius=5.81mil|HoleSize=0mil|Usage=FLASHONLY|Rotation=0.000|XOffset=0mil|YOffset=0mil|HoleType=Round|Shape=RoundedRectangle|*
%AMROUNDEDRECTD17*
21,1,0.04764,0.01161,0,0,0.0*
21,1,0.03602,0.02323,0,0,0.0*
1,1,0.01161,0.01801,-0.00581*
1,1,0.01161,-0.01801,-0.00581*
1,1,0.01161,-0.01801,0.00581*
1,1,0.01161,0.01801,0.00581*
%
%ADD17ROUNDEDRECTD17*%
%ADD18R,0.07480X0.04331*%
%ADD19R,0.04724X0.05512*%
%ADD20R,0.05512X0.05906*%
%ADD21R,0.08700X0.06700*%
%ADD22R,0.10236X0.16535*%
%ADD23R,0.08465X0.03740*%
%ADD24R,0.08465X0.12795*%
%ADD25R,0.12598X0.06299*%
%ADD26R,0.05512X0.04724*%
%ADD27R,0.05906X0.05512*%
%ADD28R,0.06700X0.08700*%
%ADD29R,0.01600X0.04550*%
%ADD30R,0.08000X0.02402*%
%ADD31R,0.02402X0.08000*%
%ADD32R,0.04550X0.01600*%
%ADD33R,0.08268X0.05512*%
D13*
X19685Y846457D02*
G03*
X500Y826772I250J-19435D01*
G01*
X748032D02*
G03*
X727846Y846457I-19935J-250D01*
G01*
Y1000D02*
G03*
X748032Y19685I750J19435D01*
G01*
X500D02*
G03*
X19685Y1000I18935J250D01*
G01*
X748032Y374016D02*
Y826772D01*
X374016Y846457D02*
X728346D01*
X19685D02*
X374016D01*
X500Y472441D02*
Y826772D01*
X748032Y19685D02*
Y374016D01*
X374016Y1000D02*
X727846D01*
X500Y19685D02*
Y472441D01*
X19685Y1000D02*
X374016D01*
D17*
X304941Y641390D02*
D03*
Y633910D02*
D03*
X295059D02*
D03*
Y637650D02*
D03*
Y641390D02*
D03*
X309941Y613740D02*
D03*
Y606260D02*
D03*
X300059D02*
D03*
Y610000D02*
D03*
Y613740D02*
D03*
D18*
X420371Y808109D02*
D03*
Y798267D02*
D03*
D19*
X432207Y810000D02*
D03*
X439294D02*
D03*
X432207Y800000D02*
D03*
X439294D02*
D03*
X474748Y613297D02*
D03*
X481834D02*
D03*
X465691Y555000D02*
D03*
X472777D02*
D03*
X464641Y565000D02*
D03*
X457554D02*
D03*
X474868Y605000D02*
D03*
X481955D02*
D03*
D20*
X344626Y150000D02*
D03*
X352500D02*
D03*
X334605Y140000D02*
D03*
X342479D02*
D03*
X451437Y307500D02*
D03*
X443563D02*
D03*
X351437D02*
D03*
X343563D02*
D03*
D21*
X369100Y145000D02*
D03*
X382500D02*
D03*
D22*
X290000Y55000D02*
D03*
X362500D02*
D03*
X410356Y425000D02*
D03*
X286440Y658007D02*
D03*
X434209Y649650D02*
D03*
X304079Y425000D02*
D03*
X440500Y586803D02*
D03*
D23*
X481417Y575945D02*
D03*
Y585000D02*
D03*
Y594055D02*
D03*
D24*
X458583Y585000D02*
D03*
D25*
X454582Y628880D02*
D03*
X434897D02*
D03*
D26*
X482455Y645000D02*
D03*
Y652087D02*
D03*
X320000Y629800D02*
D03*
Y636887D02*
D03*
X390000Y533543D02*
D03*
Y526457D02*
D03*
X415000Y533543D02*
D03*
Y526457D02*
D03*
X293817Y320000D02*
D03*
Y312913D02*
D03*
X457500Y827304D02*
D03*
Y820217D02*
D03*
X427698Y827087D02*
D03*
Y820000D02*
D03*
X447500Y827323D02*
D03*
Y820236D02*
D03*
X437500Y827068D02*
D03*
Y819981D02*
D03*
D27*
X277231Y725000D02*
D03*
Y717126D02*
D03*
X435000Y510232D02*
D03*
Y518106D02*
D03*
X454650Y519685D02*
D03*
Y527559D02*
D03*
X410500Y195000D02*
D03*
Y187126D02*
D03*
X390000Y166063D02*
D03*
Y173937D02*
D03*
X286440Y744779D02*
D03*
Y736905D02*
D03*
X265000Y627650D02*
D03*
Y635524D02*
D03*
X320000Y658937D02*
D03*
Y651063D02*
D03*
X374685Y557500D02*
D03*
Y549626D02*
D03*
X415000Y565374D02*
D03*
Y557500D02*
D03*
X293817Y343937D02*
D03*
Y336063D02*
D03*
X390000Y557500D02*
D03*
Y565374D02*
D03*
D28*
X395000Y615000D02*
D03*
Y628400D02*
D03*
D29*
X475280Y532875D02*
D03*
X482780D02*
D03*
X479030Y543725D02*
D03*
D30*
X345000Y768858D02*
D03*
Y772402D02*
D03*
Y786614D02*
D03*
Y775945D02*
D03*
Y779488D02*
D03*
Y783071D02*
D03*
Y800787D02*
D03*
Y790158D02*
D03*
Y797244D02*
D03*
Y815000D02*
D03*
Y804370D02*
D03*
Y793701D02*
D03*
Y807913D02*
D03*
Y811457D02*
D03*
X400118Y768858D02*
D03*
Y772402D02*
D03*
Y775945D02*
D03*
Y779488D02*
D03*
Y783071D02*
D03*
Y786614D02*
D03*
Y790158D02*
D03*
Y793701D02*
D03*
Y797244D02*
D03*
Y800787D02*
D03*
Y804370D02*
D03*
Y807913D02*
D03*
Y811457D02*
D03*
Y815000D02*
D03*
D31*
X347717Y761575D02*
D03*
X351260D02*
D03*
X354803D02*
D03*
X358347D02*
D03*
X361929D02*
D03*
X365473D02*
D03*
X369016D02*
D03*
X372559D02*
D03*
X376102D02*
D03*
X379646D02*
D03*
X383228D02*
D03*
X386772D02*
D03*
X390315D02*
D03*
X393858D02*
D03*
X397402D02*
D03*
D32*
X350850Y551250D02*
D03*
Y558750D02*
D03*
X340000Y555000D02*
D03*
D33*
X407087Y296358D02*
D03*
X442913D02*
D03*
X407087Y278642D02*
D03*
X442913D02*
D03*
X307087Y296358D02*
D03*
X342913D02*
D03*
X307087Y278642D02*
D03*
X342913D02*
D03*
M02*
