G04*
G04 #@! TF.GenerationSoftware,Altium Limited,Altium Designer,21.0.9 (235)*
G04*
G04 Layer_Physical_Order=2*
G04 Layer_Color=16711680*
%FSLAX25Y25*%
%MOIN*%
G70*
G04*
G04 #@! TF.SameCoordinates,9EEF2FA0-A7D9-48CE-A635-C582822CA6DE*
G04*
G04*
G04 #@! TF.FilePolarity,Positive*
G04*
G01*
G75*
%ADD13C,0.01000*%
%ADD48C,0.01500*%
%ADD49C,0.02500*%
%ADD50R,0.05906X0.05906*%
%ADD51C,0.05906*%
%ADD52O,0.08661X0.04331*%
%ADD53R,0.05906X0.05906*%
%ADD54C,0.03000*%
G36*
X730475Y844591D02*
X732814Y844126D01*
X735071Y843360D01*
X737209Y842305D01*
X739191Y840981D01*
X740984Y839409D01*
X742556Y837617D01*
X743880Y835635D01*
X744935Y833496D01*
X745701Y831239D01*
X746166Y828901D01*
X746304Y826800D01*
X746298Y826772D01*
Y19761D01*
X746289Y19752D01*
X746289Y19752D01*
X746289Y19752D01*
X746182Y18120D01*
X745730Y15844D01*
X744984Y13647D01*
X743958Y11566D01*
X742669Y9637D01*
X741139Y7893D01*
X739394Y6363D01*
X737465Y5074D01*
X735384Y4048D01*
X733187Y3302D01*
X730912Y2849D01*
X728596Y2698D01*
X728383Y2712D01*
X727914Y2742D01*
X727424Y2733D01*
X727369Y2733D01*
X20160D01*
X19685Y2733D01*
X19662Y2729D01*
X19162Y2729D01*
X17187Y2859D01*
X14977Y3298D01*
X12844Y4023D01*
X10823Y5019D01*
X8950Y6271D01*
X7256Y7756D01*
X5771Y9450D01*
X4519Y11323D01*
X3523Y13344D01*
X2798Y15477D01*
X2359Y17687D01*
X2229Y19665D01*
X2233Y19685D01*
Y374016D01*
Y826295D01*
X2233Y826772D01*
X2229Y826794D01*
X2228Y827291D01*
X2362Y829335D01*
X2814Y831609D01*
X3560Y833805D01*
X4585Y835884D01*
X5873Y837812D01*
X7402Y839555D01*
X9145Y841084D01*
X11073Y842372D01*
X13152Y843397D01*
X15348Y844142D01*
X17621Y844595D01*
X19660Y844728D01*
X19685Y844723D01*
X19685Y844723D01*
X328028D01*
Y817992D01*
X328122Y817524D01*
X328387Y817127D01*
X328784Y816862D01*
X329252Y816769D01*
X332240D01*
X332480Y816269D01*
X332265Y815750D01*
X337056D01*
X336841Y816269D01*
X337081Y816769D01*
X415866D01*
X416334Y816862D01*
X416731Y817127D01*
X416997Y817524D01*
X417090Y817992D01*
Y844723D01*
X727846D01*
X727846Y844723D01*
X728346Y844723D01*
X728375Y844729D01*
X730475Y844591D01*
D02*
G37*
%LPC*%
G36*
X465731Y825939D02*
Y824293D01*
X467376D01*
X467100Y824959D01*
X466397Y825663D01*
X465731Y825939D01*
D02*
G37*
G36*
X464231D02*
X463565Y825663D01*
X462862Y824959D01*
X462586Y824293D01*
X464231D01*
Y825939D01*
D02*
G37*
G36*
X467376Y822793D02*
X465731D01*
Y821148D01*
X466397Y821424D01*
X467100Y822127D01*
X467376Y822793D01*
D02*
G37*
G36*
X464231D02*
X462586D01*
X462862Y822127D01*
X463565Y821424D01*
X464231Y821148D01*
Y822793D01*
D02*
G37*
G36*
X390950Y814895D02*
Y813250D01*
X392595D01*
X392319Y813916D01*
X391616Y814619D01*
X390950Y814895D01*
D02*
G37*
G36*
X389450D02*
X388784Y814619D01*
X388081Y813916D01*
X387805Y813250D01*
X389450D01*
Y814895D01*
D02*
G37*
G36*
X337056Y814250D02*
X335410D01*
Y812605D01*
X336077Y812881D01*
X336780Y813584D01*
X337056Y814250D01*
D02*
G37*
G36*
X333910D02*
X332265D01*
X332541Y813584D01*
X333244Y812881D01*
X333910Y812605D01*
Y814250D01*
D02*
G37*
G36*
X392595Y811750D02*
X390950D01*
Y810105D01*
X391616Y810381D01*
X392319Y811084D01*
X392595Y811750D01*
D02*
G37*
G36*
X389450D02*
X387805D01*
X388081Y811084D01*
X388784Y810381D01*
X389450Y810105D01*
Y811750D01*
D02*
G37*
G36*
X448250Y807265D02*
Y805620D01*
X449895D01*
X449619Y806286D01*
X448916Y806989D01*
X448250Y807265D01*
D02*
G37*
G36*
X446750D02*
X446084Y806989D01*
X445381Y806286D01*
X445105Y805620D01*
X446750D01*
Y807265D01*
D02*
G37*
G36*
X449895Y804120D02*
X448250D01*
Y802475D01*
X448916Y802751D01*
X449619Y803454D01*
X449895Y804120D01*
D02*
G37*
G36*
X446750D02*
X445105D01*
X445381Y803454D01*
X446084Y802751D01*
X446750Y802475D01*
Y804120D01*
D02*
G37*
G36*
X713314Y799428D02*
X705009D01*
Y791123D01*
X713314D01*
Y799428D01*
D02*
G37*
G36*
X240873D02*
X232568D01*
Y791123D01*
X240873D01*
Y799428D01*
D02*
G37*
G36*
X310355Y815200D02*
X309645D01*
X308958Y815016D01*
X308342Y814660D01*
X307839Y814158D01*
X307484Y813542D01*
X307300Y812856D01*
Y812144D01*
X307484Y811458D01*
X307839Y810842D01*
X308046Y810635D01*
Y783495D01*
X307546Y783429D01*
X307516Y783542D01*
X307160Y784158D01*
X306658Y784660D01*
X306042Y785016D01*
X305356Y785200D01*
X304644D01*
X303958Y785016D01*
X303342Y784660D01*
X302952Y784270D01*
X302484Y784419D01*
X302452Y784443D01*
Y785419D01*
X302516Y785530D01*
X302700Y786217D01*
Y786928D01*
X302516Y787615D01*
X302161Y788230D01*
X301658Y788733D01*
X301042Y789089D01*
X300356Y789273D01*
X299644D01*
X298958Y789089D01*
X298342Y788733D01*
X297839Y788230D01*
X297484Y787615D01*
X297300Y786928D01*
Y786217D01*
X297484Y785530D01*
X297839Y784915D01*
X298342Y784412D01*
X298476Y784335D01*
Y721830D01*
X298303Y721658D01*
X297948Y721042D01*
X297764Y720356D01*
Y719644D01*
X297948Y718958D01*
X298303Y718342D01*
X298806Y717839D01*
X299422Y717484D01*
X300108Y717300D01*
X300819D01*
X301506Y717484D01*
X302121Y717839D01*
X302512Y718230D01*
X302980Y718081D01*
X303012Y718057D01*
Y706830D01*
X302839Y706658D01*
X302484Y706042D01*
X302300Y705356D01*
Y704644D01*
X302484Y703958D01*
X302839Y703342D01*
X303342Y702840D01*
X303958Y702484D01*
X304644Y702300D01*
X305356D01*
X306042Y702484D01*
X306658Y702840D01*
X307160Y703342D01*
X307516Y703958D01*
X307700Y704644D01*
Y705356D01*
X307516Y706042D01*
X307160Y706658D01*
X306988Y706830D01*
Y731197D01*
X307488Y731263D01*
X307553Y731020D01*
X307909Y730405D01*
X308411Y729902D01*
X309027Y729546D01*
X309714Y729362D01*
X310425D01*
X311111Y729546D01*
X311727Y729902D01*
X312230Y730405D01*
X312512Y730893D01*
X313012Y730759D01*
Y635103D01*
X312516Y635021D01*
X312160Y635637D01*
X311658Y636140D01*
X311042Y636495D01*
X310355Y636679D01*
X309645D01*
X308958Y636495D01*
X308342Y636140D01*
X307839Y635637D01*
X307484Y635021D01*
X307300Y634335D01*
Y634091D01*
X303594Y630385D01*
X303163Y629740D01*
X303012Y628979D01*
Y620830D01*
X302839Y620658D01*
X302484Y620042D01*
X302300Y619355D01*
Y618645D01*
X302484Y617958D01*
X302839Y617342D01*
X303342Y616840D01*
X303958Y616484D01*
X304644Y616300D01*
X305356D01*
X306042Y616484D01*
X306658Y616840D01*
X307160Y617342D01*
X307516Y617958D01*
X307700Y618645D01*
Y619355D01*
X307516Y620042D01*
X307160Y620658D01*
X306988Y620830D01*
Y623876D01*
X307484Y623958D01*
X307839Y623342D01*
X308342Y622839D01*
X308958Y622484D01*
X309645Y622300D01*
X310355D01*
X311042Y622484D01*
X311658Y622839D01*
X312160Y623342D01*
X312516Y623958D01*
X313012Y623876D01*
Y317791D01*
X310888Y315667D01*
X310582Y315208D01*
X310349Y315074D01*
X309846Y314571D01*
X309491Y313955D01*
X309307Y313269D01*
Y312558D01*
X309491Y311871D01*
X309846Y311256D01*
X310349Y310753D01*
X310965Y310397D01*
X311652Y310213D01*
X312363D01*
X313049Y310397D01*
X313665Y310753D01*
X314168Y311256D01*
X314523Y311871D01*
X314707Y312558D01*
Y313269D01*
X314582Y313737D01*
X316406Y315561D01*
X316837Y316206D01*
X316988Y316967D01*
Y496968D01*
X317488Y497352D01*
X317682Y497300D01*
X318393D01*
X319080Y497484D01*
X319695Y497839D01*
X320198Y498342D01*
X320553Y498958D01*
X320737Y499645D01*
Y500355D01*
X320553Y501042D01*
X320198Y501658D01*
X320026Y501830D01*
Y777398D01*
X320198Y777570D01*
X320553Y778186D01*
X320737Y778873D01*
Y779584D01*
X320553Y780270D01*
X320198Y780886D01*
X319695Y781389D01*
X319080Y781744D01*
X318393Y781928D01*
X317682D01*
X317488Y781876D01*
X316988Y782260D01*
Y787701D01*
X316837Y788462D01*
X316406Y789107D01*
X315807Y789706D01*
Y790355D01*
X315623Y791042D01*
X315267Y791658D01*
X314764Y792161D01*
X314149Y792516D01*
X313462Y792700D01*
X312751D01*
X312523Y792639D01*
X312023Y793022D01*
Y810704D01*
X312160Y810842D01*
X312516Y811458D01*
X312700Y812144D01*
Y812856D01*
X312516Y813542D01*
X312160Y814158D01*
X311658Y814660D01*
X311042Y815016D01*
X310355Y815200D01*
D02*
G37*
G36*
X433898Y837700D02*
X433187D01*
X432500Y837516D01*
X431884Y837160D01*
X431382Y836658D01*
X431026Y836042D01*
X430842Y835355D01*
Y834645D01*
X431026Y833958D01*
X431382Y833342D01*
X431884Y832839D01*
X432500Y832484D01*
X433187Y832300D01*
X433430D01*
X434470Y831261D01*
Y781976D01*
X433970Y781732D01*
X433542Y781979D01*
X432856Y782163D01*
X432144D01*
X431458Y781979D01*
X430842Y781623D01*
X430339Y781120D01*
X429984Y780505D01*
X429800Y779818D01*
Y779574D01*
X428594Y778369D01*
X428163Y777723D01*
X428026Y777032D01*
X427526Y777081D01*
Y785670D01*
X427698Y785842D01*
X428053Y786458D01*
X428237Y787145D01*
Y787855D01*
X428053Y788542D01*
X427698Y789158D01*
X427195Y789661D01*
X426580Y790016D01*
X425893Y790200D01*
X425182D01*
X424495Y790016D01*
X423880Y789661D01*
X423377Y789158D01*
X423021Y788542D01*
X422837Y787855D01*
Y787145D01*
X423021Y786458D01*
X423377Y785842D01*
X423549Y785670D01*
Y701830D01*
X423377Y701658D01*
X423021Y701042D01*
X422837Y700355D01*
Y699645D01*
X423021Y698958D01*
X423377Y698342D01*
X423880Y697839D01*
X424495Y697484D01*
X425182Y697300D01*
X425893D01*
X426580Y697484D01*
X427195Y697839D01*
X427512Y698156D01*
X428012Y697949D01*
Y600532D01*
X427512Y600148D01*
X427318Y600200D01*
X426607D01*
X425920Y600016D01*
X425305Y599660D01*
X424802Y599158D01*
X424447Y598542D01*
X424263Y597856D01*
Y597145D01*
X424447Y596458D01*
X424802Y595842D01*
X424974Y595670D01*
Y547921D01*
X424474Y547714D01*
X424158Y548031D01*
X423542Y548386D01*
X422856Y548570D01*
X422145D01*
X421458Y548386D01*
X420842Y548031D01*
X420339Y547528D01*
X419984Y546912D01*
X419800Y546226D01*
Y545515D01*
X419984Y544828D01*
X420321Y544244D01*
Y528477D01*
X419959Y528115D01*
X419603Y527499D01*
X419419Y526812D01*
Y526101D01*
X419603Y525415D01*
X419959Y524799D01*
X420461Y524296D01*
X421077Y523941D01*
X421764Y523757D01*
X422474D01*
X423161Y523941D01*
X423777Y524296D01*
X424280Y524799D01*
X424635Y525415D01*
X424765Y525900D01*
X425236Y526081D01*
X425310Y526078D01*
X425512Y525892D01*
Y457956D01*
X421094Y453538D01*
X420663Y452893D01*
X420512Y452132D01*
Y298188D01*
X420339Y298016D01*
X419984Y297400D01*
X419800Y296714D01*
Y296003D01*
X419984Y295316D01*
X420339Y294700D01*
X420842Y294198D01*
X421458Y293842D01*
X422145Y293658D01*
X422856D01*
X423542Y293842D01*
X424158Y294198D01*
X424660Y294700D01*
X425016Y295316D01*
X425200Y296003D01*
Y296714D01*
X425016Y297400D01*
X424660Y298016D01*
X424488Y298188D01*
Y451309D01*
X427550Y454370D01*
X428012Y454179D01*
Y436874D01*
X428163Y436113D01*
X428594Y435468D01*
X438012Y426051D01*
Y220172D01*
X437840Y220000D01*
X437484Y219384D01*
X437300Y218698D01*
Y217987D01*
X437484Y217300D01*
X437840Y216684D01*
X438342Y216182D01*
X438958Y215826D01*
X439644Y215642D01*
X440355D01*
X441042Y215826D01*
X441658Y216182D01*
X442161Y216684D01*
X442516Y217300D01*
X442700Y217987D01*
Y218698D01*
X442516Y219384D01*
X442161Y220000D01*
X441988Y220172D01*
Y426874D01*
X441837Y427635D01*
X441406Y428280D01*
X431988Y437698D01*
Y637806D01*
X432488Y637905D01*
X432777Y637207D01*
X433481Y636504D01*
X434147Y636228D01*
Y638623D01*
Y641018D01*
X433481Y640743D01*
X432777Y640039D01*
X432488Y639341D01*
X431988Y639440D01*
Y776139D01*
X432612Y776763D01*
X432856D01*
X433542Y776947D01*
X433970Y777193D01*
X434470Y776950D01*
Y675761D01*
X434621Y675000D01*
X434642Y674967D01*
X434612Y674856D01*
Y674145D01*
X434796Y673458D01*
X435152Y672842D01*
X435655Y672339D01*
X436270Y671984D01*
X436957Y671800D01*
X437668D01*
X438355Y671984D01*
X438970Y672339D01*
X439473Y672842D01*
X439828Y673458D01*
X440012Y674145D01*
Y674856D01*
X439828Y675542D01*
X439473Y676158D01*
X438970Y676660D01*
X438446Y676963D01*
Y832084D01*
X438295Y832845D01*
X437864Y833490D01*
X436242Y835112D01*
Y835355D01*
X436058Y836042D01*
X435703Y836658D01*
X435200Y837160D01*
X434584Y837516D01*
X433898Y837700D01*
D02*
G37*
G36*
X709708Y789428D02*
X708615D01*
X707558Y789145D01*
X706612Y788599D01*
X705838Y787825D01*
X705292Y786878D01*
X705009Y785822D01*
Y784729D01*
X705292Y783673D01*
X705838Y782726D01*
X706612Y781953D01*
X707558Y781406D01*
X708615Y781123D01*
X709708D01*
X710764Y781406D01*
X711711Y781953D01*
X712484Y782726D01*
X713031Y783673D01*
X713314Y784729D01*
Y785822D01*
X713031Y786878D01*
X712484Y787825D01*
X711711Y788599D01*
X710764Y789145D01*
X709708Y789428D01*
D02*
G37*
G36*
X237267D02*
X236174D01*
X235118Y789145D01*
X234171Y788599D01*
X233397Y787825D01*
X232851Y786878D01*
X232568Y785822D01*
Y784729D01*
X232851Y783673D01*
X233397Y782726D01*
X234171Y781953D01*
X235118Y781406D01*
X236174Y781123D01*
X237267D01*
X238323Y781406D01*
X239270Y781953D01*
X240043Y782726D01*
X240590Y783673D01*
X240873Y784729D01*
Y785822D01*
X240590Y786878D01*
X240043Y787825D01*
X239270Y788599D01*
X238323Y789145D01*
X237267Y789428D01*
D02*
G37*
G36*
X418211Y792500D02*
X417500D01*
X416813Y792316D01*
X416198Y791960D01*
X415695Y791458D01*
X415340Y790842D01*
X415156Y790156D01*
Y789444D01*
X415340Y788758D01*
X415695Y788142D01*
X415958Y787879D01*
Y779194D01*
X415458Y778884D01*
X414996Y779007D01*
X414285D01*
X413598Y778824D01*
X412983Y778468D01*
X412480Y777965D01*
X412124Y777350D01*
X411940Y776663D01*
Y775952D01*
X412124Y775265D01*
X412480Y774650D01*
X412652Y774477D01*
Y770374D01*
X412191Y770235D01*
X412152Y770234D01*
X411658Y770728D01*
X411042Y771083D01*
X410356Y771267D01*
X409645D01*
X408958Y771083D01*
X408342Y770728D01*
X407839Y770225D01*
X407484Y769609D01*
X407300Y768923D01*
Y768212D01*
X407484Y767525D01*
X407839Y766910D01*
X408012Y766737D01*
Y681830D01*
X407839Y681658D01*
X407484Y681042D01*
X407300Y680356D01*
Y679644D01*
X407484Y678958D01*
X407839Y678342D01*
X408342Y677840D01*
X408958Y677484D01*
X409645Y677300D01*
X410356D01*
X411042Y677484D01*
X411658Y677840D01*
X412152Y678334D01*
X412191Y678333D01*
X412652Y678194D01*
Y660399D01*
X410557Y658304D01*
X410126Y657659D01*
X409974Y656898D01*
Y567140D01*
X409474Y566935D01*
X408916Y567493D01*
X408250Y567769D01*
Y565374D01*
Y562979D01*
X408916Y563255D01*
X409474Y563813D01*
X409974Y563608D01*
Y506875D01*
X410126Y506114D01*
X410557Y505469D01*
X412300Y503726D01*
Y503482D01*
X412484Y502796D01*
X412840Y502180D01*
X413342Y501677D01*
X413958Y501322D01*
X414644Y501138D01*
X415355D01*
X416042Y501322D01*
X416658Y501677D01*
X417161Y502180D01*
X417516Y502796D01*
X417700Y503482D01*
Y504193D01*
X417516Y504880D01*
X417161Y505496D01*
X416658Y505998D01*
X416042Y506354D01*
X415355Y506538D01*
X415112D01*
X413951Y507699D01*
Y538798D01*
X414451Y539182D01*
X414644Y539130D01*
X415355D01*
X416042Y539314D01*
X416658Y539670D01*
X417161Y540172D01*
X417516Y540788D01*
X417700Y541475D01*
Y542186D01*
X417516Y542872D01*
X417161Y543488D01*
X416988Y543660D01*
Y550170D01*
X417161Y550342D01*
X417516Y550958D01*
X417700Y551645D01*
Y552355D01*
X417516Y553042D01*
X417161Y553658D01*
X416658Y554160D01*
X416042Y554516D01*
X415355Y554700D01*
X414644D01*
X414451Y554648D01*
X413951Y555032D01*
Y656074D01*
X416046Y658170D01*
X416477Y658815D01*
X416629Y659576D01*
Y684683D01*
X417129Y684948D01*
X417682Y684800D01*
X418393D01*
X419080Y684984D01*
X419695Y685339D01*
X420198Y685842D01*
X420553Y686458D01*
X420737Y687145D01*
Y687855D01*
X420553Y688542D01*
X420198Y689158D01*
X419935Y689421D01*
Y788061D01*
X420016Y788142D01*
X420371Y788758D01*
X420555Y789444D01*
Y790156D01*
X420371Y790842D01*
X420016Y791458D01*
X419513Y791960D01*
X418898Y792316D01*
X418211Y792500D01*
D02*
G37*
G36*
X709708Y779428D02*
X708615D01*
X707558Y779145D01*
X706612Y778599D01*
X705838Y777825D01*
X705292Y776878D01*
X705009Y775822D01*
Y774729D01*
X705292Y773673D01*
X705838Y772726D01*
X706612Y771953D01*
X707558Y771406D01*
X708615Y771123D01*
X709708D01*
X710764Y771406D01*
X711711Y771953D01*
X712484Y772726D01*
X713031Y773673D01*
X713314Y774729D01*
Y775822D01*
X713031Y776878D01*
X712484Y777825D01*
X711711Y778599D01*
X710764Y779145D01*
X709708Y779428D01*
D02*
G37*
G36*
X237267D02*
X236174D01*
X235118Y779145D01*
X234171Y778599D01*
X233397Y777825D01*
X232851Y776878D01*
X232568Y775822D01*
Y774729D01*
X232851Y773673D01*
X233397Y772726D01*
X234171Y771953D01*
X235118Y771406D01*
X236174Y771123D01*
X237267D01*
X238323Y771406D01*
X239270Y771953D01*
X240043Y772726D01*
X240590Y773673D01*
X240873Y774729D01*
Y775822D01*
X240590Y776878D01*
X240043Y777825D01*
X239270Y778599D01*
X238323Y779145D01*
X237267Y779428D01*
D02*
G37*
G36*
X237241Y769228D02*
X237220D01*
Y765775D01*
X240673D01*
Y765796D01*
X240404Y766801D01*
X239883Y767703D01*
X239147Y768439D01*
X238246Y768959D01*
X237241Y769228D01*
D02*
G37*
G36*
X236220D02*
X236200D01*
X235195Y768959D01*
X234293Y768439D01*
X233558Y767703D01*
X233037Y766801D01*
X232768Y765796D01*
Y765775D01*
X236220D01*
Y769228D01*
D02*
G37*
G36*
X709682D02*
X709661D01*
Y765775D01*
X713114D01*
Y765796D01*
X712845Y766801D01*
X712324Y767703D01*
X711588Y768439D01*
X710687Y768959D01*
X709682Y769228D01*
D02*
G37*
G36*
X708661D02*
X708641D01*
X707636Y768959D01*
X706734Y768439D01*
X705998Y767703D01*
X705478Y766801D01*
X705209Y765796D01*
Y765775D01*
X708661D01*
Y769228D01*
D02*
G37*
G36*
X713114Y764776D02*
X709661D01*
Y761323D01*
X709682D01*
X710687Y761592D01*
X711588Y762113D01*
X712324Y762849D01*
X712845Y763750D01*
X713114Y764755D01*
Y764776D01*
D02*
G37*
G36*
X708661D02*
X705209D01*
Y764755D01*
X705478Y763750D01*
X705998Y762849D01*
X706734Y762113D01*
X707636Y761592D01*
X708641Y761323D01*
X708661D01*
Y764776D01*
D02*
G37*
G36*
X516264D02*
X512811D01*
Y761323D01*
X512831D01*
X513837Y761592D01*
X514738Y762113D01*
X515474Y762849D01*
X515994Y763750D01*
X516264Y764755D01*
Y764776D01*
D02*
G37*
G36*
X511811D02*
X508358D01*
Y764755D01*
X508628Y763750D01*
X509148Y762849D01*
X509884Y762113D01*
X510785Y761592D01*
X511791Y761323D01*
X511811D01*
Y764776D01*
D02*
G37*
G36*
X240673Y764776D02*
X237220D01*
Y761323D01*
X237241D01*
X238246Y761592D01*
X239147Y762113D01*
X239883Y762849D01*
X240404Y763750D01*
X240673Y764755D01*
Y764776D01*
D02*
G37*
G36*
X236220D02*
X232768D01*
Y764755D01*
X233037Y763750D01*
X233558Y762849D01*
X234293Y762113D01*
X235195Y761592D01*
X236200Y761323D01*
X236220D01*
Y764776D01*
D02*
G37*
G36*
X43823Y764776D02*
X40370D01*
Y761323D01*
X40390D01*
X41396Y761592D01*
X42297Y762113D01*
X43033Y762849D01*
X43553Y763750D01*
X43823Y764755D01*
Y764776D01*
D02*
G37*
G36*
X39370D02*
X35917D01*
Y764755D01*
X36187Y763750D01*
X36707Y762849D01*
X37443Y762113D01*
X38344Y761592D01*
X39350Y761323D01*
X39370D01*
Y764776D01*
D02*
G37*
G36*
X40390Y759228D02*
X40370D01*
Y755776D01*
X43823D01*
Y755796D01*
X43553Y756801D01*
X43033Y757703D01*
X42297Y758439D01*
X41396Y758959D01*
X40390Y759228D01*
D02*
G37*
G36*
X39370D02*
X39350D01*
X38344Y758959D01*
X37443Y758439D01*
X36707Y757703D01*
X36187Y756801D01*
X35917Y755796D01*
Y755776D01*
X39370D01*
Y759228D01*
D02*
G37*
G36*
X237241D02*
X237220D01*
Y755775D01*
X240673D01*
Y755796D01*
X240404Y756801D01*
X239883Y757703D01*
X239147Y758439D01*
X238246Y758959D01*
X237241Y759228D01*
D02*
G37*
G36*
X236220D02*
X236200D01*
X235195Y758959D01*
X234293Y758439D01*
X233558Y757703D01*
X233037Y756801D01*
X232768Y755796D01*
Y755775D01*
X236220D01*
Y759228D01*
D02*
G37*
G36*
X709682D02*
X709661D01*
Y755775D01*
X713114D01*
Y755796D01*
X712845Y756801D01*
X712324Y757703D01*
X711588Y758439D01*
X710687Y758959D01*
X709682Y759228D01*
D02*
G37*
G36*
X512831D02*
X512811D01*
Y755775D01*
X516264D01*
Y755796D01*
X515994Y756801D01*
X515474Y757703D01*
X514738Y758439D01*
X513837Y758959D01*
X512831Y759228D01*
D02*
G37*
G36*
X708661D02*
X708641D01*
X707636Y758959D01*
X706734Y758439D01*
X705998Y757703D01*
X705478Y756801D01*
X705209Y755796D01*
Y755775D01*
X708661D01*
Y759228D01*
D02*
G37*
G36*
X511811D02*
X511791D01*
X510785Y758959D01*
X509884Y758439D01*
X509148Y757703D01*
X508628Y756801D01*
X508358Y755796D01*
Y755775D01*
X511811D01*
Y759228D01*
D02*
G37*
G36*
X399588Y755751D02*
Y754106D01*
X401233D01*
X400957Y754772D01*
X400254Y755475D01*
X399588Y755751D01*
D02*
G37*
G36*
X398088D02*
X397422Y755475D01*
X396718Y754772D01*
X396443Y754106D01*
X398088D01*
Y755751D01*
D02*
G37*
G36*
X713114Y754775D02*
X709661D01*
Y751323D01*
X709682D01*
X710687Y751592D01*
X711588Y752113D01*
X712324Y752848D01*
X712845Y753750D01*
X713114Y754755D01*
Y754775D01*
D02*
G37*
G36*
X708661D02*
X705209D01*
Y754755D01*
X705478Y753750D01*
X705998Y752848D01*
X706734Y752113D01*
X707636Y751592D01*
X708641Y751323D01*
X708661D01*
Y754775D01*
D02*
G37*
G36*
X516264D02*
X512811D01*
Y751323D01*
X512831D01*
X513837Y751592D01*
X514738Y752113D01*
X515474Y752848D01*
X515994Y753750D01*
X516264Y754755D01*
Y754775D01*
D02*
G37*
G36*
X511811D02*
X508358D01*
Y754755D01*
X508628Y753750D01*
X509148Y752848D01*
X509884Y752113D01*
X510785Y751592D01*
X511791Y751323D01*
X511811D01*
Y754775D01*
D02*
G37*
G36*
X240673Y754775D02*
X237220D01*
Y751323D01*
X237241D01*
X238246Y751592D01*
X239147Y752113D01*
X239883Y752848D01*
X240404Y753750D01*
X240673Y754755D01*
Y754775D01*
D02*
G37*
G36*
X236220D02*
X232768D01*
Y754755D01*
X233037Y753750D01*
X233558Y752848D01*
X234293Y752113D01*
X235195Y751592D01*
X236200Y751323D01*
X236220D01*
Y754775D01*
D02*
G37*
G36*
X43823Y754776D02*
X40370D01*
Y751323D01*
X40390D01*
X41396Y751592D01*
X42297Y752113D01*
X43033Y752848D01*
X43553Y753750D01*
X43823Y754755D01*
Y754776D01*
D02*
G37*
G36*
X39370D02*
X35917D01*
Y754755D01*
X36187Y753750D01*
X36707Y752848D01*
X37443Y752113D01*
X38344Y751592D01*
X39350Y751323D01*
X39370D01*
Y754776D01*
D02*
G37*
G36*
X401233Y752606D02*
X399588D01*
Y750961D01*
X400254Y751236D01*
X400957Y751940D01*
X401233Y752606D01*
D02*
G37*
G36*
X398088D02*
X396443D01*
X396718Y751940D01*
X397422Y751236D01*
X398088Y750961D01*
Y752606D01*
D02*
G37*
G36*
X390670Y754885D02*
X389960D01*
X389273Y754701D01*
X388657Y754346D01*
X388155Y753843D01*
X387799Y753227D01*
X387615Y752540D01*
Y751829D01*
X387799Y751143D01*
X388155Y750527D01*
X388432Y750250D01*
X388413Y749754D01*
X387938Y749390D01*
X387633Y749472D01*
X386922D01*
X386235Y749288D01*
X385620Y748932D01*
X385117Y748429D01*
X384878Y748016D01*
X384365Y747896D01*
X384271Y747916D01*
X384158Y748029D01*
X383542Y748384D01*
X382856Y748568D01*
X382144D01*
X381458Y748384D01*
X380842Y748029D01*
X380340Y747526D01*
X380303Y747463D01*
X379785Y747566D01*
X379746Y747872D01*
X379860Y747987D01*
X380216Y748602D01*
X380400Y749289D01*
Y750000D01*
X380216Y750687D01*
X379860Y751302D01*
X379358Y751805D01*
X378742Y752161D01*
X378056Y752345D01*
X377344D01*
X376658Y752161D01*
X376042Y751805D01*
X375539Y751302D01*
X375184Y750687D01*
X375000Y750000D01*
Y749289D01*
X375184Y748602D01*
X375539Y747987D01*
X375712Y747814D01*
Y742979D01*
X375212Y742913D01*
X375075Y743423D01*
X374720Y744039D01*
X374217Y744542D01*
X373601Y744897D01*
X372915Y745081D01*
X372204D01*
X371517Y744897D01*
X370901Y744542D01*
X370817Y744458D01*
X370318Y744665D01*
Y748354D01*
X370550Y748587D01*
X370905Y749203D01*
X371090Y749889D01*
Y750600D01*
X370905Y751287D01*
X370550Y751903D01*
X370047Y752405D01*
X369432Y752761D01*
X368745Y752945D01*
X368034D01*
X367347Y752761D01*
X366732Y752405D01*
X366229Y751903D01*
X365874Y751287D01*
X365689Y750600D01*
Y749889D01*
X365874Y749203D01*
X366229Y748587D01*
X365916Y748194D01*
X365841Y748145D01*
X365587Y748213D01*
X364876D01*
X364190Y748029D01*
X363574Y747674D01*
X363071Y747171D01*
X362905Y746882D01*
X362327D01*
X362160Y747171D01*
X361658Y747674D01*
X361042Y748029D01*
X360355Y748213D01*
X359645D01*
X358958Y748029D01*
X358342Y747674D01*
X357839Y747171D01*
X357542Y746656D01*
X357167Y746583D01*
X356978Y746600D01*
X356520Y747058D01*
X355905Y747413D01*
X355218Y747597D01*
X354507D01*
X353820Y747413D01*
X353205Y747058D01*
X352702Y746555D01*
X352346Y745939D01*
X352163Y745253D01*
Y744542D01*
X352346Y743855D01*
X352702Y743239D01*
X352786Y743156D01*
Y663147D01*
X352135Y662772D01*
X351362Y661999D01*
X350815Y661052D01*
X350532Y659996D01*
Y658902D01*
X350815Y657846D01*
X351362Y656899D01*
X352135Y656126D01*
X353082Y655579D01*
X354138Y655296D01*
X355232D01*
X356288Y655579D01*
X357235Y656126D01*
X358008Y656899D01*
X358555Y657846D01*
X358838Y658902D01*
Y659996D01*
X358555Y661052D01*
X358008Y661999D01*
X357235Y662772D01*
X356762Y663045D01*
Y742978D01*
X357023Y743239D01*
X357188Y743526D01*
X357773Y743651D01*
X358012Y743483D01*
Y664134D01*
X358163Y663373D01*
X358594Y662728D01*
X360700Y660622D01*
X360532Y659996D01*
Y658902D01*
X360815Y657846D01*
X361362Y656899D01*
X362135Y656126D01*
X363082Y655579D01*
X364138Y655296D01*
X365232D01*
X366288Y655579D01*
X366754Y655848D01*
X367187Y655598D01*
X367187Y235200D01*
X367144D01*
X366458Y235016D01*
X365842Y234661D01*
X365339Y234158D01*
X364984Y233542D01*
X364800Y232856D01*
Y232144D01*
X364984Y231458D01*
X365339Y230842D01*
X365842Y230340D01*
X366458Y229984D01*
X367144Y229800D01*
X367856D01*
X368542Y229984D01*
X369158Y230340D01*
X369660Y230842D01*
X370016Y231458D01*
X370200Y232144D01*
Y232388D01*
X370581Y232769D01*
X371012Y233414D01*
X371163Y234175D01*
X371163Y656390D01*
X371663Y656598D01*
X372135Y656126D01*
X373012Y655620D01*
Y644330D01*
X372839Y644158D01*
X372484Y643542D01*
X372300Y642856D01*
Y642144D01*
X372484Y641458D01*
X372839Y640842D01*
X373342Y640340D01*
X373958Y639984D01*
X374644Y639800D01*
X375356D01*
X376042Y639984D01*
X376658Y640340D01*
X377161Y640842D01*
X377516Y641458D01*
X377700Y642144D01*
Y642856D01*
X377516Y643542D01*
X377161Y644158D01*
X376988Y644330D01*
Y655983D01*
X377235Y656126D01*
X378008Y656899D01*
X378555Y657846D01*
X378838Y658902D01*
Y659996D01*
X378555Y661052D01*
X378008Y661999D01*
X377235Y662772D01*
X376288Y663319D01*
X375232Y663602D01*
X374138D01*
X373082Y663319D01*
X372135Y662772D01*
X371663Y662300D01*
X371163Y662507D01*
Y667500D01*
X371012Y668261D01*
X370581Y668906D01*
X370008Y669289D01*
X367220Y672077D01*
Y725006D01*
X367720Y725389D01*
X367914Y725337D01*
X368625D01*
X369311Y725521D01*
X369927Y725877D01*
X370071Y726021D01*
X370571Y725814D01*
Y724031D01*
X370357Y723712D01*
X370206Y722951D01*
Y694093D01*
X369888Y693542D01*
X369704Y692856D01*
Y692144D01*
X369888Y691458D01*
X370244Y690842D01*
X370746Y690340D01*
X371362Y689984D01*
X372049Y689800D01*
X372760D01*
X373446Y689984D01*
X374062Y690340D01*
X374565Y690842D01*
X374920Y691458D01*
X375104Y692144D01*
Y692856D01*
X374920Y693542D01*
X374565Y694158D01*
X374183Y694540D01*
Y709468D01*
X374683Y709852D01*
X374876Y709800D01*
X375587D01*
X376274Y709984D01*
X376890Y710339D01*
X377392Y710842D01*
X377748Y711458D01*
X377932Y712145D01*
Y712388D01*
X379106Y713562D01*
X379537Y714207D01*
X379688Y714968D01*
Y744339D01*
X380188Y744473D01*
X380340Y744211D01*
X380512Y744038D01*
Y694544D01*
X380663Y693783D01*
X381094Y693138D01*
X381438Y692794D01*
Y692144D01*
X381622Y691458D01*
X381978Y690842D01*
X382481Y690340D01*
X383096Y689984D01*
X383783Y689800D01*
X384494D01*
X385180Y689984D01*
X385796Y690340D01*
X386299Y690842D01*
X386654Y691458D01*
X386838Y692144D01*
Y692856D01*
X386654Y693542D01*
X386299Y694158D01*
X385796Y694661D01*
X385180Y695016D01*
X384715Y695141D01*
X384488Y695368D01*
Y723876D01*
X384984Y723958D01*
X385339Y723342D01*
X385842Y722839D01*
X386458Y722484D01*
X387144Y722300D01*
X387856D01*
X388542Y722484D01*
X389158Y722839D01*
X389661Y723342D01*
X390016Y723958D01*
X390200Y724645D01*
Y725355D01*
X390016Y726042D01*
X389661Y726658D01*
X389377Y726941D01*
Y734498D01*
X389877Y734882D01*
X390182Y734800D01*
X390893D01*
X391580Y734984D01*
X392195Y735339D01*
X392698Y735842D01*
X393053Y736458D01*
X393237Y737145D01*
Y737855D01*
X393053Y738542D01*
X392698Y739158D01*
X392414Y739441D01*
Y750466D01*
X392476Y750527D01*
X392831Y751143D01*
X393015Y751829D01*
Y752540D01*
X392831Y753227D01*
X392476Y753843D01*
X391973Y754346D01*
X391357Y754701D01*
X390670Y754885D01*
D02*
G37*
G36*
X262856Y810200D02*
X262144D01*
X261458Y810016D01*
X260842Y809661D01*
X260339Y809158D01*
X259984Y808542D01*
X259800Y807856D01*
Y807145D01*
X259984Y806458D01*
X260339Y805842D01*
X260512Y805670D01*
Y746830D01*
X260339Y746658D01*
X259984Y746042D01*
X259800Y745356D01*
Y744644D01*
X259984Y743958D01*
X260339Y743342D01*
X260842Y742839D01*
X261458Y742484D01*
X262144Y742300D01*
X262856D01*
X263542Y742484D01*
X264158Y742839D01*
X264661Y743342D01*
X265016Y743958D01*
X265200Y744644D01*
Y745356D01*
X265016Y746042D01*
X264661Y746658D01*
X264488Y746830D01*
Y805670D01*
X264661Y805842D01*
X265016Y806458D01*
X265200Y807145D01*
Y807856D01*
X265016Y808542D01*
X264661Y809158D01*
X264158Y809661D01*
X263542Y810016D01*
X262856Y810200D01*
D02*
G37*
G36*
X470356Y785200D02*
X469644D01*
X468958Y785016D01*
X468342Y784660D01*
X467839Y784158D01*
X467484Y783542D01*
X467300Y782856D01*
Y782144D01*
X467484Y781458D01*
X467839Y780842D01*
X468342Y780339D01*
X468958Y779984D01*
X469423Y779859D01*
X469670Y779613D01*
Y739686D01*
X469497Y739513D01*
X469142Y738898D01*
X468958Y738211D01*
Y737500D01*
X469142Y736813D01*
X469497Y736198D01*
X470000Y735695D01*
X470616Y735339D01*
X471302Y735155D01*
X472013D01*
X472700Y735339D01*
X473316Y735695D01*
X473818Y736198D01*
X474174Y736813D01*
X474358Y737500D01*
Y738211D01*
X474174Y738898D01*
X473818Y739513D01*
X473646Y739686D01*
Y780436D01*
X473495Y781197D01*
X473064Y781842D01*
X472700Y782206D01*
Y782856D01*
X472516Y783542D01*
X472160Y784158D01*
X471658Y784660D01*
X471042Y785016D01*
X470356Y785200D01*
D02*
G37*
G36*
X348072Y749255D02*
X347361D01*
X346674Y749071D01*
X346059Y748716D01*
X345556Y748213D01*
X345201Y747597D01*
X345017Y746911D01*
Y746200D01*
X345201Y745513D01*
X345556Y744897D01*
X345948Y744506D01*
Y733496D01*
X345448Y733361D01*
X345436Y733383D01*
X344933Y733885D01*
X344317Y734241D01*
X343631Y734425D01*
X342919D01*
X342233Y734241D01*
X341617Y733885D01*
X341114Y733383D01*
X340759Y732767D01*
X340575Y732081D01*
Y731369D01*
X340759Y730683D01*
X341114Y730067D01*
X341287Y729895D01*
Y638717D01*
X341114Y638544D01*
X340759Y637929D01*
X340575Y637242D01*
Y636531D01*
X340759Y635844D01*
X341114Y635229D01*
X341287Y635056D01*
Y608090D01*
X341114Y607918D01*
X340759Y607302D01*
X340575Y606615D01*
Y605904D01*
X340759Y605218D01*
X341114Y604602D01*
X341617Y604099D01*
X342233Y603744D01*
X342919Y603560D01*
X343631D01*
X344317Y603744D01*
X344933Y604099D01*
X345436Y604602D01*
X345448Y604623D01*
X345948Y604489D01*
Y251830D01*
X345776Y251658D01*
X345420Y251042D01*
X345236Y250356D01*
Y249644D01*
X345420Y248958D01*
X345776Y248342D01*
X346278Y247839D01*
X346894Y247484D01*
X347581Y247300D01*
X348291D01*
X348978Y247484D01*
X349594Y247839D01*
X350097Y248342D01*
X350452Y248958D01*
X350636Y249644D01*
Y250356D01*
X350452Y251042D01*
X350097Y251658D01*
X349924Y251830D01*
Y744979D01*
X350233Y745513D01*
X350417Y746200D01*
Y746911D01*
X350233Y747597D01*
X349877Y748213D01*
X349374Y748716D01*
X348759Y749071D01*
X348072Y749255D01*
D02*
G37*
G36*
X265455Y662391D02*
Y660745D01*
X267100D01*
X266824Y661412D01*
X266121Y662115D01*
X265455Y662391D01*
D02*
G37*
G36*
X263955D02*
X263288Y662115D01*
X262585Y661412D01*
X262309Y660745D01*
X263955D01*
Y662391D01*
D02*
G37*
G36*
X385205Y663402D02*
X385185D01*
Y659949D01*
X388638D01*
Y659969D01*
X388368Y660975D01*
X387848Y661876D01*
X387112Y662612D01*
X386211Y663132D01*
X385205Y663402D01*
D02*
G37*
G36*
X384185D02*
X384165D01*
X383159Y663132D01*
X382258Y662612D01*
X381522Y661876D01*
X381002Y660975D01*
X380732Y659969D01*
Y659949D01*
X384185D01*
Y663402D01*
D02*
G37*
G36*
X267100Y659245D02*
X265455D01*
Y657600D01*
X266121Y657876D01*
X266824Y658579D01*
X267100Y659245D01*
D02*
G37*
G36*
X263955D02*
X262309D01*
X262585Y658579D01*
X263288Y657876D01*
X263955Y657600D01*
Y659245D01*
D02*
G37*
G36*
X388638Y658949D02*
X385185D01*
Y655496D01*
X385205D01*
X386211Y655765D01*
X387112Y656286D01*
X387848Y657022D01*
X388368Y657923D01*
X388638Y658928D01*
Y658949D01*
D02*
G37*
G36*
X384185D02*
X380732D01*
Y658928D01*
X381002Y657923D01*
X381522Y657022D01*
X382258Y656286D01*
X383159Y655765D01*
X384165Y655496D01*
X384185D01*
Y658949D01*
D02*
G37*
G36*
X490750Y655116D02*
Y653471D01*
X492395D01*
X492119Y654137D01*
X491416Y654840D01*
X490750Y655116D01*
D02*
G37*
G36*
X489250D02*
X488584Y654840D01*
X487881Y654137D01*
X487605Y653471D01*
X489250D01*
Y655116D01*
D02*
G37*
G36*
X463860Y653458D02*
Y651813D01*
X465506D01*
X465230Y652479D01*
X464526Y653182D01*
X463860Y653458D01*
D02*
G37*
G36*
X462360D02*
X461694Y653182D01*
X460991Y652479D01*
X460715Y651813D01*
X462360D01*
Y653458D01*
D02*
G37*
G36*
X492395Y651971D02*
X490750D01*
Y650325D01*
X491416Y650601D01*
X492119Y651305D01*
X492395Y651971D01*
D02*
G37*
G36*
X489250D02*
X487605D01*
X487881Y651305D01*
X488584Y650601D01*
X489250Y650325D01*
Y651971D01*
D02*
G37*
G36*
X465506Y650313D02*
X463860D01*
Y648668D01*
X464526Y648944D01*
X465230Y649647D01*
X465506Y650313D01*
D02*
G37*
G36*
X462360D02*
X460715D01*
X460991Y649647D01*
X461694Y648944D01*
X462360Y648668D01*
Y650313D01*
D02*
G37*
G36*
X285355Y807006D02*
X284645D01*
X283958Y806822D01*
X283342Y806466D01*
X282839Y805964D01*
X282484Y805348D01*
X282300Y804661D01*
Y803950D01*
X282484Y803263D01*
X282839Y802648D01*
X282974Y802513D01*
Y643603D01*
X282474Y643396D01*
X282319Y643551D01*
X281703Y643906D01*
X281017Y644090D01*
X280306D01*
X279619Y643906D01*
X279004Y643551D01*
X278501Y643048D01*
X278145Y642432D01*
X277961Y641746D01*
Y641035D01*
X278072Y640623D01*
X278012Y640323D01*
Y639918D01*
X277512Y639535D01*
X277318Y639587D01*
X276607D01*
X275920Y639403D01*
X275305Y639047D01*
X274988Y638731D01*
X274488Y638938D01*
Y798170D01*
X274660Y798342D01*
X275016Y798958D01*
X275200Y799645D01*
Y800356D01*
X275016Y801042D01*
X274660Y801658D01*
X274158Y802160D01*
X273542Y802516D01*
X272855Y802700D01*
X272145D01*
X271458Y802516D01*
X270842Y802160D01*
X270339Y801658D01*
X269984Y801042D01*
X269800Y800356D01*
Y799645D01*
X269984Y798958D01*
X270339Y798342D01*
X270512Y798170D01*
Y187500D01*
X270663Y186739D01*
X271094Y186094D01*
X282300Y174888D01*
Y174644D01*
X282484Y173958D01*
X282839Y173342D01*
X283342Y172839D01*
X283958Y172484D01*
X284645Y172300D01*
X285355D01*
X286042Y172484D01*
X286658Y172839D01*
X287160Y173342D01*
X287516Y173958D01*
X287700Y174644D01*
Y175356D01*
X287516Y176042D01*
X287160Y176658D01*
X286658Y177161D01*
X286042Y177516D01*
X285355Y177700D01*
X285112D01*
X274488Y188323D01*
Y619711D01*
X274988Y619918D01*
X275236Y619670D01*
X275852Y619314D01*
X276539Y619130D01*
X277250D01*
X277512Y619200D01*
X278012Y618817D01*
Y599330D01*
X277839Y599158D01*
X277484Y598542D01*
X277300Y597856D01*
Y597145D01*
X277484Y596458D01*
X277839Y595842D01*
X278342Y595339D01*
X278958Y594984D01*
X279644Y594800D01*
X280356D01*
X281042Y594984D01*
X281658Y595339D01*
X282160Y595842D01*
X282234Y595969D01*
X282879Y596087D01*
X282974Y596009D01*
Y195037D01*
X283126Y194276D01*
X283557Y193631D01*
X289800Y187388D01*
Y187144D01*
X289984Y186458D01*
X290339Y185842D01*
X290842Y185339D01*
X291458Y184984D01*
X292144Y184800D01*
X292856D01*
X293542Y184984D01*
X294158Y185339D01*
X294660Y185842D01*
X295016Y186458D01*
X295200Y187144D01*
Y187856D01*
X295016Y188542D01*
X294660Y189158D01*
X294158Y189661D01*
X293542Y190016D01*
X292856Y190200D01*
X292612D01*
X286951Y195861D01*
Y603539D01*
X287250Y603738D01*
Y606260D01*
X288750D01*
Y603738D01*
X289049Y603539D01*
Y208963D01*
X289200Y208202D01*
X289632Y207557D01*
X297300Y199888D01*
Y199644D01*
X297484Y198958D01*
X297839Y198342D01*
X298342Y197839D01*
X298958Y197484D01*
X299644Y197300D01*
X300356D01*
X301042Y197484D01*
X301658Y197839D01*
X302161Y198342D01*
X302516Y198958D01*
X302700Y199644D01*
Y200356D01*
X302516Y201042D01*
X302161Y201658D01*
X301658Y202161D01*
X301042Y202516D01*
X300356Y202700D01*
X300112D01*
X293026Y209786D01*
Y218042D01*
X293526Y218249D01*
X304387Y207388D01*
Y207144D01*
X304571Y206458D01*
X304926Y205842D01*
X305429Y205340D01*
X306045Y204984D01*
X306731Y204800D01*
X307442D01*
X308129Y204984D01*
X308745Y205340D01*
X309247Y205842D01*
X309603Y206458D01*
X309787Y207144D01*
Y207856D01*
X309603Y208542D01*
X309247Y209158D01*
X308745Y209661D01*
X308129Y210016D01*
X307442Y210200D01*
X307198D01*
X296633Y220766D01*
Y791209D01*
X296805Y791381D01*
X297161Y791997D01*
X297344Y792683D01*
Y793394D01*
X297161Y794081D01*
X296805Y794697D01*
X296302Y795199D01*
X295687Y795555D01*
X295000Y795739D01*
X294289D01*
X293813Y795611D01*
X293483Y796040D01*
X293558Y796171D01*
X293742Y796857D01*
Y797568D01*
X293558Y798255D01*
X293203Y798871D01*
X292700Y799373D01*
X292084Y799729D01*
X291398Y799913D01*
X290687D01*
X290000Y799729D01*
X289384Y799373D01*
X288882Y798871D01*
X288526Y798255D01*
X288342Y797568D01*
Y796857D01*
X288526Y796171D01*
X288882Y795555D01*
X289054Y795382D01*
Y753645D01*
X288594Y753185D01*
X288163Y752540D01*
X288012Y751779D01*
Y707793D01*
X288163Y707032D01*
X288594Y706387D01*
X289049Y705932D01*
Y636631D01*
X288750Y636431D01*
Y633910D01*
X287250D01*
Y636431D01*
X286951Y636631D01*
Y802438D01*
X287160Y802648D01*
X287516Y803263D01*
X287700Y803950D01*
Y804661D01*
X287516Y805348D01*
X287160Y805964D01*
X286658Y806466D01*
X286042Y806822D01*
X285355Y807006D01*
D02*
G37*
G36*
X332856Y777700D02*
X332144D01*
X331458Y777516D01*
X330842Y777161D01*
X330340Y776658D01*
X329984Y776042D01*
X329800Y775355D01*
Y774645D01*
X329984Y773958D01*
X330340Y773342D01*
X330842Y772839D01*
X331458Y772484D01*
X332144Y772300D01*
X332388D01*
X333012Y771676D01*
Y643385D01*
X332516Y643303D01*
X332160Y643919D01*
X331658Y644422D01*
X331042Y644777D01*
X330356Y644961D01*
X329644D01*
X328958Y644777D01*
X328342Y644422D01*
X327839Y643919D01*
X327484Y643303D01*
X326988Y643385D01*
Y766737D01*
X327161Y766910D01*
X327516Y767525D01*
X327700Y768212D01*
Y768923D01*
X327516Y769609D01*
X327161Y770225D01*
X326658Y770728D01*
X326042Y771083D01*
X325356Y771267D01*
X324644D01*
X323958Y771083D01*
X323342Y770728D01*
X322839Y770225D01*
X322484Y769609D01*
X322300Y768923D01*
Y768212D01*
X322484Y767525D01*
X322839Y766910D01*
X323012Y766737D01*
Y239330D01*
X322839Y239158D01*
X322484Y238542D01*
X322300Y237856D01*
Y237144D01*
X322484Y236458D01*
X322839Y235842D01*
X323342Y235339D01*
X323958Y234984D01*
X324644Y234800D01*
X325356D01*
X326042Y234984D01*
X326658Y235339D01*
X327161Y235842D01*
X327516Y236458D01*
X327700Y237144D01*
Y237856D01*
X327516Y238542D01*
X327161Y239158D01*
X326988Y239330D01*
Y623876D01*
X327484Y623958D01*
X327839Y623342D01*
X328342Y622839D01*
X328958Y622484D01*
X329644Y622300D01*
X330356D01*
X331042Y622484D01*
X331658Y622839D01*
X332160Y623342D01*
X332516Y623958D01*
X333012Y623876D01*
Y299682D01*
X332388Y299058D01*
X332144D01*
X331458Y298874D01*
X330842Y298519D01*
X330340Y298016D01*
X329984Y297400D01*
X329800Y296714D01*
Y296003D01*
X329984Y295316D01*
X330340Y294700D01*
X330842Y294198D01*
X331458Y293842D01*
X332144Y293658D01*
X332856D01*
X333542Y293842D01*
X334158Y294198D01*
X334661Y294700D01*
X335016Y295316D01*
X335169Y295886D01*
X335280Y295969D01*
X335755Y295734D01*
X335781Y295700D01*
Y227099D01*
X335339Y226658D01*
X334984Y226042D01*
X334800Y225356D01*
Y224644D01*
X334984Y223958D01*
X335339Y223342D01*
X335842Y222839D01*
X336458Y222484D01*
X337144Y222300D01*
X337856D01*
X338542Y222484D01*
X339158Y222839D01*
X339661Y223342D01*
X340016Y223958D01*
X340200Y224644D01*
Y225356D01*
X340016Y226042D01*
X339757Y226491D01*
Y747785D01*
X340198Y748226D01*
X340553Y748842D01*
X340737Y749529D01*
Y750240D01*
X340553Y750926D01*
X340198Y751542D01*
X339695Y752045D01*
X339080Y752400D01*
X338393Y752584D01*
X337682D01*
X337488Y752532D01*
X336988Y752916D01*
Y772500D01*
X336837Y773261D01*
X336406Y773906D01*
X335200Y775112D01*
Y775355D01*
X335016Y776042D01*
X334661Y776658D01*
X334158Y777161D01*
X333542Y777516D01*
X332856Y777700D01*
D02*
G37*
G36*
X435647Y641018D02*
Y639373D01*
X437292D01*
X437016Y640039D01*
X436313Y640743D01*
X435647Y641018D01*
D02*
G37*
G36*
X398838Y663602D02*
X390532D01*
Y655296D01*
X392697D01*
Y641411D01*
X392484Y641042D01*
X392300Y640355D01*
Y639644D01*
X392484Y638958D01*
X392840Y638342D01*
X393342Y637840D01*
X393958Y637484D01*
X394644Y637300D01*
X395356D01*
X396042Y637484D01*
X396658Y637840D01*
X397161Y638342D01*
X397516Y638958D01*
X397700Y639644D01*
Y640355D01*
X397516Y641042D01*
X397161Y641658D01*
X396673Y642145D01*
Y655296D01*
X398838D01*
Y663602D01*
D02*
G37*
G36*
X437292Y637873D02*
X435647D01*
Y636228D01*
X436313Y636504D01*
X437016Y637207D01*
X437292Y637873D01*
D02*
G37*
G36*
X478558Y637751D02*
X474227D01*
X473349Y637635D01*
X472530Y637296D01*
X471827Y636757D01*
X471288Y636054D01*
X470949Y635235D01*
X470833Y634357D01*
X470949Y633478D01*
X471288Y632659D01*
X471827Y631956D01*
X471778Y631364D01*
X471462Y630953D01*
X471143Y630183D01*
X471101Y629857D01*
X481685D01*
X481642Y630183D01*
X481323Y630953D01*
X481007Y631364D01*
X480958Y631956D01*
X481498Y632659D01*
X481837Y633478D01*
X481952Y634357D01*
X481837Y635235D01*
X481498Y636054D01*
X480958Y636757D01*
X480255Y637296D01*
X479436Y637635D01*
X478558Y637751D01*
D02*
G37*
G36*
X355041Y650200D02*
X354330D01*
X353643Y650016D01*
X353027Y649660D01*
X352524Y649158D01*
X352169Y648542D01*
X351985Y647856D01*
Y647145D01*
X352169Y646458D01*
X352524Y645842D01*
X352697Y645670D01*
Y631630D01*
X352524Y631458D01*
X352169Y630842D01*
X351985Y630156D01*
Y629445D01*
X352169Y628758D01*
X352524Y628142D01*
X353027Y627639D01*
X353643Y627284D01*
X354330Y627100D01*
X355041D01*
X355727Y627284D01*
X356343Y627639D01*
X356846Y628142D01*
X357201Y628758D01*
X357385Y629445D01*
Y630156D01*
X357201Y630842D01*
X356846Y631458D01*
X356673Y631630D01*
Y645670D01*
X356846Y645842D01*
X357201Y646458D01*
X357385Y647145D01*
Y647856D01*
X357201Y648542D01*
X356846Y649158D01*
X356343Y649660D01*
X355727Y650016D01*
X355041Y650200D01*
D02*
G37*
G36*
X481685Y628857D02*
X471101D01*
X471143Y628530D01*
X471462Y627760D01*
X471778Y627349D01*
X471827Y626757D01*
X471288Y626054D01*
X470949Y625235D01*
X470833Y624357D01*
X470949Y623478D01*
X471288Y622659D01*
X471827Y621956D01*
X472530Y621417D01*
X473349Y621078D01*
X474227Y620962D01*
X478558D01*
X479436Y621078D01*
X480255Y621417D01*
X480958Y621956D01*
X481498Y622659D01*
X481837Y623478D01*
X481952Y624357D01*
X481837Y625235D01*
X481498Y626054D01*
X480958Y626757D01*
X481007Y627349D01*
X481323Y627760D01*
X481642Y628530D01*
X481685Y628857D01*
D02*
G37*
G36*
X466058Y622395D02*
Y620750D01*
X467703D01*
X467427Y621416D01*
X466724Y622119D01*
X466058Y622395D01*
D02*
G37*
G36*
X464558D02*
X463892Y622119D01*
X463188Y621416D01*
X462912Y620750D01*
X464558D01*
Y622395D01*
D02*
G37*
G36*
X467703Y619250D02*
X466058D01*
Y617605D01*
X466724Y617881D01*
X467427Y618584D01*
X467703Y619250D01*
D02*
G37*
G36*
X464558D02*
X462912D01*
X463188Y618584D01*
X463892Y617881D01*
X464558Y617605D01*
Y619250D01*
D02*
G37*
G36*
X265355Y622700D02*
X264645D01*
X263958Y622516D01*
X263342Y622160D01*
X262840Y621658D01*
X262484Y621042D01*
X262300Y620356D01*
Y619644D01*
X262484Y618958D01*
X262840Y618342D01*
X263012Y618170D01*
Y611830D01*
X262840Y611658D01*
X262484Y611042D01*
X262300Y610356D01*
Y609645D01*
X262484Y608958D01*
X262840Y608342D01*
X263342Y607839D01*
X263958Y607484D01*
X264645Y607300D01*
X265355D01*
X266042Y607484D01*
X266658Y607839D01*
X267161Y608342D01*
X267516Y608958D01*
X267700Y609645D01*
Y610356D01*
X267516Y611042D01*
X267161Y611658D01*
X266988Y611830D01*
Y618170D01*
X267161Y618342D01*
X267516Y618958D01*
X267700Y619644D01*
Y620356D01*
X267516Y621042D01*
X267161Y621658D01*
X266658Y622160D01*
X266042Y622516D01*
X265355Y622700D01*
D02*
G37*
G36*
X494102Y578340D02*
Y576695D01*
X495748D01*
X495472Y577361D01*
X494768Y578064D01*
X494102Y578340D01*
D02*
G37*
G36*
X492602D02*
X491936Y578064D01*
X491233Y577361D01*
X490957Y576695D01*
X492602D01*
Y578340D01*
D02*
G37*
G36*
X495748Y575195D02*
X494102D01*
Y573550D01*
X494768Y573826D01*
X495472Y574529D01*
X495748Y575195D01*
D02*
G37*
G36*
X492602D02*
X490957D01*
X491233Y574529D01*
X491936Y573826D01*
X492602Y573550D01*
Y575195D01*
D02*
G37*
G36*
X406750Y567769D02*
X406084Y567493D01*
X405381Y566790D01*
X405105Y566124D01*
X406750D01*
Y567769D01*
D02*
G37*
G36*
X383059Y567769D02*
Y566124D01*
X384704D01*
X384429Y566790D01*
X383725Y567493D01*
X383059Y567769D01*
D02*
G37*
G36*
X381559D02*
X380893Y567493D01*
X380190Y566790D01*
X379914Y566124D01*
X381559D01*
Y567769D01*
D02*
G37*
G36*
X406750Y564624D02*
X405105D01*
X405381Y563958D01*
X406084Y563255D01*
X406750Y562979D01*
Y564624D01*
D02*
G37*
G36*
X384704Y564624D02*
X383059D01*
Y562979D01*
X383725Y563255D01*
X384429Y563958D01*
X384704Y564624D01*
D02*
G37*
G36*
X381559D02*
X379914D01*
X380190Y563958D01*
X380893Y563255D01*
X381559Y562979D01*
Y564624D01*
D02*
G37*
G36*
X358298Y550500D02*
X356652D01*
X356928Y549834D01*
X357631Y549131D01*
X358298Y548855D01*
Y550500D01*
D02*
G37*
G36*
X466806Y550416D02*
Y548771D01*
X468451D01*
X468176Y549437D01*
X467472Y550140D01*
X466806Y550416D01*
D02*
G37*
G36*
X465306D02*
X464640Y550140D01*
X463937Y549437D01*
X463661Y548771D01*
X465306D01*
Y550416D01*
D02*
G37*
G36*
X468451Y547271D02*
X466806D01*
Y545625D01*
X467472Y545901D01*
X468176Y546604D01*
X468451Y547271D01*
D02*
G37*
G36*
X465306D02*
X463661D01*
X463937Y546604D01*
X464640Y545901D01*
X465306Y545625D01*
Y547271D01*
D02*
G37*
G36*
X390355Y554500D02*
X389645D01*
X388958Y554316D01*
X388342Y553961D01*
X387840Y553458D01*
X387484Y552842D01*
X387300Y552155D01*
Y551444D01*
X387484Y550758D01*
X387840Y550142D01*
X388012Y549970D01*
Y541830D01*
X387840Y541658D01*
X387484Y541042D01*
X387300Y540355D01*
Y539644D01*
X387484Y538958D01*
X387840Y538342D01*
X388342Y537840D01*
X388958Y537484D01*
X389645Y537300D01*
X390355D01*
X391042Y537484D01*
X391658Y537840D01*
X392161Y538342D01*
X392516Y538958D01*
X392700Y539644D01*
Y540355D01*
X392516Y541042D01*
X392161Y541658D01*
X391988Y541830D01*
Y549970D01*
X392161Y550142D01*
X392516Y550758D01*
X392700Y551444D01*
Y552155D01*
X392516Y552842D01*
X392161Y553458D01*
X391658Y553961D01*
X391042Y554316D01*
X390355Y554500D01*
D02*
G37*
G36*
X467510Y537395D02*
Y535750D01*
X469155D01*
X468880Y536416D01*
X468176Y537119D01*
X467510Y537395D01*
D02*
G37*
G36*
X466010D02*
X465344Y537119D01*
X464641Y536416D01*
X464365Y535750D01*
X466010D01*
Y537395D01*
D02*
G37*
G36*
X469155Y534250D02*
X467510D01*
Y532605D01*
X468176Y532881D01*
X468880Y533584D01*
X469155Y534250D01*
D02*
G37*
G36*
X466010D02*
X464365D01*
X464641Y533584D01*
X465344Y532881D01*
X466010Y532605D01*
Y534250D01*
D02*
G37*
G36*
X360355Y622700D02*
X359645D01*
X358958Y622516D01*
X358342Y622160D01*
X357839Y621658D01*
X357484Y621042D01*
X357300Y620356D01*
Y619644D01*
X357484Y618958D01*
X357839Y618342D01*
X358012Y618170D01*
Y561830D01*
X357839Y561658D01*
X357484Y561042D01*
X357300Y560356D01*
Y559645D01*
X357484Y558958D01*
X357839Y558342D01*
X358012Y558170D01*
Y555835D01*
X358163Y555075D01*
X358594Y554430D01*
X358812Y554212D01*
X358621Y553750D01*
X358550D01*
X357631Y553369D01*
X356928Y552666D01*
X356652Y552000D01*
X359048D01*
Y551250D01*
X359798D01*
Y548729D01*
X360097Y548529D01*
Y529681D01*
X359513Y529097D01*
X359048Y528973D01*
X358432Y528617D01*
X357929Y528115D01*
X357574Y527499D01*
X357390Y526812D01*
Y526101D01*
X357574Y525415D01*
X357929Y524799D01*
X358432Y524296D01*
X359048Y523941D01*
X359734Y523757D01*
X360445D01*
X361132Y523941D01*
X361748Y524296D01*
X362250Y524799D01*
X362606Y525415D01*
X362790Y526101D01*
Y526751D01*
X363491Y527452D01*
X363922Y528097D01*
X364073Y528858D01*
Y553750D01*
X363922Y554511D01*
X363491Y555156D01*
X361988Y556659D01*
Y558170D01*
X362160Y558342D01*
X362516Y558958D01*
X362700Y559645D01*
Y560356D01*
X362516Y561042D01*
X362160Y561658D01*
X361988Y561830D01*
Y618170D01*
X362160Y618342D01*
X362516Y618958D01*
X362700Y619644D01*
Y620356D01*
X362516Y621042D01*
X362160Y621658D01*
X361658Y622160D01*
X361042Y622516D01*
X360355Y622700D01*
D02*
G37*
G36*
X221066Y746989D02*
X220355D01*
X219668Y746805D01*
X219053Y746450D01*
X218550Y745947D01*
X218195Y745331D01*
X218011Y744645D01*
Y743934D01*
X218195Y743247D01*
X218550Y742631D01*
X218722Y742459D01*
Y523036D01*
X218289Y522786D01*
X217823Y523055D01*
X216767Y523338D01*
X215674D01*
X214617Y523055D01*
X213671Y522508D01*
X213199Y522036D01*
X212699Y522243D01*
Y672459D01*
X212871Y672632D01*
X213227Y673247D01*
X213411Y673934D01*
Y674645D01*
X213227Y675331D01*
X212871Y675947D01*
X212368Y676450D01*
X211753Y676805D01*
X211066Y676989D01*
X210355D01*
X209668Y676805D01*
X209053Y676450D01*
X208550Y675947D01*
X208195Y675331D01*
X208011Y674645D01*
Y673934D01*
X208195Y673247D01*
X208550Y672632D01*
X208722Y672459D01*
Y523036D01*
X208289Y522786D01*
X207823Y523055D01*
X206767Y523338D01*
X205674D01*
X204618Y523055D01*
X203671Y522508D01*
X202897Y521735D01*
X202351Y520788D01*
X202068Y519732D01*
Y518638D01*
X202351Y517582D01*
X202897Y516635D01*
X203671Y515862D01*
X204618Y515315D01*
X205674Y515032D01*
X206767D01*
X207823Y515315D01*
X208289Y515584D01*
X208722Y515334D01*
Y313150D01*
X204815Y309242D01*
X204384Y308597D01*
X204232Y307836D01*
Y101573D01*
X203671Y101248D01*
X202898Y100475D01*
X202351Y99528D01*
X202068Y98472D01*
Y97378D01*
X202351Y96322D01*
X202898Y95375D01*
X203671Y94602D01*
X204618Y94055D01*
X205674Y93773D01*
X206767D01*
X207823Y94055D01*
X208770Y94602D01*
X209543Y95375D01*
X210090Y96322D01*
X210373Y97378D01*
Y98472D01*
X210090Y99528D01*
X209543Y100475D01*
X208770Y101248D01*
X208209Y101573D01*
Y307013D01*
X212117Y310920D01*
X212547Y311565D01*
X212699Y312326D01*
Y516127D01*
X213199Y516334D01*
X213671Y515862D01*
X214617Y515315D01*
X215674Y515032D01*
X216767D01*
X217823Y515315D01*
X218289Y515584D01*
X218722Y515334D01*
Y313150D01*
X214815Y309242D01*
X214384Y308597D01*
X214232Y307836D01*
Y101573D01*
X213671Y101248D01*
X212897Y100475D01*
X212351Y99528D01*
X212068Y98472D01*
Y97378D01*
X212351Y96322D01*
X212897Y95375D01*
X213671Y94602D01*
X214618Y94055D01*
X215674Y93773D01*
X216767D01*
X217823Y94055D01*
X218770Y94602D01*
X219544Y95375D01*
X220090Y96322D01*
X220373Y97378D01*
Y98472D01*
X220090Y99528D01*
X219544Y100475D01*
X218770Y101248D01*
X218209Y101573D01*
Y307013D01*
X222116Y310920D01*
X222548Y311565D01*
X222699Y312326D01*
Y516127D01*
X223199Y516334D01*
X223671Y515862D01*
X224618Y515315D01*
X225674Y515032D01*
X225827Y514845D01*
X225724Y514327D01*
Y457453D01*
X224815Y456543D01*
X224384Y455899D01*
X224232Y455138D01*
Y101573D01*
X223671Y101248D01*
X222897Y100475D01*
X222351Y99528D01*
X222068Y98472D01*
Y97378D01*
X222351Y96322D01*
X222897Y95375D01*
X223671Y94602D01*
X224618Y94055D01*
X225674Y93773D01*
X226767D01*
X227823Y94055D01*
X228770Y94602D01*
X229543Y95375D01*
X230090Y96322D01*
X230373Y97378D01*
Y98472D01*
X230090Y99528D01*
X229543Y100475D01*
X228770Y101248D01*
X228209Y101573D01*
Y323318D01*
X228709Y323480D01*
X234232Y317956D01*
Y102078D01*
X232068D01*
Y93773D01*
X240373D01*
Y102078D01*
X238209D01*
Y318779D01*
X238057Y319540D01*
X237626Y320185D01*
X231988Y325823D01*
Y502956D01*
X243906Y514874D01*
X244337Y515519D01*
X244488Y516280D01*
Y727195D01*
X244660Y727367D01*
X245016Y727983D01*
X245200Y728670D01*
Y729381D01*
X245016Y730067D01*
X244660Y730683D01*
X244158Y731185D01*
X243542Y731541D01*
X242856Y731725D01*
X242144D01*
X241458Y731541D01*
X240842Y731185D01*
X240339Y730683D01*
X239984Y730067D01*
X239800Y729381D01*
Y728670D01*
X239984Y727983D01*
X240339Y727367D01*
X240512Y727195D01*
Y523780D01*
X240373Y523338D01*
X233409D01*
Y690670D01*
X233582Y690842D01*
X233937Y691458D01*
X234121Y692144D01*
Y692856D01*
X233937Y693542D01*
X233582Y694158D01*
X233079Y694661D01*
X232463Y695016D01*
X231777Y695200D01*
X231066D01*
X230379Y695016D01*
X229763Y694661D01*
X229261Y694158D01*
X228905Y693542D01*
X228721Y692856D01*
Y692144D01*
X228905Y691458D01*
X229261Y690842D01*
X229433Y690670D01*
Y522499D01*
X228971Y522307D01*
X228770Y522508D01*
X227823Y523055D01*
X226767Y523338D01*
X225674D01*
X224618Y523055D01*
X223671Y522508D01*
X223199Y522036D01*
X222699Y522243D01*
Y742459D01*
X222871Y742631D01*
X223227Y743247D01*
X223411Y743934D01*
Y744645D01*
X223227Y745331D01*
X222871Y745947D01*
X222368Y746450D01*
X221753Y746805D01*
X221066Y746989D01*
D02*
G37*
G36*
X445356Y775200D02*
X444644D01*
X443958Y775016D01*
X443342Y774660D01*
X442839Y774158D01*
X442484Y773542D01*
X442300Y772856D01*
Y772145D01*
X442484Y771458D01*
X442839Y770842D01*
X443012Y770670D01*
Y521830D01*
X442839Y521658D01*
X442484Y521042D01*
X442300Y520356D01*
Y519644D01*
X442484Y518958D01*
X442839Y518342D01*
X443342Y517839D01*
X443958Y517484D01*
X444644Y517300D01*
X445356D01*
X446042Y517484D01*
X446658Y517839D01*
X447160Y518342D01*
X447516Y518958D01*
X447700Y519644D01*
Y520356D01*
X447516Y521042D01*
X447160Y521658D01*
X446988Y521830D01*
Y770670D01*
X447160Y770842D01*
X447516Y771458D01*
X447700Y772145D01*
Y772856D01*
X447516Y773542D01*
X447160Y774158D01*
X446658Y774660D01*
X446042Y775016D01*
X445356Y775200D01*
D02*
G37*
G36*
X516464Y523838D02*
X508158D01*
Y515532D01*
X516464D01*
Y523838D01*
D02*
G37*
G36*
X44023D02*
X35717D01*
Y515532D01*
X44023D01*
Y523838D01*
D02*
G37*
G36*
X709517Y682700D02*
X708806D01*
X708119Y682516D01*
X707504Y682161D01*
X707001Y681658D01*
X706645Y681042D01*
X706461Y680356D01*
Y679644D01*
X706645Y678958D01*
X706673Y678910D01*
Y523338D01*
X704509D01*
Y515032D01*
X712814D01*
Y523338D01*
X710650D01*
Y677741D01*
X710819Y677840D01*
X711322Y678342D01*
X711677Y678958D01*
X711861Y679644D01*
Y680356D01*
X711677Y681042D01*
X711322Y681658D01*
X710819Y682161D01*
X710204Y682516D01*
X709517Y682700D01*
D02*
G37*
G36*
X697856Y695200D02*
X697145D01*
X696458Y695016D01*
X695842Y694661D01*
X695339Y694158D01*
X694984Y693542D01*
X694800Y692856D01*
Y692144D01*
X694984Y691458D01*
X695339Y690842D01*
X695842Y690340D01*
X696458Y689984D01*
X696673Y689926D01*
Y522832D01*
X696112Y522508D01*
X695338Y521735D01*
X694792Y520788D01*
X694509Y519732D01*
Y518638D01*
X694792Y517582D01*
X695338Y516635D01*
X696112Y515862D01*
X697058Y515315D01*
X698115Y515032D01*
X699208D01*
X700264Y515315D01*
X701211Y515862D01*
X701984Y516635D01*
X702531Y517582D01*
X702814Y518638D01*
Y519732D01*
X702531Y520788D01*
X701984Y521735D01*
X701211Y522508D01*
X700650Y522832D01*
Y691339D01*
X700498Y692099D01*
X700200Y692546D01*
Y692856D01*
X700016Y693542D01*
X699660Y694158D01*
X699158Y694661D01*
X698542Y695016D01*
X697856Y695200D01*
D02*
G37*
G36*
X687855Y707700D02*
X687145D01*
X686458Y707516D01*
X685842Y707161D01*
X685339Y706658D01*
X684984Y706042D01*
X684800Y705356D01*
Y704644D01*
X684984Y703958D01*
X685339Y703342D01*
X685842Y702840D01*
X686458Y702484D01*
X686673Y702426D01*
Y522832D01*
X686112Y522508D01*
X685338Y521735D01*
X684792Y520788D01*
X684509Y519732D01*
Y518638D01*
X684792Y517582D01*
X685338Y516635D01*
X686112Y515862D01*
X687058Y515315D01*
X688115Y515032D01*
X689208D01*
X690264Y515315D01*
X691211Y515862D01*
X691984Y516635D01*
X692531Y517582D01*
X692814Y518638D01*
Y519732D01*
X692531Y520788D01*
X691984Y521735D01*
X691211Y522508D01*
X690650Y522832D01*
Y703839D01*
X690498Y704599D01*
X690200Y705046D01*
Y705356D01*
X690016Y706042D01*
X689661Y706658D01*
X689158Y707161D01*
X688542Y707516D01*
X687855Y707700D01*
D02*
G37*
G36*
X677855Y722700D02*
X677144D01*
X676458Y722516D01*
X675842Y722160D01*
X675340Y721658D01*
X674984Y721042D01*
X674800Y720356D01*
Y719644D01*
X674984Y718958D01*
X675340Y718342D01*
X675842Y717839D01*
X676458Y717484D01*
X676673Y717426D01*
Y522832D01*
X676112Y522508D01*
X675338Y521735D01*
X674792Y520788D01*
X674509Y519732D01*
Y518638D01*
X674792Y517582D01*
X675338Y516635D01*
X676112Y515862D01*
X677059Y515315D01*
X678115Y515032D01*
X679208D01*
X680264Y515315D01*
X681211Y515862D01*
X681984Y516635D01*
X682531Y517582D01*
X682814Y518638D01*
Y519732D01*
X682531Y520788D01*
X681984Y521735D01*
X681211Y522508D01*
X680650Y522832D01*
Y718839D01*
X680498Y719599D01*
X680200Y720046D01*
Y720356D01*
X680016Y721042D01*
X679661Y721658D01*
X679158Y722160D01*
X678542Y722516D01*
X677855Y722700D01*
D02*
G37*
G36*
X669372Y740555D02*
X668661D01*
X667975Y740372D01*
X667359Y740016D01*
X666856Y739513D01*
X666501Y738898D01*
X666317Y738211D01*
Y737500D01*
X666501Y736813D01*
X666851Y736207D01*
Y522935D01*
X666112Y522508D01*
X665338Y521735D01*
X664792Y520788D01*
X664509Y519732D01*
Y518638D01*
X664792Y517582D01*
X665338Y516635D01*
X666112Y515862D01*
X667059Y515315D01*
X668115Y515032D01*
X669208D01*
X670264Y515315D01*
X671211Y515862D01*
X671984Y516635D01*
X672531Y517582D01*
X672814Y518638D01*
Y519732D01*
X672531Y520788D01*
X671984Y521735D01*
X671211Y522508D01*
X670827Y522730D01*
Y735848D01*
X671177Y736198D01*
X671533Y736813D01*
X671717Y737500D01*
Y738211D01*
X671533Y738898D01*
X671177Y739513D01*
X670675Y740016D01*
X670059Y740372D01*
X669372Y740555D01*
D02*
G37*
G36*
X196767Y523338D02*
X195674D01*
X194618Y523055D01*
X193671Y522508D01*
X192897Y521735D01*
X192351Y520788D01*
X192068Y519732D01*
Y518638D01*
X192351Y517582D01*
X192897Y516635D01*
X193671Y515862D01*
X194618Y515315D01*
X195674Y515032D01*
X196767D01*
X197823Y515315D01*
X198770Y515862D01*
X199543Y516635D01*
X200090Y517582D01*
X200373Y518638D01*
Y519732D01*
X200090Y520788D01*
X199543Y521735D01*
X198770Y522508D01*
X197823Y523055D01*
X196767Y523338D01*
D02*
G37*
G36*
X512858Y513838D02*
X511764D01*
X510708Y513555D01*
X509761Y513008D01*
X508988Y512235D01*
X508441Y511288D01*
X508158Y510232D01*
Y509138D01*
X508441Y508082D01*
X508988Y507135D01*
X509761Y506362D01*
X510708Y505815D01*
X511764Y505532D01*
X512858D01*
X513914Y505815D01*
X514861Y506362D01*
X515634Y507135D01*
X516181Y508082D01*
X516464Y509138D01*
Y510232D01*
X516181Y511288D01*
X515634Y512235D01*
X514861Y513008D01*
X513914Y513555D01*
X512858Y513838D01*
D02*
G37*
G36*
X40417D02*
X39323D01*
X38267Y513555D01*
X37320Y513008D01*
X36547Y512235D01*
X36000Y511288D01*
X35717Y510232D01*
Y509138D01*
X36000Y508082D01*
X36547Y507135D01*
X37320Y506362D01*
X38267Y505815D01*
X39323Y505532D01*
X40417D01*
X41473Y505815D01*
X42420Y506362D01*
X43193Y507135D01*
X43740Y508082D01*
X44023Y509138D01*
Y510232D01*
X43740Y511288D01*
X43193Y512235D01*
X42420Y513008D01*
X41473Y513555D01*
X40417Y513838D01*
D02*
G37*
G36*
X512858Y503838D02*
X511764D01*
X510708Y503555D01*
X509761Y503008D01*
X508988Y502235D01*
X508441Y501288D01*
X508158Y500232D01*
Y499138D01*
X508441Y498082D01*
X508988Y497135D01*
X509761Y496362D01*
X510708Y495815D01*
X511764Y495532D01*
X512858D01*
X513914Y495815D01*
X514861Y496362D01*
X515634Y497135D01*
X516181Y498082D01*
X516464Y499138D01*
Y500232D01*
X516181Y501288D01*
X515634Y502235D01*
X514861Y503008D01*
X513914Y503555D01*
X512858Y503838D01*
D02*
G37*
G36*
X40417D02*
X39323D01*
X38267Y503555D01*
X37320Y503008D01*
X36547Y502235D01*
X36000Y501288D01*
X35717Y500232D01*
Y499138D01*
X36000Y498082D01*
X36547Y497135D01*
X37320Y496362D01*
X38267Y495815D01*
X39323Y495532D01*
X40417D01*
X41473Y495815D01*
X42420Y496362D01*
X43193Y497135D01*
X43740Y498082D01*
X44023Y499138D01*
Y500232D01*
X43740Y501288D01*
X43193Y502235D01*
X42420Y503008D01*
X41473Y503555D01*
X40417Y503838D01*
D02*
G37*
G36*
X456048Y796783D02*
X455337D01*
X454650Y796599D01*
X454035Y796244D01*
X453532Y795741D01*
X453176Y795125D01*
X452992Y794439D01*
Y793728D01*
X453176Y793041D01*
X453532Y792425D01*
X453704Y792253D01*
Y490969D01*
X453532Y490796D01*
X453176Y490180D01*
X452992Y489494D01*
Y488783D01*
X453176Y488096D01*
X453532Y487480D01*
X454035Y486978D01*
X454650Y486622D01*
X455337Y486438D01*
X456048D01*
X456735Y486622D01*
X457350Y486978D01*
X457853Y487480D01*
X458209Y488096D01*
X458392Y488783D01*
Y489494D01*
X458209Y490180D01*
X457853Y490796D01*
X457681Y490969D01*
Y792253D01*
X457853Y792425D01*
X458209Y793041D01*
X458392Y793728D01*
Y794439D01*
X458209Y795125D01*
X457853Y795741D01*
X457350Y796244D01*
X456735Y796599D01*
X456048Y796783D01*
D02*
G37*
G36*
X512858Y493838D02*
X511764D01*
X510708Y493555D01*
X509761Y493008D01*
X508988Y492235D01*
X508441Y491288D01*
X508158Y490232D01*
Y489138D01*
X508441Y488082D01*
X508988Y487135D01*
X509761Y486362D01*
X510708Y485815D01*
X511764Y485532D01*
X512858D01*
X513914Y485815D01*
X514861Y486362D01*
X515634Y487135D01*
X516181Y488082D01*
X516464Y489138D01*
Y490232D01*
X516181Y491288D01*
X515634Y492235D01*
X514861Y493008D01*
X513914Y493555D01*
X512858Y493838D01*
D02*
G37*
G36*
X40417D02*
X39323D01*
X38267Y493555D01*
X37320Y493008D01*
X36547Y492235D01*
X36000Y491288D01*
X35717Y490232D01*
Y489138D01*
X36000Y488082D01*
X36547Y487135D01*
X37320Y486362D01*
X38267Y485815D01*
X39323Y485532D01*
X40417D01*
X41473Y485815D01*
X42420Y486362D01*
X43193Y487135D01*
X43740Y488082D01*
X44023Y489138D01*
Y490232D01*
X43740Y491288D01*
X43193Y492235D01*
X42420Y493008D01*
X41473Y493555D01*
X40417Y493838D01*
D02*
G37*
G36*
X512858Y483838D02*
X511764D01*
X510708Y483555D01*
X509761Y483008D01*
X508988Y482235D01*
X508441Y481288D01*
X508158Y480232D01*
Y479138D01*
X508441Y478082D01*
X508988Y477135D01*
X509761Y476362D01*
X510708Y475815D01*
X511764Y475532D01*
X512858D01*
X513914Y475815D01*
X514861Y476362D01*
X515634Y477135D01*
X516181Y478082D01*
X516464Y479138D01*
Y480232D01*
X516181Y481288D01*
X515634Y482235D01*
X514861Y483008D01*
X513914Y483555D01*
X512858Y483838D01*
D02*
G37*
G36*
X40417D02*
X39323D01*
X38267Y483555D01*
X37320Y483008D01*
X36547Y482235D01*
X36000Y481288D01*
X35717Y480232D01*
Y479138D01*
X36000Y478082D01*
X36547Y477135D01*
X37320Y476362D01*
X38267Y475815D01*
X39323Y475532D01*
X40417D01*
X41473Y475815D01*
X42420Y476362D01*
X43193Y477135D01*
X43740Y478082D01*
X44023Y479138D01*
Y480232D01*
X43740Y481288D01*
X43193Y482235D01*
X42420Y483008D01*
X41473Y483555D01*
X40417Y483838D01*
D02*
G37*
G36*
X304829Y415036D02*
Y413390D01*
X306474D01*
X306198Y414056D01*
X305495Y414760D01*
X304829Y415036D01*
D02*
G37*
G36*
X303329D02*
X302663Y414760D01*
X301959Y414056D01*
X301683Y413390D01*
X303329D01*
Y415036D01*
D02*
G37*
G36*
X411105Y414895D02*
Y413250D01*
X412751D01*
X412475Y413916D01*
X411772Y414619D01*
X411105Y414895D01*
D02*
G37*
G36*
X409606D02*
X408939Y414619D01*
X408236Y413916D01*
X407960Y413250D01*
X409606D01*
Y414895D01*
D02*
G37*
G36*
X306474Y411890D02*
X304829D01*
Y410245D01*
X305495Y410521D01*
X306198Y411224D01*
X306474Y411890D01*
D02*
G37*
G36*
X303329D02*
X301683D01*
X301959Y411224D01*
X302663Y410521D01*
X303329Y410245D01*
Y411890D01*
D02*
G37*
G36*
X412751Y411750D02*
X411105D01*
Y410105D01*
X411772Y410381D01*
X412475Y411084D01*
X412751Y411750D01*
D02*
G37*
G36*
X409606D02*
X407960D01*
X408236Y411084D01*
X408939Y410381D01*
X409606Y410105D01*
Y411750D01*
D02*
G37*
G36*
X713314Y378169D02*
X705009D01*
Y369863D01*
X713314D01*
Y378169D01*
D02*
G37*
G36*
X240873D02*
X232568D01*
Y369863D01*
X240873D01*
Y378169D01*
D02*
G37*
G36*
X709708Y368168D02*
X708615D01*
X707558Y367885D01*
X706612Y367339D01*
X705838Y366566D01*
X705292Y365619D01*
X705009Y364563D01*
Y363469D01*
X705292Y362413D01*
X705838Y361466D01*
X706612Y360693D01*
X707558Y360146D01*
X708615Y359863D01*
X709708D01*
X710764Y360146D01*
X711711Y360693D01*
X712484Y361466D01*
X713031Y362413D01*
X713314Y363469D01*
Y364563D01*
X713031Y365619D01*
X712484Y366566D01*
X711711Y367339D01*
X710764Y367885D01*
X709708Y368168D01*
D02*
G37*
G36*
X237267D02*
X236174D01*
X235118Y367885D01*
X234171Y367339D01*
X233397Y366566D01*
X232851Y365619D01*
X232568Y364563D01*
Y363469D01*
X232851Y362413D01*
X233397Y361466D01*
X234171Y360693D01*
X235118Y360146D01*
X236174Y359863D01*
X237267D01*
X238323Y360146D01*
X239270Y360693D01*
X240043Y361466D01*
X240590Y362413D01*
X240873Y363469D01*
Y364563D01*
X240590Y365619D01*
X240043Y366566D01*
X239270Y367339D01*
X238323Y367885D01*
X237267Y368168D01*
D02*
G37*
G36*
X709708Y358169D02*
X708615D01*
X707558Y357886D01*
X706612Y357339D01*
X705838Y356566D01*
X705292Y355619D01*
X705009Y354562D01*
Y353469D01*
X705292Y352413D01*
X705838Y351466D01*
X706612Y350693D01*
X707558Y350146D01*
X708615Y349863D01*
X709708D01*
X710764Y350146D01*
X711711Y350693D01*
X712484Y351466D01*
X713031Y352413D01*
X713314Y353469D01*
Y354562D01*
X713031Y355619D01*
X712484Y356566D01*
X711711Y357339D01*
X710764Y357886D01*
X709708Y358169D01*
D02*
G37*
G36*
X237267D02*
X236174D01*
X235118Y357886D01*
X234171Y357339D01*
X233397Y356566D01*
X232851Y355619D01*
X232568Y354562D01*
Y353469D01*
X232851Y352413D01*
X233397Y351466D01*
X234171Y350693D01*
X235118Y350146D01*
X236174Y349863D01*
X237267D01*
X238323Y350146D01*
X239270Y350693D01*
X240043Y351466D01*
X240590Y352413D01*
X240873Y353469D01*
Y354562D01*
X240590Y355619D01*
X240043Y356566D01*
X239270Y357339D01*
X238323Y357886D01*
X237267Y358169D01*
D02*
G37*
G36*
X540000Y801223D02*
X500000D01*
X499532Y801130D01*
X499135Y800865D01*
X498870Y800468D01*
X498776Y800000D01*
Y770000D01*
X498870Y769532D01*
X499135Y769135D01*
X499532Y768870D01*
X500000Y768777D01*
X509515D01*
X509722Y768277D01*
X509148Y767703D01*
X508628Y766801D01*
X508358Y765796D01*
Y765775D01*
X512311D01*
X516264D01*
Y765796D01*
X515994Y766801D01*
X515474Y767703D01*
X514900Y768277D01*
X515107Y768777D01*
X518777D01*
Y391224D01*
X500000D01*
X499532Y391130D01*
X499135Y390865D01*
X498870Y390468D01*
X498776Y390000D01*
Y350000D01*
X498870Y349532D01*
X499135Y349135D01*
X499532Y348870D01*
X500000Y348777D01*
X510361D01*
X510440Y348792D01*
X510521Y348787D01*
X510672Y348838D01*
X510829Y348870D01*
X510896Y348915D01*
X510973Y348940D01*
X511093Y349046D01*
X511226Y349135D01*
X511271Y349202D01*
X511332Y349255D01*
X511402Y349399D01*
X511491Y349532D01*
X511764Y349863D01*
X512858D01*
X513131Y349532D01*
X513220Y349399D01*
X513290Y349255D01*
X513351Y349202D01*
X513396Y349135D01*
X513529Y349046D01*
X513649Y348940D01*
X513726Y348915D01*
X513793Y348870D01*
X513950Y348838D01*
X514101Y348787D01*
X514182Y348792D01*
X514261Y348777D01*
X540000D01*
X540468Y348870D01*
X540865Y349135D01*
X541130Y349532D01*
X541223Y350000D01*
Y800000D01*
X541130Y800468D01*
X540865Y800865D01*
X540468Y801130D01*
X540000Y801223D01*
D02*
G37*
G36*
X70000D02*
X30000D01*
X29532Y801130D01*
X29135Y800865D01*
X28870Y800468D01*
X28776Y800000D01*
Y770000D01*
X28870Y769532D01*
X29135Y769135D01*
X29532Y768870D01*
X30000Y768777D01*
X37074D01*
X37281Y768277D01*
X36707Y767703D01*
X36187Y766801D01*
X35917Y765796D01*
Y765776D01*
X39870D01*
X43823D01*
Y765796D01*
X43553Y766801D01*
X43033Y767703D01*
X42459Y768277D01*
X42666Y768777D01*
X48777D01*
Y381224D01*
X30000D01*
X29532Y381130D01*
X29135Y380865D01*
X28870Y380468D01*
X28776Y380000D01*
Y350000D01*
X28870Y349532D01*
X29135Y349135D01*
X29532Y348870D01*
X30000Y348777D01*
X37920D01*
X37999Y348792D01*
X38080Y348787D01*
X38231Y348838D01*
X38388Y348870D01*
X38455Y348915D01*
X38532Y348940D01*
X38652Y349046D01*
X38785Y349135D01*
X38830Y349202D01*
X38891Y349255D01*
X38961Y349399D01*
X39050Y349532D01*
X39323Y349863D01*
X40417D01*
X40690Y349532D01*
X40779Y349399D01*
X40849Y349255D01*
X40910Y349202D01*
X40955Y349135D01*
X41088Y349046D01*
X41208Y348940D01*
X41285Y348915D01*
X41352Y348870D01*
X41509Y348838D01*
X41660Y348787D01*
X41741Y348792D01*
X41820Y348777D01*
X70000D01*
X70468Y348870D01*
X70865Y349135D01*
X71130Y349532D01*
X71223Y350000D01*
Y800000D01*
X71130Y800468D01*
X70865Y800865D01*
X70468Y801130D01*
X70000Y801223D01*
D02*
G37*
G36*
X302625Y346332D02*
Y344687D01*
X304270D01*
X303994Y345353D01*
X303291Y346056D01*
X302625Y346332D01*
D02*
G37*
G36*
X301125D02*
X300458Y346056D01*
X299755Y345353D01*
X299479Y344687D01*
X301125D01*
Y346332D01*
D02*
G37*
G36*
X40391Y347969D02*
X40370D01*
Y344516D01*
X43823D01*
Y344536D01*
X43554Y345542D01*
X43033Y346443D01*
X42297Y347179D01*
X41396Y347699D01*
X40391Y347969D01*
D02*
G37*
G36*
X39370D02*
X39350D01*
X38344Y347699D01*
X37443Y347179D01*
X36707Y346443D01*
X36187Y345542D01*
X35917Y344536D01*
Y344516D01*
X39370D01*
Y347969D01*
D02*
G37*
G36*
X709682D02*
X709661D01*
Y344516D01*
X713114D01*
Y344536D01*
X712845Y345542D01*
X712324Y346443D01*
X711588Y347179D01*
X710687Y347699D01*
X709682Y347969D01*
D02*
G37*
G36*
X512831D02*
X512811D01*
Y344516D01*
X516264D01*
Y344536D01*
X515994Y345542D01*
X515474Y346443D01*
X514738Y347179D01*
X513837Y347699D01*
X512831Y347969D01*
D02*
G37*
G36*
X708661D02*
X708641D01*
X707636Y347699D01*
X706734Y347179D01*
X705998Y346443D01*
X705478Y345542D01*
X705209Y344536D01*
Y344516D01*
X708661D01*
Y347969D01*
D02*
G37*
G36*
X511811D02*
X511791D01*
X510785Y347699D01*
X509884Y347179D01*
X509148Y346443D01*
X508628Y345542D01*
X508358Y344536D01*
Y344516D01*
X511811D01*
Y347969D01*
D02*
G37*
G36*
X237241D02*
X237220D01*
Y344516D01*
X240673D01*
Y344536D01*
X240404Y345542D01*
X239883Y346443D01*
X239147Y347179D01*
X238246Y347699D01*
X237241Y347969D01*
D02*
G37*
G36*
X236220D02*
X236200D01*
X235195Y347699D01*
X234293Y347179D01*
X233558Y346443D01*
X233037Y345542D01*
X232768Y344536D01*
Y344516D01*
X236220D01*
Y347969D01*
D02*
G37*
G36*
X304270Y343187D02*
X302625D01*
Y341542D01*
X303291Y341818D01*
X303994Y342521D01*
X304270Y343187D01*
D02*
G37*
G36*
X301125D02*
X299479D01*
X299755Y342521D01*
X300458Y341818D01*
X301125Y341542D01*
Y343187D01*
D02*
G37*
G36*
X713114Y343516D02*
X709661D01*
Y340063D01*
X709682D01*
X710687Y340332D01*
X711588Y340853D01*
X712324Y341589D01*
X712845Y342490D01*
X713114Y343495D01*
Y343516D01*
D02*
G37*
G36*
X708661D02*
X705209D01*
Y343495D01*
X705478Y342490D01*
X705998Y341589D01*
X706734Y340853D01*
X707636Y340332D01*
X708641Y340063D01*
X708661D01*
Y343516D01*
D02*
G37*
G36*
X516264D02*
X512811D01*
Y340063D01*
X512831D01*
X513837Y340332D01*
X514738Y340853D01*
X515474Y341589D01*
X515994Y342490D01*
X516264Y343495D01*
Y343516D01*
D02*
G37*
G36*
X511811D02*
X508358D01*
Y343495D01*
X508628Y342490D01*
X509148Y341589D01*
X509884Y340853D01*
X510785Y340332D01*
X511791Y340063D01*
X511811D01*
Y343516D01*
D02*
G37*
G36*
X240673Y343516D02*
X237220D01*
Y340063D01*
X237241D01*
X238246Y340332D01*
X239147Y340853D01*
X239883Y341589D01*
X240404Y342490D01*
X240673Y343495D01*
Y343516D01*
D02*
G37*
G36*
X236220D02*
X232768D01*
Y343495D01*
X233037Y342490D01*
X233558Y341589D01*
X234293Y340853D01*
X235195Y340332D01*
X236200Y340063D01*
X236220D01*
Y343516D01*
D02*
G37*
G36*
X43823Y343516D02*
X40370D01*
Y340063D01*
X40391D01*
X41396Y340332D01*
X42297Y340853D01*
X43033Y341589D01*
X43554Y342490D01*
X43823Y343495D01*
Y343516D01*
D02*
G37*
G36*
X39370D02*
X35917D01*
Y343495D01*
X36187Y342490D01*
X36707Y341589D01*
X37443Y340853D01*
X38344Y340332D01*
X39350Y340063D01*
X39370D01*
Y343516D01*
D02*
G37*
G36*
X40391Y337968D02*
X40370D01*
Y334516D01*
X43823D01*
Y334536D01*
X43554Y335542D01*
X43033Y336443D01*
X42297Y337179D01*
X41396Y337699D01*
X40391Y337968D01*
D02*
G37*
G36*
X39370D02*
X39350D01*
X38344Y337699D01*
X37443Y337179D01*
X36707Y336443D01*
X36187Y335542D01*
X35917Y334536D01*
Y334516D01*
X39370D01*
Y337968D01*
D02*
G37*
G36*
X709682D02*
X709661D01*
Y334516D01*
X713114D01*
Y334536D01*
X712845Y335542D01*
X712324Y336443D01*
X711588Y337179D01*
X710687Y337699D01*
X709682Y337968D01*
D02*
G37*
G36*
X512831D02*
X512811D01*
Y334516D01*
X516264D01*
Y334536D01*
X515994Y335542D01*
X515474Y336443D01*
X514738Y337179D01*
X513837Y337699D01*
X512831Y337968D01*
D02*
G37*
G36*
X708661D02*
X708641D01*
X707636Y337699D01*
X706734Y337179D01*
X705998Y336443D01*
X705478Y335542D01*
X705209Y334536D01*
Y334516D01*
X708661D01*
Y337968D01*
D02*
G37*
G36*
X511811D02*
X511791D01*
X510785Y337699D01*
X509884Y337179D01*
X509148Y336443D01*
X508628Y335542D01*
X508358Y334536D01*
Y334516D01*
X511811D01*
Y337968D01*
D02*
G37*
G36*
X237241D02*
X237220D01*
Y334516D01*
X240673D01*
Y334536D01*
X240404Y335542D01*
X239883Y336443D01*
X239147Y337179D01*
X238246Y337699D01*
X237241Y337968D01*
D02*
G37*
G36*
X236220D02*
X236200D01*
X235195Y337699D01*
X234293Y337179D01*
X233558Y336443D01*
X233037Y335542D01*
X232768Y334536D01*
Y334516D01*
X236220D01*
Y337968D01*
D02*
G37*
G36*
X713114Y333516D02*
X709661D01*
Y330063D01*
X709682D01*
X710687Y330332D01*
X711588Y330853D01*
X712324Y331589D01*
X712845Y332490D01*
X713114Y333495D01*
Y333516D01*
D02*
G37*
G36*
X708661D02*
X705209D01*
Y333495D01*
X705478Y332490D01*
X705998Y331589D01*
X706734Y330853D01*
X707636Y330332D01*
X708641Y330063D01*
X708661D01*
Y333516D01*
D02*
G37*
G36*
X516264D02*
X512811D01*
Y330063D01*
X512831D01*
X513837Y330332D01*
X514738Y330853D01*
X515474Y331589D01*
X515994Y332490D01*
X516264Y333495D01*
Y333516D01*
D02*
G37*
G36*
X511811D02*
X508358D01*
Y333495D01*
X508628Y332490D01*
X509148Y331589D01*
X509884Y330853D01*
X510785Y330332D01*
X511791Y330063D01*
X511811D01*
Y333516D01*
D02*
G37*
G36*
X240673Y333516D02*
X237220D01*
Y330063D01*
X237241D01*
X238246Y330332D01*
X239147Y330853D01*
X239883Y331589D01*
X240404Y332490D01*
X240673Y333495D01*
Y333516D01*
D02*
G37*
G36*
X236220D02*
X232768D01*
Y333495D01*
X233037Y332490D01*
X233558Y331589D01*
X234293Y330853D01*
X235195Y330332D01*
X236200Y330063D01*
X236220D01*
Y333516D01*
D02*
G37*
G36*
X43823Y333516D02*
X40370D01*
Y330063D01*
X40391D01*
X41396Y330332D01*
X42297Y330853D01*
X43033Y331589D01*
X43554Y332490D01*
X43823Y333495D01*
Y333516D01*
D02*
G37*
G36*
X39370D02*
X35917D01*
Y333495D01*
X36187Y332490D01*
X36707Y331589D01*
X37443Y330853D01*
X38344Y330332D01*
X39350Y330063D01*
X39370D01*
Y333516D01*
D02*
G37*
G36*
X455750Y281037D02*
Y279392D01*
X457395D01*
X457119Y280058D01*
X456416Y280761D01*
X455750Y281037D01*
D02*
G37*
G36*
X454250D02*
X453584Y280761D01*
X452881Y280058D01*
X452605Y279392D01*
X454250D01*
Y281037D01*
D02*
G37*
G36*
X355425D02*
Y279392D01*
X357070D01*
X356795Y280058D01*
X356091Y280761D01*
X355425Y281037D01*
D02*
G37*
G36*
X353925D02*
X353259Y280761D01*
X352556Y280058D01*
X352280Y279392D01*
X353925D01*
Y281037D01*
D02*
G37*
G36*
X457395Y277892D02*
X455750D01*
Y276246D01*
X456416Y276522D01*
X457119Y277226D01*
X457395Y277892D01*
D02*
G37*
G36*
X454250D02*
X452605D01*
X452881Y277226D01*
X453584Y276522D01*
X454250Y276246D01*
Y277892D01*
D02*
G37*
G36*
X357070D02*
X355425D01*
Y276246D01*
X356091Y276522D01*
X356795Y277226D01*
X357070Y277892D01*
D02*
G37*
G36*
X353925D02*
X352280D01*
X352556Y277226D01*
X353259Y276522D01*
X353925Y276246D01*
Y277892D01*
D02*
G37*
G36*
X430356Y190200D02*
X429644D01*
X428958Y190016D01*
X428342Y189661D01*
X427840Y189158D01*
X427484Y188542D01*
X427300Y187856D01*
Y187144D01*
X427484Y186458D01*
X427840Y185842D01*
X428012Y185670D01*
Y176124D01*
X427516Y176042D01*
X427161Y176658D01*
X426658Y177161D01*
X426042Y177516D01*
X425355Y177700D01*
X424645D01*
X423958Y177516D01*
X423342Y177161D01*
X422839Y176658D01*
X422484Y176042D01*
X422300Y175356D01*
Y174644D01*
X422484Y173958D01*
X422839Y173342D01*
X423012Y173170D01*
Y101830D01*
X422839Y101658D01*
X422484Y101042D01*
X422300Y100356D01*
Y99645D01*
X422484Y98958D01*
X422839Y98342D01*
X423342Y97839D01*
X423958Y97484D01*
X424645Y97300D01*
X425355D01*
X426042Y97484D01*
X426658Y97839D01*
X427161Y98342D01*
X427516Y98958D01*
X428012Y98876D01*
Y90802D01*
X427840Y90630D01*
X427484Y90014D01*
X427300Y89327D01*
Y88617D01*
X427484Y87930D01*
X427840Y87314D01*
X428342Y86811D01*
X428958Y86456D01*
X429644Y86272D01*
X430356D01*
X431042Y86456D01*
X431658Y86811D01*
X432161Y87314D01*
X432516Y87930D01*
X432700Y88617D01*
Y89327D01*
X432516Y90014D01*
X432161Y90630D01*
X431988Y90802D01*
Y185670D01*
X432161Y185842D01*
X432516Y186458D01*
X432700Y187144D01*
Y187856D01*
X432516Y188542D01*
X432161Y189158D01*
X431658Y189661D01*
X431042Y190016D01*
X430356Y190200D01*
D02*
G37*
G36*
X550355Y377700D02*
X549645D01*
X548958Y377516D01*
X548342Y377161D01*
X547839Y376658D01*
X547484Y376042D01*
X547300Y375356D01*
Y374644D01*
X547484Y373958D01*
X547502Y373927D01*
Y146073D01*
X547484Y146042D01*
X547300Y145355D01*
Y144644D01*
X547484Y143958D01*
X547839Y143342D01*
X548342Y142840D01*
X548958Y142484D01*
X549645Y142300D01*
X550355D01*
X551042Y142484D01*
X551658Y142840D01*
X552161Y143342D01*
X552516Y143958D01*
X552700Y144644D01*
Y145355D01*
X552516Y146042D01*
X552498Y146073D01*
Y373927D01*
X552516Y373958D01*
X552700Y374644D01*
Y375356D01*
X552516Y376042D01*
X552161Y376658D01*
X551658Y377161D01*
X551042Y377516D01*
X550355Y377700D01*
D02*
G37*
G36*
X386453Y128953D02*
X383000D01*
Y125500D01*
X386453D01*
Y128953D01*
D02*
G37*
G36*
X382000D02*
X378547D01*
Y125500D01*
X382000D01*
Y128953D01*
D02*
G37*
G36*
X386453Y124500D02*
X383000D01*
Y121047D01*
X386453D01*
Y124500D01*
D02*
G37*
G36*
X382000D02*
X378547D01*
Y121047D01*
X382000D01*
Y124500D01*
D02*
G37*
G36*
X373047Y129153D02*
X371953D01*
X370897Y128870D01*
X369950Y128323D01*
X369177Y127550D01*
X368630Y126603D01*
X368347Y125547D01*
Y124453D01*
X368630Y123397D01*
X369177Y122450D01*
X369950Y121677D01*
X370897Y121130D01*
X371953Y120847D01*
X373047D01*
X374103Y121130D01*
X375050Y121677D01*
X375823Y122450D01*
X376370Y123397D01*
X376653Y124453D01*
Y125547D01*
X376370Y126603D01*
X375823Y127550D01*
X375050Y128323D01*
X374103Y128870D01*
X373047Y129153D01*
D02*
G37*
G36*
X363047D02*
X361953D01*
X360897Y128870D01*
X359950Y128323D01*
X359177Y127550D01*
X358630Y126603D01*
X358347Y125547D01*
Y124453D01*
X358630Y123397D01*
X359177Y122450D01*
X359950Y121677D01*
X360897Y121130D01*
X361953Y120847D01*
X363047D01*
X364103Y121130D01*
X365050Y121677D01*
X365823Y122450D01*
X366370Y123397D01*
X366653Y124453D01*
Y125547D01*
X366370Y126603D01*
X365823Y127550D01*
X365050Y128323D01*
X364103Y128870D01*
X363047Y129153D01*
D02*
G37*
G36*
X353047D02*
X351953D01*
X350897Y128870D01*
X349950Y128323D01*
X349177Y127550D01*
X348630Y126603D01*
X348347Y125547D01*
Y124453D01*
X348630Y123397D01*
X349177Y122450D01*
X349950Y121677D01*
X350897Y121130D01*
X351953Y120847D01*
X353047D01*
X354103Y121130D01*
X355050Y121677D01*
X355823Y122450D01*
X356370Y123397D01*
X356653Y124453D01*
Y125547D01*
X356370Y126603D01*
X355823Y127550D01*
X355050Y128323D01*
X354103Y128870D01*
X353047Y129153D01*
D02*
G37*
G36*
X343047D02*
X341953D01*
X340897Y128870D01*
X339950Y128323D01*
X339177Y127550D01*
X338630Y126603D01*
X338347Y125547D01*
Y124453D01*
X338630Y123397D01*
X339177Y122450D01*
X339950Y121677D01*
X340897Y121130D01*
X341953Y120847D01*
X343047D01*
X344103Y121130D01*
X345050Y121677D01*
X345823Y122450D01*
X346370Y123397D01*
X346653Y124453D01*
Y125547D01*
X346370Y126603D01*
X345823Y127550D01*
X345050Y128323D01*
X344103Y128870D01*
X343047Y129153D01*
D02*
G37*
G36*
X333047D02*
X331953D01*
X330897Y128870D01*
X329950Y128323D01*
X329177Y127550D01*
X328630Y126603D01*
X328347Y125547D01*
Y124453D01*
X328630Y123397D01*
X329177Y122450D01*
X329950Y121677D01*
X330897Y121130D01*
X331953Y120847D01*
X333047D01*
X334103Y121130D01*
X335050Y121677D01*
X335823Y122450D01*
X336370Y123397D01*
X336653Y124453D01*
Y125547D01*
X336370Y126603D01*
X335823Y127550D01*
X335050Y128323D01*
X334103Y128870D01*
X333047Y129153D01*
D02*
G37*
G36*
X87855Y740200D02*
X87145D01*
X86458Y740016D01*
X85842Y739661D01*
X85339Y739158D01*
X84984Y738542D01*
X84800Y737855D01*
Y737145D01*
X84984Y736458D01*
X85339Y735842D01*
X85512Y735670D01*
Y151830D01*
X85339Y151658D01*
X84984Y151042D01*
X84800Y150356D01*
Y149644D01*
X84984Y148958D01*
X85339Y148342D01*
X85512Y148170D01*
Y99330D01*
X85339Y99158D01*
X84984Y98542D01*
X84800Y97856D01*
Y97145D01*
X84984Y96458D01*
X85339Y95842D01*
X85842Y95340D01*
X86458Y94984D01*
X87145Y94800D01*
X87855D01*
X88542Y94984D01*
X89158Y95340D01*
X89661Y95842D01*
X90016Y96458D01*
X90200Y97145D01*
Y97856D01*
X90016Y98542D01*
X89661Y99158D01*
X89488Y99330D01*
Y148170D01*
X89661Y148342D01*
X90016Y148958D01*
X90200Y149644D01*
Y150356D01*
X90016Y151042D01*
X89661Y151658D01*
X89488Y151830D01*
Y735670D01*
X89661Y735842D01*
X90016Y736458D01*
X90200Y737145D01*
Y737855D01*
X90016Y738542D01*
X89661Y739158D01*
X89158Y739661D01*
X88542Y740016D01*
X87855Y740200D01*
D02*
G37*
G36*
X516464Y102578D02*
X508158D01*
Y94273D01*
X516464D01*
Y102578D01*
D02*
G37*
G36*
X44023D02*
X35717D01*
Y94273D01*
X44023D01*
Y102578D01*
D02*
G37*
G36*
X707856Y245200D02*
X707144D01*
X706458Y245016D01*
X705842Y244660D01*
X705339Y244158D01*
X704984Y243542D01*
X704800Y242856D01*
Y242144D01*
X704984Y241458D01*
X705339Y240842D01*
X705842Y240339D01*
X706458Y239984D01*
X706673Y239926D01*
Y102078D01*
X704509D01*
Y93773D01*
X712814D01*
Y102078D01*
X710650D01*
Y241339D01*
X710498Y242099D01*
X710200Y242546D01*
Y242856D01*
X710016Y243542D01*
X709660Y244158D01*
X709158Y244660D01*
X708542Y245016D01*
X707856Y245200D01*
D02*
G37*
G36*
X700355Y240200D02*
X699645D01*
X698958Y240016D01*
X698342Y239661D01*
X697839Y239158D01*
X697484Y238542D01*
X697300Y237856D01*
Y237612D01*
X697256Y237567D01*
X696825Y236922D01*
X696673Y236161D01*
Y101573D01*
X696112Y101248D01*
X695338Y100475D01*
X694792Y99528D01*
X694509Y98472D01*
Y97378D01*
X694792Y96322D01*
X695338Y95375D01*
X696112Y94602D01*
X697058Y94055D01*
X698115Y93773D01*
X699208D01*
X700264Y94055D01*
X701211Y94602D01*
X701984Y95375D01*
X702531Y96322D01*
X702814Y97378D01*
Y98472D01*
X702531Y99528D01*
X701984Y100475D01*
X701211Y101248D01*
X700650Y101573D01*
Y234879D01*
X701042Y234984D01*
X701658Y235339D01*
X702161Y235842D01*
X702516Y236458D01*
X702700Y237144D01*
Y237856D01*
X702516Y238542D01*
X702161Y239158D01*
X701658Y239661D01*
X701042Y240016D01*
X700355Y240200D01*
D02*
G37*
G36*
X687855Y235200D02*
X687145D01*
X686458Y235016D01*
X685842Y234661D01*
X685339Y234158D01*
X684984Y233542D01*
X684800Y232856D01*
Y232144D01*
X684984Y231458D01*
X685339Y230842D01*
X685842Y230340D01*
X686458Y229984D01*
X686673Y229926D01*
Y101573D01*
X686112Y101248D01*
X685338Y100475D01*
X684792Y99528D01*
X684509Y98472D01*
Y97378D01*
X684792Y96322D01*
X685338Y95375D01*
X686112Y94602D01*
X687058Y94055D01*
X688115Y93773D01*
X689208D01*
X690264Y94055D01*
X691211Y94602D01*
X691984Y95375D01*
X692531Y96322D01*
X692814Y97378D01*
Y98472D01*
X692531Y99528D01*
X691984Y100475D01*
X691211Y101248D01*
X690650Y101573D01*
Y231339D01*
X690498Y232099D01*
X690200Y232546D01*
Y232856D01*
X690016Y233542D01*
X689661Y234158D01*
X689158Y234661D01*
X688542Y235016D01*
X687855Y235200D01*
D02*
G37*
G36*
X677855Y227700D02*
X677144D01*
X676458Y227516D01*
X675842Y227161D01*
X675340Y226658D01*
X674984Y226042D01*
X674800Y225356D01*
Y224644D01*
X674984Y223958D01*
X675340Y223342D01*
X675842Y222839D01*
X676458Y222484D01*
X676673Y222426D01*
Y101573D01*
X676112Y101248D01*
X675338Y100475D01*
X674792Y99528D01*
X674509Y98472D01*
Y97378D01*
X674792Y96322D01*
X675338Y95375D01*
X676112Y94602D01*
X677059Y94055D01*
X678115Y93773D01*
X679208D01*
X680264Y94055D01*
X681211Y94602D01*
X681984Y95375D01*
X682531Y96322D01*
X682814Y97378D01*
Y98472D01*
X682531Y99528D01*
X681984Y100475D01*
X681211Y101248D01*
X680650Y101573D01*
Y223839D01*
X680498Y224599D01*
X680200Y225046D01*
Y225356D01*
X680016Y226042D01*
X679661Y226658D01*
X679158Y227161D01*
X678542Y227516D01*
X677855Y227700D01*
D02*
G37*
G36*
X669017Y221361D02*
X668306D01*
X667619Y221177D01*
X667004Y220822D01*
X666501Y220319D01*
X666145Y219704D01*
X665961Y219017D01*
Y218306D01*
X666145Y217619D01*
X666501Y217004D01*
X666673Y216831D01*
Y101573D01*
X666112Y101248D01*
X665338Y100475D01*
X664792Y99528D01*
X664509Y98472D01*
Y97378D01*
X664792Y96322D01*
X665338Y95375D01*
X666112Y94602D01*
X667059Y94055D01*
X668115Y93773D01*
X669208D01*
X670264Y94055D01*
X671211Y94602D01*
X671984Y95375D01*
X672531Y96322D01*
X672814Y97378D01*
Y98472D01*
X672531Y99528D01*
X671984Y100475D01*
X671211Y101248D01*
X670650Y101573D01*
Y216831D01*
X670822Y217004D01*
X671177Y217619D01*
X671361Y218306D01*
Y219017D01*
X671177Y219704D01*
X670822Y220319D01*
X670319Y220822D01*
X669704Y221177D01*
X669017Y221361D01*
D02*
G37*
G36*
X187856Y690200D02*
X187144D01*
X186458Y690016D01*
X185842Y689661D01*
X185339Y689158D01*
X184984Y688542D01*
X184800Y687855D01*
Y687145D01*
X184984Y686458D01*
X185339Y685842D01*
X185512Y685670D01*
Y482500D01*
X185663Y481739D01*
X186094Y481094D01*
X194232Y472956D01*
Y101573D01*
X193671Y101248D01*
X192897Y100475D01*
X192351Y99528D01*
X192068Y98472D01*
Y97378D01*
X192351Y96322D01*
X192897Y95375D01*
X193671Y94602D01*
X194618Y94055D01*
X195674Y93773D01*
X196767D01*
X197823Y94055D01*
X198770Y94602D01*
X199543Y95375D01*
X200090Y96322D01*
X200373Y97378D01*
Y98472D01*
X200090Y99528D01*
X199543Y100475D01*
X198770Y101248D01*
X198209Y101573D01*
Y473779D01*
X198057Y474540D01*
X197626Y475185D01*
X189488Y483323D01*
Y685670D01*
X189661Y685842D01*
X190016Y686458D01*
X190200Y687145D01*
Y687855D01*
X190016Y688542D01*
X189661Y689158D01*
X189158Y689661D01*
X188542Y690016D01*
X187856Y690200D01*
D02*
G37*
G36*
X100356Y727700D02*
X99645D01*
X98958Y727516D01*
X98342Y727161D01*
X97839Y726658D01*
X97484Y726042D01*
X97300Y725355D01*
Y724645D01*
X97484Y723958D01*
X97839Y723342D01*
X98012Y723170D01*
Y142104D01*
X97566Y141658D01*
X97211Y141042D01*
X97027Y140356D01*
Y139645D01*
X97211Y138958D01*
X97566Y138342D01*
X98012Y137897D01*
Y90802D01*
X97839Y90630D01*
X97484Y90014D01*
X97300Y89327D01*
Y88617D01*
X97484Y87930D01*
X97839Y87314D01*
X98342Y86811D01*
X98958Y86456D01*
X99645Y86272D01*
X100356D01*
X101042Y86456D01*
X101658Y86811D01*
X102161Y87314D01*
X102516Y87930D01*
X102700Y88617D01*
Y89327D01*
X102516Y90014D01*
X102161Y90630D01*
X101988Y90802D01*
Y138517D01*
X102243Y138958D01*
X102427Y139645D01*
Y140356D01*
X102243Y141042D01*
X101988Y141483D01*
Y723170D01*
X102161Y723342D01*
X102516Y723958D01*
X102700Y724645D01*
Y725355D01*
X102516Y726042D01*
X102161Y726658D01*
X101658Y727161D01*
X101042Y727516D01*
X100356Y727700D01*
D02*
G37*
G36*
X512858Y92578D02*
X511764D01*
X510708Y92295D01*
X509761Y91748D01*
X508988Y90975D01*
X508441Y90028D01*
X508158Y88972D01*
Y87879D01*
X508441Y86822D01*
X508988Y85875D01*
X509761Y85102D01*
X510708Y84556D01*
X511764Y84272D01*
X512858D01*
X513914Y84556D01*
X514861Y85102D01*
X515634Y85875D01*
X516181Y86822D01*
X516464Y87879D01*
Y88972D01*
X516181Y90028D01*
X515634Y90975D01*
X514861Y91748D01*
X513914Y92295D01*
X512858Y92578D01*
D02*
G37*
G36*
X40417D02*
X39323D01*
X38267Y92295D01*
X37320Y91748D01*
X36547Y90975D01*
X36000Y90028D01*
X35717Y88972D01*
Y87879D01*
X36000Y86822D01*
X36547Y85875D01*
X37320Y85102D01*
X38267Y84556D01*
X39323Y84272D01*
X40417D01*
X41473Y84556D01*
X42420Y85102D01*
X43193Y85875D01*
X43740Y86822D01*
X44023Y87879D01*
Y88972D01*
X43740Y90028D01*
X43193Y90975D01*
X42420Y91748D01*
X41473Y92295D01*
X40417Y92578D01*
D02*
G37*
G36*
X437855Y202700D02*
X437145D01*
X436458Y202516D01*
X435842Y202161D01*
X435339Y201658D01*
X434984Y201042D01*
X434800Y200356D01*
Y199644D01*
X434984Y198958D01*
X435339Y198342D01*
X435512Y198170D01*
Y80802D01*
X435339Y80630D01*
X434984Y80014D01*
X434800Y79327D01*
Y78616D01*
X434984Y77930D01*
X435339Y77314D01*
X435842Y76811D01*
X436458Y76456D01*
X437145Y76272D01*
X437855D01*
X438542Y76456D01*
X439158Y76811D01*
X439661Y77314D01*
X440016Y77930D01*
X440200Y78616D01*
Y79327D01*
X440016Y80014D01*
X439661Y80630D01*
X439488Y80802D01*
Y198170D01*
X439661Y198342D01*
X440016Y198958D01*
X440200Y199644D01*
Y200356D01*
X440016Y201042D01*
X439661Y201658D01*
X439158Y202161D01*
X438542Y202516D01*
X437855Y202700D01*
D02*
G37*
G36*
X112856Y715200D02*
X112144D01*
X111458Y715016D01*
X110842Y714661D01*
X110339Y714158D01*
X109984Y713542D01*
X109800Y712855D01*
Y712145D01*
X109984Y711458D01*
X110339Y710842D01*
X110512Y710670D01*
Y80802D01*
X110339Y80630D01*
X109984Y80014D01*
X109800Y79327D01*
Y78616D01*
X109984Y77930D01*
X110339Y77314D01*
X110842Y76811D01*
X111458Y76456D01*
X112144Y76272D01*
X112856D01*
X113542Y76456D01*
X114158Y76811D01*
X114661Y77314D01*
X115016Y77930D01*
X115200Y78616D01*
Y79327D01*
X115016Y80014D01*
X114661Y80630D01*
X114488Y80802D01*
Y710670D01*
X114661Y710842D01*
X115016Y711458D01*
X115200Y712145D01*
Y712855D01*
X115016Y713542D01*
X114661Y714158D01*
X114158Y714661D01*
X113542Y715016D01*
X112856Y715200D01*
D02*
G37*
G36*
X512858Y82578D02*
X511764D01*
X510708Y82295D01*
X509761Y81748D01*
X508988Y80975D01*
X508441Y80028D01*
X508158Y78972D01*
Y77878D01*
X508441Y76822D01*
X508988Y75875D01*
X509761Y75102D01*
X510708Y74555D01*
X511764Y74273D01*
X512858D01*
X513914Y74555D01*
X514861Y75102D01*
X515634Y75875D01*
X516181Y76822D01*
X516464Y77878D01*
Y78972D01*
X516181Y80028D01*
X515634Y80975D01*
X514861Y81748D01*
X513914Y82295D01*
X512858Y82578D01*
D02*
G37*
G36*
X40417D02*
X39323D01*
X38267Y82295D01*
X37320Y81748D01*
X36547Y80975D01*
X36000Y80028D01*
X35717Y78972D01*
Y77878D01*
X36000Y76822D01*
X36547Y75875D01*
X37320Y75102D01*
X38267Y74555D01*
X39323Y74273D01*
X40417D01*
X41473Y74555D01*
X42420Y75102D01*
X43193Y75875D01*
X43740Y76822D01*
X44023Y77878D01*
Y78972D01*
X43740Y80028D01*
X43193Y80975D01*
X42420Y81748D01*
X41473Y82295D01*
X40417Y82578D01*
D02*
G37*
G36*
X125356Y702700D02*
X124644D01*
X123958Y702516D01*
X123342Y702161D01*
X122839Y701658D01*
X122484Y701042D01*
X122300Y700355D01*
Y699645D01*
X122484Y698958D01*
X122839Y698342D01*
X123012Y698170D01*
Y70802D01*
X122839Y70630D01*
X122484Y70014D01*
X122300Y69327D01*
Y68616D01*
X122484Y67930D01*
X122839Y67314D01*
X123342Y66811D01*
X123958Y66456D01*
X124644Y66272D01*
X125356D01*
X126042Y66456D01*
X126658Y66811D01*
X127161Y67314D01*
X127516Y67930D01*
X127700Y68616D01*
Y69327D01*
X127516Y70014D01*
X127161Y70630D01*
X126988Y70802D01*
Y698170D01*
X127161Y698342D01*
X127516Y698958D01*
X127700Y699645D01*
Y700355D01*
X127516Y701042D01*
X127161Y701658D01*
X126658Y702161D01*
X126042Y702516D01*
X125356Y702700D01*
D02*
G37*
G36*
X444430Y209275D02*
X443719D01*
X443033Y209091D01*
X442417Y208735D01*
X441914Y208233D01*
X441559Y207617D01*
X441375Y206930D01*
Y206219D01*
X441559Y205533D01*
X441914Y204917D01*
X442087Y204745D01*
Y70255D01*
X441914Y70083D01*
X441559Y69467D01*
X441375Y68781D01*
Y68070D01*
X441559Y67383D01*
X441914Y66767D01*
X442417Y66265D01*
X443033Y65909D01*
X443719Y65725D01*
X444430D01*
X445117Y65909D01*
X445733Y66265D01*
X446235Y66767D01*
X446591Y67383D01*
X446775Y68070D01*
Y68781D01*
X446591Y69467D01*
X446235Y70083D01*
X446063Y70255D01*
Y204745D01*
X446235Y204917D01*
X446591Y205533D01*
X446775Y206219D01*
Y206930D01*
X446591Y207617D01*
X446235Y208233D01*
X445733Y208735D01*
X445117Y209091D01*
X444430Y209275D01*
D02*
G37*
G36*
X512858Y72578D02*
X511764D01*
X510708Y72295D01*
X509761Y71748D01*
X508988Y70975D01*
X508441Y70028D01*
X508158Y68972D01*
Y67879D01*
X508441Y66822D01*
X508988Y65875D01*
X509761Y65102D01*
X510708Y64556D01*
X511764Y64272D01*
X512858D01*
X513914Y64556D01*
X514861Y65102D01*
X515634Y65875D01*
X516181Y66822D01*
X516464Y67879D01*
Y68972D01*
X516181Y70028D01*
X515634Y70975D01*
X514861Y71748D01*
X513914Y72295D01*
X512858Y72578D01*
D02*
G37*
G36*
X40417D02*
X39323D01*
X38267Y72295D01*
X37320Y71748D01*
X36547Y70975D01*
X36000Y70028D01*
X35717Y68972D01*
Y67879D01*
X36000Y66822D01*
X36547Y65875D01*
X37320Y65102D01*
X38267Y64556D01*
X39323Y64272D01*
X40417D01*
X41473Y64556D01*
X42420Y65102D01*
X43193Y65875D01*
X43740Y66822D01*
X44023Y67879D01*
Y68972D01*
X43740Y70028D01*
X43193Y70975D01*
X42420Y71748D01*
X41473Y72295D01*
X40417Y72578D01*
D02*
G37*
G36*
X348250Y59895D02*
Y58250D01*
X349895D01*
X349619Y58916D01*
X348916Y59619D01*
X348250Y59895D01*
D02*
G37*
G36*
X346750D02*
X346084Y59619D01*
X345381Y58916D01*
X345105Y58250D01*
X346750D01*
Y59895D01*
D02*
G37*
G36*
X303250D02*
Y58250D01*
X304895D01*
X304619Y58916D01*
X303916Y59619D01*
X303250Y59895D01*
D02*
G37*
G36*
X301750D02*
X301084Y59619D01*
X300381Y58916D01*
X300105Y58250D01*
X301750D01*
Y59895D01*
D02*
G37*
G36*
X349895Y56750D02*
X348250D01*
Y55105D01*
X348916Y55381D01*
X349619Y56084D01*
X349895Y56750D01*
D02*
G37*
G36*
X346750D02*
X345105D01*
X345381Y56084D01*
X346084Y55381D01*
X346750Y55105D01*
Y56750D01*
D02*
G37*
G36*
X304895D02*
X303250D01*
Y55105D01*
X303916Y55381D01*
X304619Y56084D01*
X304895Y56750D01*
D02*
G37*
G36*
X301750D02*
X300105D01*
X300381Y56084D01*
X301084Y55381D01*
X301750Y55105D01*
Y56750D01*
D02*
G37*
G36*
X512858Y62578D02*
X511764D01*
X510708Y62295D01*
X509761Y61748D01*
X508988Y60975D01*
X508441Y60028D01*
X508158Y58972D01*
Y57879D01*
X508441Y56822D01*
X508988Y55875D01*
X509761Y55102D01*
X510603Y54616D01*
Y41471D01*
X510356Y41042D01*
X510172Y40356D01*
Y39645D01*
X510356Y38958D01*
X510711Y38342D01*
X511214Y37839D01*
X511830Y37484D01*
X512516Y37300D01*
X513227D01*
X513914Y37484D01*
X514530Y37839D01*
X515032Y38342D01*
X515388Y38958D01*
X515572Y39645D01*
Y40356D01*
X515388Y41042D01*
X515032Y41658D01*
X514580Y42111D01*
Y54940D01*
X514861Y55102D01*
X515634Y55875D01*
X516181Y56822D01*
X516464Y57879D01*
Y58972D01*
X516181Y60028D01*
X515634Y60975D01*
X514861Y61748D01*
X513914Y62295D01*
X512858Y62578D01*
D02*
G37*
G36*
X40417D02*
X39323D01*
X38267Y62295D01*
X37320Y61748D01*
X36547Y60975D01*
X36000Y60028D01*
X35717Y58972D01*
Y57879D01*
X36000Y56822D01*
X36547Y55875D01*
X37320Y55102D01*
X37882Y54778D01*
Y42285D01*
X37666Y42160D01*
X37163Y41658D01*
X36807Y41042D01*
X36623Y40356D01*
Y39645D01*
X36807Y38958D01*
X37163Y38342D01*
X37666Y37839D01*
X38281Y37484D01*
X38968Y37300D01*
X39679D01*
X40365Y37484D01*
X40981Y37839D01*
X41484Y38342D01*
X41839Y38958D01*
X42023Y39645D01*
Y40356D01*
X41858Y40972D01*
Y54778D01*
X42420Y55102D01*
X43193Y55875D01*
X43740Y56822D01*
X44023Y57879D01*
Y58972D01*
X43740Y60028D01*
X43193Y60975D01*
X42420Y61748D01*
X41473Y62295D01*
X40417Y62578D01*
D02*
G37*
G36*
X558631Y734425D02*
X557920D01*
X557233Y734241D01*
X556617Y733885D01*
X556114Y733383D01*
X555759Y732767D01*
X555575Y732081D01*
Y731369D01*
X555759Y730683D01*
X556114Y730067D01*
X556617Y729565D01*
X556956Y729369D01*
Y480969D01*
X556783Y480796D01*
X556428Y480181D01*
X556244Y479494D01*
Y478783D01*
X556428Y478096D01*
X556783Y477481D01*
X556956Y477308D01*
Y40701D01*
X557107Y39940D01*
X557300Y39651D01*
Y39289D01*
X557484Y38602D01*
X557839Y37987D01*
X558342Y37484D01*
X558958Y37128D01*
X559645Y36944D01*
X560356D01*
X561042Y37128D01*
X561658Y37484D01*
X562160Y37987D01*
X562516Y38602D01*
X562700Y39289D01*
Y40000D01*
X562516Y40687D01*
X562160Y41302D01*
X561658Y41805D01*
X561042Y42160D01*
X560932Y42190D01*
Y477308D01*
X561104Y477481D01*
X561460Y478096D01*
X561644Y478783D01*
Y479494D01*
X561460Y480181D01*
X561104Y480796D01*
X560932Y480969D01*
Y730650D01*
X560868Y730971D01*
X560975Y731369D01*
Y732081D01*
X560791Y732767D01*
X560435Y733383D01*
X559933Y733885D01*
X559317Y734241D01*
X558631Y734425D01*
D02*
G37*
%LPD*%
G36*
X540000Y350000D02*
X514261D01*
X514127Y350500D01*
X514738Y350853D01*
X515474Y351589D01*
X515994Y352490D01*
X516264Y353495D01*
Y353516D01*
X512311D01*
X508358D01*
Y353495D01*
X508628Y352490D01*
X509148Y351589D01*
X509884Y350853D01*
X510495Y350500D01*
X510361Y350000D01*
X500000D01*
Y390000D01*
X520000D01*
Y770000D01*
X500000D01*
Y800000D01*
X540000D01*
Y350000D01*
D02*
G37*
%LPC*%
G36*
X516264Y799228D02*
X512811D01*
Y795776D01*
X516264D01*
Y799228D01*
D02*
G37*
G36*
X511811D02*
X508358D01*
Y795776D01*
X511811D01*
Y799228D01*
D02*
G37*
G36*
X516264Y794775D02*
X512811D01*
Y791323D01*
X516264D01*
Y794775D01*
D02*
G37*
G36*
X511811D02*
X508358D01*
Y791323D01*
X511811D01*
Y794775D01*
D02*
G37*
G36*
X512831Y789228D02*
X512811D01*
Y785776D01*
X516264D01*
Y785796D01*
X515994Y786801D01*
X515474Y787703D01*
X514738Y788439D01*
X513837Y788959D01*
X512831Y789228D01*
D02*
G37*
G36*
X511811D02*
X511791D01*
X510785Y788959D01*
X509884Y788439D01*
X509148Y787703D01*
X508628Y786801D01*
X508358Y785796D01*
Y785776D01*
X511811D01*
Y789228D01*
D02*
G37*
G36*
X516264Y784775D02*
X512811D01*
Y781323D01*
X512831D01*
X513837Y781592D01*
X514738Y782113D01*
X515474Y782849D01*
X515994Y783750D01*
X516264Y784755D01*
Y784775D01*
D02*
G37*
G36*
X511811D02*
X508358D01*
Y784755D01*
X508628Y783750D01*
X509148Y782849D01*
X509884Y782113D01*
X510785Y781592D01*
X511791Y781323D01*
X511811D01*
Y784775D01*
D02*
G37*
G36*
X512831Y779228D02*
X512811D01*
Y775775D01*
X516264D01*
Y775796D01*
X515994Y776801D01*
X515474Y777703D01*
X514738Y778439D01*
X513837Y778959D01*
X512831Y779228D01*
D02*
G37*
G36*
X511811D02*
X511791D01*
X510785Y778959D01*
X509884Y778439D01*
X509148Y777703D01*
X508628Y776801D01*
X508358Y775796D01*
Y775775D01*
X511811D01*
Y779228D01*
D02*
G37*
G36*
X516264Y774776D02*
X512811D01*
Y771323D01*
X512831D01*
X513837Y771592D01*
X514738Y772113D01*
X515474Y772849D01*
X515994Y773750D01*
X516264Y774755D01*
Y774776D01*
D02*
G37*
G36*
X511811D02*
X508358D01*
Y774755D01*
X508628Y773750D01*
X509148Y772849D01*
X509884Y772113D01*
X510785Y771592D01*
X511791Y771323D01*
X511811D01*
Y774776D01*
D02*
G37*
G36*
X525750Y626752D02*
Y625107D01*
X527395D01*
X527119Y625773D01*
X526416Y626476D01*
X525750Y626752D01*
D02*
G37*
G36*
X524250D02*
X523584Y626476D01*
X522881Y625773D01*
X522605Y625107D01*
X524250D01*
Y626752D01*
D02*
G37*
G36*
X527395Y623607D02*
X525750D01*
Y621961D01*
X526416Y622237D01*
X527119Y622940D01*
X527395Y623607D01*
D02*
G37*
G36*
X524250D02*
X522605D01*
X522881Y622940D01*
X523584Y622237D01*
X524250Y621961D01*
Y623607D01*
D02*
G37*
G36*
X525750Y617108D02*
Y615463D01*
X527395D01*
X527119Y616129D01*
X526416Y616832D01*
X525750Y617108D01*
D02*
G37*
G36*
X524250D02*
X523584Y616832D01*
X522881Y616129D01*
X522605Y615463D01*
X524250D01*
Y617108D01*
D02*
G37*
G36*
X527395Y613963D02*
X525750D01*
Y612318D01*
X526416Y612594D01*
X527119Y613297D01*
X527395Y613963D01*
D02*
G37*
G36*
X524250D02*
X522605D01*
X522881Y613297D01*
X523584Y612594D01*
X524250Y612318D01*
Y613963D01*
D02*
G37*
G36*
X525750Y602395D02*
Y600750D01*
X527395D01*
X527119Y601416D01*
X526416Y602119D01*
X525750Y602395D01*
D02*
G37*
G36*
X524250D02*
X523584Y602119D01*
X522881Y601416D01*
X522605Y600750D01*
X524250D01*
Y602395D01*
D02*
G37*
G36*
X527395Y599250D02*
X525750D01*
Y597605D01*
X526416Y597881D01*
X527119Y598584D01*
X527395Y599250D01*
D02*
G37*
G36*
X524250D02*
X522605D01*
X522881Y598584D01*
X523584Y597881D01*
X524250Y597605D01*
Y599250D01*
D02*
G37*
G36*
X525750Y592381D02*
Y590735D01*
X527395D01*
X527119Y591401D01*
X526416Y592105D01*
X525750Y592381D01*
D02*
G37*
G36*
X524250D02*
X523584Y592105D01*
X522881Y591401D01*
X522605Y590735D01*
X524250D01*
Y592381D01*
D02*
G37*
G36*
X527395Y589235D02*
X525750D01*
Y587590D01*
X526416Y587866D01*
X527119Y588569D01*
X527395Y589235D01*
D02*
G37*
G36*
X524250D02*
X522605D01*
X522881Y588569D01*
X523584Y587866D01*
X524250Y587590D01*
Y589235D01*
D02*
G37*
G36*
X525750Y582195D02*
Y580550D01*
X527395D01*
X527119Y581216D01*
X526416Y581919D01*
X525750Y582195D01*
D02*
G37*
G36*
X524250D02*
X523584Y581919D01*
X522881Y581216D01*
X522605Y580550D01*
X524250D01*
Y582195D01*
D02*
G37*
G36*
X527395Y579050D02*
X525750D01*
Y577405D01*
X526416Y577681D01*
X527119Y578384D01*
X527395Y579050D01*
D02*
G37*
G36*
X524250D02*
X522605D01*
X522881Y578384D01*
X523584Y577681D01*
X524250Y577405D01*
Y579050D01*
D02*
G37*
G36*
X525750Y572509D02*
Y570864D01*
X527395D01*
X527119Y571530D01*
X526416Y572233D01*
X525750Y572509D01*
D02*
G37*
G36*
X524250D02*
X523584Y572233D01*
X522881Y571530D01*
X522605Y570864D01*
X524250D01*
Y572509D01*
D02*
G37*
G36*
X527395Y569364D02*
X525750D01*
Y567719D01*
X526416Y567994D01*
X527119Y568698D01*
X527395Y569364D01*
D02*
G37*
G36*
X524250D02*
X522605D01*
X522881Y568698D01*
X523584Y567994D01*
X524250Y567719D01*
Y569364D01*
D02*
G37*
G36*
X525750Y562395D02*
Y560750D01*
X527395D01*
X527119Y561416D01*
X526416Y562119D01*
X525750Y562395D01*
D02*
G37*
G36*
X524250D02*
X523584Y562119D01*
X522881Y561416D01*
X522605Y560750D01*
X524250D01*
Y562395D01*
D02*
G37*
G36*
X527395Y559250D02*
X525750D01*
Y557605D01*
X526416Y557881D01*
X527119Y558584D01*
X527395Y559250D01*
D02*
G37*
G36*
X524250D02*
X522605D01*
X522881Y558584D01*
X523584Y557881D01*
X524250Y557605D01*
Y559250D01*
D02*
G37*
G36*
X525750Y552395D02*
Y550750D01*
X527395D01*
X527119Y551416D01*
X526416Y552119D01*
X525750Y552395D01*
D02*
G37*
G36*
X524250D02*
X523584Y552119D01*
X522881Y551416D01*
X522605Y550750D01*
X524250D01*
Y552395D01*
D02*
G37*
G36*
X527395Y549250D02*
X525750D01*
Y547605D01*
X526416Y547881D01*
X527119Y548584D01*
X527395Y549250D01*
D02*
G37*
G36*
X524250D02*
X522605D01*
X522881Y548584D01*
X523584Y547881D01*
X524250Y547605D01*
Y549250D01*
D02*
G37*
G36*
X516264Y377969D02*
X512811D01*
Y374516D01*
X516264D01*
Y377969D01*
D02*
G37*
G36*
X511811D02*
X508358D01*
Y374516D01*
X511811D01*
Y377969D01*
D02*
G37*
G36*
X516264Y373516D02*
X512811D01*
Y370063D01*
X516264D01*
Y373516D01*
D02*
G37*
G36*
X511811D02*
X508358D01*
Y370063D01*
X511811D01*
Y373516D01*
D02*
G37*
G36*
X512831Y367969D02*
X512811D01*
Y364516D01*
X516264D01*
Y364536D01*
X515994Y365542D01*
X515474Y366443D01*
X514738Y367179D01*
X513837Y367699D01*
X512831Y367969D01*
D02*
G37*
G36*
X511811D02*
X511791D01*
X510785Y367699D01*
X509884Y367179D01*
X509148Y366443D01*
X508628Y365542D01*
X508358Y364536D01*
Y364516D01*
X511811D01*
Y367969D01*
D02*
G37*
G36*
X516264Y363516D02*
X512811D01*
Y360063D01*
X512831D01*
X513837Y360332D01*
X514738Y360853D01*
X515474Y361589D01*
X515994Y362490D01*
X516264Y363495D01*
Y363516D01*
D02*
G37*
G36*
X511811D02*
X508358D01*
Y363495D01*
X508628Y362490D01*
X509148Y361589D01*
X509884Y360853D01*
X510785Y360332D01*
X511791Y360063D01*
X511811D01*
Y363516D01*
D02*
G37*
G36*
X512831Y357968D02*
X512811D01*
Y354516D01*
X516264D01*
Y354536D01*
X515994Y355541D01*
X515474Y356443D01*
X514738Y357179D01*
X513837Y357699D01*
X512831Y357968D01*
D02*
G37*
G36*
X511811D02*
X511791D01*
X510785Y357699D01*
X509884Y357179D01*
X509148Y356443D01*
X508628Y355541D01*
X508358Y354536D01*
Y354516D01*
X511811D01*
Y357968D01*
D02*
G37*
%LPD*%
G36*
X70000Y350000D02*
X41820D01*
X41686Y350500D01*
X42297Y350853D01*
X43033Y351589D01*
X43554Y352490D01*
X43823Y353495D01*
Y353516D01*
X39870D01*
X35917D01*
Y353495D01*
X36187Y352490D01*
X36707Y351589D01*
X37443Y350853D01*
X38054Y350500D01*
X37920Y350000D01*
X30000D01*
Y380000D01*
X50000D01*
Y770000D01*
X30000D01*
Y800000D01*
X70000D01*
Y350000D01*
D02*
G37*
%LPC*%
G36*
X43823Y799228D02*
X40370D01*
Y795776D01*
X43823D01*
Y799228D01*
D02*
G37*
G36*
X39370D02*
X35917D01*
Y795776D01*
X39370D01*
Y799228D01*
D02*
G37*
G36*
X43823Y794776D02*
X40370D01*
Y791323D01*
X43823D01*
Y794776D01*
D02*
G37*
G36*
X39370D02*
X35917D01*
Y791323D01*
X39370D01*
Y794776D01*
D02*
G37*
G36*
X40390Y789228D02*
X40370D01*
Y785776D01*
X43823D01*
Y785796D01*
X43553Y786801D01*
X43033Y787703D01*
X42297Y788439D01*
X41396Y788959D01*
X40390Y789228D01*
D02*
G37*
G36*
X39370D02*
X39350D01*
X38344Y788959D01*
X37443Y788439D01*
X36707Y787703D01*
X36187Y786801D01*
X35917Y785796D01*
Y785776D01*
X39370D01*
Y789228D01*
D02*
G37*
G36*
X43823Y784776D02*
X40370D01*
Y781323D01*
X40390D01*
X41396Y781592D01*
X42297Y782113D01*
X43033Y782849D01*
X43553Y783750D01*
X43823Y784755D01*
Y784776D01*
D02*
G37*
G36*
X39370D02*
X35917D01*
Y784755D01*
X36187Y783750D01*
X36707Y782849D01*
X37443Y782113D01*
X38344Y781592D01*
X39350Y781323D01*
X39370D01*
Y784776D01*
D02*
G37*
G36*
X40390Y779228D02*
X40370D01*
Y775776D01*
X43823D01*
Y775796D01*
X43553Y776801D01*
X43033Y777703D01*
X42297Y778439D01*
X41396Y778959D01*
X40390Y779228D01*
D02*
G37*
G36*
X39370D02*
X39350D01*
X38344Y778959D01*
X37443Y778439D01*
X36707Y777703D01*
X36187Y776801D01*
X35917Y775796D01*
Y775776D01*
X39370D01*
Y779228D01*
D02*
G37*
G36*
X43823Y774776D02*
X40370D01*
Y771323D01*
X40390D01*
X41396Y771592D01*
X42297Y772113D01*
X43033Y772849D01*
X43553Y773750D01*
X43823Y774755D01*
Y774776D01*
D02*
G37*
G36*
X39370D02*
X35917D01*
Y774755D01*
X36187Y773750D01*
X36707Y772849D01*
X37443Y772113D01*
X38344Y771592D01*
X39350Y771323D01*
X39370D01*
Y774776D01*
D02*
G37*
G36*
X43823Y377969D02*
X40370D01*
Y374516D01*
X43823D01*
Y377969D01*
D02*
G37*
G36*
X39370D02*
X35917D01*
Y374516D01*
X39370D01*
Y377969D01*
D02*
G37*
G36*
X43823Y373516D02*
X40370D01*
Y370063D01*
X43823D01*
Y373516D01*
D02*
G37*
G36*
X39370D02*
X35917D01*
Y370063D01*
X39370D01*
Y373516D01*
D02*
G37*
G36*
X40391Y367969D02*
X40370D01*
Y364516D01*
X43823D01*
Y364536D01*
X43554Y365542D01*
X43033Y366443D01*
X42297Y367179D01*
X41396Y367699D01*
X40391Y367969D01*
D02*
G37*
G36*
X39370D02*
X39350D01*
X38344Y367699D01*
X37443Y367179D01*
X36707Y366443D01*
X36187Y365542D01*
X35917Y364536D01*
Y364516D01*
X39370D01*
Y367969D01*
D02*
G37*
G36*
X43823Y363516D02*
X40370D01*
Y360063D01*
X40391D01*
X41396Y360332D01*
X42297Y360853D01*
X43033Y361589D01*
X43554Y362490D01*
X43823Y363495D01*
Y363516D01*
D02*
G37*
G36*
X39370D02*
X35917D01*
Y363495D01*
X36187Y362490D01*
X36707Y361589D01*
X37443Y360853D01*
X38344Y360332D01*
X39350Y360063D01*
X39370D01*
Y363516D01*
D02*
G37*
G36*
X40391Y357968D02*
X40370D01*
Y354516D01*
X43823D01*
Y354536D01*
X43554Y355541D01*
X43033Y356443D01*
X42297Y357179D01*
X41396Y357699D01*
X40391Y357968D01*
D02*
G37*
G36*
X39370D02*
X39350D01*
X38344Y357699D01*
X37443Y357179D01*
X36707Y356443D01*
X36187Y355541D01*
X35917Y354536D01*
Y354516D01*
X39370D01*
Y357968D01*
D02*
G37*
%LPD*%
D13*
X19685Y846457D02*
G03*
X500Y826772I250J-19435D01*
G01*
X748032D02*
G03*
X727846Y846457I-19935J-250D01*
G01*
Y1000D02*
G03*
X748032Y19685I750J19435D01*
G01*
X500D02*
G03*
X19685Y1000I18935J250D01*
G01*
X748032Y374016D02*
Y826772D01*
X374016Y846457D02*
X728346D01*
X19685D02*
X374016D01*
X500Y472441D02*
Y826772D01*
X748032Y19685D02*
Y374016D01*
X374016Y1000D02*
X727846D01*
X500Y19685D02*
Y472441D01*
X19685Y1000D02*
X374016D01*
D48*
X375232Y712500D02*
X377700Y714968D01*
Y749645D01*
X668661Y519185D02*
X668839Y519363D01*
Y737678D02*
X669017Y737855D01*
X668839Y519363D02*
Y737678D01*
X372194Y692710D02*
Y722951D01*
Y692710D02*
X372404Y692500D01*
X372559Y723316D02*
Y742381D01*
X372194Y722951D02*
X372559Y723316D01*
X276894Y621830D02*
X276928Y621864D01*
Y636852D01*
X276963Y636887D01*
X291042Y752821D02*
Y797213D01*
X290000Y751779D02*
X291042Y752821D01*
X290000Y707793D02*
Y751779D01*
X343275Y606260D02*
Y731725D01*
X291037Y208963D02*
Y706756D01*
X290000Y707793D02*
X291037Y706756D01*
Y208963D02*
X300000Y200000D01*
X294644Y219942D02*
Y793039D01*
Y219942D02*
X307087Y207500D01*
X265000Y610000D02*
Y620000D01*
X288000Y613740D02*
Y619000D01*
X284963Y195037D02*
Y804268D01*
X285000Y804306D01*
X284963Y195037D02*
X292500Y187500D01*
X305000Y619000D02*
Y628979D01*
X310000Y633979D01*
X280000Y597500D02*
Y640323D01*
X280661Y640984D02*
Y641390D01*
X280000Y640323D02*
X280661Y640984D01*
X558275Y731319D02*
X558944Y730650D01*
X558275Y731319D02*
Y731725D01*
X558944Y40701D02*
Y730650D01*
Y40701D02*
X560000Y39645D01*
X512591Y40280D02*
X512872Y40000D01*
X512311Y58425D02*
X512591Y58145D01*
Y40280D02*
Y58145D01*
X39870Y40547D02*
Y58425D01*
X39323Y40000D02*
X39870Y40547D01*
X368329Y750185D02*
X368390Y750245D01*
X368329Y728098D02*
Y750185D01*
X368269Y728037D02*
X368329Y728098D01*
X310035Y732097D02*
Y812465D01*
X310000Y812500D02*
X310035Y812465D01*
Y732097D02*
X310069Y732062D01*
X242500Y516280D02*
Y729025D01*
X230000Y503780D02*
X242500Y516280D01*
X227713Y514327D02*
X231421Y518036D01*
X227713Y456630D02*
Y514327D01*
X230000Y325000D02*
Y503780D01*
X226220Y455138D02*
X227713Y456630D01*
X231421Y518036D02*
Y692500D01*
X230000Y325000D02*
X236221Y318779D01*
Y97925D02*
Y318779D01*
X226220Y97925D02*
Y455138D01*
X216220Y307836D02*
X220711Y312326D01*
Y744289D01*
X325000Y237500D02*
Y768567D01*
X313107Y789594D02*
Y790000D01*
X335000Y298858D02*
Y772500D01*
X315000Y316967D02*
Y787701D01*
X312294Y313200D02*
Y314261D01*
X313107Y789594D02*
X315000Y787701D01*
X332500Y775000D02*
X335000Y772500D01*
X318037Y500000D02*
Y779228D01*
X312007Y312913D02*
X312294Y313200D01*
Y314261D02*
X315000Y316967D01*
X332500Y296358D02*
X335000Y298858D01*
X347936Y250000D02*
Y746336D01*
X360000Y664134D02*
Y745513D01*
X347717Y746555D02*
X347936Y746336D01*
X365232Y671253D02*
Y745513D01*
X360000Y664134D02*
X364685Y659449D01*
X365232Y671253D02*
X368985Y667500D01*
X369175D01*
X369175Y234175D01*
X436458Y675761D02*
Y832084D01*
X433542Y835000D02*
X436458Y832084D01*
X437312Y674500D02*
Y674906D01*
X436458Y675761D02*
X437312Y674906D01*
X367500Y232500D02*
X369175Y234175D01*
X430000Y776963D02*
X432500Y779463D01*
X430000Y436874D02*
Y776963D01*
X87500Y150000D02*
Y737500D01*
Y97500D02*
Y150000D01*
X100000Y88972D02*
Y725000D01*
X382500Y694544D02*
Y745868D01*
X384138Y692500D02*
Y692906D01*
X382500Y694544D02*
X384138Y692906D01*
X354774Y659538D02*
Y744808D01*
X354685Y659449D02*
X354774Y659538D01*
Y744808D02*
X354862Y744897D01*
X426963Y527382D02*
Y597500D01*
X427500Y457132D02*
Y526844D01*
X426963Y527382D02*
X427500Y526844D01*
X430000Y436874D02*
X440000Y426874D01*
X415000Y541830D02*
Y552000D01*
Y541830D02*
X415000Y541830D01*
X411963Y506875D02*
Y656898D01*
Y506875D02*
X415000Y503838D01*
X411963Y656898D02*
X414640Y659576D01*
Y776307D01*
X360000Y555835D02*
Y620000D01*
X360090Y526457D02*
Y526863D01*
X362085Y528858D01*
X360000Y555835D02*
X362085Y553750D01*
Y528858D02*
Y553750D01*
X422309Y545680D02*
X422500Y545870D01*
X422119Y526457D02*
X422309Y526647D01*
Y545680D01*
X390000Y540000D02*
Y551800D01*
X354685Y629800D02*
Y647500D01*
X330000Y625000D02*
Y642261D01*
X337769Y749615D02*
X338037Y749884D01*
X337769Y225269D02*
Y749615D01*
X337500Y225000D02*
X337769Y225269D01*
X375000Y642500D02*
Y659134D01*
X374685Y659449D02*
X375000Y659134D01*
X422500Y452132D02*
X427500Y457132D01*
X422500Y296358D02*
Y452132D01*
X394685Y640315D02*
X395000Y640000D01*
X394685Y640315D02*
Y659449D01*
X410000Y680000D02*
Y768567D01*
X425537Y700000D02*
Y787500D01*
X417946Y687591D02*
Y789709D01*
Y687591D02*
X418037Y687500D01*
X417856Y789800D02*
X417946Y789709D01*
X708661Y679500D02*
X709161Y680000D01*
X708661Y519185D02*
Y679500D01*
X697500Y692500D02*
X698661Y691339D01*
Y519185D02*
Y691339D01*
X305000Y705000D02*
Y782500D01*
X687500Y705000D02*
X688661Y703839D01*
Y519185D02*
Y703839D01*
X300000Y786573D02*
X300464Y786109D01*
Y720000D02*
Y786109D01*
X677500Y720000D02*
X678661Y718839D01*
Y519185D02*
Y718839D01*
X471658Y737855D02*
Y780436D01*
X470000Y782094D02*
X471658Y780436D01*
X470000Y782094D02*
Y782500D01*
X455692Y489138D02*
Y794083D01*
X445000Y520000D02*
Y772500D01*
X707500Y242500D02*
X708661Y241339D01*
Y97925D02*
Y241339D01*
X272500Y187500D02*
Y800000D01*
Y187500D02*
X285000Y175000D01*
X262500Y745000D02*
Y807500D01*
X698661Y236161D02*
X700000Y237500D01*
X698661Y97925D02*
Y236161D01*
X687500Y232500D02*
X688661Y231339D01*
Y97925D02*
Y231339D01*
X677500Y225000D02*
X678661Y223839D01*
Y97925D02*
Y223839D01*
X440000Y218342D02*
Y426874D01*
X668661Y97925D02*
Y218661D01*
X444075Y68425D02*
Y206575D01*
X437500Y78972D02*
Y200000D01*
X430000Y88972D02*
Y187500D01*
X425000Y100000D02*
Y175000D01*
X216220Y97925D02*
Y307836D01*
X210711Y312326D02*
Y674289D01*
X206221Y97925D02*
Y307836D01*
X210711Y312326D01*
X187500Y482500D02*
Y687500D01*
Y482500D02*
X196221Y473779D01*
Y97925D02*
Y473779D01*
X125000Y68972D02*
Y700000D01*
X112500Y78972D02*
Y712500D01*
X387278Y746772D02*
X387389Y746661D01*
Y725111D02*
Y746661D01*
Y725111D02*
X387500Y725000D01*
X390426Y737611D02*
Y752074D01*
X390315Y752185D02*
X390426Y752074D01*
Y737611D02*
X390537Y737500D01*
D49*
X550000Y145000D02*
Y375000D01*
D50*
X382500Y125000D02*
D03*
X394685Y659449D02*
D03*
X708661Y97925D02*
D03*
Y519185D02*
D03*
X236220D02*
D03*
X236221Y97925D02*
D03*
D51*
X372500Y125000D02*
D03*
X362500D02*
D03*
X352500D02*
D03*
X342500D02*
D03*
X332500D02*
D03*
X354685Y659449D02*
D03*
X364685D02*
D03*
X374685D02*
D03*
X384685D02*
D03*
X698661Y97925D02*
D03*
X688661D02*
D03*
X678661D02*
D03*
X668661D02*
D03*
X512311Y88425D02*
D03*
Y78425D02*
D03*
Y68425D02*
D03*
Y58425D02*
D03*
X709161Y364016D02*
D03*
Y354016D02*
D03*
Y344016D02*
D03*
Y334016D02*
D03*
X512311Y364016D02*
D03*
Y354016D02*
D03*
Y344016D02*
D03*
Y334016D02*
D03*
X698661Y519185D02*
D03*
X688661D02*
D03*
X678661D02*
D03*
X668661D02*
D03*
X709161Y785276D02*
D03*
Y775276D02*
D03*
Y765276D02*
D03*
Y755276D02*
D03*
X236720Y785276D02*
D03*
Y775276D02*
D03*
Y765276D02*
D03*
Y755276D02*
D03*
X236720Y364016D02*
D03*
Y354016D02*
D03*
Y344016D02*
D03*
Y334016D02*
D03*
X226220Y519185D02*
D03*
X216220D02*
D03*
X206220D02*
D03*
X196221D02*
D03*
X226220Y97925D02*
D03*
X216220D02*
D03*
X206221D02*
D03*
X196221D02*
D03*
X39870Y785276D02*
D03*
Y775276D02*
D03*
Y765276D02*
D03*
Y755276D02*
D03*
Y509685D02*
D03*
Y499685D02*
D03*
Y489685D02*
D03*
Y479685D02*
D03*
X39870Y364016D02*
D03*
Y354016D02*
D03*
Y344016D02*
D03*
Y334016D02*
D03*
Y88425D02*
D03*
Y78425D02*
D03*
Y68425D02*
D03*
Y58425D02*
D03*
X512311Y509685D02*
D03*
Y499685D02*
D03*
Y489685D02*
D03*
Y479685D02*
D03*
Y785276D02*
D03*
Y775276D02*
D03*
Y765276D02*
D03*
Y755276D02*
D03*
D52*
X476393Y634357D02*
D03*
Y629357D02*
D03*
Y624357D02*
D03*
D53*
X512311Y98425D02*
D03*
X709161Y374016D02*
D03*
X512311D02*
D03*
X709161Y795276D02*
D03*
X236720D02*
D03*
X236720Y374016D02*
D03*
X39870Y795276D02*
D03*
Y519685D02*
D03*
X39870Y374016D02*
D03*
Y98425D02*
D03*
X512311Y519685D02*
D03*
Y795276D02*
D03*
D54*
X375232Y712500D02*
D03*
X669017Y737855D02*
D03*
X372404Y692500D02*
D03*
X372559Y742381D02*
D03*
X276894Y621830D02*
D03*
X291042Y797213D02*
D03*
X343275Y636887D02*
D03*
Y606260D02*
D03*
X288000Y633910D02*
D03*
Y606260D02*
D03*
X265000Y620000D02*
D03*
Y610000D02*
D03*
X288000Y613740D02*
D03*
Y619000D02*
D03*
X305000D02*
D03*
X310000Y625000D02*
D03*
Y633979D02*
D03*
X280661Y641390D02*
D03*
X276963Y636887D02*
D03*
X558275Y731725D02*
D03*
X560000Y39645D02*
D03*
X558944Y479138D02*
D03*
X512872Y40000D02*
D03*
X39323D02*
D03*
X368390Y750245D02*
D03*
X368269Y728037D02*
D03*
X310069Y732062D02*
D03*
X343275Y731725D02*
D03*
X242500Y729025D02*
D03*
X231421Y692500D02*
D03*
X294644Y793039D02*
D03*
X433542Y835000D02*
D03*
X390200Y812500D02*
D03*
X447500Y804870D02*
D03*
X377700Y749645D02*
D03*
X365232Y745513D02*
D03*
X432500Y779463D02*
D03*
X550000Y375000D02*
D03*
Y145000D02*
D03*
X87500Y150000D02*
D03*
X99727Y140000D02*
D03*
X382500Y745868D02*
D03*
X360000Y745513D02*
D03*
X354862Y744897D02*
D03*
X426963Y597500D02*
D03*
X302500Y57500D02*
D03*
X347500D02*
D03*
X493352Y575945D02*
D03*
X465308Y620000D02*
D03*
X490000Y652721D02*
D03*
X466760Y535000D02*
D03*
X466056Y548021D02*
D03*
X434897Y638623D02*
D03*
X398838Y753356D02*
D03*
X334661Y815000D02*
D03*
X415000Y552000D02*
D03*
X415000Y541830D02*
D03*
X525000Y550000D02*
D03*
Y560000D02*
D03*
Y570114D02*
D03*
Y579800D02*
D03*
Y589985D02*
D03*
Y600000D02*
D03*
Y614713D02*
D03*
Y624357D02*
D03*
X410356Y412500D02*
D03*
X304079Y412640D02*
D03*
X463110Y651063D02*
D03*
X264705Y659996D02*
D03*
X455000Y278642D02*
D03*
X354675D02*
D03*
X301874Y343937D02*
D03*
X407500Y565374D02*
D03*
X382309Y565374D02*
D03*
X359048Y551250D02*
D03*
X464981Y823543D02*
D03*
X422500Y545870D02*
D03*
X422119Y526457D02*
D03*
X390000Y540000D02*
D03*
Y551800D02*
D03*
X360090Y526457D02*
D03*
X354685Y647500D02*
D03*
Y629800D02*
D03*
X310000Y812500D02*
D03*
X313107Y790000D02*
D03*
X318037Y500000D02*
D03*
Y779228D02*
D03*
X330000Y625000D02*
D03*
X338037Y749884D02*
D03*
X330000Y642261D02*
D03*
X375000Y642500D02*
D03*
X360000Y620000D02*
D03*
Y560000D02*
D03*
X280000Y597500D02*
D03*
X422500Y296358D02*
D03*
X312007Y312913D02*
D03*
X332500Y775000D02*
D03*
Y296358D02*
D03*
X395000Y640000D02*
D03*
X410000Y768567D02*
D03*
Y680000D02*
D03*
X709161D02*
D03*
X384138Y692500D02*
D03*
X697500D02*
D03*
X305000Y782500D02*
D03*
Y705000D02*
D03*
X687500D02*
D03*
X300000Y786573D02*
D03*
X300464Y720000D02*
D03*
X677500D02*
D03*
X285000Y804306D02*
D03*
X471658Y737855D02*
D03*
X470000Y782500D02*
D03*
X455692Y794083D02*
D03*
X445000Y520000D02*
D03*
X455692Y489138D02*
D03*
X414640Y776307D02*
D03*
X418037Y687500D02*
D03*
X415000Y503838D02*
D03*
X445000Y772500D02*
D03*
X347717Y746555D02*
D03*
X347936Y250000D02*
D03*
X707500Y242500D02*
D03*
X272500Y800000D02*
D03*
X262500Y807500D02*
D03*
Y745000D02*
D03*
X325000Y768567D02*
D03*
Y237500D02*
D03*
X700000D02*
D03*
X367500Y232500D02*
D03*
X687500D02*
D03*
X337500Y225000D02*
D03*
X677500D02*
D03*
X437312Y674500D02*
D03*
X440000Y218342D02*
D03*
X668661Y218661D02*
D03*
X307087Y207500D02*
D03*
X444075Y206575D02*
D03*
Y68425D02*
D03*
X300000Y200000D02*
D03*
X437500D02*
D03*
Y78972D02*
D03*
X292500Y187500D02*
D03*
X430000D02*
D03*
Y88972D02*
D03*
X285000Y175000D02*
D03*
X425000D02*
D03*
Y100000D02*
D03*
X417856Y789800D02*
D03*
X425537Y787500D02*
D03*
Y700000D02*
D03*
X220711Y744289D02*
D03*
X210711Y674289D02*
D03*
X187500Y687500D02*
D03*
X125000Y700000D02*
D03*
Y68972D02*
D03*
X112500Y712500D02*
D03*
Y78972D02*
D03*
X387278Y746772D02*
D03*
X390537Y737500D02*
D03*
X387500Y725000D02*
D03*
X100000D02*
D03*
Y88972D02*
D03*
X390315Y752185D02*
D03*
X87500Y737500D02*
D03*
Y97500D02*
D03*
M02*
